<svg width="22" height="22" viewBox="0 0 22 22" fill="none" xmlns="http://www.w3.org/2000/svg">
<path d="M18.8916 22H3.10901C2.71296 22 2.3916 21.6786 2.3916 21.2826V0.717406C2.3916 0.321363 2.71296 0 3.10901 0H13.1525C13.3426 0 13.5252 0.075668 13.6597 0.210203L19.3988 5.94932C19.5333 6.08382 19.609 6.26639 19.609 6.45653V21.2826C19.609 21.6786 19.2876 22 18.8916 22Z" fill="#167EE6"/>
<path d="M13.6594 0.210203C13.5249 0.075668 13.3423 0 13.1522 0H11V22H18.8913C19.2873 22 19.6087 21.6786 19.6087 21.2826V6.45653C19.6087 6.26643 19.533 6.08382 19.3985 5.94932L13.6594 0.210203Z" fill="#2860CC"/>
<path d="M19.3984 5.94941L13.6592 0.210203C13.5246 0.075625 13.3421 0 13.1518 0H12.4346L12.4346 6.45653C12.4346 6.8527 12.7558 7.17393 13.152 7.17393H19.6085V6.45653C19.6085 6.2663 19.5329 6.0839 19.3984 5.94941Z" fill="#167EE6"/>
<path d="M11.7173 17.6956H5.97815C5.58211 17.6956 5.26074 17.3742 5.26074 16.9781C5.26074 16.5821 5.58211 16.2607 5.97815 16.2607H11.7173C12.1133 16.2607 12.4347 16.5821 12.4347 16.9781C12.4347 17.3742 12.1134 17.6956 11.7173 17.6956Z" fill="white"/>
<path d="M11.7174 16.2607H11V17.6955H11.7174C12.1134 17.6955 12.4348 17.3741 12.4348 16.9781C12.4348 16.5821 12.1134 16.2607 11.7174 16.2607Z" fill="#E6F3FF"/>
<path d="M16.0217 14.8264H5.97815C5.58211 14.8264 5.26074 14.5051 5.26074 14.109C5.26074 13.713 5.58211 13.3916 5.97815 13.3916H16.0217C16.4177 13.3916 16.7391 13.713 16.7391 14.109C16.739 14.5051 16.4177 14.8264 16.0217 14.8264Z" fill="white"/>
<path d="M16.0218 13.3916H11V14.8264H16.0218C16.4178 14.8264 16.7392 14.505 16.7392 14.109C16.7391 13.713 16.4178 13.3916 16.0218 13.3916Z" fill="#E6F3FF"/>
<path d="M16.0217 11.9563H5.97815C5.58211 11.9563 5.26074 11.6349 5.26074 11.2389C5.26074 10.8428 5.58211 10.5215 5.97815 10.5215H16.0217C16.4177 10.5215 16.7391 10.8428 16.7391 11.2389C16.739 11.6349 16.4177 11.9563 16.0217 11.9563Z" fill="white"/>
<path d="M16.0218 10.5215H11V11.9563H16.0218C16.4178 11.9563 16.7392 11.6349 16.7392 11.2388C16.7391 10.8428 16.4178 10.5215 16.0218 10.5215Z" fill="#E6F3FF"/>
</svg>
