<svg width="21" height="22" viewBox="0 0 21 22" fill="none" xmlns="http://www.w3.org/2000/svg">
<path d="M17.2131 6.12167H0.644523C0.288574 6.12167 0 5.8331 0 5.47715V3.40608C0 2.29991 0.893524 1.38086 2.02526 1.38086H15.8324C16.9408 1.38086 17.8576 2.27653 17.8576 3.40608V5.47715C17.8576 5.8331 17.569 6.12167 17.2131 6.12167Z" fill="white"/>
<path d="M17.8575 5.47715V3.40608C17.8575 2.27653 16.9407 1.38086 15.8322 1.38086H8.92871V6.12167H17.213C17.5689 6.12167 17.8575 5.8331 17.8575 5.47715Z" fill="white"/>
<path d="M15.8324 22.0012H2.02526C0.91677 22.0012 0 21.1054 0 19.976V5.47851C0 5.12256 0.288574 4.83398 0.644523 4.83398H17.2131C17.569 4.83398 17.8576 5.12256 17.8576 5.47851V19.976C17.8576 21.0822 16.9641 22.0012 15.8324 22.0012Z" fill="#CBCBCB"/>
<path d="M17.8575 19.976V5.47851C17.8575 5.12256 17.5689 4.83398 17.213 4.83398H8.92871V22.0012H15.8323C16.964 22.0012 17.8575 21.0822 17.8575 19.976Z" fill="#CBCBCB"/>
<path d="M4.09612 8.8828H3.40575C3.0498 8.8828 2.76123 8.59422 2.76123 8.23827C2.76123 7.88232 3.0498 7.59375 3.40575 7.59375H4.09612C4.45207 7.59375 4.74065 7.88232 4.74065 8.23827C4.74065 8.59422 4.45212 8.8828 4.09612 8.8828Z" fill="#578A9F"/>
<path d="M7.54823 8.8828H6.8579C6.50195 8.8828 6.21338 8.59422 6.21338 8.23827C6.21338 7.88232 6.50195 7.59375 6.8579 7.59375H7.54823C7.90418 7.59375 8.19275 7.88232 8.19275 8.23827C8.19275 8.59422 7.90422 8.8828 7.54823 8.8828Z" fill="#578A9F"/>
<path d="M10.9999 8.8828H10.3096C9.95361 8.8828 9.66504 8.59422 9.66504 8.23827C9.66504 7.88232 9.95361 7.59375 10.3096 7.59375H10.9999C11.3558 7.59375 11.6444 7.88232 11.6444 8.23827C11.6444 8.59422 11.3559 8.8828 10.9999 8.8828Z" fill="#0097FF"/>
<path d="M4.09618 3.36011C3.74023 3.36011 3.45166 3.07154 3.45166 2.71559V0.644523C3.45166 0.288574 3.74023 0 4.09618 0C4.45213 0 4.74071 0.288574 4.74071 0.644523V2.71559C4.74071 3.07154 4.45217 3.36011 4.09618 3.36011Z" fill="#2E8EC1"/>
<path d="M13.7612 3.36011C13.4053 3.36011 13.1167 3.07154 13.1167 2.71559V0.644523C13.1167 0.288574 13.4053 0 13.7612 0C14.1172 0 14.4057 0.288574 14.4057 0.644523V2.71559C14.4057 3.07154 14.1172 3.36011 13.7612 3.36011Z" fill="#2E8EC1"/>
<path d="M14.4516 8.8828H13.7612C13.4053 8.8828 13.1167 8.59422 13.1167 8.23827C13.1167 7.88232 13.4053 7.59375 13.7612 7.59375H14.4516C14.8075 7.59375 15.0961 7.88232 15.0961 8.23827C15.0961 8.59422 14.8076 8.8828 14.4516 8.8828Z" fill="#0097FF"/>
<path d="M4.09661 14.4062H3.40624C3.05029 14.4062 2.76172 14.1177 2.76172 13.7617C2.76172 13.4058 3.05029 13.1172 3.40624 13.1172H4.09661C4.45256 13.1172 4.74113 13.4058 4.74113 13.7617C4.74113 14.1177 4.4526 14.4062 4.09661 14.4062Z" fill="#578A9F"/>
<path d="M7.54872 14.4062H6.85839C6.50244 14.4062 6.21387 14.1177 6.21387 13.7617C6.21387 13.4058 6.50244 13.1172 6.85839 13.1172H7.54872C7.90467 13.1172 8.19324 13.4058 8.19324 13.7617C8.19324 14.1177 7.90471 14.4062 7.54872 14.4062Z" fill="#578A9F"/>
<path d="M4.09661 11.6445H3.40624C3.05029 11.6445 2.76172 11.3559 2.76172 11C2.76172 10.644 3.05029 10.3555 3.40624 10.3555H4.09661C4.45256 10.3555 4.74113 10.644 4.74113 11C4.74113 11.3559 4.4526 11.6445 4.09661 11.6445Z" fill="#578A9F"/>
<path d="M7.54872 11.6445H6.85839C6.50244 11.6445 6.21387 11.3559 6.21387 11C6.21387 10.644 6.50244 10.3555 6.85839 10.3555H7.54872C7.90467 10.3555 8.19324 10.644 8.19324 11C8.19324 11.3559 7.90471 11.6445 7.54872 11.6445Z" fill="#578A9F"/>
<path d="M4.09661 17.166H3.40624C3.05029 17.166 2.76172 16.8774 2.76172 16.5215C2.76172 16.1655 3.05029 15.877 3.40624 15.877H4.09661C4.45256 15.877 4.74113 16.1655 4.74113 16.5215C4.74113 16.8774 4.4526 17.166 4.09661 17.166Z" fill="#578A9F"/>
<path d="M7.54872 17.166H6.85839C6.50244 17.166 6.21387 16.8774 6.21387 16.5215C6.21387 16.1655 6.50244 15.877 6.85839 15.877H7.54872C7.90467 15.877 8.19324 16.1655 8.19324 16.5215C8.19324 16.8774 7.90471 17.166 7.54872 17.166Z" fill="#578A9F"/>
<path d="M9.66471 15.7866H9.61891C8.11898 15.7866 6.90332 14.5734 6.90332 13.0711C6.90332 11.5713 8.11666 10.3555 9.61891 10.3555H9.66471C10.0207 10.3555 10.3092 10.644 10.3092 11V15.1421C10.3092 15.4981 10.0207 15.7866 9.66471 15.7866Z" fill="#2E8EC1"/>
<path d="M9.61895 15.7859H9.66476C10.0207 15.7859 10.3093 15.4973 10.3093 15.1414V13.0703H6.90332C6.90332 14.5726 8.11898 15.7859 9.61895 15.7859Z" fill="#2E8EC1"/>
<path d="M12.2743 19.2389H10.3096C9.95361 19.2389 9.66504 18.9503 9.66504 18.5943V15.7871C9.66504 15.4312 9.95361 15.1426 10.3096 15.1426H12.2743C12.6303 15.1426 12.9188 15.4312 12.9188 15.7871V18.5943C12.9188 18.9503 12.6303 19.2389 12.2743 19.2389Z" fill="#2E8EC1"/>
<path d="M12.9188 15.7866H9.66504V10.3555H12.9188C13.2748 10.3555 13.5634 10.644 13.5634 11V15.1421C13.5634 15.4981 13.2748 15.7866 12.9188 15.7866Z" fill="#0E72B0"/>
<path d="M12.9188 15.7859C13.2748 15.7859 13.5634 15.4973 13.5634 15.1414V13.0703H9.66504V15.7859H12.9188Z" fill="#2E8EC1"/>
<path d="M20.3135 7.00055C20.1234 6.88312 19.8862 6.87246 19.6864 6.97232L12.9189 10.3561V15.7872L19.6864 19.171C19.8864 19.271 20.1237 19.2601 20.3135 19.1428C20.5036 19.0253 20.6192 18.8179 20.6192 18.5945V7.54882C20.6192 7.32543 20.5035 7.11798 20.3135 7.00055Z" fill="#FF6791"/>
<path d="M19.6864 19.1696C19.8864 19.2696 20.1237 19.2588 20.3135 19.1414C20.5036 19.024 20.6192 18.8165 20.6192 18.5931V13.0703H12.9189V15.7859L19.6864 19.1696Z" fill="#FF3378"/>
</svg>
