<svg width="22" height="22" viewBox="0 0 22 22" fill="none" xmlns="http://www.w3.org/2000/svg">
<g clip-path="url(#clip0_8163_1804)">
<path d="M11 22C17.0751 22 22 17.0751 22 11C22 4.92487 17.0751 0 11 0C4.92487 0 0 4.92487 0 11C0 17.0751 4.92487 22 11 22Z" fill="#0096F0"/>
<path d="M11 22V0C17.0654 0 22 4.93457 22 11C22 17.0654 17.0654 22 11 22Z" fill="#3264A0"/>
<path d="M12.3803 17.8582H9.61884C9.26289 17.8582 8.97431 17.5696 8.97431 17.2137V9.57385H6.85741C6.59672 9.57385 6.36168 9.4168 6.26195 9.17596C6.16222 8.93512 6.21735 8.65788 6.40169 8.47355L10.5439 4.33136C10.7955 4.07965 11.2037 4.07965 11.4554 4.33136L15.5976 8.47355C15.7819 8.65788 15.837 8.93512 15.7373 9.17596C15.6375 9.4168 15.4025 9.57385 15.1418 9.57385H13.0249V17.2137C13.0248 17.5696 12.7363 17.8582 12.3803 17.8582Z" fill="#F5F5F5"/>
<path d="M12.3807 17.8582C12.7367 17.8582 13.0252 17.5696 13.0252 17.2137V9.57383H15.1422C15.4029 9.57383 15.6379 9.41678 15.7376 9.17594C15.8374 8.9351 15.7823 8.65786 15.5979 8.47353L11.4557 4.33134C11.3299 4.20548 11.165 4.14258 11 4.14258V17.8582H12.3807Z" fill="#DEDCDE"/>
</g>
<defs>
<clipPath id="clip0_8163_1804">
<rect width="22" height="22" fill="white"/>
</clipPath>
</defs>
</svg>
