<svg width="24" height="24" viewBox="0 0 24 24" fill="none" xmlns="http://www.w3.org/2000/svg">
<path d="M23.28 8.99084H20.4908C20.386 8.69623 20.2661 8.40674 20.1312 8.12439L22.1039 6.15161C22.3852 5.87036 22.3852 5.41443 22.1039 5.13318L18.8668 1.89606C18.5856 1.61517 18.1296 1.61517 17.8484 1.89606L15.8756 3.86884C15.5933 3.73389 15.3038 3.61395 15.0092 3.50922V0.719971C15.0092 0.322632 14.6865 0 14.2892 0H9.71082C9.31348 0 8.99084 0.322632 8.99084 0.719971V3.50922C8.69623 3.61395 8.40674 3.73389 8.12439 3.86884L6.15161 1.89606C6.0163 1.76111 5.83337 1.6853 5.6424 1.6853C5.45142 1.6853 5.26849 1.76111 5.13318 1.89606L1.89606 5.13318C1.61517 5.41443 1.61517 5.87036 1.89606 6.15161L3.86884 8.12439C3.73389 8.40674 3.61395 8.69623 3.50922 8.99084H0.719971C0.322632 8.99084 0 9.31348 0 9.71082V14.2892C0 14.6865 0.322632 15.0092 0.719971 15.0092H3.50922C3.61395 15.3038 3.73389 15.5933 3.86884 15.8756L1.89606 17.8484C1.61517 18.1296 1.61517 18.5856 1.89606 18.8668L5.13318 22.1039C5.26849 22.2389 5.45142 22.3147 5.6424 22.3147C5.83337 22.3147 6.0163 22.2389 6.15161 22.1039L8.12439 20.1312C8.40674 20.2661 8.69623 20.386 8.99084 20.4908V23.28C8.99084 23.6774 9.31348 24 9.71082 24H14.2892C14.6865 24 15.0092 23.6774 15.0092 23.28V20.4908C15.3038 20.386 15.5933 20.2661 15.8756 20.1312L17.8484 22.1039C18.1296 22.3848 18.5856 22.3848 18.8668 22.1039L22.1039 18.8668C22.3852 18.5856 22.3852 18.1296 22.1039 17.8484L20.1312 15.8756C20.2661 15.5933 20.386 15.3038 20.4908 15.0092H23.28C23.6774 15.0092 24 14.6865 24 14.2892V9.71082C24 9.31348 23.6774 8.99084 23.28 8.99084ZM11.9998 15.4056C10.119 15.4056 8.59424 13.8807 8.59424 11.9998C8.59424 10.119 10.119 8.59406 11.9998 8.59406C13.8809 8.59406 15.4056 10.119 15.4056 11.9998C15.4056 13.8807 13.8809 15.4056 11.9998 15.4056Z" fill="#E3ECF9"/>
<path d="M23.28 8.99084H20.4908C20.386 8.69623 20.2661 8.40674 20.1312 8.12439L22.1039 6.15161C22.3852 5.87036 22.3852 5.41443 22.1039 5.13318L18.8668 1.89606C18.5856 1.61517 18.1296 1.61517 17.8484 1.89606L15.8756 3.86884C15.5933 3.73389 15.3038 3.61395 15.0092 3.50922V0.719971C15.0092 0.322632 14.6865 0 14.2892 0H12V8.59424C13.8809 8.59424 15.4056 10.119 15.4056 11.9998C15.4056 13.8807 13.8809 15.4054 12 15.4056V24H14.2892C14.6865 24 15.0092 23.6774 15.0092 23.28V20.4908C15.3038 20.386 15.5933 20.2661 15.8756 20.1312L17.8484 22.1039C18.1296 22.3848 18.5856 22.3848 18.8668 22.1039L22.1039 18.8668C22.3852 18.5856 22.3852 18.1296 22.1039 17.8484L20.1312 15.8756C20.2661 15.5933 20.386 15.3038 20.4908 15.0092H23.28C23.6774 15.0092 24 14.6865 24 14.2892V9.71082C24 9.31348 23.6774 8.99084 23.28 8.99084Z" fill="#C6D9E7"/>
</svg>
