<svg width="24" height="31" viewBox="0 0 24 31" fill="none" xmlns="http://www.w3.org/2000/svg">
<path d="M20.2698 24.0743H6.23556C6.19618 24.0743 6.15685 24.0699 6.1181 24.0611L1.23006 22.9596C1.05333 22.9198 0.896214 22.7919 0.793277 22.604C0.690341 22.4162 0.650014 22.1837 0.681184 21.9579L3.50102 1.51926C3.53228 1.29258 3.63301 1.09121 3.78078 0.959712C3.9286 0.828213 4.11138 0.777481 4.28852 0.818643L20.3909 4.56334C20.7125 4.63817 20.9463 4.99624 20.9463 5.41414V23.2096C20.9464 23.6871 20.6434 24.0743 20.2698 24.0743Z" fill="#E05169"/>
<path d="M20.3901 4.56265L12.2178 2.66211V24.0736H20.2689C20.6426 24.0736 20.9455 23.6864 20.9455 23.2088V5.41345C20.9456 4.9956 20.7117 4.63748 20.3901 4.56265Z" fill="#FF8F45"/>
<path d="M7.09714 30.3209C6.9592 30.3209 6.82361 30.267 6.70904 30.1645C6.56203 30.0329 6.46193 29.8321 6.43076 29.6062L3.61097 9.16764C3.54611 8.69734 3.79185 8.24882 4.15984 8.16592L20.152 4.56206C20.5202 4.47933 20.8709 4.79318 20.9358 5.26348L23.7557 25.7021C23.7868 25.9279 23.7466 26.1604 23.6436 26.3483C23.5407 26.5361 23.3836 26.6641 23.2068 26.7038L7.21465 30.3077C7.17559 30.3165 7.13625 30.3209 7.09714 30.3209Z" fill="#49ABF4"/>
<path d="M20.9353 5.26348C20.8704 4.79318 20.5196 4.47933 20.1515 4.56206L12.2178 6.34995V29.1802L23.2063 26.7039C23.383 26.6641 23.5401 26.5361 23.643 26.3483C23.746 26.1604 23.7863 25.928 23.7551 25.7022L20.9353 5.26348Z" fill="#3685F8"/>
<path d="M7.88201 16.0952C7.5598 16.0952 7.27431 15.8001 7.21644 15.3805C7.15157 14.9102 7.39732 14.4617 7.76531 14.3788L18.4268 11.9762C18.7951 11.8933 19.1458 12.2073 19.2107 12.6776C19.2755 13.1479 19.0298 13.5964 18.6618 13.6793L8.00033 16.082C7.96059 16.0909 7.92103 16.0952 7.88201 16.0952Z" fill="white"/>
<path d="M8.35174 19.5015C8.02953 19.5015 7.74404 19.2063 7.68617 18.7868C7.6213 18.3164 7.86705 17.8679 8.23504 17.785L18.8965 15.3824C19.2648 15.2995 19.6155 15.6135 19.6804 16.0838C19.7453 16.5541 19.4995 17.0027 19.1315 17.0856L8.47001 19.4882C8.43031 19.4972 8.39075 19.5015 8.35174 19.5015Z" fill="white"/>
<path d="M8.82146 22.9077C8.49925 22.9077 8.21377 22.6125 8.15589 22.1929C8.09103 21.7226 8.33678 21.2741 8.70477 21.1912L15.8124 19.5895C16.1807 19.5065 16.5313 19.8206 16.5962 20.2909C16.6611 20.7613 16.4154 21.2097 16.0474 21.2927L8.93973 22.8944C8.90004 22.9033 8.86048 22.9077 8.82146 22.9077Z" fill="white"/>
<path d="M18.4261 11.9762L12.2178 13.3752V15.1313L18.661 13.6793C19.029 13.5964 19.2748 13.1479 19.2099 12.6776C19.1451 12.2073 18.7944 11.8933 18.4261 11.9762Z" fill="white"/>
<path d="M18.8961 15.3814L12.2178 16.8864V18.6426L19.131 17.0846C19.499 17.0017 19.7448 16.5532 19.6799 16.0829C19.615 15.6126 19.2643 15.2985 18.8961 15.3814Z" fill="white"/>
<path d="M15.8122 19.5895L12.2178 20.3994V22.1556L16.0472 21.2926C16.4152 21.2097 16.6609 20.7612 16.596 20.2908C16.5311 19.8206 16.1805 19.5065 15.8122 19.5895Z" fill="white"/>
</svg>
