<svg width="23" height="23" viewBox="0 0 23 23" fill="none" xmlns="http://www.w3.org/2000/svg">
<path d="M19.5179 18.1321H5.54169C5.50247 18.1321 5.4633 18.1287 5.42471 18.1219L0.556852 17.2635C0.380848 17.2325 0.224385 17.1328 0.121874 16.9865C0.0193622 16.8401 -0.0207979 16.6589 0.0102431 16.483L2.81844 0.556809C2.84957 0.380177 2.94988 0.223265 3.09705 0.120798C3.24425 0.0183317 3.42628 -0.0211995 3.60268 0.0108747L19.6386 2.92881C19.9589 2.98712 20.1917 3.26613 20.1917 3.59177V17.4583C20.1918 17.8304 19.8901 18.1321 19.5179 18.1321Z" fill="#BCD6DD"/>
<path d="M19.6386 2.93016L11.5 1.44922V18.1334H19.5179C19.89 18.1334 20.1917 17.8317 20.1917 17.4596V3.59311C20.1918 3.26752 19.9589 2.98846 19.6386 2.93016Z" fill="#486EA1"/>
<path d="M6.40009 23C6.26272 23 6.12769 22.958 6.01359 22.8781C5.86718 22.7756 5.7675 22.6192 5.73646 22.4432L2.92831 6.51704C2.86371 6.15056 3.10845 5.80107 3.47492 5.73647L19.401 2.92828C19.7677 2.86381 20.117 3.10837 20.1817 3.47484L22.9899 19.401C23.0209 19.577 22.9808 19.7581 22.8783 19.9045C22.7758 20.0509 22.6193 20.1506 22.4433 20.1816L6.51711 22.9898C6.47821 22.9966 6.43904 23 6.40009 23Z" fill="#49ABF4"/>
<path d="M20.1815 3.47484C20.1169 3.10837 19.7676 2.86381 19.4009 2.92828L11.5 4.32144V22.1112L22.4431 20.1816C22.6191 20.1506 22.7756 20.0509 22.8781 19.9045C22.9806 19.7581 23.0208 19.577 22.9897 19.4011L20.1815 3.47484Z" fill="#3685F8"/>
<path d="M7.18146 11.9153C6.86059 11.9153 6.57628 11.6853 6.51864 11.3584C6.45405 10.9919 6.69878 10.6424 7.06525 10.5778L17.6827 8.70566C18.0495 8.64106 18.3988 8.88575 18.4633 9.25222C18.5279 9.61869 18.2832 9.96818 17.9167 10.0328L7.29929 11.905C7.25972 11.9119 7.22032 11.9153 7.18146 11.9153Z" fill="white"/>
<path d="M7.64924 14.5696C7.32836 14.5696 7.04405 14.3396 6.98642 14.0127C6.92182 13.6462 7.16655 13.2967 7.53302 13.2321L18.1505 11.36C18.5173 11.2954 18.8665 11.54 18.9311 11.9065C18.9957 12.273 18.751 12.6225 18.3845 12.6871L7.76702 14.5592C7.72749 14.5662 7.68809 14.5696 7.64924 14.5696Z" fill="white"/>
<path d="M8.1175 17.2229C7.79662 17.2229 7.51231 16.9929 7.45468 16.666C7.39008 16.2995 7.63481 15.95 8.00129 15.8854L15.0796 14.6373C15.4463 14.5727 15.7955 14.8174 15.8602 15.1839C15.9248 15.5504 15.68 15.8998 15.3136 15.9645L8.23528 17.2126C8.19575 17.2195 8.15636 17.2229 8.1175 17.2229Z" fill="white"/>
<path d="M17.6827 8.70566L11.5 9.79582V11.1642L17.9167 10.0328C18.2831 9.96818 18.5279 9.61869 18.4633 9.25222C18.3987 8.88575 18.0495 8.64106 17.6827 8.70566Z" fill="white"/>
<path d="M18.1507 11.36L11.5 12.5327V13.9011L18.3847 12.6871C18.7512 12.6225 18.9959 12.273 18.9313 11.9066C18.8667 11.54 18.5175 11.2954 18.1507 11.36Z" fill="white"/>
<path d="M15.0796 14.6373L11.5 15.2685V16.6369L15.3136 15.9644C15.6801 15.8998 15.9248 15.5503 15.8602 15.1838C15.7956 14.8174 15.4463 14.5727 15.0796 14.6373Z" fill="white"/>
</svg>
