<svg width="33" height="23" viewBox="0 0 33 23" fill="none" xmlns="http://www.w3.org/2000/svg">
<path d="M31.9092 6.14234V16.5067C31.9074 16.772 31.8327 17.0316 31.6933 17.2573C31.5538 17.4829 31.355 17.6659 31.1186 17.7861L22.4361 22.1273C22.2522 22.2171 22.0512 22.2661 21.8467 22.2711V10.2105L31.6361 5.30859C31.8129 5.55009 31.9092 5.84191 31.9092 6.14234Z" fill="#C77F67"/>
<path d="M31.6361 5.31643L21.8467 10.2183L10.6055 6.00643C10.7397 5.786 10.9413 5.61463 11.1805 5.51768L20.5673 1.13474C20.7442 1.05141 20.9365 1.0057 21.132 1.0005C21.3275 0.995303 21.5219 1.03073 21.703 1.10455L31.0036 4.82768C31.2568 4.92689 31.4762 5.09649 31.6361 5.31643Z" fill="#FFDDA1"/>
<path d="M21.8467 10.2119V22.2869C21.6349 22.2919 21.4244 22.2528 21.2286 22.1719L11.2236 17.8881C10.963 17.7792 10.7406 17.5954 10.5845 17.3599C10.4284 17.1245 10.3456 16.8481 10.3467 16.5656V6.805C10.3444 6.51586 10.4351 6.23365 10.6055 6L21.8467 10.2119Z" fill="#FFBC44"/>
<path d="M31.9092 6.14234V16.5067C31.9074 16.772 31.8327 17.0316 31.6933 17.2573C31.5538 17.4829 31.355 17.6659 31.1186 17.7861L22.4361 22.1273C22.2522 22.2171 22.0512 22.2661 21.8467 22.2711V10.2105L31.6361 5.30859C31.8129 5.55009 31.9092 5.84191 31.9092 6.14234Z" stroke="#464646" stroke-width="1.4" stroke-linecap="round" stroke-linejoin="round"/>
<path d="M31.6361 5.31643L21.8467 10.2183L10.6055 6.00643C10.7397 5.786 10.9413 5.61463 11.1805 5.51768L20.5673 1.13474C20.7442 1.05141 20.9365 1.0057 21.132 1.0005C21.3275 0.995303 21.5219 1.03073 21.703 1.10455L31.0036 4.82768C31.2567 4.92689 31.4762 5.09649 31.6361 5.31643Z" stroke="#464646" stroke-width="1.4" stroke-linecap="round" stroke-linejoin="round"/>
<path d="M21.8467 10.2119V22.2869C21.6349 22.2919 21.4244 22.2528 21.2286 22.1719L11.2236 17.8881C10.963 17.7792 10.7406 17.5954 10.5845 17.3599C10.4284 17.1245 10.3456 16.8481 10.3467 16.5656V6.805C10.3444 6.51586 10.4351 6.23365 10.6055 6L21.8467 10.2119Z" stroke="#464646" stroke-width="1.4" stroke-linecap="round" stroke-linejoin="round"/>
<path d="M21.8467 22.2878V22.2734" stroke="#464646" stroke-width="1.4" stroke-linecap="round" stroke-linejoin="round"/>
<path d="M26.4881 7.88622L15.8794 3.31641" stroke="#464646" stroke-width="1.4" stroke-linecap="round" stroke-linejoin="round"/>
<path d="M1 12.8984L1.07331 12.9358L6.75575 15.5607" stroke="#464646" stroke-width="1.4" stroke-linecap="round" stroke-linejoin="round"/>
<path d="M3.34619 8.94922L6.75019 10.5204" stroke="#464646" stroke-width="1.4" stroke-linecap="round" stroke-linejoin="round"/>
<path d="M5.12988 4.74219L6.74995 5.48969" stroke="#464646" stroke-width="1.4" stroke-linecap="round" stroke-linejoin="round"/>
</svg>
