<svg width="36" height="36" viewBox="0 0 36 36" fill="none" xmlns="http://www.w3.org/2000/svg">
<path fill-rule="evenodd" clip-rule="evenodd" d="M3 0C2.20435 0 1.44129 0.316071 0.87868 0.87868C0.316071 1.44129 0 2.20435 0 3V33C0 33.7957 0.316071 34.5587 0.87868 35.1213C1.44129 35.6839 2.20435 36 3 36H33C33.7957 36 34.5587 35.6839 35.1213 35.1213C35.6839 34.5587 36 33.7957 36 33V3C36 2.20435 35.6839 1.44129 35.1213 0.87868C34.5587 0.316071 33.7957 0 33 0H3ZM11 4C10.4696 4 9.96086 4.21071 9.58579 4.58579C9.21071 4.96086 9 5.46957 9 6V30C9 30.5304 9.21071 31.0391 9.58579 31.4142C9.96086 31.7893 10.4696 32 11 32H25C25.5304 32 26.0391 31.7893 26.4142 31.4142C26.7893 31.0391 27 30.5304 27 30V6C27 5.46957 26.7893 4.96086 26.4142 4.58579C26.0391 4.21071 25.5304 4 25 4H11Z" fill="white"/>
<path d="M11 6H25V15H11V6ZM15.273 18.636C15.273 19.07 15.1006 19.4863 14.7937 19.7932C14.4868 20.1001 14.0705 20.2725 13.6365 20.2725C13.2025 20.2725 12.7862 20.1001 12.4793 19.7932C12.1724 19.4863 12 19.07 12 18.636C12 18.202 12.1724 17.7857 12.4793 17.4788C12.7862 17.1719 13.2025 16.9995 13.6365 16.9995C14.0705 16.9995 14.4868 17.1719 14.7937 17.4788C15.1006 17.7857 15.273 18.202 15.273 18.636ZM19.636 18.636C19.636 19.0699 19.4636 19.486 19.1568 19.7928C18.85 20.0996 18.4339 20.272 18 20.272C17.5661 20.272 17.15 20.0996 16.8432 19.7928C16.5364 19.486 16.364 19.0699 16.364 18.636C16.364 18.2021 16.5364 17.786 16.8432 17.4792C17.15 17.1724 17.5661 17 18 17C18.4339 17 18.85 17.1724 19.1568 17.4792C19.4636 17.786 19.636 18.2021 19.636 18.636ZM24 18.636C24 19.07 23.8276 19.4863 23.5207 19.7932C23.2138 20.1001 22.7975 20.2725 22.3635 20.2725C21.9295 20.2725 21.5132 20.1001 21.2063 19.7932C20.8994 19.4863 20.727 19.07 20.727 18.636C20.727 18.202 20.8994 17.7857 21.2063 17.4788C21.5132 17.1719 21.9295 16.9995 22.3635 16.9995C22.7975 16.9995 23.2138 17.1719 23.5207 17.4788C23.8276 17.7857 24 18.202 24 18.636ZM15.273 23C15.273 23.434 15.1006 23.8503 14.7937 24.1572C14.4868 24.4641 14.0705 24.6365 13.6365 24.6365C13.2025 24.6365 12.7862 24.4641 12.4793 24.1572C12.1724 23.8503 12 23.434 12 23C12 22.566 12.1724 22.1497 12.4793 21.8428C12.7862 21.5359 13.2025 21.3635 13.6365 21.3635C14.0705 21.3635 14.4868 21.5359 14.7937 21.8428C15.1006 22.1497 15.273 22.566 15.273 23ZM19.636 23C19.636 23.434 19.4636 23.8503 19.1567 24.1572C18.8498 24.4641 18.4335 24.6365 17.9995 24.6365C17.5655 24.6365 17.1492 24.4641 16.8423 24.1572C16.5354 23.8503 16.363 23.434 16.363 23C16.363 22.566 16.5354 22.1497 16.8423 21.8428C17.1492 21.5359 17.5655 21.3635 17.9995 21.3635C18.4335 21.3635 18.8498 21.5359 19.1567 21.8428C19.4636 22.1497 19.636 22.566 19.636 23ZM24 23C24 23.434 23.8276 23.8503 23.5207 24.1572C23.2138 24.4641 22.7975 24.6365 22.3635 24.6365C21.9295 24.6365 21.5132 24.4641 21.2063 24.1572C20.8994 23.8503 20.727 23.434 20.727 23C20.727 22.566 20.8994 22.1497 21.2063 21.8428C21.5132 21.5359 21.9295 21.3635 22.3635 21.3635C22.7975 21.3635 23.2138 21.5359 23.5207 21.8428C23.8276 22.1497 24 22.566 24 23ZM24 27.364C24 27.798 23.8276 28.2143 23.5207 28.5212C23.2138 28.8281 22.7975 29.0005 22.3635 29.0005C21.9295 29.0005 21.5132 28.8281 21.2063 28.5212C20.8994 28.2143 20.727 27.798 20.727 27.364C20.727 26.93 20.8994 26.5137 21.2063 26.2068C21.5132 25.8999 21.9295 25.7275 22.3635 25.7275C22.7975 25.7275 23.2138 25.8999 23.5207 26.2068C23.8276 26.5137 24 26.93 24 27.364ZM12 27.364C12 26.46 12.733 25.727 13.636 25.727H18C18.434 25.727 18.8503 25.8994 19.1572 26.2063C19.4641 26.5132 19.6365 26.9295 19.6365 27.3635C19.6365 27.7975 19.4641 28.2138 19.1572 28.5207C18.8503 28.8276 18.434 29 18 29H13.636C13.2021 29 12.786 28.8276 12.4792 28.5208C12.1724 28.214 12 27.7979 12 27.364Z" fill="white"/>
</svg>
