<svg width="60" height="55" viewBox="0 0 60 55" fill="none" xmlns="http://www.w3.org/2000/svg">
<path d="M55.191 52.2508L55.191 52.2507L55.1878 52.2515L52.7878 52.8515L52.7113 52.8706L52.7612 52.9317L53.6613 54.0317L53.6813 54.0562L53.7121 54.0485L56.4547 53.3629L56.1797 53.5532L53.4188 54.1449L52.3772 52.9139L53.918 52.0472L59.2082 50.8716L58.7609 51.7662L56.5705 53.2827L57.442 51.9271L57.5043 51.8302L57.391 51.8508L55.191 52.2508ZM21.6437 42.878L19.8575 44.1001L20.0498 41.5037L20.0538 41.45H19.9999H14.4999H14.4797L14.4651 41.4641L11.2651 44.5641L11.3193 44.6461L14.3969 43.3555L15.204 43.8039L13.179 45.1539L11.0263 45.741L10.2618 44.2119L13.9216 40.9477L20.1891 40.1518L21.1559 40.7319L21.6437 42.878ZM34.7022 37.9571L32.0981 38.0501L32.0981 38.0482L32.085 38.0523L28.9398 39.0352L28.7569 37.9373L32.6941 36.953L34.7022 37.9571ZM22.5855 51.6132L20.7928 52.7454L19.2847 52.2741L20.4169 50.8589L22.5855 51.6132ZM11.9693 31.0806L12.4986 33.1096L11.1753 31.6099L11.9693 31.0806ZM20.5329 29.8224L19.0499 32.7882V29.0809L20.5329 29.8224ZM18.179 26.7113L18.6239 28.313L17.3781 27.7791L18.179 26.7113ZM2.32107 18.5169L1.96439 20.0328L0.805197 19.5869L2.32107 18.5169ZM42.7953 5.85514L44.5554 6.87408L41.217 7.44638L40.4902 6.71959L42.7953 5.85514ZM7.80249 0.452203L10.0591 1.01635L6.89324 2.64725L4.76687 2.16398L5.03861 1.43931L7.80249 0.452203Z" fill="#ED1C24" fill-opacity="0.56" stroke="black" stroke-width="0.1"/>
</svg>
