<svg width="12" height="11" viewBox="0 0 12 11" fill="none" xmlns="http://www.w3.org/2000/svg">
<path fill-rule="evenodd" clip-rule="evenodd" d="M5.82088 0.00628983C4.96721 0.0357418 4.11796 0.27066 3.39754 0.676622C2.28672 1.30259 1.4924 2.2278 1.04405 3.41791C0.990521 3.56001 0.982971 3.5921 0.982537 3.67954C0.981938 3.79777 1.01319 3.87396 1.09506 3.95393C1.23302 4.08869 1.4438 4.10594 1.60762 3.99584C1.68564 3.94341 1.72885 3.87458 1.79031 3.70492C1.96402 3.22539 2.20329 2.80372 2.52581 2.40877C2.67015 2.23201 3.02035 1.88977 3.19984 1.75007C3.69299 1.36623 4.24976 1.09012 4.84516 0.93414C5.53018 0.754674 6.25541 0.738603 6.95602 0.887358C8.00224 1.10951 8.93055 1.69767 9.58245 2.55143C10.0621 3.17954 10.3641 3.95446 10.4374 4.74475C10.469 5.08588 10.4479 5.56619 10.3865 5.90339C10.1039 7.45544 8.97009 8.74683 7.44341 9.2556C6.61777 9.53073 5.71652 9.56559 4.88621 9.35451C4.13828 9.16435 3.4589 8.79341 2.91583 8.27869C2.56358 7.94482 2.35598 7.68399 2.1161 7.27383C1.96176 7.00996 1.8773 6.94483 1.68844 6.94407C1.609 6.94374 1.58046 6.94959 1.52005 6.97856C1.31042 7.07913 1.23516 7.31109 1.34345 7.523C1.47473 7.77991 1.72872 8.15435 1.94932 8.41622C2.11189 8.60918 2.49506 8.97817 2.69604 9.13531C2.88251 9.28109 3.2303 9.5117 3.42111 9.61608C5.13139 10.5517 7.22245 10.4856 8.86281 9.4442C9.03137 9.33718 9.22901 9.19579 9.35141 9.09464L9.41911 9.03868L10.3909 9.98634C11.0352 10.6147 11.3805 10.9427 11.4156 10.9599C11.5229 11.0123 11.6864 11.0135 11.7872 10.9626C11.8544 10.9287 11.9369 10.8413 11.9705 10.7685C12.01 10.6828 12.0098 10.5447 11.9702 10.457C11.9467 10.4051 11.7787 10.2351 10.9658 9.44053L9.9896 8.48638L10.1058 8.34418C10.5754 7.76957 10.9144 7.10002 11.1006 6.37923C11.1478 6.19654 11.1945 5.9487 11.2245 5.72274C11.2603 5.45298 11.2569 4.80089 11.2183 4.52049C11.1631 4.11917 11.0968 3.83593 10.9775 3.49266C10.3317 1.63364 8.66417 0.297097 6.67942 0.0476272C6.50416 0.0256005 6.0274 -0.00501009 5.94842 0.000695919C5.93088 0.00195423 5.87349 0.00448334 5.82088 0.00628983ZM4.69132 3.21278C4.58523 3.24565 4.46869 3.32218 4.40511 3.40074C4.37227 3.44132 4.19022 3.78223 3.92898 4.29233L3.506 5.11822L1.89254 5.12148L0.27908 5.12473L0.221685 5.15381C0.0769857 5.22712 0 5.34897 0 5.50472C0 5.66046 0.0769857 5.78232 0.221685 5.85563L0.27908 5.8847L2.00093 5.88838C3.92603 5.89248 3.8086 5.89752 3.95635 5.80425C4.09163 5.71884 4.11409 5.683 4.48544 4.95971C4.67627 4.58801 4.83528 4.28394 4.83879 4.28401C4.84229 4.28408 5.06552 4.82366 5.33484 5.48309C5.60418 6.14252 5.84345 6.72277 5.86659 6.77252C5.9399 6.93025 6.08937 7.0552 6.2573 7.09914C6.29409 7.10877 6.36411 7.11288 6.43758 7.10975C6.54447 7.10518 6.56806 7.09961 6.65164 7.05916C6.75244 7.01038 6.83007 6.94528 6.88921 6.85992C6.90951 6.83061 7.14034 6.43942 7.40213 5.9906C7.66394 5.54178 7.88197 5.17028 7.88662 5.16505C7.89128 5.15983 7.99038 5.29475 8.10685 5.4649C8.23887 5.65777 8.33639 5.7875 8.36582 5.80943C8.56317 5.95647 8.84755 5.89989 8.9643 5.69039C9.00803 5.61189 9.02351 5.46564 8.99654 5.38581C8.97035 5.30828 8.33336 4.38395 8.26653 4.32649C8.02959 4.12277 7.68024 4.13795 7.45628 4.36173C7.41837 4.39961 7.25427 4.6682 6.91889 5.24131L6.43609 6.06636L5.9106 4.78322C5.62159 4.07748 5.36792 3.47469 5.34687 3.44366C5.20693 3.23729 4.92863 3.13926 4.69132 3.21278Z" fill="#656565"/>
</svg>
