<svg xmlns="http://www.w3.org/2000/svg" viewBox="0 0 100 100" preserveAspectRatio="xMidYMid" width="148" height="148"
     style="shape-rendering: auto; display: block; background: transparent;">
    <g>
        <defs>
            <clipPath height="100" width="100" y="0" x="0" id="progress-oersv4ab58c-cp">
                <rect height="100" width="0" y="0" x="0">
                    <animate keyTimes="0;0.5;1" values="0;100;100" dur="1.0204081632653061s" repeatCount="indefinite"
                             attributeName="width"></animate>
                    <animate keyTimes="0;0.5;1" values="0;0;100" dur="1.0204081632653061s" repeatCount="indefinite"
                             attributeName="x"></animate>
                </rect>
            </clipPath>
        </defs>
        <path d="M12.298999999999996 41.495000000000005L87.701 41.495000000000005A6.803999999999999 6.803999999999999 0 0 1 94.505 48.29900000000001L94.505 51.70099999999999A6.803999999999999 6.803999999999999 0 0 1 87.701 58.504999999999995L12.298999999999996 58.504999999999995A6.803999999999999 6.803999999999999 0 0 1 5.494999999999997 51.70099999999999L5.494999999999997 48.29900000000001A6.803999999999999 6.803999999999999 0 0 1 12.298999999999996 41.495000000000005 Z"
              stroke-width="2.99" stroke="#e0e0e0" fill="none"></path>
        <path d="M12.298999999999996 45.39000000000001L87.701 45.39000000000001A2.908999999999999 2.908999999999999 0 0 1 90.61 48.29900000000001L90.61 51.70099999999999A2.908999999999999 2.908999999999999 0 0 1 87.701 54.60999999999999L12.298999999999996 54.60999999999999A2.908999999999999 2.908999999999999 0 0 1 9.389999999999997 51.70099999999999L9.389999999999997 48.29900000000001A2.908999999999999 2.908999999999999 0 0 1 12.298999999999996 45.39000000000001 Z"
              clip-path="url(#progress-oersv4ab58c-cp)" fill="#24b16f"></path>
        <g></g>
    </g><!-- [ldio] generated by https://loading.io -->
</svg>