<svg width="131" height="29" viewBox="0 0 131 29" fill="none" xmlns="http://www.w3.org/2000/svg">
<path d="M43.6522 27.0606C41.9888 27.0606 40.4208 26.7669 38.9481 26.1795C37.4754 25.5817 36.1722 24.7478 35.0385 23.6779C33.9155 22.608 33.0361 21.3546 32.4004 19.9176C31.7647 18.4701 31.4469 16.8915 31.4469 15.1818C31.4469 13.4616 31.77 11.883 32.4163 10.446C33.0626 8.99856 33.9473 7.75037 35.0703 6.70147C36.1934 5.64208 37.486 4.82394 38.9481 4.24704C40.4208 3.65966 41.9782 3.36596 43.6204 3.36596C44.9024 3.36596 46.1632 3.54428 47.4028 3.9009C48.6424 4.24704 49.7602 4.75576 50.7561 5.42705L49.294 8.85696C48.6477 8.23811 47.8213 7.75561 46.8148 7.40947C45.8189 7.06334 44.7753 6.89027 43.684 6.89027C42.6033 6.89027 41.565 7.08956 40.5691 7.48814C39.5732 7.87624 38.6832 8.4374 37.8992 9.17163C37.1152 9.89537 36.4901 10.766 36.0239 11.7834C35.5683 12.7903 35.3405 13.9127 35.3405 15.1504C35.3405 16.3461 35.5577 17.4527 35.9921 18.4701C36.4371 19.4876 37.0463 20.3791 37.8197 21.1448C38.5931 21.9 39.4884 22.4874 40.5055 22.907C41.5226 23.3265 42.6033 23.5363 43.7476 23.5363C44.4362 23.5363 45.1302 23.4577 45.8295 23.3003C46.5393 23.143 47.2015 22.9122 47.816 22.608C48.4305 22.2934 48.9444 21.9158 49.3576 21.4752L50.8197 24.9051C49.8344 25.5869 48.7113 26.1166 47.4505 26.4942C46.1897 26.8718 44.9236 27.0606 43.6522 27.0606Z" fill="#898989"/>
<path d="M57.5587 27.0606C56.4568 27.0606 55.4768 26.8456 54.6186 26.4156C53.7604 25.975 53.0876 25.3771 52.6003 24.6219C52.1129 23.8562 51.8692 22.9752 51.8692 21.9787C51.8692 20.9298 52.1553 20.0225 52.7274 19.2568C53.2995 18.4806 54.1471 17.8827 55.2702 17.4632C56.3933 17.0331 57.7653 16.8181 59.3863 16.8181H63.0575V19.4141H59.4817C58.2103 19.4141 57.225 19.6187 56.5257 20.0277C55.8264 20.4368 55.4768 21.0452 55.4768 21.8528C55.4768 22.3353 55.5986 22.7444 55.8423 23.08C56.086 23.4157 56.4197 23.6727 56.8435 23.851C57.2779 24.0293 57.76 24.1185 58.2898 24.1185C58.8407 24.1185 59.4446 23.9978 60.1015 23.7566C60.7584 23.5153 61.3252 23.143 61.802 22.6395C62.2787 22.136 62.5171 21.4962 62.5171 20.72V18.9893L62.3105 18.0925V16.0314C62.3105 15.7063 62.2682 15.3654 62.1834 15.0088C62.1092 14.6521 61.9556 14.3217 61.7225 14.0175C61.5 13.7029 61.1769 13.4511 60.7531 13.2623C60.3293 13.063 59.7783 12.9634 59.1003 12.9634C58.5599 12.9634 57.9931 13.0263 57.3998 13.1522C56.8065 13.2676 56.2343 13.4302 55.6834 13.6399C55.1431 13.8497 54.6716 14.0857 54.269 14.348L52.9817 11.3429C53.4691 11.0701 54.0571 10.8132 54.7458 10.5719C55.445 10.3307 56.2079 10.1366 57.0343 9.98977C57.8607 9.84292 58.703 9.7695 59.5611 9.7695C60.9597 9.7695 62.0774 9.96355 62.9144 10.3516C63.762 10.7397 64.3977 11.2485 64.8215 11.8778C65.2453 12.4966 65.5261 13.1679 65.6638 13.8917C65.8122 14.6049 65.8863 15.2972 65.8863 15.9685V21.4595C65.8863 22.1203 65.9552 22.629 66.0929 22.9856C66.2412 23.3423 66.5114 23.5888 66.9034 23.7251L67.2531 23.851L65.8863 27.0606L65.3937 26.8718C64.5884 26.5572 63.9739 26.1638 63.5501 25.6918C63.1263 25.2198 62.8985 24.7478 62.8668 24.2758L63.5819 24.6691H62.3105L63.1687 24.2286C62.7873 24.9943 62.088 25.6603 61.0709 26.2267C60.0538 26.7827 58.8831 27.0606 57.5587 27.0606Z" fill="#898989"/>
<path d="M69.5263 26.8089V10.0212H73.1975V12.1453H73.8967L72.5935 13.577C72.8478 12.7379 73.261 12.0404 73.8332 11.4845C74.4159 10.918 75.0993 10.4932 75.8833 10.21C76.6779 9.91635 77.5308 9.7695 78.4419 9.7695C79.7345 9.7695 80.8046 10.0579 81.6522 10.6348C82.5104 11.2117 83.1514 11.9669 83.5752 12.9005C83.999 13.834 84.2109 14.8462 84.2109 15.937V26.8089H80.4603V16.7394C80.4603 15.5017 80.153 14.5682 79.5385 13.9389C78.924 13.3095 78.087 12.9949 77.0275 12.9949C76.3283 12.9949 75.6926 13.1417 75.1204 13.4354C74.5483 13.7186 74.098 14.1382 73.7696 14.6941C73.4411 15.25 73.2769 15.937 73.2769 16.7552V26.8089H69.5263Z" fill="#898989"/>
<path d="M91.8717 26.8089L85.2445 10.0212H89.3289L92.269 18.6117L93.588 22.7024H93.7152L95.0342 18.6117L97.9902 10.0212H102.043L95.4316 26.8089H91.8717Z" fill="#898989"/>
<path d="M107.892 27.0606C106.79 27.0606 105.81 26.8456 104.952 26.4156C104.094 25.975 103.421 25.3771 102.933 24.6219C102.446 23.8562 102.202 22.9752 102.202 21.9787C102.202 20.9298 102.488 20.0225 103.061 19.2568C103.633 18.4806 104.48 17.8827 105.603 17.4632C106.726 17.0331 108.098 16.8181 109.719 16.8181H113.391V19.4141H109.815C108.543 19.4141 107.558 19.6187 106.859 20.0277C106.16 20.4368 105.81 21.0452 105.81 21.8528C105.81 22.3353 105.932 22.7444 106.175 23.08C106.419 23.4157 106.753 23.6727 107.177 23.851C107.611 24.0293 108.093 24.1185 108.623 24.1185C109.174 24.1185 109.778 23.9978 110.435 23.7566C111.091 23.5153 111.658 23.143 112.135 22.6395C112.612 22.136 112.85 21.4962 112.85 20.72V18.9893L112.644 18.0925V16.0314C112.644 15.7063 112.601 15.3654 112.517 15.0088C112.442 14.6521 112.289 14.3217 112.056 14.0175C111.833 13.7029 111.51 13.4511 111.086 13.2623C110.662 13.063 110.111 12.9634 109.433 12.9634C108.893 12.9634 108.326 13.0263 107.733 13.1522C107.14 13.2676 106.567 13.4302 106.017 13.6399C105.476 13.8497 105.005 14.0857 104.602 14.348L103.315 11.3429C103.802 11.0701 104.39 10.8132 105.079 10.5719C105.778 10.3307 106.541 10.1366 107.367 9.98977C108.194 9.84292 109.036 9.7695 109.894 9.7695C111.293 9.7695 112.411 9.96355 113.248 10.3516C114.095 10.7397 114.731 11.2485 115.155 11.8778C115.578 12.4966 115.859 13.1679 115.997 13.8917C116.145 14.6049 116.219 15.2972 116.219 15.9685V21.4595C116.219 22.1203 116.288 22.629 116.426 22.9856C116.574 23.3423 116.845 23.5888 117.237 23.7251L117.586 23.851L116.219 27.0606L115.727 26.8718C114.922 26.5572 114.307 26.1638 113.883 25.6918C113.459 25.2198 113.232 24.7478 113.2 24.2758L113.915 24.6691H112.644L113.502 24.2286C113.12 24.9943 112.421 25.6603 111.404 26.2267C110.387 26.7827 109.216 27.0606 107.892 27.0606Z" fill="#898989"/>
<path d="M124.993 27.0606C123.976 27.0606 123.033 26.8771 122.164 26.51C121.295 26.1428 120.548 25.6551 119.923 25.0467C119.308 24.4279 118.864 23.7566 118.588 23.0328L121.767 21.6798C122 22.2672 122.408 22.7916 122.99 23.2531C123.584 23.7146 124.251 23.9454 124.993 23.9454C125.448 23.9454 125.867 23.8615 126.248 23.6937C126.63 23.5153 126.937 23.2793 127.17 22.9856C127.403 22.692 127.52 22.3668 127.52 22.0102C127.52 21.6116 127.382 21.2707 127.106 20.9875C126.841 20.6938 126.502 20.4473 126.089 20.248C125.687 20.0487 125.263 19.8809 124.818 19.7445C124.383 19.6082 124.002 19.4876 123.674 19.3827C122.953 19.1624 122.238 18.8582 121.528 18.4701C120.829 18.082 120.246 17.5733 119.78 16.944C119.314 16.3042 119.081 15.5017 119.081 14.5368C119.081 13.5613 119.335 12.7169 119.844 12.0037C120.352 11.2799 121.03 10.7292 121.878 10.3516C122.725 9.96355 123.663 9.7695 124.691 9.7695C126.11 9.7695 127.334 10.1104 128.362 10.7922C129.39 11.4635 130.115 12.2711 130.539 13.2151L127.424 14.5053C127.212 14.1172 126.894 13.7396 126.471 13.3725C126.047 13.0054 125.485 12.8218 124.786 12.8218C124.182 12.8218 123.663 12.9791 123.229 13.2938C122.805 13.598 122.593 14.028 122.593 14.584C122.593 15.056 122.747 15.4388 123.054 15.7325C123.372 16.0157 123.79 16.257 124.309 16.4562C124.828 16.645 125.39 16.8391 125.994 17.0384C126.439 17.1747 126.942 17.3583 127.504 17.5891C128.076 17.8093 128.627 18.103 129.156 18.4701C129.697 18.8372 130.137 19.304 130.476 19.8704C130.825 20.4263 131 21.1081 131 21.9158C131 22.9227 130.725 23.8143 130.174 24.5905C129.623 25.3667 128.892 25.975 127.98 26.4156C127.069 26.8456 126.073 27.0606 124.993 27.0606Z" fill="#898989"/>
<path d="M9.24354 0H6.32079e-05C6.32079e-05 2.44607 -7.90099e-05 6.73158 6.32079e-05 9.3929C0.000205426 12.0542 1.6719 13.4044 2.95011 13.4044H9.24354V0Z" fill="#1C8BE6"/>
<path d="M9.24354 29H1.33654e-05V19.118C1.33654e-05 16.458 2.09783 15.146 3.14675 15.2112H9.24354V29Z" fill="#1C8BE6"/>
<path d="M19.7322 0H11.0662V13.4044H19.8318C23.2185 13.4044 25.9079 11.702 25.9079 6.45762C25.9079 1.21325 22.2224 0.000618464 19.7322 0Z" fill="#1C8BE6"/>
<path d="M19.7322 29H11.0662V15.2089H19.7322C23.1189 15.2089 25.9079 17.3015 25.9079 22.5443C25.9079 27.7871 22.2224 28.9994 19.7322 29Z" fill="#1C8BE6"/>
</svg>
