<svg width="40" height="40" viewBox="0 0 40 40" fill="none" xmlns="http://www.w3.org/2000/svg">
<path d="M16 28C19.3333 28 22.1667 26.8333 24.5 24.5C26.8333 22.1667 28 19.3333 28 16C28 12.6667 26.8333 9.83333 24.5 7.5C22.1667 5.16667 19.3333 4 16 4C12.6667 4 9.83333 5.16667 7.5 7.5C5.16667 9.83333 4 12.6667 4 16C4 19.3333 5.16667 22.1667 7.5 24.5C9.83333 26.8333 12.6667 28 16 28ZM16 22C15.4333 22 14.9587 21.808 14.576 21.424C14.1933 21.04 14.0013 20.5653 14 20V10C14 9.43333 14.192 8.95867 14.576 8.576C14.96 8.19333 15.4347 8.00133 16 8C16.5653 7.99867 17.0407 8.19067 17.426 8.576C17.8113 8.96133 18.0027 9.436 18 10V20C18 20.5667 17.808 21.042 17.424 21.426C17.04 21.81 16.5653 22.0013 16 22ZM9 22C8.43333 22 7.95867 21.808 7.576 21.424C7.19333 21.04 7.00133 20.5653 7 20V14C7 13.4333 7.192 12.9587 7.576 12.576C7.96 12.1933 8.43467 12.0013 9 12C9.56533 11.9987 10.0407 12.1907 10.426 12.576C10.8113 12.9613 11.0027 13.436 11 14V20C11 20.5667 10.808 21.042 10.424 21.426C10.04 21.81 9.56533 22.0013 9 22ZM23 22C22.4333 22 21.9587 21.808 21.576 21.424C21.1933 21.04 21.0013 20.5653 21 20V16C21 15.4333 21.192 14.9587 21.576 14.576C21.96 14.1933 22.4347 14.0013 23 14C23.5653 13.9987 24.0407 14.1907 24.426 14.576C24.8113 14.9613 25.0027 15.436 25 16V20C25 20.5667 24.808 21.042 24.424 21.426C24.04 21.81 23.5653 22.0013 23 22ZM16 32C11.5333 32 7.75 30.45 4.65 27.35C1.55 24.25 0 20.4667 0 16C0 11.5333 1.55 7.75 4.65 4.65C7.75 1.55 11.5333 0 16 0C20.4667 0 24.25 1.55 27.35 4.65C30.45 7.75 32 11.5333 32 16C32 17.8667 31.7087 19.6333 31.126 21.3C30.5433 22.9667 29.718 24.4833 28.65 25.85L38.6 35.8C38.9667 36.1667 39.15 36.6333 39.15 37.2C39.15 37.7667 38.9667 38.2333 38.6 38.6C38.2333 38.9667 37.7667 39.15 37.2 39.15C36.6333 39.15 36.1667 38.9667 35.8 38.6L25.85 28.65C24.4833 29.7167 22.9667 30.542 21.3 31.126C19.6333 31.71 17.8667 32.0013 16 32Z" fill="#4B4B4B"/>
</svg>
