<svg width="36" height="36" viewBox="0 0 36 36" fill="none" xmlns="http://www.w3.org/2000/svg">
<path d="M10 18C9.43333 18 8.95867 18.192 8.576 18.576C8.19333 18.96 8.00133 19.4347 8 20V26C8 26.5667 8.192 27.042 8.576 27.426C8.96 27.81 9.43467 28.0013 10 28C10.5653 27.9987 11.0407 27.8067 11.426 27.424C11.8113 27.0413 12.0027 26.5667 12 26V20C12 19.4333 11.808 18.9587 11.424 18.576C11.04 18.1933 10.5653 18.0013 10 18ZM26 8C25.4333 8 24.9587 8.192 24.576 8.576C24.1933 8.96 24.0013 9.43467 24 10V26C24 26.5667 24.192 27.042 24.576 27.426C24.96 27.81 25.4347 28.0013 26 28C26.5653 27.9987 27.0407 27.8067 27.426 27.424C27.8113 27.0413 28.0027 26.5667 28 26V10C28 9.43333 27.808 8.95867 27.424 8.576C27.04 8.19333 26.5653 8.00133 26 8ZM18 22C17.4333 22 16.9587 22.192 16.576 22.576C16.1933 22.96 16.0013 23.4347 16 24V26C16 26.5667 16.192 27.042 16.576 27.426C16.96 27.81 17.4347 28.0013 18 28C18.5653 27.9987 19.0407 27.8067 19.426 27.424C19.8113 27.0413 20.0027 26.5667 20 26V24C20 23.4333 19.808 22.9587 19.424 22.576C19.04 22.1933 18.5653 22.0013 18 22ZM4 36C2.9 36 1.95867 35.6087 1.176 34.826C0.393333 34.0433 0.00133333 33.1013 0 32V4C0 2.9 0.392 1.95867 1.176 1.176C1.96 0.393333 2.90133 0.00133333 4 0H32C33.1 0 34.042 0.392 34.826 1.176C35.61 1.96 36.0013 2.90133 36 4V32C36 33.1 35.6087 34.042 34.826 34.826C34.0433 35.61 33.1013 36.0013 32 36H4ZM4 32H32V4H4V32ZM18 18C18.5667 18 19.042 17.808 19.426 17.424C19.81 17.04 20.0013 16.5653 20 16C19.9987 15.4347 19.8067 14.96 19.424 14.576C19.0413 14.192 18.5667 14 18 14C17.4333 14 16.9587 14.192 16.576 14.576C16.1933 14.96 16.0013 15.4347 16 16C15.9987 16.5653 16.1907 17.0407 16.576 17.426C16.9613 17.8113 17.436 18.0027 18 18Z" fill="#4B4B4B"/>
</svg>
