<svg width="36" height="48" viewBox="0 0 36 48" fill="none" xmlns="http://www.w3.org/2000/svg">
<path fill-rule="evenodd" clip-rule="evenodd" d="M17.6236 0.00334365C20.023 -0.0429411 22.4075 0.391711 24.6363 1.28167C26.8651 2.17162 28.8931 3.49886 30.6008 5.18512C32.3084 6.87137 33.6612 8.8825 34.5792 11.0999C35.4972 13.3173 35.9619 15.6961 35.9459 18.0959C35.9338 21.1954 35.1169 24.2386 33.5753 26.9275C32.0337 29.6164 29.8202 31.8589 27.1516 33.4353V36.5931C27.1498 37.6273 26.7381 38.6187 26.0068 39.35C25.2755 40.0813 24.2841 40.493 23.2499 40.4948H12.6933C11.659 40.493 10.6677 40.0813 9.93636 39.35C9.20504 38.6187 8.79339 37.6273 8.79157 36.5931V33.4285C5.4326 31.432 2.81562 28.3955 1.3369 24.7786C-0.141819 21.1617 -0.401747 17.1615 0.596478 13.3837C1.5947 9.60583 3.79672 6.25613 6.86908 3.84179C9.94145 1.42745 13.7168 0.0799527 17.6236 0.00334365ZM24.6933 6.04792C23.1008 5.15395 21.3455 4.58765 19.5308 4.38236C17.7161 4.17706 15.8787 4.33692 14.1267 4.85252C12.3748 5.36813 10.7437 6.22905 9.32946 7.3846C7.91526 8.54015 6.74656 9.96698 5.89217 11.5811C5.03778 13.1951 4.51496 14.9639 4.35451 16.7831C4.19406 18.6023 4.39921 20.4352 4.95789 22.1739C5.51657 23.9126 6.41748 25.522 7.60757 26.9072C8.79767 28.2925 10.2529 29.4256 11.8876 30.2399C12.2437 30.419 12.5434 30.6931 12.7534 31.032C12.9634 31.3709 13.0755 31.7613 13.0773 32.1599V36.2091H22.8659V32.1599C22.8659 31.3439 23.3287 30.5999 24.0624 30.2399C26.3351 29.1207 28.2503 27.3894 29.5926 25.241C30.9348 23.0925 31.6509 20.6121 31.6601 18.0788V18.0685C31.6781 15.6253 31.0415 13.2218 29.8163 11.1079C28.5911 8.99403 26.8222 7.24683 24.6933 6.04792ZM9.09329 45.8571C9.09329 44.6742 10.0533 43.7142 11.2396 43.7142H24.7139C25.2822 43.7142 25.8272 43.94 26.2291 44.3418C26.631 44.7437 26.8567 45.2887 26.8567 45.8571C26.8567 46.4254 26.631 46.9704 26.2291 47.3723C25.8272 47.7742 25.2822 47.9999 24.7139 47.9999H11.2396C10.6713 47.9999 10.1262 47.7742 9.72435 47.3723C9.32248 46.9704 9.09329 46.4254 9.09329 45.8571ZM20.1196 9.05134V10.3713C21.0678 10.5509 21.9524 10.9758 22.6851 11.6039C23.4179 12.232 23.9731 13.0412 24.2956 13.9508C24.4693 14.4824 24.4283 15.0609 24.1814 15.5627C23.9344 16.0645 23.501 16.4498 22.9738 16.6365C22.4466 16.8231 21.8673 16.7962 21.3596 16.5615C20.8519 16.3269 20.4561 15.903 20.2567 15.3805C20.1713 15.1413 20.0142 14.9342 19.8068 14.7875C19.5995 14.6409 19.3519 14.5618 19.0979 14.5611H16.4921C16.2766 14.5574 16.0675 14.6345 15.9059 14.7772C15.7443 14.9198 15.6419 15.1177 15.6187 15.332C15.5955 15.5463 15.6532 15.7615 15.7806 15.9354C15.9079 16.1093 16.0957 16.2293 16.307 16.2719L20.2773 17.1393C21.5172 17.4128 22.6248 18.1058 23.4129 19.1014C24.201 20.097 24.6213 21.3341 24.6027 22.6037C24.5842 23.8733 24.128 25.0976 23.3111 26.0697C22.4943 27.0419 21.367 27.7023 20.1196 27.9393V29.2628C20.1196 29.8311 19.8938 30.3761 19.4919 30.778C19.0901 31.1799 18.545 31.4056 17.9767 31.4056C17.4084 31.4056 16.8634 31.1799 16.4615 30.778C16.0596 30.3761 15.8339 29.8311 15.8339 29.2628V27.9428C14.8856 27.7633 14.001 27.3383 13.2683 26.7102C12.5356 26.0822 11.9803 25.273 11.6579 24.3633C11.556 24.0963 11.5085 23.8116 11.5183 23.526C11.528 23.2404 11.5949 22.9596 11.7148 22.7002C11.8347 22.4407 12.0053 22.2079 12.2165 22.0154C12.4278 21.8229 12.6754 21.6746 12.9448 21.5793C13.2142 21.4839 13.5 21.4434 13.7853 21.4601C14.0706 21.4768 14.3497 21.5505 14.6061 21.6767C14.8625 21.8029 15.0911 21.9791 15.2784 22.195C15.4657 22.4108 15.6079 22.662 15.6967 22.9336C15.8681 23.4136 16.3241 23.7496 16.8521 23.7496H19.0979C19.3988 23.7473 19.6883 23.6346 19.9116 23.4328C20.1348 23.231 20.2762 22.9543 20.3087 22.6551C20.3413 22.356 20.2629 22.0553 20.0883 21.8102C19.9137 21.5651 19.6552 21.3926 19.3619 21.3256L15.3916 20.4582C14.2064 20.199 13.1508 19.5297 12.4109 18.5682C11.6709 17.6068 11.2942 16.415 11.3471 15.203C11.4 13.9909 11.8791 12.8365 12.6999 11.9431C13.5207 11.0498 14.6306 10.4749 15.8339 10.3199V9.05134C15.8339 8.48302 16.0596 7.93798 16.4615 7.53612C16.8634 7.13425 17.4084 6.90849 17.9767 6.90849C18.545 6.90849 19.0901 7.13425 19.4919 7.53612C19.8938 7.93798 20.1196 8.48302 20.1196 9.05134Z" fill="#4B4B4B"/>
</svg>
