<svg width="310" height="205" viewBox="0 0 310 205" fill="none" xmlns="http://www.w3.org/2000/svg">
<mask id="path-1-inside-1_2_463" fill="white">
<path d="M52.2999 204.2L52.5999 201.2L53.6999 201.8L52.2999 204.2ZM59.9999 197.6L57.7999 199.2L57.8999 198.1L59.9999 197.6ZM177 192.6L173.4 194.5L170.3 197.7L166.9 198.6L166.8 197.2L169.3 197.8L173.3 194.3L175.9 192.5L177 192.6ZM0.399902 190.3L1.99991 188.1L2.49991 189.4L0.399902 190.3ZM192 182.6L189.7 184.1L187.6 184L190.5 181.9L192 182.6ZM165.8 180L168 182.9L164.6 180.6L165.8 180ZM8.99991 177.9L8.19992 180.6L6.99991 179.5L7.09991 177.5L8.99991 177.9ZM204.5 172.7L206.3 172.8L208 174.3L207.8 176L206.1 174.5H200.5L199.4 175.9L193.9 176.2L196.3 175L203.5 172.5L204.5 172.7ZM138.7 170.2L137.3 172.7L133.4 176.7L135.9 172L138.5 169.3L138.7 170.2ZM135.1 174.4L137.5 172.2L138 170.4L136.2 172L135.1 174.4ZM226.9 162.4L227.5 163.2L230.8 163.7L230.4 164.3L226.8 164.1L225.5 162.6L226.9 162.4ZM178.8 145.4L179.5 148L178 148.8L177.5 144.9L178.8 145.4ZM178.1 148.3L179.1 147.8L177.8 145.9L178.1 148.3ZM166.9 140.8L171.2 141.4L172.6 144.1L169.8 143.9L164.8 141.2L166.9 140.8ZM170 143.6L172.2 143.8L169.7 141.4L166.3 141L166.5 142L170 143.6ZM101.8 140.4L106.2 141.3L101.1 142.1L100.4 140.3L101.8 140.4ZM279.8 137L279.1 138.7L277.7 139L278.4 137.1L279.8 137ZM155.5 134.4L152.3 135.7L152.8 134.8L155.5 134.4ZM238.7 112.9L239.4 115.5L237.8 115.9L237.4 114.6L238.7 112.9ZM124.6 100L119.4 103.8L116.2 105.3L118.9 101.2L120.7 99.6L118.2 103.2L120.2 103L124.2 99.6L124.6 100ZM290.8 97.2L292.7 97.1L294.2 98.7L289.7 97.7L290.8 97.2ZM259.9 94.5L259.2 97.6L257.8 100.8L258.1 97.7L257.7 95.7L258.9 94.1L259.9 94.5ZM258.2 98.9L259.6 95.2L258 95.8L258.2 98.9ZM243.5 88.1L245.1 89.4L243.5 90.8L241.7 90.6L241.1 88.7L243.5 88.1ZM241.8 90.3L243.6 90.6L244.2 88.6L241.4 88.7L241.8 90.3ZM201.4 84.9L200.8 87.2L200.3 85.4L201.4 84.9ZM162.3 84.5L162.1 78.3L163.1 79L162.3 84.5ZM232.3 75.3L231.2 76.5L231 74.5L232.3 75.3ZM289 71L287.5 69.8L288.7 68.3L290 70L289 71ZM203.1 68.8L201.6 70.3L201 69L203.9 66.7L203.1 68.8ZM195.9 69.3L195.8 67.3L197.2 65.8L195.9 69.3ZM255.6 59.1L255.1 61.7L253.7 62.7L251.7 61.4L253.2 59.1H255.6ZM308.2 58.3L309.7 57.9V59.3L307.9 60.3L306.8 58.2L308.2 58.3ZM273.4 55.7H272.7L272.8 50.2L274.9 54L273.4 55.7ZM296.6 47.7L294.6 46.7L294.9 45.1L297.2 47.2L296.6 47.7ZM258.9 46.8L260.2 51.3L258.6 49.8L257.9 47L256.3 47.1L257.3 53.6L258.2 53.7L256.7 56.2L255.7 49.3L255.8 47L257.2 44.9L258.9 46.8ZM213.7 43.1L212.1 43.2L214.3 41.4L213.7 43.1ZM174.2 40.7L174.1 40.9L172.2 41L173.7 39.6L174.2 40.7ZM280.8 17.8L281.9 14.1L282.7 14.5L280.8 17.8ZM201.5 13L199.9 13.4L199.4 17.5L199.1 14.3L199.8 12.6L201.5 13ZM274.2 14.9L273.9 14.1L275.9 12.2L274.2 14.9ZM283.4 12.9L282.7 12.6L284.5 9.5L283.4 12.9ZM278.1 11.7L277.6 11.2L281.2 8L281.7 8.59998L278.1 11.7ZM284.5 5.70001L283.8 4.90002L286 3.59998L284.5 5.70001ZM288.1 4.70001L286.8 2.40002L288.3 0.0999756L288.6 3.20001L288.1 4.70001Z"/>
</mask>
<path d="M52.2999 204.2L52.5999 201.2L53.6999 201.8L52.2999 204.2ZM59.9999 197.6L57.7999 199.2L57.8999 198.1L59.9999 197.6ZM177 192.6L173.4 194.5L170.3 197.7L166.9 198.6L166.8 197.2L169.3 197.8L173.3 194.3L175.9 192.5L177 192.6ZM0.399902 190.3L1.99991 188.1L2.49991 189.4L0.399902 190.3ZM192 182.6L189.7 184.1L187.6 184L190.5 181.9L192 182.6ZM165.8 180L168 182.9L164.6 180.6L165.8 180ZM8.99991 177.9L8.19992 180.6L6.99991 179.5L7.09991 177.5L8.99991 177.9ZM204.5 172.7L206.3 172.8L208 174.3L207.8 176L206.1 174.5H200.5L199.4 175.9L193.9 176.2L196.3 175L203.5 172.5L204.5 172.7ZM138.7 170.2L137.3 172.7L133.4 176.7L135.9 172L138.5 169.3L138.7 170.2ZM135.1 174.4L137.5 172.2L138 170.4L136.2 172L135.1 174.4ZM226.9 162.4L227.5 163.2L230.8 163.7L230.4 164.3L226.8 164.1L225.5 162.6L226.9 162.4ZM178.8 145.4L179.5 148L178 148.8L177.5 144.9L178.8 145.4ZM178.1 148.3L179.1 147.8L177.8 145.9L178.1 148.3ZM166.9 140.8L171.2 141.4L172.6 144.1L169.8 143.9L164.8 141.2L166.9 140.8ZM170 143.6L172.2 143.8L169.7 141.4L166.3 141L166.5 142L170 143.6ZM101.8 140.4L106.2 141.3L101.1 142.1L100.4 140.3L101.8 140.4ZM279.8 137L279.1 138.7L277.7 139L278.4 137.1L279.8 137ZM155.5 134.4L152.3 135.7L152.8 134.8L155.5 134.4ZM238.7 112.9L239.4 115.5L237.8 115.9L237.4 114.6L238.7 112.9ZM124.6 100L119.4 103.8L116.2 105.3L118.9 101.2L120.7 99.6L118.2 103.2L120.2 103L124.2 99.6L124.6 100ZM290.8 97.2L292.7 97.1L294.2 98.7L289.7 97.7L290.8 97.2ZM259.9 94.5L259.2 97.6L257.8 100.8L258.1 97.7L257.7 95.7L258.9 94.1L259.9 94.5ZM258.2 98.9L259.6 95.2L258 95.8L258.2 98.9ZM243.5 88.1L245.1 89.4L243.5 90.8L241.7 90.6L241.1 88.7L243.5 88.1ZM241.8 90.3L243.6 90.6L244.2 88.6L241.4 88.7L241.8 90.3ZM201.4 84.9L200.8 87.2L200.3 85.4L201.4 84.9ZM162.3 84.5L162.1 78.3L163.1 79L162.3 84.5ZM232.3 75.3L231.2 76.5L231 74.5L232.3 75.3ZM289 71L287.5 69.8L288.7 68.3L290 70L289 71ZM203.1 68.8L201.6 70.3L201 69L203.9 66.7L203.1 68.8ZM195.9 69.3L195.8 67.3L197.2 65.8L195.9 69.3ZM255.6 59.1L255.1 61.7L253.7 62.7L251.7 61.4L253.2 59.1H255.6ZM308.2 58.3L309.7 57.9V59.3L307.9 60.3L306.8 58.2L308.2 58.3ZM273.4 55.7H272.7L272.8 50.2L274.9 54L273.4 55.7ZM296.6 47.7L294.6 46.7L294.9 45.1L297.2 47.2L296.6 47.7ZM258.9 46.8L260.2 51.3L258.6 49.8L257.9 47L256.3 47.1L257.3 53.6L258.2 53.7L256.7 56.2L255.7 49.3L255.8 47L257.2 44.9L258.9 46.8ZM213.7 43.1L212.1 43.2L214.3 41.4L213.7 43.1ZM174.2 40.7L174.1 40.9L172.2 41L173.7 39.6L174.2 40.7ZM280.8 17.8L281.9 14.1L282.7 14.5L280.8 17.8ZM201.5 13L199.9 13.4L199.4 17.5L199.1 14.3L199.8 12.6L201.5 13ZM274.2 14.9L273.9 14.1L275.9 12.2L274.2 14.9ZM283.4 12.9L282.7 12.6L284.5 9.5L283.4 12.9ZM278.1 11.7L277.6 11.2L281.2 8L281.7 8.59998L278.1 11.7ZM284.5 5.70001L283.8 4.90002L286 3.59998L284.5 5.70001ZM288.1 4.70001L286.8 2.40002L288.3 0.0999756L288.6 3.20001L288.1 4.70001Z" fill="#ED1C24" fill-opacity="0.56" stroke="black" stroke-width="0.2" mask="url(#path-1-inside-1_2_463)"/>
</svg>
