<svg id="Layer_1" enable-background="new 0 0 68 68" height="512" viewBox="0 0 68 68" width="512" xmlns="http://www.w3.org/2000/svg"><g><g><g><path d="m31.1705914 18.5319233v16.7010708c0 .3033676-.2401676.5432281-.5432301.5432281h-4.4324608c-.3030605 0-.5429192-.2398605-.5429192-.5432281v-16.7010708c0-.2904205.2398586-.5302792.5429192-.5302792h4.4324608c.3030624 0 .5432301.2398587.5432301.5302792z" fill="#ed524e"/><path d="m40.3682709 12.218298v23.0146961c0 .3033676-.2401657.5432281-.5432281.5432281h-4.4324608c-.3030624 0-.5429192-.2398605-.5429192-.5432281v-23.0146961c0-.2904205.2398567-.5302801.5429192-.5302801h4.4324608c.3030624-.0000001.5432281.2398595.5432281.5302801z" fill="#fdc72e"/><path d="m49.5659523 18.5319233v16.7010708c0 .3033676-.2401657.5432281-.5432281.5432281h-4.4324608c-.3030624 0-.542923-.2398605-.542923-.5432281v-16.7010708c0-.2904205.2398605-.5302792.542923-.5302792h4.4324608c.3030624 0 .5432281.2398587.5432281.5302792z" fill="#7bd681"/><path d="m58.7636337 12.218298v23.0146961c0 .3033676-.2401695.5432281-.5432281.5432281h-4.4324608c-.3030624 0-.542923-.2398605-.542923-.5432281v-23.0146961c0-.2904205.2398605-.5302801.542923-.5302801h4.4324608c.3030586-.0000001.5432281.2398595.5432281.5302801z" fill="#70c1f9"/></g><g><path d="m28.4111404 14.3516226c-.1515026 0-.3035336-.0578661-.4187393-.1735983-.2314644-.2314644-.2314644-.6065416 0-.838006l9.3116989-9.3124872c.2230453-.2219949.6160088-.2219949.8380051 0l8.2453842 8.2451229 9.0476189-9.0481453c.2314644-.2314641.6075935-.2314641.8380051 0 .2314644.2314641.2314644.6065414 0 .8380053l-9.4668846 9.4671478c-.2219925.2219954-.6154823.2219954-.8374786 0l-8.2453842-8.245121-8.8929596 8.8934841c-.1157304.1157316-.2677613.1735977-.4192659.1735977z" fill="#4f5d99"/></g><g><path d="m57.4743614 2.5900862-1.2280769 3.7171042c-.1078415.3124766-.5171127.4092708-.7543602.1725459l-2.4777222-2.4782448c-.2372475-.2367246-.1401901-.6465213.1722832-.7538366l3.7168427-1.2283382c.3448295-.1078413.6788749.2262037.5710334.5707695z" fill="#4f5d99"/></g></g><g><g><g><path d="m25.8962765 54.9394684 1.9886627-1.7326775 12.3763599-2.3991241c2.7090569-.3593636 5.2303238-1.5817337 7.1903534-3.4860497l16.0462265-15.5901355c1.5897903-1.5446033 1.5815964-4.0997124-.0180702-5.6340847l-.0005074-.0004902c-1.4848213-1.4242153-3.8186302-1.4563293-5.3420753-.0735092l-8.3667107 7.5943966h-18.554533c-4.0960255 0-8.0242863 1.62714-10.9206142 4.523468l-6.0560617 5.7152596c-.9084253.913063-.8824997 2.3963013.0572796 3.2770576l8.4042768 7.8764725c.9068813.8499297 2.3269462.8185615 3.1954136-.0705834z" fill="#ffcbba"/><path d="m48.4889526 33.6178741c.9030762-.1191406 1.8669434.2363281 2.5690918.8955078.6977539.6679688 1.1030273 1.6728516 1.0368652 2.6772461-.0366211 1.0117188-.5722656 1.9887695-1.3769531 2.6225586-.4025879.3198242-.8811035.5429688-1.3820801.6655273-.2509766.0610352-.5085449.09375-.7663574.1020508l-.6833496.0097656c-3.5881348-.0141602-7.1765137-.1044922-10.7648926-.5 3.5883789-.3955078 7.1767578-.4853516 10.7648926-.4995117l.6621094.0024414c.1906738-.003418.3806152-.0234375.565918-.0654297.3723145-.0810547.722168-.2480469 1.0349121-.46875.6313477-.4404297 1.0617676-1.1572266 1.171875-1.9394531.2631836-1.5771484-.9907227-3.3305663-2.8320313-3.5019531z" fill="#efb7a8"/></g><path d="m17.556385 65.5342789-13.6951358-12.8350106c-.6960771-.6523628-.731524-1.7454834-.0791728-2.4415703l6.2670369-6.687191c.6523638-.6960983 1.7455101-.7315445 2.4416008-.079174l13.6951342 12.8350143c.6960773.6523628.7315254 1.7454834.079174 2.4415703l-6.2670383 6.687191c-.6523629.6960984-1.7455102.7315445-2.441599.0791703z" fill="#70c1f9"/></g><g><path d="m49.8259659 36.5264664c0 .5395279-.2199631 1.0297432-.5700455 1.3798256-.359848.359848-.8498192.5800552-1.3898392.5800552h-1.5531578c-.7223854 0-.7223854-3.9202538 0-3.9202538h1.5531578c1.0800362 0 1.9598847.8803368 1.9598847 1.960373z" fill="#efb7a8"/></g></g></g></svg>