<svg id="Layer_1" enable-background="new 0 0 68 68" height="512" viewBox="0 0 68 68" width="512" xmlns="http://www.w3.org/2000/svg"><g><circle cx="34" cy="34" fill="#8fc8f5" r="32"/><path d="m61.2843971 17.039978c-5.6901436 9.0300293-15.783535 15.0300293-27.2843971 15.0300293s-21.5942535-6-27.2843971-15.0300293c5.6800813-9.0299682 15.783535-15.039978 27.2843971-15.039978s21.6043167 6.0100098 27.2843971 15.039978z" fill="#d0f6ff"/><path d="m54.0021973 56.757431c0 .7092247-8.9569054 1.2845383-20.0021973 1.2845383s-20.0021973-.5753136-20.0021973-1.2845383c0-.7092705 8.9569035-1.2766457 20.0021973-1.2766457s20.0021973.5673753 20.0021973 1.2766457z" opacity=".15"/><g><g><path d="m17.3359566 17.3356133c-5.6616688 5.661541-5.6618748 14.8513298-.0003757 20.5129204 5.6614628 5.6615524 14.8513165 5.6615639 20.5129871.0000191 5.661705-5.6615791 5.6618347-14.851368.0003738-20.5129204-5.661499-5.6615926-14.8512783-5.6616011-20.5129852-.0000191zm17.6724014 17.6726875c-4.0963535 4.0962601-10.7362614 4.0962563-14.8324642-.0000153s-4.0960827-10.7361565.0002708-14.8324203 10.7362614-4.0962563 14.8324642.0000153 4.0960846 10.7361564-.0002708 14.8324203z" fill="#20273a"/></g><path d="m36.937 35.757h3.559v5.918h-3.559z" fill="#20273a" transform="matrix(.707 -.707 .707 .707 -16.037 38.716)"/><path d="m43.4517403 37.3167839 11.1462593 11.1464348c.4165459.4165535.4165726 1.0982246.0000076 1.5147781l-4.6202431 4.6201439c-.4165993.4165878-1.0982742.4165497-1.5148201-.0000038l-11.1462593-11.1464386c-.422863-.4228706-.4165344-1.0981865.0000687-1.5147743l4.6202431-4.6201439c.4165611-.4165535 1.0918769-.4228706 1.5147438.0000038z" fill="#8c4cd1"/><ellipse cx="27.592" cy="27.592" fill="#fff" rx="11.117" ry="11.117" transform="matrix(.767 -.642 .642 .767 -11.277 24.155)"/></g><g fill="#6e35b8"><path d="m37.326 40.92h8.676v1.487h-8.676z" transform="matrix(.707 -.707 .707 .707 -17.257 41.663)"/><path d="m45.845 49.439h8.676v1.487h-8.676z" transform="matrix(.707 -.707 .707 .707 -20.786 50.182)"/></g><g><g><path d="m37.8954544 14.7308054c-.2032967-.2032976-.2032967-.5323095.0000038-.7356081l2.6364441-2.6364079c.2033005-.2032976.5323143-.2032976.735611.000001.2033005.2032976.2032967.5323095-.0000038.7356081l-2.6364441 2.6364079c-.2033005.2032976-.5323143.2032976-.735611-.000001z" fill="#fff"/></g><g><g><path d="m35.4058418 12.2411909c-.0941086-.0941057-.1522942-.2241306-.1522942-.3678036l.0003853-3.7279682c0-.2873468.2327576-.5200977.5201035-.5200977.2873497 0 .5200996.2327514.5200996.5200977l-.0003853 3.7279682c0 .2873468-.2327538.5200977-.5201035.5200977-.1436766.0000001-.2737006-.0581874-.3678054-.1522941z" fill="#fff"/></g><g><path d="m40.3847084 17.2200603c-.0941048-.0941048-.1522942-.2241306-.1522942-.3678036.0000038-.2873459.2327576-.5200977.5201073-.5200977l3.7283516.0000019c.2873459 0 .5200996.2327499.5200958.5200977 0 .2873459-.2327538.5200977-.5201035.5200977l-3.7283516-.0000019c-.1436729.0000001-.2737006-.0581874-.3678054-.1522941z" fill="#fff"/></g></g></g><g><path d="m28.3047466 18.6579189-.0000114 7.7271118 7.7213917.0000324c.0000038-4.2656821-3.455494-7.7271251-7.7213803-7.7271442z" fill="#fed110"/><path d="m34.6011772 27.8041763-7.7213898.0058022-5.4604092 5.4601555c1.3988152 1.3928299 3.3274555 2.2611122 5.4603977 2.2611198 4.2658863.0000191 7.7213974-3.4613953 7.7214012-7.7212429v-.0058346z" fill="#b5e237"/><path d="m21.4231892 33.268795 5.4555645-5.4639683.0001125-7.7219601c-1.9739437.0042534-3.9516106.7540531-5.4597855 2.26227-3.0163498 3.0164356-3.0121326 7.9074097-.0000172 10.9195347z" fill="#0f9be8"/></g></g></svg>