<svg id="Layer_1" enable-background="new 0 0 68 68" height="512" viewBox="0 0 68 68" width="512" xmlns="http://www.w3.org/2000/svg"><g><g><g><path d="m6.604 15.469h50.766v43.8h-50.766z" fill="#c0d7dd"/></g><g><path d="m6.604 15.468h50.765v43.8h-50.765z" fill="#e9e9ff"/></g><g><path d="m6.604 15.468h50.765v43.8h-50.765z" fill="#e9e9ff"/></g><g><path d="m10.943 18.173h8.95v1.25h-8.95z" fill="#ed524e"/></g><g><path d="m10.943 21.193h6.89v1.25h-6.89z" fill="#7bd681"/></g><g><g><path d="m39.527 41.133h6.16v2.122h-6.16z" fill="#4f5d99"/></g><g><path d="m13.907 45.391h4.184v2.122h-4.184z" fill="#4f5d99"/></g><g><path d="m22.393 22.785h2.122v2.121h-2.122z" fill="#4f5d99"/></g><g><path d="m18.6622543 35.9830627v-2.1218872h3.7311573v-6.7600193h2.1215268v2.8534699h9.5399017v-6.7600212h2.1215286v8.8819027h-3.1163826v2.6041298h-2.1215286v-2.6041298h-6.4235191v3.9065551z" fill="#4f5d99"/></g><g><path d="m33.0599861 41.1327362h4.2723427v2.1218834h-4.2723427v4.2580566h-5.8673305v7.4473114h-2.1218834v-7.4473114h-4.7845993v-2.1218834h10.6522846v-8.5153961h2.1215286z" fill="#4f5d99"/></g><g><path d="m13.907 33.861h2.122v2.122h-2.122z" fill="#4f5d99"/></g></g><g><path d="m6.604 15.468h2.519v43.8h-2.519z" fill="#cfcfff"/></g><g><path d="m49.686 15.468h7.684v43.8h-7.684z" fill="#cfcfff"/></g><g><path d="m6.6042848 11.8697281v37.5239296c-1.3642287 0-2.5985284.5538101-3.4906471 1.4465714-.8966238.8959618-1.4471997 2.1302681-1.4471997 3.4944954v-37.5271493c0-2.7278089 2.2100328-4.9378471 4.9378468-4.9378471" fill="#e9e9ff"/></g><g><path d="m6.6042848 49.3935776v9.8782654c-2.727814 0-4.9378467-2.2093887-4.9378467-4.9371986 0-1.3635788.5505759-2.5985107 1.4471997-3.4944916.8921186-.8927651 2.1264182-1.4465752 3.490647-1.4465752" fill="#cfcfff"/></g><g><path d="m62.5372047 15.6004763c0-1.4272566-.576313-2.7187996-1.5134583-3.6565895-.9339218-.9339237-2.2254639-1.5134478-3.6527328-1.5134478-1.4272537 0-2.7187996.579524-3.6527328 1.5134478-.9371414.9377899-1.5134468 2.2293329-1.5134468 3.6565895v38.505455c0 2.8545303 2.3116684 5.1661873 5.1661797 5.1661873 2.8545265 0 5.1661911-2.311657 5.1661911-5.1661873v-38.505455z" fill="#e9e9ff"/></g><g><path d="m62.5372047 54.105793c0 2.8545303-2.3116646 5.1661873-5.1661911 5.1661873-2.8545113 0-5.1661797-2.311657-5.1661797-5.1661873 0-1.4272575.5763054-2.7187996 1.5134468-3.6565895.9339333-.9332771 2.2254791-1.5134468 3.6527328-1.5134468 1.427269 0 2.718811.5801697 3.6527328 1.5134468.9371454.9377899 1.5134584 2.229332 1.5134584 3.6565895" fill="#bdbdff"/></g><g><path d="m62.5350151 54.1023178c0 2.6757126-2.0325127 4.8754654-4.6374741 5.13274 1.6337242-.2572746 2.8815308-1.6723213 2.8815308-3.3703575 0-.945507-.3794823-1.7945366-.9969597-2.418438-.3987808-.3923454-.8940468-.6946487-1.4472008-.8554497-.5595818-.1672363-.964798-.6624947-.964798-1.2478065v-2.4055824c1.4279022 0 2.7207413.5788956 3.6533775 1.5115242.9390679.9390869 1.5115243 2.2319031 1.5115243 3.6533699" fill="#cfcfff"/></g></g><g><g><g><path d="m41.171 24.893h23.033v2.1h-23.033z" fill="#fdc72e" transform="matrix(.486 -.874 .874 .486 4.394 59.361)"/></g><g><path d="m43.006 25.915h23.033v2.1h-23.033z" fill="#f9ac00" transform="matrix(.486 -.874 .874 .486 4.444 61.489)"/></g><g><path d="m44.84 26.936h23.033v2.1h-23.033z" fill="#fdc72e" transform="matrix(.486 -.874 .874 .486 4.494 63.617)"/></g><g><path d="m58.852 11.585h4.955v6.3h-4.955z" fill="#e9e9ff" transform="matrix(.486 -.874 .874 .486 18.626 61.156)"/></g><g><path d="m65.2863541 14.1032095.8578796-1.5411949c.4022751-.7226982.1425018-1.6348028-.5802155-2.0372419l-2.8871002-1.6076546c-.7227173-.4024401-1.6347084-.1428185-2.0369873.5798798l-.8578796 1.541194z" fill="#ed524e"/></g><g><g><path d="m61.318 10.798h.9v6.3h-.9z" fill="#cfcfff" transform="matrix(.486 -.874 .874 .486 19.539 61.134)"/></g><g><path d="m60.44 12.375h.9v6.3h-.9z" fill="#cfcfff" transform="matrix(.487 -.874 .874 .487 17.703 61.17)"/></g></g></g><g><path d="m46.7207909 42.4024315 4.952343-3.8428383-5.5042992-3.0650139-.6607285 6.2324181c-.0105171.099205.0392342.1951065.1263962.2436409l.8127708.4525833c.0871125.0485077.1947594.0403252.2735177-.0207901z" fill="#ffcbba"/></g><g><path d="m46.3857574 42.3865852-.3703918.6654129c-.1062241.190834-.3451576.2586594-.535881.1524582-.1861801-.103672-.2542877-.3424759-.1480675-.5333061l.3703918-.6654129z" fill="#4f5d99"/></g></g><g opacity=".3"><g><path d="m40.5567284 59.2723618h-15.4499512l-14.7299795-43.7998066h15.4499502z" fill="#fff"/></g><g><path d="m48.9168358 59.2723618h-4.380127l-14.7397461-43.7998066h4.3898926z" fill="#fff"/></g></g></g></svg>