<svg id="Layer_1" enable-background="new 0 0 68 68" height="512" viewBox="0 0 68 68" width="512" xmlns="http://www.w3.org/2000/svg"><g><path d="m66 34c0 17.6799927-14.3300171 32-32 32-17.6700439 0-32-14.3200073-32-32 0-6.0299683 1.6699829-11.6799927 4.5799561-16.5 5.6000366-9.289978 15.790039-15.5 27.4200439-15.5 11.6299438 0 21.8199463 6.210022 27.4199829 15.5 2.9099732 4.8200073 4.5800171 10.4700317 4.5800171 16.5z" fill="#8fc8f5"/><path d="m61.4200134 17.5c-5.9199829 8.7900391-16 14.5700073-27.4199829 14.5700073-11.4300537 0-21.5-5.7799683-27.4200439-14.5700073 5.6000366-9.289978 15.790039-15.5 27.4200439-15.5 11.6299439 0 21.8199463 6.210022 27.4199829 15.5z" fill="#d0f6ff"/><path d="m53.939415 56.8063393c0 .7092209-8.928791 1.2845345-19.939415 1.2845345s-19.939415-.5753136-19.939415-1.2845345c0-.7092705 8.9287901-1.2766457 19.939415-1.2766457s19.939415.5673752 19.939415 1.2766457z" opacity=".13"/><g><g><g><g><path d="m39.0267105 10.5359583c0 1.1200113-.3988991 2.2092161-1.1199646 3.0683508l.0460243.0766907c.7027245 1.1709738 1.0739403 2.5109406 1.0739403 3.8765926v4.1778297c0 .9205608-.5829926 1.7336254-1.4574852 2.0252151h-15.9093933c-.905159-.4680061-1.4727955-1.4038296-1.4727955-2.4241161v-4.349329c0-3.9696064 3.2180023-7.1876087 7.1876087-7.1876087h3.8124046c1.2120094 0 2.4086647-.2914963 3.4825592-.8437777l1.6447105-.8581438c.215065-.1122117.4724617.0438147.4724617.2863932v1.0680914h1.886055c.1954384 0 .3538742.1584349.3538742.3538733v.7299385z" fill="#a63914"/><path d="m46.2373085 45.4757996v7.5238914c0 .4114609-.3335571.745018-.745018.745018h-31.448719c-.4114609 0-.7450161-.3335571-.7450161-.745018v-7.5238914c0-5.8145866 4.2343397-10.6319199 9.7957258-11.5293541.007679 0 .0229874 0 .0306664-.0076752.6060295-.0843697 1.2120113-.1457024 1.8487072-.1457024h9.6039085c.6213379 0 1.2350464.0613327 1.8333511.1457024.015358 0 .0307121.0076752.0460243.0076752 5.5460749.9051132 9.7803698 5.7147674 9.7803698 11.5293541z" fill="#313b5a"/><path d="m39.8854256 23.8917923v.0000038c0 1.0967731-.8891106 1.9858818-1.9858818 1.9858818h-.3274803v-3.9717693h.3274803c1.0967712 0 1.9858818.8891105 1.9858818 1.9858837z" fill="#ffc0a4"/><path d="m38.0371361 21.9118366v3.958292c-.0460205.0075855-.0920448.0075855-.1380692.0075855h-.3298416v-3.9735565h.3298416c.0460243 0 .0920487 0 .1380692.007679z" fill="#ffa87a"/><path d="m19.3435497 23.8917923v.0000038c0 1.0967731.8891106 1.9858818 1.9858837 1.9858818h.3274803v-3.9717693h-.3274803c-1.0967731 0-1.9858837.8891105-1.9858837 1.9858837z" fill="#ffc0a4"/><path d="m21.659832 21.9041576v3.9735565h-.3298416c-.0460243 0-.0920467 0-.1380711-.0075855v-3.958292c.0460243-.007679.0920467-.007679.1380711-.007679z" fill="#ffa87a"/><g><path d="m36.4569397 33.9464455-2.6694527 9.128273-4.0156917 10.6699905-4.0157413-10.6699905-2.6617718-9.120594v-.007679c.007679 0 .0229874 0 .0306664-.0076752.6060295-.0843697 1.2120113-.1457024 1.8487072-.1457024h9.6039085c.6213379 0 1.2350464.0613327 1.8333511.1457024.0153579 0 .0307121.0076752.0460243.0076752z" fill="#fff"/><path d="m36.4492607 33.9541245-2.6617737 9.120594-4.0118542-2.9225578h-.0076771l-4.0119019 2.9225578-2.6617718-9.120594c.007679-.007679.0229874-.007679.0306664-.0153542.6060295-.0843697 1.2120113-.1457024 1.8487072-.1457024h9.6039085c.6213379 0 1.2350464.0613327 1.8333511.1457024.0153581.0076752.0230333.0076752.0383455.0153542z" fill="#d0f6ff"/><path d="m31.6473293 48.8584747-1.875534 4.8862343-1.875536-4.8862343 1.296381-5.6685829-1.0509071-1.8563843 1.6262226-1.1813469h.0076771l1.6262226 1.1813469-1.0509053 1.8563843z" fill="#ff3445"/></g><path d="m34.6657143 29.5169678v4.8977356c0 2.7050552-2.1927414 4.8977318-4.8977661 4.8977318-1.3525295 0-2.5769787-.5481529-3.4632797-1.4344559-.886301-.8862991-1.4344864-2.1107483-1.4344864-3.4632759v-4.8977356z" fill="#ffc0a4"/><path d="m34.6657143 29.5169678v3.5195656c-1.1219826.8658485-2.4693832 1.4499016-3.9397335 1.6343269-.3740139.0512199-.7479973.0717316-1.1219788.0717316-1.752121 0-3.3813229-.5328293-4.73382-1.4499016v-3.7757225z" fill="#ffa87a"/><path d="m37.5720634 19.8433857v6.1541729c0 4.0552979-2.8987427 7.6509323-6.9123631 8.1665649-4.8497543.6270599-9.0027866-3.1495838-9.0027866-7.8879108v-6.432827c0-.8793545.1457939-1.7274418.4103508-2.5174503.0744286-.2222538.2901726-.3674297.5245552-.3674297h9.9074631c.8640327 0 1.714119-.236805 2.4667244-.6828575l.8270607-.5068626c.2591782-.1588392.6074219-.0834608.7578735.1806746.6555405 1.1508568 1.021122 2.4739617 1.021122 3.8939255z" fill="#ffc0a4"/></g><path d="m23.0942822 44.2110214v1.3702621c0 .1045761-.0836353.1882744-.1882725.1882744h-6.7676201c-.1046391 0-.1882734-.0836983-.1882734-.1882744v-1.3702621c0-.1045761.0836344-.177803.1882734-.177803h6.7676201c.1046371 0 .1882725.0732269.1882725.177803z" fill="#20273a"/></g><g fill="#313b5a"><g><path d="m28.3238811 22.2787037c0 .1527386-.1272564.2800331-.2800331.2800331h-3.4876518c-.1591091 0-.2864037-.1272945-.2864037-.2800331 0-.1591072.1272945-.2864037.2864037-.2864037h3.4876518c.1527768 0 .2800331.1272965.2800331.2864037z"/><path d="m27.0119686 24.0354118c0 .3915386-.3175201.7089958-.7195873.7089958-.3916035 0-.7090588-.3174572-.7090588-.7089958 0-.402132.3174553-.7195873.7090588-.7195873.4020672 0 .7195873.3174553.7195873.7195873z"/></g><g><path d="m34.6758423 22.2787037c0 .1527386-.1272545.2800331-.2800331.2800331h-3.4876518c-.1591091 0-.2864037-.1272945-.2864037-.2800331 0-.1591072.1272945-.2864037.2864037-.2864037h3.4876518c.1527786 0 .2800331.1272965.2800331.2864037z"/><path d="m33.3639336 24.0354118c0 .3915386-.3175201.7089958-.7195892.7089958-.3916054 0-.7090607-.3174572-.7090607-.7089958 0-.402132.3174553-.7195873.7090607-.7195873.402069 0 .7195892.3174553.7195892.7195873z"/></g></g><path d="m29.4760094 24.6221008c.1527271.0000496.2800102.1273613.2800102.2801552l-.0000114 1.7523232c-.0000019.1591263-.1272869.2863941-.2800121.2863464-.1590977-.0000515-.2863808-.1274014-.2863808-.2865276l.0000114-1.7523232c.0000019-.1527939.1272869-.2800236.2863827-.279974z" fill="#ffa87a"/><path d="m31.8378582 28.6746826c0 1.303936-1.0546417 2.3585777-2.3681755 2.3585777-1.303936 0-2.3586349-1.0546417-2.3586349-2.3585777z" fill="#fff"/></g><g><g><path d="m53.1773872 51.1639099v2.218689c0 .1999855-.1621208.3621101-.3621101.3621101h-12.765377c-.1999893 0-.362114-.1621246-.362114-.3621101v-2.218689z" fill="#fed110"/><path d="m53.1773872 51.1639099-1.2856216-1.1024742h-10.9183579l-1.2856216 1.1024742z" fill="#ff9f00"/><g><path d="m40.974 48.342h10.918v1.72h-10.918z" fill="#fed110"/></g><path d="m54.5715446 39.387001-1.8006477 1.8042564c-.1732025.1732025-.4546776.1732025-.6242638 0l-1.1320076-1.1320038c-.0676727-.0676727-.1594543-.10569-.2551613-.10569h-1.5213165c-.199295 0-.3608513.1615562-.3608513.3608513v1.8677216c0 .0957031.0380173.1874886.10569.2551613l2.6043091 2.6043053c.3427887.346405.3427887.9057426 0 1.2521439l-1.4361839 1.4361839h-7.5309258l-.0722389-2.6450691-1.0945778-.6891136c-.4888496-.307766-.7854462-.8449707-.7854462-1.4226341v-5.5057793c0-3.9982643 3.6482506-6.9969597 7.5706596-6.2246876l2.9409904.5773964c.4185562.0829887.6530762.5303555.4798737.9201031l-.2272949.5123787-.0036125.007225-.4565277 1.0311661c-.1619644.3658295-.0821152.7936134.2009163 1.0763779l3.3986168 3.3954391c.1731987.1732025.1731987.4546775 0 .6242675z" fill="#fed110"/><g fill="#ff9f00"><path d="m51.8917656 48.3416214-.6637764-.7718506c-.0620804-.0721893-.1525574-.1137123-.2477684-.1137123h-9.0932808c-.0963554 0-.1877975.0425224-.2498894.1162033l-.6483536.7693596z"/><path d="m51.6594467 32.7401466-.2272949.5123787-.0036125.007225h-4.5214767c-2.4068527 0-4.3591156 1.9485626-4.3591156 4.3591156v7.4659958l-1.0945778-.6891136c-.4888496-.307766-.7854462-.8449707-.7854462-1.4226341v-5.5057793c0-3.9982643 3.6482506-6.9969597 7.5706596-6.2246876l2.9409904.5773964c.4185563.0829888.6530762.5303555.4798737.9201031z"/><path d="m50.8084755 36.4238358c0 .2741661-.2237701.4944115-.4944115.4944115-.2741623 0-.4979324-.2202454-.4979324-.4944115 0-.2741623.2237701-.4944077.4979324-.4944077.2706414 0 .4944115.2202454.4944115.4944077z"/></g></g></g></g></g></svg>