<svg id="Layer_1" enable-background="new 0 0 68 68" height="512" viewBox="0 0 68 68" width="512" xmlns="http://www.w3.org/2000/svg"><g><g><path d="m7.60077 65.3170776-4.0238752.5211639c-.9097393.1175766-1.6826985-.6555328-1.5650029-1.5653076l.5200968-4.0256157c.7412013-6.785202 5.4410347-11.1569862 5.4410347-11.1569862 2.9773474-2.9771004 7.8059654-2.9764481 10.7832937.0014534s2.9773331 7.8068008-.0000153 10.7839012c.0000001 0-4.3705987 4.7010804-11.1555318 5.441391z" fill="#fdc72e"/></g><g><path d="m11.9554415 58.9834137-2.4531222.3177223c-.554615.0716782-1.0258436-.3996391-.954092-.954277l.3170729-2.4541817c.4518681-4.1365433 3.3170824-6.8017654 3.3170824-6.8017654 1.8151159-1.8149643 4.7588425-1.8145676 6.573946.000885 1.8151054 1.8154526 1.8151073 4.7593536-.0000095 6.5743179-.0000001 0-2.6644993 2.8659744-6.8008776 3.3172989z" fill="#e9e9ff"/></g><g><path d="m60.041729 8.1034069-2.2700195 7.8295898-8.2900391 28.5903301-3.8898926 13.409668c-.9602051 3.3203125-5.130127 4.3901367-7.5700684 1.9501953l-5.5600586-5.5600586-18.6501465-18.659668-5.5397949-5.5400372c-2.4401855-2.4404297-1.3701172-6.6103516 1.9399414-7.5703125l13.3498526-3.8701172 28.6501484-8.3095703z" fill="#ed524e"/></g><g><path d="m57.7717094 15.9329967-8.2900391 28.5903301c-5.5500488 5.4199219-11.6398926 9.2797852-17.0200195 9.7998047l-18.6501465-18.659668c.1401367-1.4204102.5102539-2.9301758 1.1201172-4.4999981 1.5400381-4.0102539 4.6201162-8.3500977 8.6298819-12.4804688l28.6501484-8.3095703z" fill="#b72a2a"/></g><g><path d="m62.8900986 23.0366211-17.7749367-17.7783575c7.2747765-3.2151041 14.1996536-4.2735019 18.5368538-1.5546772.3212547.2004733.5948105.4740798.7952271.7953813 2.7180786 4.3378119 1.6587829 11.2629218-1.5571442 18.5376534z" fill="#ed524e"/></g><g><path d="m27.3877602 52.2120094-3.83675 3.8364296c-.7428226.7427635-1.9471741.7425995-2.6899929-.0003624l-8.7612963-8.7629814c-.7428188-.7429619-.742815-1.9473801.0000086-2.6901398l3.83675-3.8364334z" fill="#ed524e"/></g><g><path d="m27.3877602 52.2120094-11.4512806-11.4534874c-4.7665921-10.6906871 13.0673237-28.383172 29.1786823-35.5002584l17.7733421 17.7767649c-7.1173248 16.1128521-24.8128891 33.9437122-35.5007438 29.1769809z" fill="#fdc72e"/></g><g><path d="m48.6795883 34.1451683c-3.6941452 3.69384-9.6854591 3.693058-13.3795547-.0017509-3.6961365-3.696846-3.6961174-9.6885109-.0019722-13.3823509 3.6961594-3.6958523 9.6874962-3.6950455 13.3836327.0018005 3.6940955 3.6948089 3.6940536 9.686449-.0021058 13.3823013z" fill="#f9ac00"/></g><g><path d="m50.041729 31.1234264c-.3701172.6196289-.8300781 1.1997051-1.3601074 1.7299786-.1000977.1000977-.2099609.199707-.3100586.2895508-.5297852.4902344-1.1098633.9101563-1.7099609 1.25-2.4899902 1.4101563-5.4699707 1.6000977-8.0898438.590332-1.1901855-.4599609-2.3100586-1.1801758-3.2700195-2.1401367-3.170166-3.1601543-3.6201191-7.9999981-1.3601074-11.6499004.369873-.6201172.8300781-1.2001953 1.3601074-1.7299805 1.5297852-1.5302734 3.4499512-2.4199219 5.4299316-2.6801758.6999512-.1000977 1.4099121-.1098633 2.119873-.0498047.8701172.0800781 1.7299805.2797852 2.5600586.6000977 1.1899414.4599609 2.3100586 1.1699219 3.2700195 2.1298828 3.1601563 3.1699219 3.6101075 8.0097656 1.3601075 11.6601562z" fill="#70c1f9"/></g><g><path d="m47.0321693 31.2004108c-2.7844238 2.784193-7.300312 2.7836018-10.0846977-.0013199-2.785923-2.786459-2.7859077-7.3026123-.0014839-10.0868034 2.7859383-2.7857094 7.3018456-2.7851009 10.0877686.001358 2.7843856 2.7849217 2.7843513 7.301056-.001587 10.0867653z" fill="#e9e9ff"/></g><g><path d="m29.9661217 40.0178642-9.2240772 9.2233124c-.5072021.5071602-1.3294315.5070305-1.8366127-.000248-.5071831-.5072784-.5071964-1.3295555.0000057-1.8367157l9.2240753-9.2233086c.5071678-.5071259 1.3294334-.5070343 1.8366146.000248.2528744.2529221.3800449.5863876.381424.9184227-.0014153.3320008-.1285363.6654168-.3814297.9182892z" fill="#4f5d99"/></g><g><g><g><g><g><path d="m42.2090721 29.4365082c-.7272072.4937611-1.474823.4007435-2.2003593-.0408192-.0587807-.0359058-.116745-.0742645-.1779137-.1159096-.0914421-.0620289-.2146797-.0497761-.2921944.0277367l-.4799271.4799328c-.0897484.0897446-.2366791.0897846-.3264656-.0000019l-.3737869-.3737926c-.0897865-.0897865-.0897446-.2367191 0-.3264656l.5329742-.5329762c.0791435-.0791454.0897636-.2024269.0260811-.2954407-.072628-.1053085-.1599617-.2138462-.2146187-.3207874-.4236031-.8332844-.2742195-1.8118649.383606-2.492569.0881119-.0913811.2358818-.0905819.3264656.0000019l.8634987.863512c.0783501.0783501.0897484.2040424.0260849.2954807-.0701981.0995693-.1371307.1958714-.1918068.2978916-.2284851.4227676-.0987511.9312572.2995453 1.1875267.2252808.1452599.4660225.1869068.7076035.0416088.3068962-.1860676.5345879-.4415359.5190849-.8177776-.0097847-.2236271-.0873375-.4480743-.1583328-.6643696-.1436424-.4358406-.3354683-.8577728-.4505196-1.3009644-.2481155-.938591.0318375-1.7017117.7908287-2.2403641.7549858-.5346088 1.5205116-.4480667 2.2795448-.0056877.0007973.0007954.0007973.0007954.0024681.0007954.0897675.052227.2040405.0375423.2783241-.0367413l.5419006-.5419025c.0897827-.0897846.2366753-.0897846.3264618.0000019l.3737869.3737926c.0897865.0897865.0897865.2366791 0 .3264656l-.5264359.5264397c-.0750809.0750809-.0897446.1909695-.0342522.280735.3239899.53298.545166 1.1524372.4113274 1.7564106-.0824127.3746071-.2595329.6937199-.5100975.9932652-.0864792.1028156-.2439919.1085339-.3394966.0130291l-.8749161-.8749313c-.0816154-.0816154-.0897865-.210537-.021244-.3019562.0310249-.0424633.0620117-.0848846.0914192-.1289597.2407646-.3582878.2505455-.6717014.0342522-.9402046-.2056122-.2563076-.4978256-.3460751-.7736969-.2416058-.3436165.1314106-.6251488.5125313-.5860138.8586044.0269814.2440128.1093941.4847984.1795921.723093.1493416.4954185.3517494.9802151.4513168 1.4862747.1722224.8806269-.1950491 1.5743639-.914089 2.0616286z" fill="#70c1f9"/></g></g></g></g></g><g opacity=".2"><g><path d="m46.661602 34.3929558c-2.4899902 1.4101563-5.4699707 1.6000977-8.0898438.590332l-4.630127-13.7900372c.369873-.6201172.8300781-1.2001953 1.3601074-1.7299805 1.5297852-1.5302734 3.4499512-2.4199219 5.4299316-2.6801758z" fill="#fff"/></g><g><path d="m50.041729 31.1234264c-.3701172.6196289-.8300781 1.1997051-1.3601074 1.7299786-.1000977.1000977-.2099609.199707-.3100586.2895508l-5.5200195-16.4096661c.8701172.0800781 1.7299805.2797852 2.5600586.6000977z" fill="#fff"/></g></g></g></svg>