<svg id="Layer_1" enable-background="new 0 0 68 68" height="512" viewBox="0 0 68 68" width="512" xmlns="http://www.w3.org/2000/svg"><g><g><g><g><path d="m58.8150635 14.9199219v45.3798828c0 3.1503906-2.5500489 5.7001953-5.7001953 5.7001953h-38.2299805c-3.1499023 0-5.6999512-2.5498047-5.6999512-5.7001953v-45.3798828c0-3.1499023 2.5500488-5.7001953 5.6999512-5.7001953h38.2299805c3.1501464 0 5.7001953 2.5502929 5.7001953 5.7001953z" fill="#5e7599"/></g><g><path d="m58.807869 14.924181v45.3701172c0 3.1499023-2.5500488 5.6999474-5.6899414 5.6999474h-38.2399893c-3.1401367 0-5.6901855-2.550045-5.6901855-5.6999474l43.9301748-51.0700684c3.1398925 0 5.6899414 2.5500488 5.6899414 5.6999512z" fill="#435e88"/></g><g><path d="m15.3815403 62.0042953c-1.2163067 0-2.2057238-.9895058-2.2057238-2.2057228v-44.3781681c0-1.216218.9894171-2.2057238 2.2057238-2.2057238h37.2325439c1.2163086 0 2.2057228.9895058 2.2057228 2.2057238v44.3781662c0 1.216217-.9894142 2.2057228-2.2057228 2.2057228h-37.2325439z" fill="#fff"/></g><g><path d="m45.4049072 16.2998047h-22.8198242c-.9401855 0-1.630127-.8701172-1.4301758-1.7900391.3500977-1.6396484 1.1699219-3.1098633 2.3100586-4.25 1.2099609-1.2099609 2.7800293-2.0595703 4.5400391-2.3701172v-.0595703c0-3.2202148 2.6098633-5.8300781 5.8300781-5.8300781h.3198242c3.2299805 0 5.8400879 2.6098633 5.8400879 5.8300781v.0595703c3.4199219.6000977 6.1298828 3.2402344 6.8498535 6.6201172.2001953.9199219-.4899902 1.7900391-1.4399414 1.7900391z" fill="#5cbeff"/></g><g><path d="m35.758728 7.0625138c0 .9719758-.7889442 1.760921-1.7609215 1.760921-.9719734 0-1.7608681-.7889452-1.7608681-1.760921s.7888947-1.760921 1.7608681-1.760921c.9719773 0 1.7609215.7889452 1.7609215 1.760921z" fill="#fff"/></g></g><g><path d="m45.4079666 16.2942982h-22.8200664c-.9399414 0-1.630127-.8701172-1.4399414-1.7900391l18.8498516-6.6699214v.0498047c3.4101563.6103511 6.1201172 3.2499995 6.8500977 6.6201167.1899413.9199219-.5000001 1.7900391-1.4399415 1.7900391z" fill="#079cff"/></g></g><g><g><path d="m20.0945511 20.3601971c0 .2351322-.0955582.4476109-.2489452.6022587-.1546478.1534195-.3671265.2489452-.6022606.2489452h-1.4455013c-.4702663 0-.8512058-.3809395-.8512058-.8512039 0-.2350712.0955582-.4476128.2489452-.6022587.1546478-.1533585.3671265-.2489471.6022606-.2489471h1.4455013c.4702358-.0000001.8512058.3810005.8512058.8512058z" fill="#cdd4df"/></g><g><path d="m29.4221649 20.3601971c0 .2351322-.0955582.4476109-.2489471.6022587-.1546459.1534195-.3671246.2489452-.6022587.2489452h-5.9290028c-.4702663 0-.8512058-.3809395-.8512058-.8512039 0-.2350712.0955582-.4476128.2489471-.6022587.1546459-.1533585.3671265-.2489471.6022587-.2489471h5.9290028c.4702358-.0000001.8512058.3810005.8512058.8512058z" fill="#cdd4df"/></g><g><path d="m51.28479 52.4668922c0 .2299805-.0898438.4501953-.25.6000977-.1499023.1499023-.3598633.25-.5998535.25h-7.0998535c-.4702148 0-.8500977-.3798828-.8500977-.8500977 0-.4697266.3798828-.8496094.8500977-.8496094h7.0998535c.4699707.0000001.8498535.3798829.8498535.8496094z" fill="#cdd4df"/></g><g><path d="m39.3048096 52.4668922c0 .4702148-.3898926.8500977-.8598633.8500977h-20.8300781c-.4699707 0-.8498535-.3798828-.8498535-.8500977 0-.2397461.0898438-.449707.2399902-.6098633.1599121-.1499023.369873-.2397461.6098633-.2397461h20.8300781c.4699707.0000001.8598633.3798829.8598633.8496094z" fill="#cdd4df"/></g><g><path d="m30.0450439 47.2769508c0-.4697266.3898926-.8500977.8598633-.8500977h19.5300293c.4699707 0 .8498535.3803711.8498535.8500977 0 .2299805-.0898438.4501953-.25.6000977-.1499023.1601563-.3598633.25-.5998535.25h-19.5300293c-.4699707 0-.8598633-.3798828-.8598633-.8500977z" fill="#cdd4df"/></g><g><path d="m16.7650146 47.2769508c0-.2397461.0898438-.449707.2399902-.6000977.1599121-.159668.369873-.25.6098633-.25h8.4001465c.4699707 0 .8498535.3803711.8498535.8500977 0 .4702148-.3798828.8500977-.8498535.8500977h-8.4001465c-.4699706 0-.8498535-.3798828-.8498535-.8500977z" fill="#cdd4df"/></g><g><path d="m33.4410896 57.6518631c0 .2351341-.0955582.4476128-.2489471.6022606-.1546478.1534195-.3671265.2489433-.6022568.2489433h-14.978138c-.4702663 0-.8512058-.3809395-.8512058-.8512039 0-.2350731.0955582-.4476128.2489471-.6022606.1546459-.1533546.3671246-.2489433.6022587-.2489433h14.978138c.4702339 0 .8512039.3810005.8512039.8512039z" fill="#cdd4df"/></g><g><path d="m24.1419563 24.2503796c0 .2351322-.0955582.4476109-.2489471.6022587-.1546459.1534195-.3671246.2489452-.6022587.2489452h-5.4290028c-.4702663 0-.8512058-.3809395-.8512058-.8512039 0-.2350712.0955582-.4476109.2489471-.6022587.1546459-.1533585.3671246-.2489471.6022587-.2489471h5.4290028c.4702358-.0000001.8512058.3810024.8512058.8512058z" fill="#cdd4df"/></g><g><g><path d="m49.5208015 25.6987209c0 .2514381-.0979118.4960518-.279583.6775513l-10.5852851 10.5856266c-.377327.370163-.9782867.370163-1.3556137 0l-6.9100971-6.9102707-9.7818432 9.7818451c-.1816711.1814957-.4262848.2862358-.6777229.2862358-.2586021 0-.4960518-.1047401-.677721-.2862358-.1816692-.1746788-.2864075-.4192924-.2864075-.6778946 0-.2514381.1047382-.4960518.2864075-.6775513l10.4595661-10.459734c.377327-.377327.9851093-.377327 1.355442 0l6.9102707 6.9102688 9.9075623-9.907732c.3703308-.377327.9781151-.377327 1.355442 0 .1816711.181839.2795829.4192887.2795829.6778908z" fill="#33527d"/></g></g><g><path d="m50.8597527 26.1883125c0 1.5423851-1.2473068 2.8007641-2.7891388 2.8007641-1.5421066 0-2.8004837-1.258379-2.8004837-2.8007641 0-1.541832 1.2583771-2.7891388 2.8004837-2.7891388 1.5418319 0 2.7891388 1.2473069 2.7891388 2.7891388z" fill="#5cbeff"/></g><g><path d="m50.8622589 26.1879501c0 1.5441074-1.2507057 2.8016357-2.7948151 2.8016357-1.1459694 0-2.1310768-.6987038-2.5713501-1.6908073.3425293.1466999.7198563.2306271 1.1110001.2306271 1.5442772 0 2.7878189-1.2646942 2.7878189-2.8019772 0-.3913136-.0837555-.7686405-.2234612-1.1040058.9921036.4261132 1.6908074 1.4113941 1.6908074 2.5645275z" fill="#079cff"/></g><g><path d="m40.6955223 36.3525429c0 1.5423851-1.2473068 2.8007622-2.7891388 2.8007622-1.5421066 0-2.8004837-1.2583771-2.8004837-2.8007622 0-1.541832 1.2583771-2.7891388 2.8004837-2.7891388 1.541832 0 2.7891388 1.2473068 2.7891388 2.7891388z" fill="#ffd80c"/></g><g><path d="m40.6960945 36.3539429c0 1.5441093-1.2507057 2.8016357-2.7878189 2.8016357-1.1527939 0-2.1520615-.7055244-2.5711823-1.704792.3353653.153862.7126923.2377892 1.1038361.2377892 1.5441055 0 2.7948112-1.2578697 2.7948112-2.8019753 0-.3841515-.0767593-.7546539-.2234612-1.0900192.9921037.4264564 1.6838151 1.4045715 1.6838151 2.5573616z" fill="#ffbe00"/></g><g><path d="m22.7229919 39.1529045c0 1.5423851-1.2473068 2.8007622-2.7891388 2.8007622-1.5421085 0-2.8004875-1.2583771-2.8004875-2.8007622 0-1.541832 1.258379-2.7891388 2.8004875-2.7891388 1.541832 0 2.7891388 1.2473068 2.7891388 2.7891388z" fill="#c175ff"/></g><g><path d="m22.7254696 39.1555786c0 1.5372849-1.2507057 2.7948151-2.7948132 2.7948151-1.1459675 0-2.1310768-.6987038-2.5573616-1.6908073.335535.153862.7058678.2306252 1.0970116.2306252 1.5442772 0 2.7878189-1.2575302 2.7878189-2.8016357 0-.3913155-.0767612-.7618179-.2234631-1.0971832.9990979.4264563 1.6908074 1.4113958 1.6908074 2.5641859z" fill="#b244f1"/></g><g><path d="m33.0154877 28.6725063c0 1.5423851-1.2473068 2.8007641-2.7891388 2.8007641-1.5421085 0-2.8004856-1.258379-2.8004856-2.8007641 0-1.541832 1.2583771-2.7891369 2.8004856-2.7891369 1.5418319 0 2.7891388 1.247305 2.7891388 2.7891369z" fill="#4cc66e"/></g><g><path d="m33.0173531 28.6750336c0 1.5372829-1.2507057 2.7948112-2.7878189 2.7948112-1.1529617 0-2.138073-.6987019-2.5641861-1.6908054.3353634.1538639.7125206.2306252 1.0970116.2306252 1.5441074 0 2.7876492-1.2575283 2.7876492-2.8016357 0-.3913136-.0837574-.7618179-.2234631-1.0971813.9921035.4192904 1.6908073 1.411394 1.6908073 2.564186z" fill="#14a142"/></g></g></g></svg>