<svg id="Layer_1" enable-background="new 0 0 68 68" viewBox="0 0 68 68" xmlns="http://www.w3.org/2000/svg"><g><g><path d="m57.2927017 14.7048273-4.598217 46.5494804c-.2667274 2.688652-2.5393982 4.7479897-5.2387314 4.7479897h-36.7338905c-3.1155753 0-5.5479178-2.688652-5.2384701-5.782608l4.5982161-46.5494766c.2667294-2.6891737 2.5287189-4.7479906 5.2384701-4.7479906h36.7341499c3.1046381-.0000029 5.53724 2.6886491 5.2384729 5.7826051z" fill="#4269c4"/><path d="m54.4582939 14.7048273-4.5982132 46.5494804c-.2667313 2.688652-2.539402 4.7479897-5.2387314 4.7479897h-36.7338924c-3.1155758 0-5.5479183-2.688652-5.2384701-5.782608l4.5982161-46.5494766c.2667294-2.6891737 2.5287194-4.7479906 5.2384706-4.7479906h36.7341537c3.1046319-.0000029 5.5372376 2.6886491 5.2384667 5.7826051z" fill="#8a9bea"/><path d="m7.8877177 61.7346268c-.3667531 0-.605351-.1784248-.7407994-.3282013-.1344066-.1487312-.2875676-.4019165-.2516212-.761898l4.5984764-46.5546875c.051053-.5123606.4771948-.8999519.9918995-.8999519h36.7341537c.3589363 0 .5954514.177907.7308998.3269005.1380539.1518583.2948608.4099922.2594376.7775259l-4.5969162 46.5403633c-.0500107.5040245-.4860497.8999481-.9918976.8999481h-36.7336326z" fill="#fff"/><path d="m46.0065002 56.8929558-.3898926 3.9404297c-.0500488.5097656-.4902344.8999023-1 .8999023h-36.729979c-.3701172 0-.6000977-.1801758-.7402344-.3300781-.1298828-.1499023-.2900391-.3999023-.25-.7602539l4.6000972-46.5498047c.0500488-.5200195.4699707-.8999023.9899902-.8999023h10.9499521c-6.619873 4.4301758-10.9799814 12.0600586-10.9799814 20.7202129 0 13.699707 10.9101572 24.7998047 24.380127 24.7998047 3.2399893.0000019 6.3398428-.6499005 9.1699209-1.8203106z" fill="#edebeb"/><g><path d="m39.5205498 8.4687948h-16.2688713l1.7280197-4.6294069c.4133854-1.1074662 1.4711475-1.8416848 2.6532516-1.8416848h7.5063324c1.1821022 0 2.2398643.7342186 2.6532478 1.8416848z" fill="#255299"/></g><g><path d="m39.5171928 8.472024h-16.2700195l.8000488-2.1396484c1.2998047.2197266 2.75.3398438 4.2800293.3398438 4.3098145 0 8.0197754-.9697266 9.6398926-2.3598633z" fill="#272791"/></g><path d="m44.0672417 8.9319849v2.6904297c0 3.0498047-2.4702148 5.5097647-5.5 5.5097647h-14.3601075c-3.0300293 0-5.5-2.45996-5.5-5.5097647v-2.6904297c0-1.0498047.8400879-1.8896484 1.8701172-1.8896484h21.5998535c1.0500489 0 1.8901368.8398437 1.8901368 1.8896484z" fill="#255299"/><g fill="#272791"><path d="m41.1771049 13.8724146c0 .4296875-4.3798828.7900391-9.7900391.7900391-5.4099121 0-9.7900391-.3603516-9.7900391-.7900391 0-.4404297 4.380127-.800293 9.7900391-.800293 5.4101563 0 9.7900391.3598633 9.7900391.800293z"/><ellipse cx="31.387" cy="10.312" rx="9.79" ry=".79"/></g><g><path d="m28.5535698 19.4622574c-5.4745693 0-9.9128418 4.4382725-9.9128418 9.9128418s4.4382725 9.9128418 9.9128418 9.9128418c1.4240341 0 2.7749138-.3056984 3.9988861-.8465195l-3.9988861-9.0663223z" fill="#aec46e"/><path d="m32.5524559 38.4414215c3.4812012-1.5378532 5.9139557-5.0155525 5.9139557-9.0663223h-9.9128418z" fill="#4269c4"/><path d="m28.5535698 19.4622574v9.9128418h9.9128418c0-5.4745693-4.4380379-9.9128418-9.9128418-9.9128418z" fill="#fa990e"/></g><g fill="#d9d2f6"><ellipse cx="28.078" cy="43.15" rx=".852" ry="16.011" transform="matrix(.039 -.999 .999 .039 -16.136 69.521)"/><ellipse cx="27.901" cy="47.696" rx=".852" ry="16.011" transform="matrix(.039 -.999 .999 .039 -20.849 73.712)"/><ellipse cx="27.723" cy="52.242" rx=".852" ry="16.011" transform="matrix(.039 -.999 .999 .039 -25.562 77.902)"/><ellipse cx="27.545" cy="56.787" rx=".852" ry="16.011" transform="matrix(.039 -.999 .999 .039 -30.275 82.092)"/></g><g><path d="m53.32 47.859h4.188v5.391h-4.188z" fill="#fa990e" transform="matrix(.897 -.442 .442 .897 -16.632 29.678)"/><path d="m64.3763733 63.6131706-4.1298828 2.029789c-.8901367.4404297-1.9599609.0703125-2.3999023-.8095703l-4.9001465-9.9599648c-.4399414-.8901367-.0700684-1.9501953.8200684-2.3901367l4.1298828-2.0400391c.8901367-.4301758 1.9599609-.0698242 2.3901367.8100586l4.9099121 9.9599609c.4299316.8901368.0700683 1.959961-.8200684 2.3999024z" fill="#b53016"/></g><g><path d="m60.9364319 30.9032116c-3.3300781-6.7602539-11.5-9.5400391-18.2600098-6.2202148-6.7600098 3.3300781-9.5397949 11.510252-6.2099609 18.2705059 3.3300781 6.75 11.5 9.5297852 18.2600098 6.2099609 6.7600097-3.3300781 9.540039-11.5102539 6.2099609-18.260252zm-7.8398438 14.9501934c-4.9301758 2.4296875-10.8901367.3999023-13.3200684-4.5302734s-.4001465-10.8999004 4.5300293-13.3300762c4.9299316-2.4199219 10.8999023-.3896484 13.3198242 4.5400372 2.4301759 4.9301757.4001466 10.8901366-4.5297851 13.3203124z" fill="#fbad3e"/></g></g><circle cx="48.702" cy="36.924" fill="#d9d2f6" opacity=".15" r="9.95"/><path d="m64.3763733 63.6131706-4.1298828 2.029789c-.8901367.4404297-1.9599609.0703125-2.3999023-.8095703l-.1401367-.2900391c1.9799805-1.2402382 3.3701172-4.0000038 3.3701172-7.2099648 0-3.0200195-1.2202148-5.6401367-3.0100098-6.9599609.8498535-.3100586 1.8200684.0595703 2.2199707.8798828l4.9099121 9.9599609c.4299316.8901368.0700683 1.959961-.8200684 2.3999024z" fill="#912010"/></g></svg>