<svg id="Layer_1" enable-background="new 0 0 68 68" viewBox="0 0 68 68" xmlns="http://www.w3.org/2000/svg"><g><g><path d="m51.154644 9.2526627v49.449707c0 4.0200195-3.2600098 7.2802734-7.2700195 7.2802734h-30.579834c-4.0200195 0-7.2802734-3.2602539-7.2802734-7.2802734v-49.449707c0-4.02002 3.2602539-7.2700195 7.2802734-7.2700195h30.579834c4.0100097-.0000003 7.2700195 3.2499995 7.2700195 7.2700195z" fill="#3a3a3a"/></g><g><path d="m47.154644 9.2526627v49.449707c0 4.0200195-3.2600098 7.2802734-7.2700195 7.2802734h-30.579835c-4.0200195 0-7.2802734-3.2602539-7.2802734-7.2802734v-49.449707c0-4.02002 3.2602539-7.2700195 7.2802734-7.2700195h30.579834c4.0100107-.0000003 7.2700205 3.2499995 7.2700205 7.2700195z" fill="#51504f"/></g><g><path d="m43.1549492 9.2526627v46.449707c0 1.8100586-1.4699707 3.2802734-3.2700195 3.2802734h-30.5800772c-1.8098149 0-3.2797856-1.4702148-3.2797856-3.2802734v-46.449707c0-1.8100591 1.4699707-3.27002 3.2797856-3.27002h30.5800781c1.8000479 0 3.2700186 1.4599609 3.2700186 3.27002z" fill="#fff"/></g><g><ellipse cx="24.588" cy="62.653" fill="#3a3a3a" rx="5.77" ry="1.063"/></g><g><g><g><path d="m17.7280312 9.2299614c-2.7758999 0-5.2512703 1.2781191-6.8757973 3.2763958l6.8757973 5.583313z" fill="#aec46e"/></g><g><path d="m17.7280312 9.2299614v8.8597088h8.8597107c0-4.8932772-3.9666653-8.8597088-8.8597107-8.8597088z" fill="#4269c4"/></g></g><g><g><path d="m10.8522339 12.5063572c-1.2389603 1.5237331-1.9839115 3.4659367-1.9839115 5.583313 0 4.8932762 3.9666643 8.8597088 8.8597088 8.8597088 2.3648453 0 4.5077095-.9324055 6.0965538-2.4422359l-6.0965538-6.4174728z" fill="#fbad3e"/></g><g><path d="m26.5877419 18.0896702h-8.8597107l6.0965538 6.4174728c1.6986751-1.6140995 2.7631569-3.88904 2.7631569-6.4174728z" fill="#b53016"/></g></g><g><path d="m31.8545933 41.6926041v12.9199219c0 .6201172-.5 1.1201172-1.119873 1.1201172h-3.8300781c-.630127 0-1.130127-.5-1.130127-1.1201172v-12.9199219c0-.6298828.5-1.1298828 1.130127-1.1298828h3.8300781c.619873 0 1.119873.5 1.119873 1.1298828z" fill="#b53016"/></g><g><path d="m14.9546919 45.5724869v9.0400391c0 .6201172-.5100098 1.1201172-1.1201172 1.1201172h-3.8498535c-.6101074 0-1.1201172-.5-1.1201172-1.1201172v-9.0400391c0-.6298828.5100098-1.1298828 1.1201172-1.1298828h3.8498535c.6101074 0 1.1201172.5 1.1201172 1.1298828z" fill="#aec46e"/></g><g><path d="m23.4046421 35.7526627v18.8598633c0 .6201172-.5 1.1201172-1.130127 1.1201172h-3.829834c-.6201172 0-1.1201172-.5-1.1201172-1.1201172v-18.8598633c0-.6201172.5-1.1303711 1.1201172-1.1303711h3.829834c.630127 0 1.130127.5102539 1.130127 1.1303711z" fill="#4269c4"/></g><g><path d="m40.3145561 33.2126236v21.3999023c0 .6201172-.5097656 1.1201172-1.119873 1.1201172h-3.8500977c-.6098633 0-1.119873-.5-1.119873-1.1201172v-21.3999023c0-.6201172.5100098-1.1201172 1.119873-1.1201172h3.8500977c.6101074 0 1.119873.5 1.119873 1.1201172z" fill="#fbad3e"/></g><g><g><path d="m30.5237827 9.2302017c1.1848145-.5126953 2.3696308-.6279297 3.5544453-.6499023.5922852.0112305 1.1848145.0390625 1.7770996.1425781.5922852.0952148 1.1848145.2363281 1.7770996.5073242-.5922852.2705078-1.1848145.4116211-1.7770996.5068359-.5922852.1035156-1.1848145.1313477-1.7770996.1425781-1.1848145-.0219726-2.3696308-.1372069-3.5544453-.649414z" fill="#d1dafe"/></g><g><path d="m27.8450718 13.6598892c2.0776367-.5126953 4.1552753-.6279297 6.2331562-.6499023 1.0388184.0117188 2.0776367.0390625 3.1164551.1425781 1.0388184.0952148 2.0778809.2368164 3.1166992.5073242-1.0388184.2705078-2.0778809.4121094-3.1166992.5073242-1.0388184.1030273-2.0776367.1308594-3.1164551.1420898-2.0778809-.0219726-4.1555195-.1367187-6.2331562-.649414z" fill="#d1dafe"/></g><g><path d="m27.8450718 18.0895767c2.0776367-.5126953 4.1552753-.6274414 6.2331562-.6494141 1.0388184.0112305 2.0776367.0390625 3.1164551.1420898 1.0388184.0952148 2.0778809.2368164 3.1166992.5073242-1.0388184.2705078-2.0778809.4121094-3.1166992.5073242-1.0388184.1035156-2.0776367.1308594-3.1164551.1425781-2.0778809-.0219725-4.1555195-.1372069-6.2331562-.6499022z" fill="#d1dafe"/></g><g><path d="m27.8450718 22.5197525c2.0776367-.5126953 4.1552753-.6279297 6.2331562-.6499023 1.0388184.0112305 2.0776367.0390625 3.1164551.1425781 1.0388184.0952148 2.0778809.2363281 3.1166992.5073242-1.0388184.2705078-2.0778809.4116211-3.1166992.5068359-1.0388184.1035156-2.0776367.1313477-3.1164551.1425781-2.0778809-.0219726-4.1555195-.137207-6.2331562-.649414z" fill="#d1dafe"/></g><g><path d="m27.8450718 26.94944c1.1962891-.5126953 2.392334-.6279297 3.588623-.6499023.5981464.0117188 1.196291.0390625 1.7944355.1425781.5981445.0952148 1.1962891.2368164 1.7944336.5073242-.5981445.2705078-1.1962891.4121094-1.7944336.5073242-.5981445.1030273-1.1962891.1308594-1.7944355.1420898-1.196289-.0219726-2.3923339-.1367187-3.588623-.649414z" fill="#d1dafe"/></g></g></g><g><g><circle cx="45.019" cy="57.469" fill="#4269c4" r="2.447"/></g><g><path d="m45.8445854 65.8625259c-1.3000488.4501953-2.7399902-.1098633-3.4199219-1.3100586l-5.6999512-10.2099609 5.5-1.8798828 5.1899414 9.2998047c.0898438.1601563.1599121.3203125.2099609.4799805.5000001 1.4599609-.2600097 3.1000976-1.7800292 3.6201171z" fill="#8a9bea"/></g><g><ellipse cx="61.621" cy="41.997" fill="#4269c4" rx="3.967" ry="6.814" transform="matrix(.946 -.324 .324 .946 -10.275 22.2)"/></g><g><path d="m45.3746147 53.3927994c-2.4499512 1.3896484-5.6899414 2.5898438-8.4199219 3.1499023-.9699707.199707-1.9599609-.2900391-2.3999023-1.1801758-1.1101074-2.2001953-1.9001465-4.5200195-2.3901367-6.9599609-.1999531-1 .3200684-2.0200195 1.2600098-2.4399414 2.5100098-1.1201172 5.7700195-2.1699219 8.4899902-2.6899414z" fill="#4269c4"/></g><g><path d="m63.6346245 57.2927017c-5.8000488.2299805-11.4599609-1.2202148-18.2600098-3.8999023l-3.4599609-10.1201172c3.1799316-5.6601563 6.8598633-10.1503906 12.0600586-14.1601563.8198242-.6401367 2.0200195-.3798828 2.5200195.5498047 4.2199707 7.8500977 7.0600586 16.4404297 8.7199669 25.6601563.1799316 1-.5700684 1.9301758-1.5800743 1.9702148z" fill="#8a9bea"/></g><g><g><path d="m35.9522133 48.41959c-.5729904.1158409-1.1572113.1988525-1.7812767.1861763.4856071-.3921776.9961319-.6906815 1.5200653-.9499779.5237732-.2592392 1.067543-.4818802 1.6160049-.6694489s1.1057053-.3489456 1.6875229-.4603271c.572834-.1157913 1.1592331-.1924248 1.7769241-.1775665-.4792328.3899956-.9919357.6821251-1.5157127.9413643-.5281792.2682266-1.065361.4882545-1.6138229.675827-.5506439.1811905-1.1145821.3448563-1.6897049.4539528z" fill="#fff"/></g><g><path d="m40.8499451 51.9513474c.572834-.1157913 1.1592369-.1924248 1.7769279-.1775665-.4792366.3899956-.9897614.6884995-1.5135345.9477386-.5303574.2618484-1.067543.4818802-1.6160049.6694489-.5484619.1875725-1.1145782.3448601-1.6897011.4539528-.573101.1155281-1.1572151.1988525-1.7812805.1861763.485611-.3921738.9984245-.6839828 1.5222473-.9435997.5214844-.265934 1.065361-.4882545 1.6138268-.6758232.5484618-.1875688 1.1078833-.3425675 1.687519-.4603272z" fill="#fff"/></g><g><path d="m39.923275 49.2417068c.5729408-.1154709 1.1571617-.1984787 1.7747421-.1839409-.476944.3966904-.9897575.6884995-1.5134201.9480591-.5282898.2679062-1.0676537.4815598-1.6161156.6691284-.5484619.1875725-1.1124001.3512344-1.6874123.4606476-.573101.1155281-1.1595039.1921616-1.7835693.1794853.4857178-.3918571.9984207-.6839867 1.5222473-.9436035.5215912-.2656136 1.0676498-.4815598 1.6138229-.6758232.548462-.1875686 1.107998-.3422508 1.689705-.4539528z" fill="#fff"/></g></g></g></g></svg>