<svg height="512" viewBox="0 0 64 64" width="512" xmlns="http://www.w3.org/2000/svg"><g id="Layer_12" data-name="Layer 12"><rect fill="#57a4ff" height="54" rx="4" width="58" x="3" y="7"/><path d="m57 21v28h-8v8h-42v-36z" fill="#d1e7f8"/><path d="m49 57 8-8h-8z" fill="#2488ff"/><path d="m7 11h50v10h-50z" fill="#ed1c24"/><path d="m49 5v8a2 2 0 0 1 -4 0v-8a2 2 0 0 1 4 0z" fill="#ffcd00"/><path d="m20 5v8a2 2 0 0 1 -4 0v-8a2 2 0 0 1 4 0z" fill="#ffcd00"/><path d="m21 57h28v-8h8v-28a36 36 0 0 1 -36 36z" fill="#bddbff"/><path d="m24.009 42.193a1 1 0 0 1 .287.886l-1.366 7.965a1 1 0 0 0 1.451 1.056l7.154-3.76a.994.994 0 0 1 .93 0l7.154 3.76a1 1 0 0 0 1.451-1.054l-1.37-7.967a1 1 0 0 1 .287-.886l5.788-5.641a1 1 0 0 0 -.555-1.706l-8-1.162a1 1 0 0 1 -.753-.547l-3.567-7.247a1 1 0 0 0 -1.794 0l-3.577 7.247a1 1 0 0 1 -.753.547l-8 1.162a1 1 0 0 0 -.555 1.706z" fill="#ff9811"/></g></svg>