<svg id="Layer_1" enable-background="new 0 0 68 68" height="512" viewBox="0 0 68 68" width="512" xmlns="http://www.w3.org/2000/svg"><g><g><g><path d="m7.433 58.228h10.51v5.213h-10.51z" fill="#3d4a75"/></g><g><path d="m28.745 58.228h10.51v5.213h-10.51z" fill="#3d4a75"/></g><g><path d="m50.058 58.228h10.51v5.213h-10.51z" fill="#3d4a75"/></g></g><g><path d="m66 56.3095856v1.9599609c0 .2700195-.2202148.5-.5.5h-63c-.2800293 0-.5-.2299805-.5-.5v-1.9599609c0-.2700195.2199707-.5.5-.5h63c.2797852 0 .5.2299804.5.5z" fill="#4f5d99"/></g><g><path d="m66 63.3994293v1.9501953c0 .2797852-.2202148.5-.5.5h-63c-.2800293 0-.5-.2202148-.5-.5v-1.9501953c0-.2797852.2199707-.5.5-.5h63c.2797852 0 .5.2202149.5.5z" fill="#4f5d99"/></g><g><g><g><g><path d="m32.8491516 30.7224255v23.2808361c0 .9617348-.7796402 1.7413712-1.7413712 1.7413712h-24.9470763c-.9617333 0-1.7413726-.7796364-1.7413726-1.7413712v-23.2808361c0-.9617348.7796392-1.7413731 1.7413726-1.7413731h24.9470768c.9617305 0 1.7413707.7796383 1.7413707 1.7413731z" fill="#fdc72e"/></g><g><path d="m21.8860512 28.9810524v6.7773628c0 .2817993-.3138332.4346886-.5392342.2739372l-2.5114441-1.8110695c-.1206589-.0888214-.2816029-.0888214-.4024601 0l-2.5112467 1.8110695c-.2254009.1607513-.5394297.0078621-.5394297-.2739372v-6.7773628z" fill="#ed524e"/></g></g><g><g><path d="m21.037 49.271h8.577v1.293h-8.577z" fill="#f9ac00"/></g><g><path d="m16.598 52.297h13.016v1.293h-13.016z" fill="#f9ac00"/></g></g><g opacity=".2"><g><path d="m25.930624 55.7446327h-12.1583557l-8.8355293-26.267313c.3184609-.3085022.746233-.4974899 1.223803-.4974899h10.7557669z" fill="#fff"/></g><g><path d="m32.3384666 55.2374306c-.3184624.3080139-.7462349.5072021-1.2337646.5072021h-2.0497112l-9.0145569-26.7648029h3.4525433z" fill="#fff"/></g></g></g><g><g><g><path d="m63.5806694 30.7224255v23.2808361c0 .9617348-.7796402 1.7413712-1.741375 1.7413712h-24.9470749c-.961731 0-1.7413712-.7796364-1.7413712-1.7413712v-23.2808361c0-.9617348.7796402-1.7413731 1.7413712-1.7413731h24.9470749c.9617348 0 1.741375.7796383 1.741375 1.7413731z" fill="#fdc72e"/></g><g><path d="m52.617569 28.9810524v6.7773628c0 .2817993-.3138351.4346886-.5392342.2739372l-2.5114441-1.8110695c-.1206589-.0888214-.2816048-.0888214-.402462 0l-2.5112457 1.8110695c-.2254028.1607513-.5394287.0078621-.5394287-.2739372v-6.7773628z" fill="#ed524e"/></g></g><g><g><path d="m51.769 49.271h8.577v1.293h-8.577z" fill="#f9ac00"/></g><g><path d="m47.329 52.297h13.016v1.293h-13.016z" fill="#f9ac00"/></g></g><g opacity=".2"><g><path d="m56.6621399 55.7446327h-12.1583557l-8.8355293-26.267313c.3184624-.3085022.7462349-.4974899 1.2238045-.4974899h10.7557678z" fill="#fff"/></g><g><path d="m63.0699806 55.2374306c-.3184586.3080139-.7462311.5072021-1.2337608.5072021h-2.0497131l-9.0145569-26.7648029h3.4525452z" fill="#fff"/></g></g></g></g><g><g><g><g><path d="m48.2149086 3.8929701v23.280838c0 .9617329-.7796364 1.7413712-1.7413712 1.7413712h-24.9470748c-.9617329 0-1.7413731-.7796383-1.7413731-1.7413712v-23.280838c0-.9617336.7796402-1.7413726 1.7413731-1.7413726h24.9470749c.9617347 0 1.7413711.779639 1.7413711 1.7413726z" fill="#70c1f9"/></g><g><path d="m37.2518082 2.1515975v6.7773614c0 .2818003-.3138313.4346886-.5392342.2739401l-2.5114441-1.8110695c-.1206589-.0888243-.281601-.0888243-.4024582 0l-2.5112476 1.8110695c-.2254009.1607485-.5394287.0078602-.5394287-.2739401v-6.7773614z" fill="#ed524e"/></g></g><g><g><path d="m36.403 22.441h8.577v1.293h-8.577z" fill="#46b8f7"/></g><g><path d="m31.964 25.468h13.016v1.293h-13.016z" fill="#46b8f7"/></g></g><g opacity=".2"><g><path d="m41.2963829 28.9151783h-12.1583576l-8.8355274-26.267314c.3184605-.3085015.746233-.497489 1.2238026-.497489h10.7557697z" fill="#fff"/></g><g><path d="m47.7042236 28.4079742c-.3184624.3080158-.7462349.5072041-1.2337646.5072041h-2.0497093l-9.0145569-26.7648029h3.4525414z" fill="#fff"/></g></g></g></g></g></svg>