<svg id="Layer_1" enable-background="new 0 0 68 68" height="512" viewBox="0 0 68 68" width="512" xmlns="http://www.w3.org/2000/svg"><g><g><g><path d="m64.8150024 30.0899658v8.8598633c0 1.4602051-.8299561 2.7900391-2.1400146 3.4301758l-2.0200195.9899902c-1.3099365.6398926-2.1398926 1.9699707-2.1398926 3.4299316v14.5400391c0 2.1098633-1.7099609 3.8200684-3.8200684 3.8200684h-41.3898926c-2.1201172 0-3.8300781-1.7102051-3.8300781-3.8200684v-54.6799316c0-2.1101074 1.7099609-3.8200684 3.8300781-3.8200684h41.3898926c2.1101074 0 3.8200684 1.7099609 3.8200684 3.8200684v15.5700684c0 1.4599609.8299561 2.7897949 2.1298828 3.4299316l2.0400391 1c1.3000488.6398926 2.1300048 1.9699707 2.1300048 3.4299316z" fill="#304056"/></g></g><g><g><path d="m55.2050171 8.9998779v50c0 1.5700684-1.2700195 2.8300781-2.8399658 2.8300781h-16.5300293c-1.5699463 0-2.8399658-1.2600098-2.8399658-2.8300781v-50c0-1.5598145 1.2700195-2.829834 2.8399658-2.829834h16.5300293c1.5699463 0 2.8399658 1.2700196 2.8399658 2.829834z" fill="#fff"/></g></g><g><g><path d="m45.375061 30.0899658v8.8598633c0 1.4602051.8299561 2.7900391 2.1400146 3.4301758l2.0200195.9899902c1.3099365.6398926 2.1398926 1.9699707 2.1398926 3.4299316v14.5400391c0 2.1098633-1.7099609 3.8200684-3.8199463 3.8200684h-40.8499755c-2.1101074 0-3.8200684-1.7102051-3.8200684-3.8200684v-54.6799316c0-2.1101074 1.7099609-3.8200684 3.8200684-3.8200684h40.8499756c2.1099854 0 3.8199463 1.7099609 3.8199463 3.8200684v15.5700684c0 1.4599609-.8299561 2.7897949-2.1298828 3.4299316l-2.0400391 1c-1.3000488.6398926-2.1300049 1.9699707-2.1300049 3.4299316z" fill="#488ff7"/></g></g><g><g><g><path d="m40.6050415 10.7598877v14.8500977c0 1.3398438-1.0899658 2.4399414-2.4400635 2.4399414h-21.4699707c-1.3499756 0-2.4399414-1.1000977-2.4399414-2.4399414v-14.8500977c0-1.3498535 1.0899658-2.4399414 2.4399414-2.4399414h21.4699707c1.3500977 0 2.4400635 1.0900879 2.4400635 2.4399414z" fill="#dbdbdb"/></g></g><g><g><g><path d="m24.9794312 24.5465088h-6.7285156c-.2763672 0-.5-.2236328-.5-.5s.2236328-.5.5-.5h6.7285156c.2763672 0 .5.2236328.5.5s-.2236329.5-.5.5z"/></g></g></g><g><g><g><path d="m36.602478 24.5465088h-7.540039c-.2763672 0-.5-.2236328-.5-.5s.2236328-.5.5-.5h7.5400391c.2763672 0 .5.2236328.5.5s-.2236329.5-.5000001.5z"/></g></g></g><g><g><g><path d="m36.602478 12.8214111h-11.956543c-.2763672 0-.5-.2236328-.5-.5s.2236328-.5.5-.5h11.956543c.2763672 0 .5.2236328.5.5s-.2236328.5-.5.5z"/></g></g></g><g><g><g><path d="m21.1459351 12.8214111h-2.8950195c-.2763672 0-.5-.2236328-.5-.5s.2236328-.5.5-.5h2.8950195c.2763672 0 .5.2236328.5.5s-.2236329.5-.5.5z"/></g></g></g><g><g><g><path d="m36.602478 18.6837158h-4.456543c-.2763672 0-.5-.2236328-.5-.5s.2236328-.5.5-.5h4.456543c.2763672 0 .5.2236328.5.5s-.2236328.5-.5.5z"/></g></g></g><g><g><g><path d="m28.562439 18.6837158h-10.3115235c-.2763672 0-.5-.2236328-.5-.5s.2236328-.5.5-.5h10.3115235c.2763672 0 .5.2236328.5.5s-.2236328.5-.5.5z"/></g></g></g></g></g></svg>