<svg id="Layer_1" enable-background="new 0 0 68 68" height="512" viewBox="0 0 68 68" width="512" xmlns="http://www.w3.org/2000/svg"><g><g><g><g><g><path d="m65.9958878 31.6963902c0 3.1873875-1.2894287 6.0742741-3.3776131 8.1588383-2.0881844 2.0919876-4.9713097 3.3812828-8.1587448 3.3812828h-40.9231234c-6.3710623-.0000001-11.5364065-5.1653443-11.5364065-11.5401211 0-3.1836739 1.2932398-6.0705624 3.3776155-8.1588383 1.6013551-1.5974083 3.6743093-2.7308788 5.9907002-3.1684437-.0113754-.1938953-.0189905-.3916912-.0189905-.5894871 0-5.1463995 4.1725588-9.3188658 9.3188667-9.3188658 1.0193443 0 2.0007076.1636219 2.921154.4717379 2.4381313-5.2756643 7.7783813-8.9347906 13.970686-8.9347906 8.4973183 0 15.3856201 6.8883018 15.3856201 15.3857126 0 .9470062-.0874786 1.8750668-.2510071 2.7765675h1.7648849c6.3710633 0 11.536358 5.1653461 11.536358 11.5364075z" fill="#e5e8ef"/></g><g><path d="m66 31.7005844c0 3.1794853-1.2899551 6.0694351-3.3799095 8.1591454-2.0897102 2.0901985-4.9694061 3.3796654-8.1593895 3.3796654h-3.9997406c3.1899796 0 6.0696754-1.2894669 8.1593857-3.3796654 2.0899544-2.0897102 3.3799095-4.97966 3.3799095-8.1591454 0-6.379961-5.16959-11.5392971-11.5392952-11.5392971h-1.7699089c.1701584-.9003334.2499847-1.8299618.2499847-2.7800961 0-7.8295746-5.8394661-14.2788677-13.3990402-15.2490196.6598701-.089838 1.3297462-.1298745 2.0198898-.1298745 8.4994545 0 15.3788948 6.8794408 15.3788948 15.3788948 0 .9501343-.0798302 1.8797626-.2499847 2.7800961h1.7699051c6.369709-.0000007 11.539299 5.1593354 11.539299 11.5392964z" fill="#cdd4df"/></g></g><g opacity=".28"><path d="m21.6498756 19.4124527c-1.6699219 1.6699219-3.8200684 2.2294922-4.8000488 1.2597656-.9699707-.9799805-.4099121-3.1298828 1.2600098-4.7998037s3.8200684-2.2304688 4.8000488-1.2602539c.9699707.9799805.4099121 3.1201162-1.2600098 4.800292z" fill="#fff"/></g></g></g><g><g><g><path d="m33.6464386 23.8630199-16.6259918 4.7909279c-.5435944.156641-.9179363.6540833-.9179363 1.219799v8.800333c0 11.6703796 6.7672062 22.2818909 17.3487377 27.2041855l.0112762.0052414c.3394737.1579208.7313499.1579208 1.0708237.0000076l.0000191-.0000076c10.588398-4.925415 17.3600121-15.5437698 17.3600121-27.2216911v-8.7880688c0-.5657139-.3743401-1.063158-.9179382-1.219799l-16.6260109-4.7909279c-.2296563-.0661773-.4733316-.0661773-.7029916 0z" fill="#5cbeff"/></g><g><path d="m50.9745331 28.6526508-7.1190186-2.0523396v12.062542c0 5.8383522-1.6944885 11.4140205-4.7086906 16.13937-2.3264961 3.6462059-5.4358597 6.7948914-9.1658955 9.1658936 1.1072693.7102356 2.2649174 1.3478394 3.4728107 1.912529h.0111961c.3355942.1622009.7270279.1622009 1.068222 0 5.2903137-2.4605637 9.6299629-6.3473396 12.649765-11.0784225 3.0143356-4.7253494 4.708828-10.3010178 4.708828-16.13937v-8.7912503c.0000001-.5646934-.3747786-1.0624866-.9172171-1.2189522z" fill="#079cff"/></g><g><path d="m47.0934944 32.5784721v6.8953781c0 8.8693466-4.9771156 17.0396576-12.784111 21.1388741-.1062241.0614395-.2068481.1119537-.3130684.1679306-7.9802551-4.0489731-13.0917149-12.3200378-13.0917149-21.3068047v-6.8953781l13.0917149-3.7693558 9.8591995 2.8354816z" fill="#e5e8ef"/></g></g><g><path d="m43.8555145 31.644598v7.0182552c0 5.8383522-1.6944885 11.4140205-4.7086906 16.13937-1.3590355 2.125248-2.980751 4.0825577-4.8374405 5.8105011 7.8069954-4.0992165 12.784111-12.2695274 12.784111-21.1388741v-6.8953781z" fill="#cdd4df"/></g><g><path d="m36.1660042 42.8620338.9748993 6.4007835c.0545006.3578262-.2224655.6801682-.5844154.6801682h-5.1203384c-.3619461 0-.6389084-.3223343-.5844173-.6801529l.9747581-6.4007988c-.7471752-.6172791-1.2213955-1.5527153-1.2213955-2.6048813 0-2.0260315 1.7701836-3.6283989 3.8411942-3.3622551 1.475544.1896248 2.6884346 1.3728333 2.903244 2.8449249.1837844 1.2594949-.3160402 2.4053803-1.183529 3.1222115z" fill="#33527d"/></g></g></g></svg>