<svg id="Layer_1" enable-background="new 0 0 68 68" height="512" viewBox="0 0 68 68" width="512" xmlns="http://www.w3.org/2000/svg"><g><g><g><g><g><g><path d="m65.9958878 31.4413929c0 3.1873875-1.2894287 6.0742741-3.3776131 8.1588383-2.0881844 2.0919876-4.9713097 3.3812828-8.1587448 3.3812828h-40.9231234c-6.3710623 0-11.5364065-5.1653443-11.5364065-11.5401211 0-3.1836739 1.2932398-6.0705624 3.3776155-8.1588383 1.6013551-1.5974083 3.6743093-2.7308788 5.9907002-3.1684437-.0113754-.1938953-.0189905-.3916912-.0189905-.5894871 0-5.1464005 4.1725588-9.3188658 9.3188667-9.3188658 1.0193443 0 2.0007076.1636219 2.921154.4717379 2.4381313-5.2756643 7.7783813-8.9347906 13.970686-8.9347906 8.4973183 0 15.3856201 6.8883018 15.3856201 15.3857126 0 .9470043-.0874786 1.8750668-.2510071 2.7765675h1.7648849c6.3710633 0 11.536358 5.1653443 11.536358 11.5364075z" fill="#5cbeff"/><path d="m66 31.4455872c0 3.1794853-1.2899551 6.0694351-3.3799095 8.1591454-2.0897102 2.0901985-4.9694061 3.3796654-8.1593895 3.3796654h-3.9997406c3.1899796 0 6.0696754-1.2894669 8.1593857-3.3796654 2.0899544-2.0897102 3.3799095-4.97966 3.3799095-8.1591454 0-6.379961-5.16959-11.5392971-11.5392952-11.5392971h-1.7699089c.1701584-.9003334.2499847-1.8299618.2499847-2.7800961 0-7.8295746-5.8394661-14.2788677-13.3990402-15.2490196.6598701-.089838 1.3297462-.1298745 2.0198898-.1298745 8.4994545 0 15.3788948 6.8794408 15.3788948 15.3788948 0 .9501343-.0798302 1.8797626-.2499847 2.7800961h1.7699051c6.369709-.0000007 11.539299 5.1593353 11.539299 11.5392964z" fill="#079cff"/></g><path d="m21.6498756 19.1574554c-1.6699219 1.6699219-3.8200684 2.2294922-4.8000488 1.2597656-.9699707-.9799805-.4099121-3.1298828 1.2600098-4.7998037s3.8200684-2.2304688 4.8000488-1.2602539c.9699707.9799805.4099121 3.1201163-1.2600098 4.800292z" fill="#fff" opacity=".28"/></g></g></g></g><g><g><g><g><ellipse cx="34.002" cy="52.094" fill="#435e88" rx="16.226" ry="6.265"/><path d="m50.2243843 52.094101v7.8977242c0 3.45718-7.2615471 6.2654686-16.2259521 6.2654686-8.9581318 0-16.225956-2.8082886-16.225956-6.2654686v-7.8977242c0 3.4571762 7.2678242 6.2654648 16.225956 6.2654648 8.964405-.0000001 16.2259521-2.8082886 16.2259521-6.2654648z" fill="#e5e8ef"/></g><g><g><circle cx="46.695" cy="59.694" fill="#c175ff" r="1.621"/><path d="m48.3149452 59.6909409c0 .895256-.7245979 1.619854-1.6196785 1.619854-.5185623 0-.9802361-.2414169-1.2716026-.6250496.7388191-.6253929 1.7190552-1.4564781 2.4720955-2.0815277.2558136.2840842.4191856.6677131.4191856 1.0867233z" fill="#b244f1"/></g></g><g><circle cx="41.856" cy="61.314" fill="#ffd80c" r="1.621"/><path d="m43.4755096 61.3114853c0 .895256-.7245979 1.619854-1.6196785 1.619854-.5185623 0-.9802361-.2414169-1.2716026-.6250496.7388191-.6253929 1.7190552-1.4564781 2.4720955-2.0815239.2558098.2840805.4191856.6677093.4191856 1.0867195z" fill="#ffbe00"/></g></g><g><g><ellipse cx="34.002" cy="39.626" fill="#435e88" rx="16.226" ry="6.265"/><path d="m50.2243843 39.6262474v7.897728c0 3.4571762-7.2615471 6.2654648-16.2259521 6.2654648-8.9581318 0-16.225956-2.8082886-16.225956-6.2654648v-7.897728c0 3.4571762 7.2678242 6.2654686 16.225956 6.2654686 8.964405 0 16.2259521-2.8082924 16.2259521-6.2654686z" fill="#e5e8ef"/></g><g><g><circle cx="46.695" cy="47.226" fill="#c175ff" r="1.621"/><path d="m48.3149452 47.2230911c0 .8952522-.7245979 1.6198502-1.6196785 1.6198502-.5185623 0-.9802361-.2414169-1.2716026-.6250496.7388191-.6253929 1.7190552-1.4564781 2.4720955-2.0815239.2558136.2840805.4191856.6677093.4191856 1.0867233z" fill="#b244f1"/></g></g><g><circle cx="41.856" cy="48.846" fill="#ffd80c" r="1.621"/><path d="m43.4755096 48.8436356c0 .8952522-.7245979 1.6198502-1.6196785 1.6198502-.5185623 0-.9802361-.2414169-1.2716026-.6250458.7388191-.6253967 1.7190552-1.4564819 2.4720955-2.0815277.2558098.2840804.4191856.6677131.4191856 1.0867233z" fill="#ffbe00"/></g></g><g><g><ellipse cx="34.002" cy="27.158" fill="#435e88" rx="16.226" ry="6.265"/><path d="m50.2243843 27.1583939v7.897728c0 3.4571762-7.2615471 6.2654686-16.2259521 6.2654686-8.9581318 0-16.225956-2.8082924-16.225956-6.2654686v-7.897728c0 3.4571781 7.2678242 6.2654686 16.225956 6.2654686 8.964405 0 16.2259521-2.8082905 16.2259521-6.2654686z" fill="#e5e8ef"/></g><g><g><circle cx="46.695" cy="34.758" fill="#c175ff" r="1.621"/><path d="m48.3149452 34.7552376c0 .8952522-.7245979 1.6198502-1.6196785 1.6198502-.5185623 0-.9802361-.2414169-1.2716026-.6250458.7388191-.6253967 1.7190552-1.4564819 2.4720955-2.0815277.2558136.2840805.4191856.6677131.4191856 1.0867233z" fill="#b244f1"/></g></g><g><circle cx="41.856" cy="36.379" fill="#ffd80c" r="1.621"/><path d="m43.4755096 36.375782c0 .8952522-.7245979 1.6198502-1.6196785 1.6198502-.5185623 0-.9802361-.2414169-1.2716026-.6250458.7388191-.6253967 1.7190552-1.4564781 2.4720955-2.0815277.2558098.2840805.4191856.6677132.4191856 1.0867233z" fill="#ffbe00"/></g></g></g></g></g></svg>