<svg height="512" viewBox="0 0 58 58" width="512" xmlns="http://www.w3.org/2000/svg"><g id="Page-1" fill="none" fill-rule="evenodd"><g id="063---Engineering-Process" transform="translate(-1 -1)"><path id="Path" d="m47 30c-.0013295.5324297-.0296994 1.0644483-.085 1.594-.0644127.461159-.4222362.8262851-.882.9l-2.529.414c-.3543417 1.6245762-.997915 3.1722006-1.9 4.569l1.5 2.093c.2782558.3771284.273772.8927675-.011 1.265-.329.4-.691.8-1.073 1.179s-.776.733-1.179 1.073c-.3722325.284772-.8878716.2892558-1.265.011l-2.096-1.498c-1.3967994.902085-2.9444238 1.5456583-4.569 1.9l-.411 2.533c-.0700058.4616719-.4370082.8213343-.9.882-1.0596451.1133302-2.1283549.1133302-3.188 0-.4629918-.0606657-.8299942-.4203281-.9-.882l-.423-2.533c-1.6245762-.3543417-3.1722006-.997915-4.569-1.9l-2.093 1.5c-.3771284.2782558-.8927675.273772-1.265-.011-.4-.34-.8-.691-1.179-1.073s-.744-.776-1.073-1.179c-.284772-.3722325-.2892558-.8878716-.011-1.265l1.5-2.093c-.902085-1.3967994-1.5456583-2.9444238-1.9-4.569l-2.532-.41c-.4597638-.0737149-.8175873-.438841-.882-.9-.1133302-1.0596451-.1133302-2.1283549 0-3.188.0606657-.4629918.4203281-.8299942.882-.9l2.529-.414c.3543417-1.6245762.997915-3.1722006 1.9-4.569l-1.5-2.093c-.2782558-.3771284-.273772-.8927675.011-1.265.3351704-.4129.6934082-.8065276 1.073-1.179.383-.382.776-.744 1.179-1.073.3722325-.284772.8878716-.2892558 1.265-.011l2.093 1.5c1.396992-.9017185 2.9445479-1.5452633 4.569-1.9l.414-2.529c.0700058-.4616719.4370082-.8213343.9-.882 1.0596451-.1133302 2.1283549-.1133302 3.188 0 .4629918.0606657.8299942.4203281.9.882l.414 2.529c1.6244521.3547367 3.172008.9982815 4.569 1.9l2.093-1.5c.3771284-.2782558.8927675-.273772 1.265.011.4.329.8.691 1.179 1.073.3795918.3724724.7378296.7661 1.073 1.179.284772.3722325.2892558.8878716.011 1.265l-1.492 2.084c.902085 1.3967994 1.5456583 2.9444238 1.9 4.569l2.529.414c.4616719.0700058.8213343.4370082.882.9.0567383.5304789.0864434 1.0635016.089 1.597z" fill="#3b97d3"/><circle id="Oval" cx="30" cy="30" fill="#285680" r="10"/><circle id="Oval" cx="30" cy="30" fill="#2c3e50" r="5"/><g fill="#e64c3c"><path id="Path" d="m18.16 51.921c-.3511867.6562442-1.036708 1.0642468-1.781 1.06-.3756235-.0004305-.7433352-.1079689-1.06-.31-7.68508937-4.9790636-12.32278523-13.5139449-12.319-22.671v-1h-.72c-.48444313-.0225326-.91937671-.3037421-1.13874029-.7362609-.21936359-.4325188-.18928931-.9495696.07874029-1.3537391l2.72-4.31c.22334214-.3724211.62574297-.6003145 1.06-.6003145s.83665786.2278934 1.06.6003145l2.72 4.31c.26810416.404317.2980811.9215698.07847868 1.3541514s-.65485551.7136578-1.13947868.7358486h-.719v1c-.00524356 7.7941799 3.9400708 15.0598828 10.48 19.3.8760587.5622396 1.1722207 1.7037699.68 2.621z"/><path id="Path" d="m51.921 41.84c.6562442.3511867 1.0642468 1.036708 1.06 1.781-.0004305.3756235-.1079689.7433352-.31 1.06-4.9790636 7.6850894-13.5139449 12.3227852-22.671 12.319h-1v.72c-.0225326.4844431-.3037421.9193767-.7362609 1.1387403s-.9495696.1892893-1.3537391-.0787403l-4.31-2.72c-.3724211-.2233421-.6003145-.625743-.6003145-1.06s.2278934-.8366579.6003145-1.06l4.31-2.72c.404317-.2681042.9215698-.2980811 1.3541514-.0784787s.7136578.6548555.7358486 1.1394787v.719h1c7.7941799.0052436 15.0598828-3.9400708 19.3-10.48.5622396-.8760587 1.7037699-1.1722207 2.621-.68z"/><path id="Path" d="m41.84 8.079c.3511867-.65624424 1.036708-1.06424684 1.781-1.06.3756235.00043054.7433352.10796887 1.06.31 7.6850894 4.9790636 12.3227852 13.5139449 12.319 22.671v1h.72c.4844431.0225326.9193767.3037421 1.1387403.7362609s.1892893.9495696-.0787403 1.3537391l-2.72 4.31c-.2233421.3724211-.625743.6003145-1.06.6003145s-.8366579-.2278934-1.06-.6003145l-2.72-4.31c-.2681042-.404317-.2980811-.9215698-.0784787-1.3541514s.6548555-.7136578 1.1394787-.7358486h.719v-1c.0052436-7.7941799-3.9400708-15.0598828-10.48-19.3-.8760587-.5622396-1.1722207-1.70376995-.68-2.621z"/><path id="Path" d="m8.079 18.16c-.65624424-.3511867-1.06424684-1.036708-1.06-1.781.00043054-.3756235.10796887-.7433352.31-1.06 4.9790636-7.68508937 13.5139449-12.32278523 22.671-12.319h1v-.72c.0225326-.48444313.3037421-.91937671.7362609-1.13874029.4325188-.21936359.9495696-.18928931 1.3537391.07874029l4.31 2.72c.3724211.22334214.6003145.62574297.6003145 1.06s-.2278934.83665786-.6003145 1.06l-4.31 2.72c-.404317.26810416-.9215698.2980811-1.3541514.07847868s-.7136578-.65485551-.7358486-1.13947868v-.719h-1c-7.7941799-.00524356-15.0598828 3.9400708-19.3 10.48-.5622396.8760587-1.70376995 1.1722207-2.621.68z"/></g></g></g></svg>