<svg id="Layer_1" height="512" viewBox="0 0 64 64" width="512" xmlns="http://www.w3.org/2000/svg" xmlns:xlink="http://www.w3.org/1999/xlink" data-name="Layer 1"><linearGradient id="linear-gradient" gradientUnits="userSpaceOnUse" x1="38.64" x2="46.82" y1="23.66" y2="60.38"><stop offset="0" stop-color="#134287"/><stop offset="1" stop-color="#061f4a"/></linearGradient><linearGradient id="linear-gradient-2" gradientUnits="userSpaceOnUse" x1="5" x2="51" y1="28" y2="28"><stop offset="0" stop-color="#ffaf48"/><stop offset="1" stop-color="#ff5924"/></linearGradient><linearGradient id="linear-gradient-3" x1="17" x2="17" xlink:href="#linear-gradient" y1="16.14" y2="33.06"/><linearGradient id="linear-gradient-4" x1="28" x2="28" xlink:href="#linear-gradient" y1="16.14" y2="33.06"/><linearGradient id="linear-gradient-5" x1="39" x2="39" xlink:href="#linear-gradient" y1="16.14" y2="33.06"/><path d="m51 22h-19a9 9 0 0 0 -9 9v11a9 9 0 0 0 9 9h15.8l7.1 7.1a2.88 2.88 0 0 0 2.1.9 3.59 3.59 0 0 0 1.1-.2 3.17 3.17 0 0 0 1.9-2.8v-25a9 9 0 0 0 -9-9z" fill="url(#linear-gradient)"/><path d="m42 42a9 9 0 0 0 9-9v-18a9 9 0 0 0 -9-9h-28a9 9 0 0 0 -9 9v32a3 3 0 0 0 1.9 2.8 3.59 3.59 0 0 0 1.1.2 2.88 2.88 0 0 0 2.1-.9l7.1-7.1z" fill="url(#linear-gradient-2)"/><g id="Layer_1-2" data-name="Layer 1"><circle cx="17" cy="24" fill="url(#linear-gradient-3)" r="3"/><circle cx="28" cy="24" fill="url(#linear-gradient-4)" r="3"/><circle cx="39" cy="24" fill="url(#linear-gradient-5)" r="3"/></g></svg>