<svg id="Layer_1" enable-background="new 0 0 68 68" height="512" viewBox="0 0 68 68" width="512" xmlns="http://www.w3.org/2000/svg"><g><g fill="#f9ac00"><path d="m2.0011437 33.905674v5.4912109h49.9340827l-1.4099121-5.4912109z"/><path d="m59.0528717 24.2397308v32.3875732c0 3.2323875-2.6203651 5.8527527-5.8527527 5.8527527h-.0000114c-3.2297897 0-5.848053-2.6182594-5.848053-5.848053v-35.086277h9.006813c1.4878579.0000001 2.6940041 1.2061463 2.6940041 2.6940041z"/></g><g><g><path d="m65.3540497 21.5670033-4.8418579-1.2789688c-.2478943-.8093128-.5872307-1.6052437-.9788246-2.3492393l2.5318108-4.3199463c.156765-.2740192.1175766-.626421-.1172523-.8612499l-3.3019333-3.3019333c-.2348289-.234828-.5872307-.2870827-.8746338-.1175737l-4.3199463 2.5190668c-.5088463-.2612743-1.0307579-.5091658-1.5791168-.7048035-.2609558-.1045094-.5088463-.1828918-.7698021-.2740192l-1.2659074-4.8291136c-.0914459-.312892-.3654633-.5349751-.6917381-.5349751h-4.6854134c-.3262749 0-.6133575.2220831-.6917419.5349751l-.1564446.5875487-.2087021.8089943-.9007568 3.4325705c-.8220596.2609558-1.6052437.5872297-2.3619843.9788227l-4.3072014-2.5190668c-.2867661-.1695089-.6391678-.1172543-.8743134.1175737l-2.1271553 2.1274738-1.1744595 1.1744595c-.2351475.2348289-.2743378.5872307-.1175747.8612499l2.5187492 4.3199463c-.3915939.7439957-.7178688 1.5399265-.9657593 2.3623028l-4.8418598 1.2659054c-.3132095.0783825-.5349751.3654652-.5349751.69174v4.6720314c0 .3396549.2217655.6136761.5349751.6920567l4.8418598 1.2789707c.2478905.8089943.5741653 1.6052437.9788208 2.3489189l-2.5318108 4.3199463c-.1567631.2740211-.1175728.6394844.1175747.8615685l3.3016148 3.3146782c.2351456.222084.5875473.2743378.8743134.1045113l4.3072014-2.5187492c.5219116.2740211 1.0438232.5088501 1.5918617.7175484.2482109.0914459.5091667.1828918.7701225.2612762l1.2659035 4.8418579c.0783844.3132095.3654671.534977.6917419.534977h4.6854134c.3262749 0 .6002922-.2217674.6917381-.534977l1.2659073-4.8418579c.8220558-.2612762 1.6052437-.5875473 2.3489189-.9788246l.013382.0130653.6002922.3520813 2.7013245 1.5663719 1.0049477.5872307c.0783844.0522537.1698303.0783806.2612762.1045113.2217636.0258064.4435272-.0522575.6133575-.2090225l3.3019333-3.3146782c.2348289-.222084.2740173-.5875473.1172523-.8615685l-2.5318108-4.3199463c.3915939-.7436752.7309303-1.5399246.9788246-2.3489189l4.8418579-1.2789707c.3132095-.0783806.5352936-.3524017.5352936-.6920567v-4.6720314c.0000003-.326275-.2220838-.6133577-.5352933-.6917401zm-18.5584412 12.1374645c-5.0244331 0-9.1095505-4.0720539-9.1095505-9.1095505 0-5.0247498 4.0851173-9.1095505 9.1095505-9.1095505s9.1095505 4.0848007 9.1095505 9.1095505c0 5.0374966-4.0851173 9.1095505-9.1095505 9.1095505z" fill="#f14f4a"/></g><circle cx="46.796" cy="24.595" fill="#4f5d99" r="9.11"/><circle cx="46.796" cy="24.595" fill="#e9e9ff" r="7.354"/></g><path d="m53.1975212 62.4857521h-47.3514404c-2.1140974 0-3.84689-1.7446365-3.84689-3.870018v-30.1619854c0-1.0626907.8551151-1.9290867 1.9293677-1.9290867h17.0044384c.6354141 0 1.224575.3113613 1.5827541.8082981l2.379488 3.3617992c.2659531.3813038.6238499.6932297 1.0282803.8895226.3119259.1613216.6585407.2769527 1.0164375.3119259.1040688.0112801.2078552.0231266.311924.0231266h18.1711998c1.0742493 0 1.9293671.8545494 1.9293671 1.9178047v22.7914124c-.0000002 3.2348862 2.6104696 5.8572006 5.8450735 5.8572006z" fill="#fdc72e"/><g><g><path d="m50.8559113 54.7279358c0-.5104752.4137383-.9239311.9242134-.9239311h4.7892685c2.7627678 0 5.0102615-2.2483406 5.0102615-5.0111084v-5.1306915c0-.5104713.4137383-.9239273.9242134-.9239273s.9242134.413456.9242134.9239273v5.1306915c0 3.7820244-3.0769463 6.8589706-6.8586884 6.8589706h-4.7892685c-.5104751 0-.9242133-.413456-.9242133-.9239311z" fill="#70c1f9"/></g><g><path d="m59.0123367 46.959137c0-.1979828.0634575-.3976631.1943207-.5663147l2.5642166-3.3008804c.1748581-.2250595.4439125-.3570518.7287636-.3570518.2851334-.0005608.5541916.1308632.7296143.3553581l2.5760612 3.3008804c.3133316.4016113.2428284.9831581-.1599121 1.2973404-.4024582.3136139-.9831543.2419815-1.2970581-.1601944l-1.8458824-2.3651047-1.8360176 2.3634109c-.3130531.4033051-.8937531.4760666-1.296772.1630135-.2346497-.18219-.3573342-.4551964-.3573342-.7304573z" fill="#70c1f9"/></g></g><g><g><path d="m28.6294003 12.6018753c0 .5104752-.4137306.9239302-.9241962.9239302l-4.7891846-.0000038c-2.7627182-.0000019-5.0101776 2.2483406-5.0101795 5.0111074l-.0000038 5.1306934c0 .5104733-.4137325.9239292-.9241982.9239292s-.9241962-.413456-.9241943-.9239311l.0000038-5.1306915c.0000019-3.7820244 3.0768986-6.8589706 6.8585739-6.8589687l4.7891846.0000038c.5104655 0 .9241962.4134569.9241943.9239311z" fill="#7bd681"/></g><g><path d="m20.4731121 20.3706722c0 .1979847-.0634556.3976612-.194315.5663147l-2.5641747 3.3008804c-.1748562.2250595-.4439087.3570499-.728754.357048-.2851276.0005646-.5541782-.1308613-.729599-.3553581l-2.5760145-3.3008823c-.3133297-.4016113-.2428226-.9831562.1599092-1.2973385.4024506-.3136177.98314-.2419815 1.2970333.1601944l1.8458538 2.3651066 1.8359852-2.3634109c.3130474-.4033031.8937378-.4760666 1.296751-.1630135.234644.1821919.3573247.4551964.3573247.7304592z" fill="#7bd681"/></g></g><g fill="#fff" opacity=".2"><path d="m34.2986832 62.4857521h-18.1483517l-8.6289921-35.9610901h13.4116573c.6354141 0 1.224575.3113613 1.5827541.8082981l2.379488 3.3617992c.2659531.3813038.6238499.6932297 1.0282803.8895226.3119259.1613216.6585407.2769527 1.0164375.3119259z"/><path d="m44.1062813 62.4857521h-5.1408463l-7.3468818-30.5664177h5.1521263z"/></g></g></svg>