<svg id="Layer_1" enable-background="new 0 0 53 53" viewBox="0 0 53 53" xmlns="http://www.w3.org/2000/svg"><g><g><path d="m22.1936493 13.8827085 1.8245125 1.9102993c.448.4691 1.067688.7356005 1.7163887.7382002l20.6937981.0811996c1.3143005.0051003 2.3770027 1.0720005 2.3770027 2.386301v21.4476986c0 1.3179016-1.0684013 2.3862991-2.3863029 2.3862991h-39.8380977c-1.3179002 0-2.3863001-1.0683975-2.3863001-2.3862991v-24.9155988c0-1.3179007 1.0683999-2.3863001 2.3863001-2.3863001h13.8870001c.6518994.0000001 1.2754994.2666999 1.7256985.7382002z" fill="#e59900"/><path d="m46.8381615 3.646208v35.0699997h-40.6699996v-35.0699997c0-.6800001.5500002-1.24 1.2399998-1.24h38.1800003c.6899981 0 1.2499995.56 1.2499995 1.24z" fill="#e5e5e5"/><path d="m46.8381615 3.646208v.9399998c0-.6799998-.5600014-1.2399998-1.25-1.2399998h-38.1799999c-.6899996 0-1.2399998.5599999-1.2399998 1.2399998v-.9399998c0-.6800001.5500002-1.24 1.2399998-1.24h38.1800003c.6899982 0 1.2499996.56 1.2499996 1.24z" fill="#bcbcbc"/><path d="m6.168 38.716h40.67v.94h-40.67z" fill="#bcbcbc"/><g><path d="m10.31 6.206h32.707v3.123h-32.707z" fill="#fa5655"/><g fill="#545454"><path d="m10.31 10.503h32.707v1.005h-32.707z"/><path d="m10.31 13.457h32.707v1.005h-32.707z"/><path d="m10.31 16.411h32.707v1.005h-32.707z"/><path d="m10.31 19.366h32.707v1.005h-32.707z"/></g></g><path d="m23.9277496 17.4412079-1.3100986 2.0706005c-.4057007.6413002-1.1116009 1.0299988-1.8704014 1.0299988h-14.3391991c-1.2224002 0-2.2133999.9910011-2.2133999 2.2134018v22.4375973c0 1.2224007.9909997 2.2134018 2.2133999 2.2134018h40.1839981c1.2224007 0 2.2133026-.9910011 2.2133026-2.2134018v-26.5681973c0-1.2224007-.9909019-2.2134018-2.2133026-2.2134018h-20.7937984c-.7588997 0-1.4647999.3887005-1.8705006 1.0300007z" fill="#f3b607"/><path d="m48.8053513 18.6195087v26.5783978c0 1.2152023-.993103 2.2083015-2.2083015 2.2083015h-40.1940995c-.8623996 0-1.6071997-.4966011-1.9599996-1.2151985.3006001.1697998.6532998.2612 1.0192113.2612h40.1809998c1.2282867 0 2.2083893-.9799995 2.2083893-2.2082024v-26.5651989c0-.3659992-.0915031-.7187004-.2613907-1.0193005.7186889.3528004 1.2151909 1.0977002 1.2151909 1.960001z" fill="#e59900"/></g><g><g><g><g><path d="m38.3532448 35.6663017v11.3499756c0 4.7700195-23.710022 4.7700195-23.710022 0v-11.3499756z" fill="#545454"/><path d="m38.3532448 35.6663017v4.4799805l-10.3399658 4.0899658c-.4800415.1900024-1 .2900391-1.5200195.2900391-.5300293 0-1.0400391-.1000366-1.5300293-.2900391l-10.3200073-4.0899658v-4.4799805z" fill="#3e3e3f"/><path d="m44.9549904 36.7752571-10.8426933 4.2932396-2.2916279.9061852-2.0785275.8229103-1.9838314.7876358c-.8111992.3197937-1.7231674.3197937-2.5345116 0l-5.0453129-2.0014725-12.1335868-4.8084984c-.6572289-.2605209-.6572289-1.1962013 0-1.4506493l8.8471508-3.5177517 8.071228-3.2034512.2545929-.1006222c.6455193-.2547379 1.3442421-.3140144 2.0134697-.1598988.177536.0352764.355217.088768.5269699.1598988l2.4515266.970953 14.7451534 5.844799c.6573754.2605211.6573754 1.1962015.0000001 1.4567224z" fill="#545454"/></g></g></g><g><path d="m26.5854092 36.2668419-14.8899775 1.9568367v5.806736h-.5460653v-6.0616036c0-.1273766.1001024-.2366447.2275362-.2548103l15.1357336-1.9932251z" fill="#e5e5e5"/></g><path d="m12.2779379 47.1885948c-.8373184 1.6838036-2.4482946 1.8202934-3.3584414 1.7475204-.1547089-.018219-.1729298-.2184792-.0363855-.282196 1.3469982-.5824509 1.1740685-2.2753677 1.1740685-2.2753677-.0091105-.6826096.1001024-1.1467361.2730331-1.4562111.4186869-.8100433 1.2013988-.6097832 1.2013988-.6097832s.6188927.1183243.9374771.6643906c.2730332.4277992.3458052 1.119461-.1911506 2.211647z" fill="#e5e5e5"/><path d="m11.6954317 44.0304146h-.5460653v-1.3925476c.0818815-.0181656.1820402-.0272789.2730322-.0272789.0909929 0 .1911507.0091133.2730331.0272789z" fill="#bcbcbc"/><path d="m12.4690886 44.9769478c-.2457571.2912521-.6280022.4732933-1.04669.4732933-.4459629 0-.8464289-.2093697-1.092186-.5279007.4186869-.8100433 1.2013988-.6097832 1.2013988-.6097832s.6188927.1183243.9374772.6643906z" fill="#bcbcbc"/><path d="m12.3882694 44.0323486c0 .5278435-.4277973.9647522-.9647532.9647522-.5370102 0-.9648075-.4369087-.9648075-.9647522 0-.5370102.4277973-.9647522.9648075-.9647522.5369559 0 .9647532.427742.9647532.9647522z" fill="#fa5655"/><path d="m28.7894058 35.9307709c0 .5819664-1.0264397 1.0538483-2.291172 1.0538483-1.2647305 0-2.291172-.4718819-2.291172-1.0538483 0-.5774918 1.0264416-1.0493736 2.291172-1.0493736 1.2647324-.0000001 2.291172.4718818 2.291172 1.0493736z" fill="#3e3e3f"/></g></g></svg>