<svg id="Layer_1" enable-background="new 0 0 68 68" viewBox="0 0 68 68" xmlns="http://www.w3.org/2000/svg"><g><g><g><g><g><path d="m66.0499268 30.0599365v7.8300781c0 .6000977-.3798828 1.0500488-.9099121 1.1799316l-4.3200684 1.1401367c-.6799316 3.0100098-1.8598633 5.8098145-3.4499512 8.3498535l2.25 3.8500977c.2600098.4699707.1999512 1.0800781-.1899414 1.4499512l-.7199707.7199707-4.8200684 4.8400879c-.0200195.0200195-.0400391.0400391-.0700684.0600586-.2700195.2199707-.6298828.329834-.9599609.3000488-.1499023-.0400391-.3000488-.1000977-.4399414-.170166l-1.6999512-1-2.1501465-1.25c-2.5300293 1.5900879-5.3400879 2.7700195-8.3400879 3.4599609l-1.1298828 4.3300781c-.1499023.5300293-.6201172.8898926-1.1799316.8898926h-7.8500977c-.5397949 0-1.0397949-.3598633-1.1799316-.8898926l-1.1298828-4.3300781c-2.9902344-.6899414-5.8100586-1.869873-8.3400879-3.4599609l-3.8400879 2.25c-.4799805.2800293-1.0800781.1899414-1.4799805-.1899414l-5.5400391-5.5600586c-.3898926-.369873-.4499512-.9799805-.1799316-1.4499512l2.2399902-3.8500977c-1.5898438-2.5400391-2.7700195-5.3398438-3.4499512-8.3498535l-4.3100586-1.1401367c-.5300293-.1298828-.9099121-.579834-.9099121-1.1799316v-7.8300781c0-.5400391.3798828-1.0100098.9099121-1.1599121l4.3100586-1.130127c.6799316-2.9897461 1.8601074-5.8098145 3.4499512-8.3398438l-2.2399902-3.8601074c-.2700195-.4799805-.2099609-1.0598145.1799316-1.4599609l.7202148-.7099609 1.2597656-1.2600098 3.5600586-3.5700684c.3999023-.3898926 1-.4899902 1.4799805-.1999512l3.8500977 2.25c2.5300293-1.5800781 5.3500977-2.7600098 8.3398438-3.4399414l.5200195-1.9799805.3400879-1.3601074.2299805-.8798828.0300293-.1101074c.1401367-.5300293.6401367-.8898926 1.1799316-.8898926h7.8500977c.5598145 0 1.0300293.3598633 1.1799316.8898926l1.1298828 4.3300781c3 .6799316 5.800293 1.8598633 8.3300781 3.4399414l3.8601074-2.25c.4699707-.2900391 1.079834-.1899414 1.4699707.1999512l5.5400391 5.5400391c.3898926.4001465.4499512.9799805.1899414 1.4599609l-2.2600098 3.8500977c1.5900879 2.5300293 2.7700195 5.3498535 3.4599609 8.3400879l4.3200684 1.1398926c.5300294.1499024.9099123.6198731.9099123 1.1599121z" fill="#dbdbdb"/></g></g></g><circle cx="33.796" cy="33.996" fill="#fff" r="19.67"/></g><path d="m32.1229935 48.0700531v-11.4923134c0-.5002022-.4054909-.9056931-.9056911-.9056931h-7.2441254c-.7362976 0-1.1648903-.8319321-.7374592-1.4314613l10.5829086-14.8439236c.5117226-.7177639 1.6431503-.3557358 1.6431503.5257664v11.505146c0 .5001984.4054909.9056892.9056892.9056892h7.2509422c.7365913 0 1.1651115.8325233.7370834 1.4319878l-10.5897215 14.8310967c-.5120469.7171288-1.6427765.3548775-1.6427765-.5262947z" fill="#488ff7"/></g></svg>