<svg id="Layer_1" enable-background="new 0 0 68 68" height="512" viewBox="0 0 68 68" width="512" xmlns="http://www.w3.org/2000/svg"><g><g><g><g><ellipse cx="34" cy="34" fill="#474f6f" rx="32.17" ry="32"/></g><g><path d="m61.1400146 17.039978c-5.6600341 9.0300293-15.7000122 15.0300293-27.1400146 15.0300293s-21.4799805-6-27.1400146-15.0300293c5.6500244-9.0299682 15.7000122-15.039978 27.1400146-15.039978s21.4899902 6.0100098 27.1400146 15.039978z" fill="#545d7a"/></g></g><g><g><g><g><g><path d="m51.773407 53.6463509c0 .5085487-.4118042.9207802-.9115791.9207802h-34.7218857c-.499774 0-.9117928-.4122314-.9117928-.9207802 0-.4995613.4120188-.9113655.9117928-.9113655h16.4475212v-6.2596931c0-.4999886.4120216-.9117928.9115791-.9117928.5085487 0 .920784.4118042.920784.9117928v6.2596931h16.4420013c.499775 0 .9115792.4118042.9115792.9113655z" fill="#fff"/></g></g></g><g><g><path d="m39.8176613 52.2912025v2.6080818c0 .2323532-.1883621.4207153-.4207153.4207153h-11.792902c-.2320423 0-.4201508-.1881065-.4201508-.4201508v-2.6086464c0-.2320442.1881084-.4201508.4201508-.4201508h11.7934666c.2320441.0000002.4201507.1881067.4201507.4201509z" fill="#ff3445"/></g></g></g><g><g><path d="m51.773407 15.299181v32.4714203c0 .7244949-.5873184 1.3118134-1.3118134 1.3118134h-33.9216308c-.724494 0-1.3118134-.5873184-1.3118134-1.3118134v-32.4714203c0-.7244949.5873194-1.3118134 1.3118134-1.3118134h33.9216309c.7244949 0 1.3118133.5873185 1.3118133 1.3118134z" fill="#fed110"/></g><g><g><g><path d="m23.1361866 19.3351192v24.399828c0 .1667404-.133522.3002625-.306776.3002625h-.8271923c-.173254 0-.306778-.133522-.306778-.3002625v-24.399828c0-.1667404.1335239-.3002644.306778-.3002644h.8271923c.173254.0000001.306776.133524.306776.3002644z" fill="#313b5a"/></g><g><circle cx="22.416" cy="35.011" fill="#fff" r="2.272"/></g></g><g><g><path d="m30.5261974 19.3351192v24.399828c0 .1667404-.1335239.3002625-.306778.3002625h-.8271904c-.173254 0-.306778-.133522-.306778-.3002625v-24.399828c0-.1667404.1335239-.3002644.306778-.3002644h.8271904c.1732541.0000001.306778.133524.306778.3002644z" fill="#313b5a"/></g><g><circle cx="29.806" cy="39.068" fill="#ff3445" r="2.272"/></g></g><g><g><path d="m37.9162064 19.3351192v24.399828c0 .1667404-.133522.3002625-.3067741.3002625h-.8271943c-.1732521 0-.306778-.133522-.306778-.3002625v-24.399828c0-.1667404.1335258-.3002644.306778-.3002644h.8271942c.1732521.0000001.3067742.133524.3067742.3002644z" fill="#313b5a"/></g><g><circle cx="37.196" cy="33.768" fill="#0f9be8" r="2.272"/></g></g><g><g><path d="m43.8654671 43.7349472-.0001488-24.4001102c0-.1667423.133522-.3002663.3067741-.3002663h.8271942c.1732521 0 .306778.1335239.306778.3002663l.0001488 24.4001102c.0000038.1667404-.1335182.3002663-.3067741.3002663h-.8271904c-.173256 0-.306778-.1335259-.3067818-.3002663z" fill="#313b5a"/></g><g><ellipse cx="44.586" cy="26.501" fill="#9c68e1" rx="2.272" ry="2.272" transform="matrix(.969 -.248 .248 .969 -5.186 11.908)"/></g></g></g></g></g></g><g opacity=".26"><path d="m51.773407 58.3006783c0 .5100098-8.1834984.9299927-18.2668991.9299927-10.094862 0-18.2783585-.4199829-18.2783585-.9299927 0-.5200195 8.1834965-.9400024 18.2783585-.9400024 10.0834007-.0000001 18.2668991.4199828 18.2668991.9400024z" fill="#20273a"/></g></g></svg>