<svg id="Layer_1" enable-background="new 0 0 68 68" height="512" viewBox="0 0 68 68" width="512" xmlns="http://www.w3.org/2000/svg"><g><path d="m25.142 52.964h17.717v9.323h-17.717z" fill="#3d4a75"/><path d="m65.8590698 8.6800928v38.3287544c0 3.6894035-2.9917946 6.6813812-6.6813774 6.6813812h-50.3553829c-3.6895843 0-6.6813788-2.9919777-6.6813788-6.6813812v-38.3287544c0-3.689765 2.9917946-6.6813784 6.6813788-6.6813784h50.3553848c3.6895809 0 6.6813755 2.9916134 6.6813755 6.6813784z" fill="#4f5d99"/><path d="m47.2402382 66.0012894v-1.5683746c0-1.6704445-1.3541641-3.0246086-3.0246086-3.0246086h-20.4312592c-1.6704445 0-3.0246067 1.3541641-3.0246067 3.0246086v1.5683746z" fill="#4f5d99"/><path d="m61.1597748 9.3332968v30.9347229c0 1.2300072-.9971199 2.2271271-2.2271271 2.2271271h-49.8652964c-1.2300081 0-2.2271266-.9971199-2.2271266-2.2271271v-30.9347229c0-1.2300081.9971185-2.2271266 2.2271266-2.2271266h49.8652954c1.2300082 0 2.2271281.9971185 2.2271281 2.2271266z" fill="#e9e9ff"/><path d="m35.2694321 48.0924835c0 1.2050209-.9887657 2.1937904-2.1937866 2.1937904-1.2131367 0-2.1935863-.9887695-2.1935863-2.1937904 0-1.2131348.9804497-2.1933823 2.1935863-2.1933823 1.2050209.0000001 2.1937866.9802476 2.1937866 2.1933823z" fill="#3d4a75"/><g><g><path d="m43.0570946 24.3665657 5.5385132-.0000305v.8735161l-5.5385132.0000305c-.2382202.0000019-.4366951-.1935043-.4366951-.4368153 0-.2430668.1984749-.4366989.4366951-.4367008z" fill="#4f5d99"/><g><g><g><path d="m42.6451187 12.906641 5.563427-.0000305c.243309-.0000019.4366951.198595.4366951.4417839 0 .2382202-.1933899.4366989-.4366951.4367018l-5.1264877.0000257-.0000038 22.0364037 5.1264877-.0000267c.243309-.0000038.4366951.1984711.4366951.4366951 0 .243187-.1933861.4366989-.4366951.4366989l-5.5634232.0000305c-.2430687.0000038-.4366951-.1935043-.4366951-.4366951v-11.0181389l-8.5383186.0000305c-.2382202.0000019-.4366951-.1935062-.4366951-.4368153 0-.2430687.1984749-.4367008.4366951-.4367027l8.5383186-.0000305v-11.0181398c0-.2431889.1936302-.4417887.4366951-.4417906z" fill="#4f5d99"/></g></g><g><path d="m41.992527 21.1225243 1.2518005-.0000095c.2101746-.0000019.3793755.1691952.3793755.3790417l-.0000038 6.605526c0 .2098465-.1691971.3790455-.3793716.3790474l-1.2518005.0000114c-.2098427.0000019-.3790436-.1691952-.3790436-.3790417l.0000038-6.605526c-.0000001-.2098465.169197-.3790474.3790397-.3790493z" fill="#ed524e"/></g></g><path d="m48.2085419 35.8214989c.243309-.0000038.4366951.1984711.4366951.4366951 0 .243187-.1933861.4366989-.4366951.4366989" fill="#4f5d99"/><path d="m56.0594025 33.1721687.0000572 6.1641655c.0000038.4168243-.3374519.754406-.7543983.754406l-6.5809822.0000038c-.4169464 0-.754406-.3375816-.7544098-.754406l-.0000534-6.1641655c-.0000038-.4170685.3374481-.7495575.7543945-.7495575l6.5809822-.0000038c.4169464 0 .754406.3324891.7544098.7495575z" fill="#7bd681"/><path d="m56.0598679 10.2607594-.0003357 6.1635799c-.0000229.4167843-.3375206.7543011-.7544937.754261l-6.581398-.0006256c-.4169693-.0000401-.7544327-.3376198-.7544098-.7544041l.0003395-6.1635799c.0000229-.4170284.3375206-.7494555.7544899-.7494154l6.581398.0006256c.4169693.0000391.7544326.332531.7544098.7495585z" fill="#70c1f9"/><path d="m56.0596352 21.7154846-.0001411 6.1638737c-.0000076.4168053-.3374863.7543526-.7544441.7543335l-6.5811882-.0003071c-.4169579-.000021-.7544174-.3376007-.7544098-.754406l.0001373-6.1638718c.0000114-.4170475.3374863-.7495079.7544441-.7494869l6.5811882.0003071c.4169616.0000191.7544212.33251.7544136.7495575z" fill="#ed524e"/><g fill="#e9e9ff"><g><path d="m54.7966576 11.2552881-.0000267.4914188c-.0000038.0695448-.0545349.1240616-.1290588.124054l-5.3058815-.0005045c-.0694351-.0000057-.1290512-.054533-.1290474-.1240778l.0000267-.4914198c.0000038-.0693026.0596275-.1289072.1290588-.1289005l5.3058815.0005045c.0745239.0000067.1290512.0596218.1290474.1289253z"/><path d="m54.7965584 13.1015654-.0000267.4914198c-.0000038.0695448-.0545387.1240606-.1290627.124054l-5.3058815-.0005045c-.0694351-.0000067-.1290512-.054533-.1290474-.1240788l.0000267-.4914188c.0000038-.0693026.0596275-.1289072.1290627-.1289005l5.3058815.0005045c.0745239.0000066.1290512.0596217.1290474.1289243z"/><path d="m54.7964554 14.9478436-.0000267.4914198c-.0000038.0695448-.0545349.1240606-.1290588.124054l-5.3058815-.0005045c-.0694351-.0000067-.1290512-.054534-.1290474-.1240788l.0000267-.4914188c.0000038-.0693026.0596275-.1289072.1290627-.1289005l5.3058777.0005035c.0745238.0000076.1290511.0596227.1290473.1289253z"/></g><g><path d="m54.7929497 22.7101212-.0000076.4914436c-.0000038.0695477-.0545311.1240692-.129055.1240654l-5.3057137-.000248c-.0694313-.0000038-.1290474-.0545292-.1290474-.1240788l.0000114-.4914417c.0000038-.0693073.0596199-.1289158.129055-.1289139l5.3057137.0002499c.0745201.0000019.1290474.059618.1290436.1289235z"/><path d="m54.7929115 24.556488-.0000114.4914417c-.0000038.0695496-.0545311.1240711-.129055.1240673l-5.3057137-.000248c-.0694313-.0000038-.1290474-.0545311-.1290436-.1240788l.0000076-.4914436c.0000038-.0693054.0596237-.1289158.129055-.128912l5.3057137.000248c.0745201.0000039.1290474.05962.1290474.1289254z"/><path d="m54.7928696 26.402853-.0000114.4914436c-.0000038.0695477-.0545311.1240692-.129055.1240654l-5.3057098-.000248c-.0694351-.0000038-.1290512-.0545292-.1290474-.1240788l.0000114-.4914417c0-.0693073.0596199-.1289158.1290512-.1289139l5.3057137.0002499c.07452.000002.1290473.0596181.1290473.1289235z"/></g><g><path d="m54.7917938 34.1669121.0000038.4914665c0 .0695534-.0545273.1240768-.1290474.1240768l-5.3055458.0000038c-.0694313 0-.1290474-.0545273-.1290474-.1240768l-.0000038-.4914665c0-.0693092.0596161-.1289253.1290436-.1289253l5.3055496-.0000038c.0745163 0 .1290436.059616.1290474.1289253z"/><path d="m54.7918091 36.0133667.0000038.4914665c0 .0695496-.0545235.1240768-.1290436.1240768l-5.3055458.0000038c-.0694313 0-.1290474-.0545273-.1290474-.1240807l-.0000076-.4914665c0-.0693092.0596161-.1289215.1290474-.1289215l5.3055458-.0000038c.0745201.0000001.1290474.0596162.1290474.1289254z"/><path d="m54.7918243 37.8598213.0000038.4914665c.0000038.0695496-.0545235.1240768-.1290436.1240768h-5.3055458c-.0694313 0-.1290474-.0545235-.1290474-.1240768l-.0000038-.4914665c0-.0693092.0596123-.1289253.1290436-.1289253h5.3055458c.0745202 0 .1290474.0596161.1290474.1289253z"/></g></g></g><g><g><g><path d="m37.4050941 17.699007v11.2387142c0 .7296124-.5915985 1.3211746-1.3211746 1.3211746h-22.8226118c-.729578 0-1.3211746-.5915623-1.3211746-1.3211746v-14.2333621c0-.7296143.5915966-1.3211746 1.3211746-1.3211746h6.701972c.3978138 0 .7736225.1791239 1.024641.4873409l1.6411819 2.0184612c.2510185.3082886.6268272.4874134 1.0246429.4874134l12.4301739.0014324c.7295762 0 1.3211747.590128 1.3211747 1.3211746z" fill="#f9ac00"/><path d="m35.8732491 18.5862293v11.6422234h-22.3041096v-11.6422234c0-.4734783.3838291-.8573074.8573055-.8573074h20.5895004c.4734764 0 .8573037.3838291.8573037.8573074z" fill="#e9e9ff"/><path d="m28.599947 19.1462803c-.472683 0-.9315605.1593552-1.3025036.4523201l-.2095547.1655025-.9853954.7779083c-.166975.1268845-.3571625.2247906-.5588837.2650223-.1152077.034605-.2304173.0520477-.3513947.0520477h-11.7858896c-.8067436 0-1.4635334.6566486-1.4635334 1.4691601v12.4214725c0 .8080406.6611223 1.469162 1.469161 1.469162h22.5214615c.8080368 0 1.4691582-.6611214 1.4691582-1.469162v-15.0891437c0-.1817455-.0367126-.3539257-.0973434-.5142899h-8.7052822z" fill="#fdc72e"/></g></g><path d="m28.600523 19.1433926h7.7757816c.5681725 0 1.0287666.4605961 1.0287666 1.0287685v14.5743065c0 .8108826-.6634521 1.4743347-1.4743309 1.4743347h-22.513485c-.8108826 0-1.4743319-.6634521-1.4743319-1.4743347v-12.4225044c0-.8062763.6596813-1.4659576 1.4659595-1.4659576h11.7795801c.1285133 0 .2398624-.0171642.3514214-.0514889.2057438-.0426979.3943272-.1368847.5657463-.2653961l.9860268-.780283.2057438-.162838c.1971645-.162838.4286537-.2746048.6685143-.3516293.2059556-.0598602.4202824-.1029777.6346074-.1029777z" fill="#fdc72e"/></g></g><g fill="#fff" opacity=".2"><path d="m44.4285583 42.4930534h-19.4899921l-11.9001455-35.389647h19.4799814z"/><path d="m54.9685974 42.4930534h-5.5300293l-11.9099121-35.389647h5.5397949z"/></g></g></svg>