<svg id="Layer_1" enable-background="new 0 0 68 68" height="512" viewBox="0 0 68 68" width="512" xmlns="http://www.w3.org/2000/svg"><g><g><g><g><path d="m66.0022507 12.9386559v34.0025711c0 .5800781-.4799805 1.0600586-1.0600586 1.0600586h-61.8843866c-.579834 0-1.0600586-.4799805-1.0600586-1.0600586v-41.672493c0-1.8100586 1.4602051-3.2700195 3.2700195-3.2700195h16.1000977c1.8000488 0 3.2700195 1.4599609 3.2700195 3.2700195v1.1298828c0 1.8100586 1.4599609 3.2700195 3.2700195 3.2700195h34.8243319c1.8100547 0 3.2700157 1.459961 3.2700157 3.2700196z" fill="#304056"/></g></g><g><g><path d="m57.5021324 50.9212074h-47.0042629c-1.5961113 0-2.8900151-1.2939034-2.8900151-2.8900146v-31.7225418c0-1.5961113 1.2939038-2.8900146 2.8900151-2.8900146h47.0042648c1.5961113 0 2.8900146 1.2939034 2.8900146 2.8900146v31.7225418c-.0000018 1.5961113-1.2939052 2.8900146-2.8900165 2.8900146z" fill="#fff"/></g></g><g><g><g><path d="m33.483036 19.0435429h-14.5322265c-.2763672 0-.5-.2236328-.5-.5s.2236328-.5.5-.5h14.5322265c.2763672 0 .5.2236328.5.5s-.2236328.5-.5.5z"/></g></g><g><g><path d="m15.9508085 19.0435429h-4.1552734c-.2763672 0-.5-.2236328-.5-.5s.2236328-.5.5-.5h4.1552734c.2763681 0 .500001.2236328.500001.5s-.2236328.5-.500001.5z"/></g></g><g><g><path d="m26.9508095 23.1685429h-3.875c-.2763672 0-.5-.2236328-.5-.5s.2236328-.5.5-.5h3.875c.2763672 0 .5.2236328.5.5s-.2236328.5-.5.5z"/></g></g><g><g><path d="m20.1383095 23.1685429h-8.5302744c-.2763672 0-.5-.2236328-.5-.5s.2236328-.5.5-.5h8.5302744c.2763672 0 .5.2236328.5.5s-.2236328.5-.5.5z"/></g></g></g><g><g><path d="m66.0022507 21.1989098v41.7721024c0 1.6699257-1.3601074 3.0302773-3.0300255 3.0302773h-57.9442048c-1.670166 0-3.0302734-1.3603516-3.0302734-3.0302773v-34.1021806c0-1.6801758 1.3601074-3.0302734 3.0302734-3.0302734h24.4099126c.8098145 0 1.579834-.3198242 2.1499023-.8999023l5.8601055-5.8798828c.5698242-.5703125 1.3398438-.8901367 2.1398926-.8901367h23.3843918c1.669918-.0000001 3.0300255 1.3500976 3.0300255 3.0302734z" fill="#488ff7"/></g></g></g><g><g><g><g><path d="m48.2400703 45.9195671c0 4.2587166-1.8038483 8.0925331-4.6888733 10.7789116-2.6366806 2.4712982-6.1727295 3.9772453-10.0672836 3.9772453-3.8944187 0-7.4359875-1.5059471-10.07267-3.9772453-2.8796387-2.6863785-4.683485-6.520195-4.683485-10.7789116 0-3.9938087 1.5832481-7.6180687 4.1703701-10.2714539 2.6754684-2.7689323 6.4321156-4.4847012 10.5857849-4.4847012 4.1539421 0 7.9049301 1.7157688 10.5803986 4.4847012 2.5871239 2.6533852 4.1757583 6.2776452 4.1757583 10.2714539z" fill="#dbdbdb"/></g></g><g><g><path d="m48.2260323 46.420166c.0100098-.1601563.0100098-.3300781.0100098-.5 0-.170166 0-.3400879-.0100098-.5h-7.2199707c-.0300293-2.3300781-.2900391-4.5200195-.7200928-6.4802246 1.4700928-.7597656 2.8300781-1.7697754 4.0500488-3.0097656-.0899658-.1000977-.1799316-.1901855-.2700195-.2800293-.1398926-.1501465-.289917-.2900391-.4399414-.4401855-1.0700684 1.1201172-2.2900391 2.0300293-3.5800781 2.7299805-.7199707-2.7397461-1.7999268-4.9499512-3.119873-6.369873-.6500244-.1599121-1.3300781-.2800293-2.0200195-.3400879 1.7700195.9401855 3.2900391 3.6201172 4.2099609 7.1901855-1.6099854.7199707-3.3499756 1.119873-5.1300049 1.1799316v-8.4299317c-.1600342-.0100098-.3299561-.0100098-.5-.0100098s-.3299561 0-.5.0100098v8.4299316c-1.7899189-.0600586-3.5200214-.4599609-5.1300068-1.1799316.9100342-3.5600586 2.4200439-6.2399902 4.1999531-7.1901855-.6899433.0600586-1.369875.1801758-2.0200214.3400879-1.3199463 1.4199219-2.3999023 3.630127-3.119873 6.369873-1.2900391-.6999512-2.5100098-1.6098633-3.5800781-2.7299805-.1499025.1501465-.300049.2900391-.4399416.4401856-.0900879.0898438-.1800537.1899414-.2600098.2897949 1.2199707 1.2402344 2.5799561 2.2402344 4.0400391 3-.4300537 1.9602051-.6800537 4.1501465-.7199707 6.4802246h-7.2200928c-.0100098.1599121-.0100098.329834-.0100098.5 0 .1699219 0 .3398438.0100098.5h7.2200928c.039917 2.6098633.3498535 5.0500488.8798828 7.1899414-1.4499512.6298828-2.8099365 1.4499512-4.0500488 2.4699707.210083.2099609.420166.4199219.630127.6201172.0300293.0297852.0599365.0598145.0899658.079834 1.1099854-.8999023 2.3099365-1.6398926 3.5999756-2.1999512.7199706 2.4199219 1.7199706 4.3901367 2.9299316 5.6899414.6501465.1601563 1.3200684.2700195 2.0100117.3400879-1.6398945-.8898926-3.0699482-3.25-3.9899921-6.420166 1.5600586-.579834 3.2200928-.8898926 4.9300556-.9499512v7.4301758c.1700439.0100098.3299561.0100098.5.0100098s.3399658 0 .5-.0100098v-7.4301758c1.7000732.0600586 3.3599854.3701172 4.9200439.9499512-.9200439 3.170166-2.3400879 5.5302734-3.9799805 6.420166.6799316-.0700684 1.3499756-.1799316 2-.3400879 1.2099609-1.2998047 2.2099609-3.2700195 2.9299316-5.6899414 1.2900391.5600586 2.5 1.3000488 3.6000977 2.2099609.039917-.0300293.0699463-.0600586.0998535-.0898438.210083-.2001953.4200439-.4101563.6201172-.6201172-1.2399902-1.0200195-2.6000977-1.8500977-4.0500488-2.4699707.5300293-2.1398926.8399658-4.5800781.8800049-7.1899414h7.2199707zm-15.2399903 5.8198242c-1.7899189.0600586-3.5399189.3901367-5.1900654.9899902-.5-2.0498047-.7999268-4.3598633-.8398438-6.8098145h6.0299091v5.8198243zm0-6.8198242h-6.0299091c.039917-2.1401367.2698975-4.1801758.6699219-6.0200195 1.6799316.7299805 3.4899902 1.1398926 5.3599873 1.1999512v4.8200683zm6.1800537 7.8098145c-1.6500244-.5998535-3.4000244-.9299316-5.1800537-.9899902v-5.8198243h6.0200195c-.040039 2.4499512-.3399658 4.7600098-.8399658 6.8098145zm-5.1800537-7.8098145v-4.8200684c1.8599854-.0600586 3.6700439-.4699707 5.3499756-1.1999512.4000244 1.8398438.6400146 3.8798828.6700439 6.0200195h-6.0200195z" fill="#b9b9b9"/></g></g></g></g></g></svg>