<svg id="Layer_1" enable-background="new 0 0 53 53" viewBox="0 0 53 53" xmlns="http://www.w3.org/2000/svg"><g><g><path d="m6.5440912 50.4388771c.2283669.0457115.4566407.0609474.7002444.0609474h-.7002444z" fill="#ffb241"/><path d="m7.2443848 51h-.7001953c-.2763672 0-.5-.2236328-.5-.5 0-.1499023.0668945-.3222656.1826172-.4169922.1157227-.0957031.2646484-.1674805.4150391-.1342773.1762694.0351562.3676757.0512695.602539.0512695.2763672 0 .5.2236328.5.5s-.2236328.5-.5.5z" fill="#f7880a"/></g><g><path d="m49.637516 23.9069748v23.7522392c0 1.5688248-1.2717857 2.8406105-2.8406105 2.8406105h-39.5525698c1.065557 0 2.0396934-.4414978 2.7399383-1.1416473.7002439-.7002449 1.1264114-1.6592369 1.1264114-2.7247963v-22.7264061z" fill="#ffb241"/><path d="m46.7971191 51h-39.5527343c-.2763672 0-.5-.2236328-.5-.5s.2236328-.5.5-.5c.8964844 0 1.7441406-.3535156 2.3862305-.9951172.6318359-.6323242.9799805-1.4746094.9799805-2.371582v-22.7265625c0-.2763672.2236328-.5.5-.5h38.5268555c.2763672 0 .5.2236328.5.5v23.7524414c-.0000001 1.8422851-1.4985353 3.3408203-3.3403322 3.3408203zm-36.7763671-1h36.7763672c1.2905273 0 2.340332-1.050293 2.340332-2.3408203v-23.2524414h-37.5268555v22.2265625c0 1.1640625-.4521484 2.2573242-1.2729492 3.0786133-.1015625.1015625-.2075195.1977539-.3168945.2880859z" fill="#f7880a"/></g><g><path d="m49.637516 23.9094219v-6.7329216c0-.4190254-.3396873-.7587147-.7587128-.7587147h-37.0094032c-.4190264 0-.7587147.3396893-.7587147.7587147v6.7329216z" fill="#ffb241"/><path d="m49.6374512 24.4091797h-38.5268555c-.2763672 0-.5-.2236328-.5-.5v-6.7329102c0-.6938477.5644531-1.2583008 1.2587891-1.2583008h37.0092773c.6943359 0 1.2587891.5644531 1.2587891 1.2583008v6.7329102c0 .2763672-.2236328.5-.5.5zm-38.0268555-1h37.5268555v-6.2329102c0-.1425781-.1162109-.2583008-.2587891-.2583008h-37.0092773c-.1425781 0-.2587891.1157227-.2587891.2583008z" fill="#f7880a"/></g><g><g><path d="m40.5043297 11.2551279v4.4039431c0 .4190273-.3396912.7587147-.7587166.7587147h-27.8762131c-.4190264 0-.7587147.3396893-.7587147.7587147v29.4568806c0 1.0655594-.4261675 2.0245514-1.1264114 2.7247963-.7002449.7001495-1.6743813 1.1416473-2.7399383 1.1416473-.2436037 0-.4718776-.0152359-.7002444-.0609474-1.8114195-.3348389-3.1813424-1.917984-3.1813424-3.8054962v-35.3782531c0-.4190273.3396883-.7587147.7587149-.7587147h35.6241493c.4190255 0 .7587167.3396874.7587167.7587147z" fill="#ffb241"/><path d="m7.2443848 51c-.3022461 0-.5556641-.0224609-.7978516-.0708008-2.0737305-.3833008-3.5839844-2.1904297-3.5839844-4.2958984v-35.3779297c0-.6943359.5644531-1.2587891 1.2587891-1.2587891h35.6245117c.6938477 0 1.2583008.5644531 1.2583008 1.2587891v4.4038086c0 .6943359-.5644531 1.2587891-1.2583008 1.2587891h-27.8764648c-.1425781 0-.2587891.1157227-.2587891.2583008v29.4570313c0 1.1640625-.4521484 2.2573242-1.2729492 3.0786133-.8310547.8305663-1.9296875 1.2880858-3.0932617 1.2880858zm-3.1230469-40.003418c-.1425781 0-.2587891.1162109-.2587891.2587891v35.3779297c0 1.6230469 1.1660156 3.0170898 2.7724609 3.3139648.1831055.0366211.3745118.0527344.6093751.0527344.8964844 0 1.7441406-.3535156 2.3862305-.9951172.6318359-.6323242.9799805-1.4746094.9799805-2.371582v-29.4570313c0-.6938477.5644531-1.2583008 1.2587891-1.2583008h27.8764648c.1425781 0 .2583008-.1162109.2583008-.2587891v-4.4038086c0-.1425781-.1157227-.2587891-.2583008-.2587891h-35.6245118z" fill="#f7880a"/></g></g><g><path d="m15.4661999 45.9897499v3.5508804c0 .529747.4294453.9591942.9591942.9591942h27.8974133c.5297508 0 .9591942-.4294472.9591942-.9591942v-3.5502586c0-.4642563-.3324852-.8618736-.7894135-.944046l-1.8710709-.3364983c-.3548126-.0638123-.633049-.3254471-.7444611-.6683044-.184021-.5663071-.4124718-1.1088219-.6791687-1.6337624-.162571-.3199959-.1481056-.7001686.0566788-.9949379l1.084095-1.5604515c.2648277-.3811951.2187119-.8973236-.1095009-1.2255325l-2.6302872-2.6302261c-.3282127-.3282051-.8443375-.3743095-1.2255287-.109478l-1.5581436 1.0825272c-.2959404.2056046-.6769218.2188873-.9978485.0550041-.5233421-.2672462-1.0715523-.4971428-1.6415405-.686554-.3386993-.1125488-.5957108-.390007-.6591454-.7412338l-.3367233-1.8643761c-.0824661-.456604-.4799309-.7887154-.9439201-.7887154h-3.7238426c-.4639893 0-.8614559.3321114-.943922.7887154l-.3367119 1.8643188c-.0634403.3512573-.3204117.6287575-.6591587.7412567-.5728245.190239-1.124691.4213219-1.6556549.6900711-.3206463.1622963-.7009678.1471634-.9956017-.0586128l-1.5458336-1.0796242c-.3812714-.2662849-.898632-.2207069-1.2274742.1081352l-2.6273651 2.6273651c-.3288422.3288422-.3744202.8462029-.1081352 1.2274742l1.0769081 1.5419388c.2071991.2966728.2194214.6794968.054739 1.0017128-.2706814.5296249-.4965763 1.0800781-.6840267 1.6513443-.111557.3399773-.3901424.5978699-.7422562.6614723l-1.8627949.3364792c-.4565917.0824738-.7886925.4799348-.7886925.9439164z" fill="#565a5f"/><path d="m44.322998 51h-27.8974609c-.8046875 0-1.4594727-.6547852-1.4594727-1.4594727v-3.5507813c0-.706543.5048828-1.3105469 1.2001953-1.4360352l1.862793-.3364258c.1630859-.0292969.2998047-.1542969.355957-.3256836.1987305-.6054688.4389648-1.1855469.7138672-1.7226563.0834961-.1635742.0761719-.3505859-.0195313-.4873047l-1.0771484-1.5424805c-.4052734-.5810547-.3364258-1.3662109.1645508-1.8671875l2.6274414-2.6274414c.5014648-.5014648 1.2856445-.5712891 1.8676758-.1640625l1.5454102 1.0791016c.137207.0961914.3227539.1035156.4838867.0224609.5537109-.2807617 1.1337891-.5224609 1.7236328-.71875.1738281-.0576172.2949219-.1904297.324707-.3554688l.3364258-1.8642578c.1259766-.6953125.7294922-1.199707 1.4360352-1.199707h3.7241211c.706543 0 1.3100586.5043945 1.4360352 1.199707l.3369141 1.8642578c.0297852.1650391.1508789.2978516.3242188.3554688.5898438.1962891 1.1655273.4370117 1.7114258.7163086.1640625.0839844.3461914.0761719.4853516-.0205078l1.5581055-1.0825195c.5786133-.4033203 1.3637695-.3339844 1.8642578.1665039l2.6303711 2.6303711c.4995117.4995117.5698242 1.2836914.1665039 1.8642578l-1.0839844 1.5600586c-.0952148.137207-.1035156.3222656-.0214844.4833984.284668.5610352.5234375 1.1347656.7089844 1.7055664.0566406.1748047.1933594.3017578.3574219.3310547l1.8706055.3364258c.6958008.125 1.2011719.7290039 1.2011719 1.4360352v3.550293c-.0000003.8046876-.6542972 1.4594728-1.4589847 1.4594728zm-22.4970703-14.7827148c-.1181641 0-.2358398.0454102-.324707.1347656l-2.6274414 2.6269531c-.1577148.1577148-.1791992.4047852-.0512695.5878906l1.0766602 1.5419922c.3081055.4399414.3427734 1.0205078.090332 1.5151367-.2514648.4917221-.4716797 1.0229492-.6542969 1.5795898-.1713867.5209961-.6040039.9033203-1.128418.9980469l-1.862793.3364258c-.2192383.0395508-.3779297.2294922-.3779297.4516602v3.5507813c.0000001.2534179.2060547.4594726.4594727.4594726h27.8974609c.2529297 0 .4589844-.2060547.4589844-.4594727v-3.550293c0-.2226563-.1586914-.4125977-.3779297-.4516602l-1.8710938-.3364258c-.5273438-.0952148-.9604492-.4804688-1.1313477-1.0063477-.1694336-.5214844-.3881836-1.046875-.6494141-1.5615234-.2490234-.4897461-.2138672-1.0673828.0917969-1.5073242l1.0839844-1.5595703c.1269531-.1826172.1049805-.4296875-.0522461-.5869141l-2.6303711-2.6303711c-.1572266-.1572266-.4042969-.1791992-.5864258-.0522461l-1.5585938 1.0825195c-.4404297.3056641-1.019043.3398438-1.5102539.090332-.5019531-.2568359-1.0302734-.4785156-1.5717773-.6582031-.5180664-.171875-.8989258-.6035156-.9936523-1.1269531l-.3369141-1.8642578c-.0395508-.21875-.2294922-.3774414-.4516602-.3774414h-3.7241211c-.222168 0-.4121094.1586914-.4516602.3774414l-.3364258 1.8642578c-.0947266.5234375-.4755859.9550781-.9941406 1.1269531-.5424805.1801758-1.0766602.4033203-1.5869141.6616211-.4916992.2495117-1.0698242.2114258-1.5078125-.0942383l-1.5458984-1.0795898c-.0795896-.0556639-.1718748-.0830076-.2631834-.0830076z" fill="#3c3b3e"/></g><g><path d="m37.0502739 50.4998245c.3265076-.8231201.5184593-1.7153397.5184593-2.6562843 0-3.9085045-3.1203766-7.0884552-7.0213795-7.1843414-3.7512455-.092205-7.0436192 2.8857613-7.3454437 6.6259842-.0925713 1.1471367.1055202 2.2302971.4956703 3.2146416h13.3526936z" fill="#f0f0f0"/><path d="m37.0500488 51h-13.352539c-.2050781 0-.3891602-.125-.4648438-.315918-.4448242-1.1225586-.6230469-2.2797852-.5292969-3.4394531.3232422-4.0053711 3.8666992-7.159668 7.855957-7.0854492 4.2109375.1035156 7.5092773 3.4790039 7.5092773 7.6845703 0 .9589844-.1865234 1.9145508-.5537109 2.8408203-.0756835.1904297-.2597655.3154297-.4648437.3154297zm-13.0043945-1h12.65625c.2436523-.7084961.3666992-1.4321289.3666992-2.15625 0-3.6586914-2.8701172-6.5947266-6.5336914-6.6845703-3.4575195-.0991211-6.5532227 2.6801758-6.8344727 6.1660156-.0727539.8979492.0434571 1.7958985.3452149 2.6748047z" fill="#cbcccc"/></g><g><path d="m3.3627489 10.4964132v-7.237874c0-.4190264.3396883-.7587147.7587149-.7587147h12.251297c.2012234 0 .3942051.0799358.5364914.2222223l7.7084179 7.7084169z" fill="#ffb241"/><path d="m3.3625488 10.996582c-.1323242 0-.2592773-.0522461-.3530273-.1459961-.0942383-.09375-.1469727-.2211914-.1469727-.3540039v-7.2382812c0-.6938477.5644532-1.2583008 1.2587891-1.2583008h12.2514648c.3364258 0 .6523438.1308594.8901367.3686523l7.7080078 7.7084961c.1430664.1425781.1855469.3574219.1088867.5439453-.0771484.1870117-.2587891.309082-.4609375.3095703l-21.2548827.065918c-.0004883 0-.0009766 0-.0014649 0zm.7587891-7.996582c-.1425781 0-.2587891.1157472-.2587891.2583008v6.7368164l19.5517578-.0605469-6.8583984-6.8588867c-.0488281-.0488281-.1137695-.0756836-.1831055-.0756836z" fill="#f7880a"/></g></g></svg>