<svg id="Layer_1" enable-background="new 0 0 512 512" height="512" viewBox="0 0 512 512" width="512" xmlns="http://www.w3.org/2000/svg"><circle cx="256" cy="256" fill="#82d0d8" r="256"/><path d="m454.286 273.632-31.319-11.783c.189-3.277.499-6.525.499-9.846 0-3.322-.311-6.57-.499-9.839l31.319-11.784c3.99-1.501 6.611-6.149 5.822-10.329l-10.551-40.469c-1.312-3.879-5.584-6.479-9.656-6.059-.011-.029-.021-.059-.032-.086l-33.448 5.479c-2.953-6.048-6.201-11.923-9.844-17.533l21.143-25.729.622-.757c-.04-.055-.085-.105-.124-.161 2.064-3.303 1.931-7.982-.598-10.959l-29.152-29.844c-2.793-2.49-7.154-2.75-10.426-.979-.079-.061-.15-.13-.229-.191l-26.672 21.796c-5.793-4.002-11.843-7.612-18.136-10.874 0 0 5.491-34.661 5.39-34.707-.167-3.669-2.521-7.288-5.988-8.538l-39.869-11.285c-3.527-.743-7.249.961-9.236 3.816-.127-.017-12.731 32.575-12.731 32.575-4.876-.423-9.784-.74-14.774-.74-2.59 0-5.104.264-7.648.385 0 0-12.763-33.186-12.863-33.176-1.856-2.948-5.713-4.796-9.405-4.127l-39.828 9.92c-3.758 1.231-6.353 4.72-6.266 8.022-.055.023 5.517 34.622 5.517 34.622-7.232 3.353-14.221 7.128-20.848 11.448l-26.94-22.014v-.001l-.287-.234c-.025.019-.048.04-.074.059-2.704-1.886-7.243-1.405-10.369 1.241l-29.193 28.335c-2.85 3.164-3.439 7.873-1.31 10.464.016.019.041.021.057.04-.004.005-.008.01-.011.015l21.936 26.692c-4.726 6.75-8.875 13.894-12.578 21.31l-34.103-5.578c-.012.027-.02.055-.031.082-.118-.028-.196-.119-.317-.138-3.45-.564-7.406 2.265-8.79 6.288l-10.516 39.013c-.825 4.172 1.305 8.641 4.734 9.931.121.046.349.101.346.131l31.737 11.933c-.31 4.153-.636 8.306-.636 12.534s.325 8.375.636 12.527c0 0-31.292 11.825-31.289 11.85-.113.036-.223.004-.335.047-3.681 1.385-6.018 5.932-5.193 10.104l10.515 39.022c1.384 4.022 5.96 6.75 10.168 6.062l.484-.08 32.589-5.335c3.703 7.414 7.853 14.558 12.578 21.301l-20.497 24.947-.441.538c-2.703 3.29-2.583 8.57.266 11.735l29.193 28.341c3.251 2.752 8.611 2.799 11.91.104l.886-.724 24.875-20.322c6.641 4.304 13.616 8.095 20.848 11.448l-5.129 31.183-.233 1.418c-.69 4.197 2.06 8.715 6.113 10.041l39.819 9.908c4.197.759 8.862-1.875 10.367-5.854l.65-1.715 11.251-29.727c2.551.122 5.066.394 7.656.394 4.99 0 9.897-.324 14.774-.756l11.643 30.763c1.505 3.979 6.152 6.516 10.324 5.636l39.87-11.283c4.011-1.446 6.726-6.062 6.035-10.259l-5.437-32.98c4.971-2.582 9.743-5.442 14.404-8.473l-32.441-28.325c-17.531 9.553-37.631 14.984-59.001 14.984-68.205 0-123.497-55.292-123.497-123.496 0-68.205 55.292-123.496 123.497-123.496s123.496 55.291 123.496 123.496c0 17.08-3.469 33.349-9.738 48.144l31.21 32.214c1.93-3.369 3.778-6.789 5.495-10.294l32.997 5.407c4.208.689 8.767-2.043 10.13-6.073l10.551-40.462c.786-4.181-1.834-8.829-5.824-10.331z" fill="#fff"/><path d="m303.121 353.197c-14.241 6.917-30.226 10.803-47.121 10.803-59.647 0-108-48.353-108-108s48.353-108 108-108c59.646 0 108 48.353 108 108 0 12.323-2.092 24.151-5.893 35.183l11.911 12.294c6.094-14.617 9.471-30.651 9.471-47.477 0-68.201-55.289-123.49-123.49-123.49-68.202 0-123.49 55.288-123.49 123.49s55.287 123.49 123.49 123.49c21.636 0 41.963-5.58 59.647-15.356z" fill="#c0f0f2"/><path d="m219.357 183.178c-.652.359-1.226 1.473.89 2.553s64.097 32.715 64.097 32.715c3.688 2.326 4.797 7.252 2.463 10.945l-38.188 60.437c-2.334 3.693-7.261 4.812-10.949 2.485 0 0-55.873-42.781-57.303-43.887-1.429-1.106-2.342.419-2.387 1.47-.938 22.239 7.334 44.731 24.725 61.243 22.994 21.832 55.583 27.171 83.404 16.584l117.638 102.712.058-.061c11.168 10.604 28.981 10.142 39.585-1.026s10.142-28.981-1.026-39.585l.058-.061-108.667-112.16c9.131-28.333 2.112-60.601-20.882-82.433-25.848-24.543-63.829-28.297-93.516-11.931zm211.219 234.579c-4.563 4.806-12.159 5.003-16.965.44s-5.003-12.159-.44-16.965 12.159-5.003 16.965-.44 5.003 12.158.44 16.965z" fill="#004259"/></svg>