<svg width="173" height="173" viewBox="0 0 173 173" fill="none" xmlns="http://www.w3.org/2000/svg">
<path d="M85.8873 80.8387C85.8873 83.6278 83.6262 85.8889 80.8371 85.8889C78.048 85.8889 75.7869 83.6278 75.7868 80.8387H85.8873ZM75.7868 59.2009C75.7868 57.67 75.1798 56.2054 74.0985 55.1255L74.0962 55.1232C73.0132 54.0403 71.5464 53.4325 70.0185 53.4325C68.4905 53.4326 67.0237 54.0403 65.9408 55.1232L65.9385 55.1255C64.8572 56.2054 64.2502 57.67 64.2502 59.2009V80.8387C64.2501 83.6278 61.989 85.8889 59.1999 85.8889C56.4108 85.8889 54.1497 83.6278 54.1497 80.8387V59.2009C54.1497 54.9927 55.8201 50.956 58.8011 47.9789C61.7749 45.0062 65.8085 43.332 70.0185 43.332C74.2296 43.332 78.2644 45.0071 81.2385 47.9812L81.2382 47.9815C84.2177 50.9584 85.8873 54.9938 85.8873 59.2009V80.8387H75.7868V59.2009Z" fill="#486EA1"/>
<path d="M80.8371 64.9697C83.6263 64.9697 85.8873 67.2308 85.8873 70.02C85.8873 72.8092 83.6263 75.0702 80.8371 75.0702H59.1999C56.4107 75.0702 54.1497 72.8092 54.1497 70.02C54.1497 67.2308 56.4107 64.9697 59.1999 64.9697H80.8371Z" fill="#486EA1"/>
<path d="M113.293 43.332C116.082 43.3321 118.343 45.5931 118.343 48.3823C118.343 51.1714 116.082 53.4325 113.293 53.4325H97.0649C94.2757 53.4325 92.0146 51.1715 92.0146 48.3823C92.0146 45.5931 94.2757 43.332 97.0649 43.332H113.293Z" fill="#486EA1"/>
<path d="M113.293 75.7891C116.082 75.7891 118.343 78.0502 118.343 80.8393C118.343 83.6285 116.082 85.8895 113.293 85.8896H97.0649C94.2757 85.8896 92.0146 83.6285 92.0146 80.8393C92.0146 78.0501 94.2757 75.7891 97.0649 75.7891H113.293Z" fill="#486EA1"/>
<path d="M100.128 80.8387V48.3823C100.128 45.5931 102.389 43.332 105.179 43.332C107.968 43.332 110.229 45.5931 110.229 48.3823V80.8387C110.229 83.6278 107.968 85.8889 105.179 85.8889C102.39 85.8889 100.128 83.6278 100.128 80.8387Z" fill="#486EA1"/>
<path d="M135.29 64.611C135.29 37.5457 113.311 15.5673 86.246 15.5673C59.1808 15.5673 37.2023 37.5457 37.2023 64.611C37.2023 81.676 45.6636 94.021 54.8857 104.561C59.2324 109.528 64.4667 114.839 68.0302 119.251C70.5903 122.42 73.0459 125.975 74.2667 129.883H98.2252C99.4461 125.975 101.902 122.42 104.462 119.251C108.025 114.839 113.26 109.528 117.606 104.561C126.828 94.021 135.29 81.676 135.29 64.611ZM145.39 64.611C145.39 85.4116 134.918 100.114 125.208 111.212C120.088 117.063 115.856 121.219 112.32 125.597C108.843 129.901 107.524 132.759 107.524 134.933C107.524 137.722 105.263 139.983 102.474 139.983H70.0178C67.2286 139.983 64.9675 137.722 64.9675 134.933C64.9675 132.759 63.6488 129.901 60.1724 125.597C56.6361 121.219 52.4041 117.063 47.2844 111.212C37.5737 100.114 27.1018 85.4116 27.1018 64.611C27.1018 31.9674 53.6024 5.4668 86.246 5.4668C118.89 5.4668 145.39 31.9674 145.39 64.611Z" fill="#486EA1"/>
<path d="M97.4241 139.982H75.0685V151.16C75.0685 152.643 75.6383 154.064 76.6569 155.133L76.7569 155.236L76.7615 155.24C77.8414 156.322 79.306 156.929 80.8369 156.929H91.6554C93.1876 156.929 94.6545 156.321 95.7335 155.24L95.7361 155.238C96.8167 154.157 97.4241 152.691 97.4241 151.16V139.982ZM107.52 151.554C107.419 155.618 105.762 159.494 102.88 162.377L102.88 162.378C99.9023 165.36 95.8624 167.029 91.6554 167.029H80.8369C76.6286 167.029 72.5919 165.359 69.6148 162.378L69.6152 162.377C66.637 159.401 64.968 155.366 64.968 151.16V134.932C64.968 132.143 67.2291 129.882 70.0183 129.882H102.475C103.814 129.882 105.099 130.414 106.046 131.361C106.993 132.308 107.525 133.593 107.525 134.932V136.409C107.525 137.342 107.525 138.665 107.525 140.222C107.525 143.338 107.525 147.395 107.525 151.16L107.52 151.554Z" fill="#486EA1"/>
<path d="M107.884 129.882C110.673 129.882 112.934 132.143 112.934 134.932C112.934 137.721 110.673 139.982 107.884 139.982H64.6086C61.8194 139.982 59.5583 137.721 59.5583 134.932C59.5583 132.143 61.8194 129.882 64.6086 129.882H107.884Z" fill="#486EA1"/>
<path d="M81.1958 167.39V161.98C81.1958 159.191 83.4569 156.93 86.2461 156.93C89.0352 156.93 91.2963 159.191 91.2963 161.98V167.39C91.2962 170.179 89.0352 172.44 86.2461 172.44C83.4569 172.44 81.1959 170.179 81.1958 167.39Z" fill="#486EA1"/>
<path d="M167.387 59.5605C170.176 59.5606 172.437 61.8217 172.437 64.6108C172.437 67.3999 170.176 69.661 167.387 69.661H161.977C159.188 69.661 156.927 67.4 156.927 64.6108C156.927 61.8216 159.188 59.5605 161.977 59.5605H167.387Z" fill="#486EA1"/>
<path d="M10.5153 59.5605C13.3044 59.5606 15.5655 61.8217 15.5655 64.6108C15.5655 67.3999 13.3044 69.661 10.5153 69.661H5.10567C2.31649 69.661 0.0554199 67.4 0.0554199 64.6108C0.0554199 61.8216 2.31649 59.5605 5.10567 59.5605H10.5153Z" fill="#486EA1"/>
<path d="M142.178 1.53582C144.151 -0.436421 147.348 -0.436421 149.321 1.53582C151.293 3.50804 151.293 6.70563 149.321 8.67785L143.368 14.631C141.395 16.6031 138.198 16.6031 136.226 14.631C134.253 12.6587 134.253 9.46086 136.226 7.48861L142.178 1.53582Z" fill="#486EA1"/>
<path d="M23.1723 1.53583C25.1445 -0.436421 28.3421 -0.436421 30.3143 1.53583L36.2674 7.48861C38.2396 9.46086 38.2397 12.6587 36.2674 14.631C34.2952 16.6032 31.0973 16.6032 29.1251 14.631L23.1723 8.67785C21.2001 6.70561 21.2001 3.50807 23.1723 1.53583Z" fill="#486EA1"/>
<path d="M136.225 114.589C138.198 112.617 141.395 112.617 143.368 114.589L149.321 120.543C151.293 122.515 151.293 125.713 149.32 127.685C147.348 129.657 144.15 129.657 142.178 127.685L136.225 121.732C134.253 119.759 134.253 116.562 136.225 114.589Z" fill="#486EA1"/>
<path d="M29.1251 114.59C31.0973 112.617 34.2948 112.617 36.2671 114.59C38.2394 116.562 38.2396 119.759 36.2674 121.732L30.3143 127.685C28.3421 129.657 25.1446 129.657 23.1723 127.685C21.2 125.713 21.2001 122.515 23.1723 120.543L29.1251 114.59Z" fill="#486EA1"/>
</svg>
