<svg width="137" height="137" viewBox="0 0 137 137" fill="none" xmlns="http://www.w3.org/2000/svg">
<path d="M124.372 15.9793H111.895C111.512 12.5983 110.645 9.45963 109.359 6.88796C107.138 2.44683 103.863 0 100.137 0C96.4106 0 93.1357 2.44683 90.9146 6.88796C89.6288 9.45963 88.7622 12.5983 88.3793 15.9793H79.9361C79.5533 12.5983 78.6867 9.45963 77.4008 6.88796C75.1797 2.44683 71.9048 0 68.1784 0C64.452 0 61.177 2.44683 58.956 6.88796C57.6701 9.45963 56.8035 12.5983 56.4207 15.9793H47.9775C47.5946 12.5983 46.728 9.45963 45.4422 6.88796C43.2211 2.44683 39.9462 0 36.2198 0C32.4933 0 29.2184 2.44683 26.9973 6.88796C25.7115 9.45963 24.8449 12.5983 24.4621 15.9793H11.9845C5.37637 15.9793 0 21.3557 0 27.9638V132.362C0 134.568 1.78831 136.357 3.99483 136.357H132.362C134.568 136.357 136.357 134.568 136.357 132.362V27.9638C136.357 21.3557 130.98 15.9793 124.372 15.9793ZM98.0605 10.4615C99.0821 8.41931 99.9987 7.98966 100.137 7.98966C100.275 7.98966 101.192 8.41931 102.214 10.4615C102.97 11.9751 103.526 13.8851 103.84 15.9793H96.4345C96.7477 13.8851 97.3042 11.9751 98.0605 10.4615ZM66.1019 10.4615C67.1235 8.41931 68.04 7.98966 68.1784 7.98966C68.3168 7.98966 69.2333 8.41931 70.2549 10.4615C71.0112 11.9751 71.5678 13.8851 71.8809 15.9793H64.4759C64.789 13.8851 65.3456 11.9751 66.1019 10.4615ZM34.1433 10.4615C35.1649 8.41931 36.0814 7.98966 36.2198 7.98966C36.3581 7.98966 37.2747 8.41931 38.2963 10.4615C39.0526 11.9751 39.6091 13.8851 39.9223 15.9793H32.5173C32.8304 13.8851 33.387 11.9751 34.1433 10.4615ZM11.9845 23.969H24.4517C25.4899 33.4629 30.2026 40.2146 36.2198 40.2146C38.4263 40.2146 40.2188 38.4263 40.2188 36.2198C40.2188 34.0143 38.4336 32.226 36.2271 32.226C35.4655 32.1084 33.2757 29.3464 32.5006 23.969H56.4093C57.4485 33.4629 62.1601 40.2146 68.1784 40.2146C70.3839 40.2146 72.1763 38.4263 72.1763 36.2198C72.1763 34.0143 70.3922 32.226 68.1857 32.226C67.4231 32.1084 65.2343 29.3464 64.4593 23.969H88.3679C89.4072 33.4629 94.1188 40.2146 100.136 40.2146C102.342 40.2146 104.135 38.4263 104.135 36.2198C104.135 34.0143 102.35 32.226 100.144 32.226C99.3818 32.1084 97.1929 29.3464 96.4179 23.969H124.372C126.575 23.969 128.367 25.7614 128.367 27.9638V48.4706H7.98966V27.9638C7.98966 25.7614 9.78213 23.969 11.9845 23.969ZM7.98966 128.367V56.4602H128.367V128.367H7.98966Z" fill="#486EA1"/>
<path d="M104.127 84.2672C104.127 86.4722 105.915 88.2593 108.121 88.2593C110.328 88.2593 112.116 86.4722 112.116 84.2672V68.2987C112.116 66.0937 110.328 64.3066 108.121 64.3066H92.1441C89.9379 64.3066 88.1498 66.0937 88.1498 68.2987C88.1498 70.5038 89.9379 72.2908 92.1441 72.2908H98.4778L68.1784 102.574L55.0253 89.4288C53.4661 87.8694 50.9364 87.8694 49.3771 89.4288L25.4114 113.381C23.8511 114.941 23.8511 117.468 25.4114 119.027C26.9706 120.586 29.4993 120.586 31.0596 119.027L52.2012 97.8975L65.3543 111.042C66.9135 112.602 69.4433 112.602 71.0025 111.042L104.127 77.937V84.2672Z" fill="#486EA1"/>
<path d="M19.8198 72.387H36.0694C38.2764 72.387 40.0652 70.5784 40.0652 68.3468C40.0652 66.1153 38.2764 64.3066 36.0694 64.3066H19.8198C17.6127 64.3066 15.824 66.1153 15.824 68.3468C15.824 70.5784 17.6127 72.387 19.8198 72.387Z" fill="#486EA1"/>
<path d="M40.0652 84.3391C40.0652 82.2005 38.2764 80.4673 36.0694 80.4673H19.8198C17.6127 80.4673 15.824 82.2005 15.824 84.3391C15.824 86.4777 17.6127 88.211 19.8198 88.211H36.0694C38.2764 88.211 40.0652 86.4777 40.0652 84.3391Z" fill="#486EA1"/>
<path d="M116.2 96.2915H99.9504C97.7433 96.2915 95.9546 98.1001 95.9546 100.332C95.9546 102.563 97.7433 104.372 99.9504 104.372H116.2C118.407 104.372 120.196 102.563 120.196 100.332C120.196 98.1001 118.407 96.2915 116.2 96.2915Z" fill="#486EA1"/>
<path d="M116.2 112.452H99.9504C97.7433 112.452 95.9546 114.185 95.9546 116.324C95.9546 118.463 97.7433 120.196 99.9504 120.196H116.2C118.407 120.196 120.196 118.463 120.196 116.324C120.196 114.185 118.407 112.452 116.2 112.452Z" fill="#486EA1"/>
</svg>
