<svg width="173" height="173" viewBox="0 0 173 173" fill="none" xmlns="http://www.w3.org/2000/svg">
<path d="M170.428 82.3149L146.83 69.0903L170.441 55.7668C173.854 53.8406 173.866 48.9031 170.441 46.9702L89.2966 1.18128C87.756 0.311968 85.8732 0.311968 84.3322 1.18128L3.18781 46.9702C-0.225486 48.8964 -0.237606 53.8339 3.18781 55.7668L26.7987 69.0903L3.20128 82.3149C-0.237606 84.2418 -0.228853 89.1907 3.18815 91.1185L26.7708 104.426L3.19656 117.669C-0.23828 119.598 -0.226833 124.543 3.18815 126.471L84.3326 172.26C85.8732 173.129 87.756 173.129 89.297 172.26L170.441 126.471C173.861 124.541 173.865 119.592 170.428 117.667L146.83 104.442L170.441 91.1188C173.86 89.1893 173.865 84.2404 170.428 82.3149ZM86.8146 11.3788L157.682 51.3687L86.8146 91.3586L15.9468 51.3687L86.8146 11.3788ZM157.656 122.087L86.8146 162.062L15.9643 122.082L37.0588 110.231L84.3326 136.907C85.8732 137.777 87.756 137.777 89.297 136.907L136.536 110.251L157.656 122.087ZM86.8146 126.71L15.9734 86.7356L37.0935 74.8995L84.3322 101.556C85.8729 102.425 87.7556 102.425 89.2966 101.556L136.535 74.8995L157.655 86.7356L86.8146 126.71Z" fill="#486EA1"/>
</svg>
