<svg width="231" height="231" viewBox="0 0 231 231" fill="none" xmlns="http://www.w3.org/2000/svg">
<mask id="mask0_8076_214" style="mask-type:luminance" maskUnits="userSpaceOnUse" x="0" y="0" width="231" height="231">
<path d="M0.33667 0.168213H230.179V230.011H0.33667V0.168213Z" fill="white"/>
</mask>
<g mask="url(#mask0_8076_214)">
<path d="M202.796 143.293C202.796 143.585 202.559 143.822 202.266 143.822H182.595C178.876 143.822 175.862 146.837 175.861 150.556V181.977C175.861 185.696 172.846 188.711 169.128 188.711H142.193C138.474 188.711 135.46 191.726 135.459 195.444V216.543H59.1444V159.534C59.1444 157.568 58.285 155.7 56.7919 154.421C38.3408 138.612 27.7206 115.528 27.7198 91.2311V90.8957L27.7214 90.396C27.9886 47.955 62.4777 13.6326 104.981 13.6354H104.982C149.087 13.6384 184.841 49.4066 184.84 93.5142C184.84 99.7347 184.84 102.772 184.84 104.255C184.84 104.996 184.839 105.349 184.839 105.516C184.839 105.599 184.839 105.637 184.839 105.653L184.84 105.611L184.839 105.665V105.673C184.839 105.675 185.922 106.759 187.654 107.625L185.55 108.676L202.74 143.055C202.777 143.129 202.796 143.211 202.796 143.293ZM189.329 157.29H202.266C209.996 157.29 216.263 151.023 216.263 143.293C216.263 141.119 215.757 138.977 214.786 137.034L214.786 137.033L198.307 104.076C198.307 102.533 198.307 99.4942 198.307 93.5145L198.305 92.9109C197.982 41.6459 156.327 0.171463 104.983 0.168076H104.982V0.168411C54.8732 0.165344 14.2505 40.7871 14.2524 90.896V91.2314C14.2534 118.412 25.6923 144.284 45.6771 162.565V223.277C45.6771 226.996 48.6919 230.011 52.4108 230.011H142.193C145.912 230.011 148.927 226.996 148.927 223.277V202.178H169.128C180.284 202.178 189.329 193.134 189.329 181.977V157.29Z" fill="#486EA1"/>
<path d="M143.954 88.1538C143.954 90.9696 143.623 93.7314 143.024 96.4351C142.388 99.304 143.687 102.254 146.231 103.723L149.985 105.89L143.251 117.553L139.47 115.37C136.924 113.9 133.718 114.252 131.551 116.24C127.455 119.998 122.603 122.876 117.246 124.559C114.44 125.441 112.531 128.042 112.531 130.984V135.289H99.0634V130.984C99.0634 128.042 97.1541 125.441 94.3479 124.559C88.9905 122.876 84.1386 119.998 80.0425 116.24C77.8758 114.252 74.6696 113.9 72.1232 115.37L68.3424 117.553L61.6087 105.89L65.3622 103.723C67.9067 102.254 69.205 99.3048 68.5699 96.4361C67.9712 93.7318 67.6398 90.9696 67.6398 88.1538C67.6398 85.338 67.9712 82.5759 68.5699 79.8715C69.205 77.0029 67.9067 74.0536 65.3622 72.5845L61.6087 70.4178L68.3427 58.7545L72.1235 60.937L72.2432 61.0044C74.7697 62.3957 77.9096 62.0241 80.0425 60.0674C84.1382 56.3098 88.99 53.4316 94.3482 51.748C97.1543 50.8662 99.0634 48.2653 99.0634 45.324V41.0181H112.531V45.324C112.531 48.2652 114.44 50.8662 117.246 51.748C122.603 53.4316 127.456 56.3098 131.551 60.0674L131.654 60.1591C133.818 62.0655 136.964 62.3842 139.47 60.937L143.251 58.7545L149.985 70.4178L146.231 72.5845C143.687 74.0538 142.388 77.0036 143.024 79.8725C143.623 82.5762 143.954 85.338 143.954 88.1538ZM117.02 88.1538C117.02 94.3518 111.995 99.3765 105.797 99.3765C99.5988 99.3765 94.5744 94.3519 94.5744 88.1538C94.5744 81.9554 99.5987 76.9312 105.797 76.9312C111.995 76.9312 117.02 81.9555 117.02 88.1538ZM130.487 88.1538C130.487 74.5175 119.433 63.4638 105.797 63.4638C92.1609 63.4638 81.1071 74.5176 81.1071 88.1538C81.1071 101.79 92.1607 112.844 105.797 112.844C119.433 112.844 130.487 101.79 130.487 88.1538ZM157.422 88.1538C157.422 86.0262 157.283 83.9407 157.029 81.9015L162.55 78.7139C165.77 76.8544 166.874 72.7362 165.015 69.5156L151.547 46.1891C149.688 42.9685 145.57 41.8651 142.349 43.7244L136.799 46.9285C133.495 44.429 129.877 42.3057 125.998 40.6456V34.2845C125.998 30.5656 122.983 27.5508 119.264 27.5508H92.3298C88.6109 27.5508 85.5961 30.5656 85.5961 34.2845V40.6456C81.7171 42.3057 78.0988 44.4289 74.7943 46.9285L69.2449 43.7244C66.0243 41.865 61.9061 42.9685 60.0466 46.1891L46.5793 69.5156C44.7199 72.7362 45.8233 76.8544 49.0439 78.7139L54.565 81.9018C54.3103 83.9408 54.1724 86.0262 54.1724 88.1538C54.1724 90.2816 54.3103 92.3671 54.565 94.4061L49.0439 97.5938C45.8233 99.4532 44.7199 103.571 46.5793 106.792L60.0466 130.119L60.1318 130.262C61.0315 131.735 62.4643 132.808 64.1355 133.256C65.8605 133.718 67.6984 133.476 69.2449 132.583L74.7943 129.379C78.0986 131.879 81.7169 134.003 85.5961 135.663V142.023C85.5961 145.742 88.6109 148.757 92.3298 148.757H119.264C122.983 148.757 125.998 145.742 125.998 142.023V135.663C129.877 134.003 133.495 131.879 136.799 129.379L142.349 132.583L142.495 132.665C144.01 133.49 145.787 133.704 147.458 133.256C149.183 132.794 150.654 131.665 151.547 130.119L165.015 106.792C166.874 103.571 165.77 99.4532 162.55 97.5938L157.029 94.4065C157.283 92.3672 157.422 90.2816 157.422 88.1538Z" fill="#486EA1"/>
</g>
</svg>
