<svg width="512" height="512" viewBox="0 0 512 512" fill="none" xmlns="http://www.w3.org/2000/svg">
<g clip-path="url(#clip0_8079_116)">
<path d="M497 0H15C6.716 0 0 6.716 0 15V497C0 505.284 6.716 512 15 512H497C505.284 512 512 505.284 512 497V15C512 6.716 505.284 0 497 0Z" fill="#2E86FD"/>
<path d="M497 0H256V512H497C505.284 512 512 505.284 512 497V15C512 6.716 505.284 0 497 0Z" fill="#2962E0"/>
<path d="M277.213 116L311.606 81.606C317.464 75.749 317.464 66.251 311.606 60.393C305.749 54.535 296.251 54.535 290.393 60.393L256 94.787L221.606 60.393C215.749 54.535 206.251 54.535 200.393 60.393C194.535 66.25 194.535 75.748 200.393 81.606L234.787 116L200.394 150.394C194.536 156.251 194.536 165.749 200.394 171.607C206.251 177.465 215.749 177.466 221.607 171.607L256 137.213L290.394 171.607C296.251 177.465 305.749 177.466 311.607 171.607C317.465 165.75 317.465 156.252 311.607 150.394L277.213 116Z" fill="#AAF3FE"/>
<path d="M448.122 162.693C448.1 162.69 448.08 162.684 448.058 162.681L397.54 155.683C389.338 154.547 381.761 160.277 380.624 168.483C379.487 176.689 385.218 184.262 393.424 185.399L410.104 187.71C369.656 218.184 329.199 236.18 300.229 246.327C262.053 259.699 234.943 262.764 234.422 262.821C226.191 263.692 220.219 271.067 221.082 279.301C221.947 287.548 229.332 293.519 237.564 292.656C238.778 292.529 267.763 289.375 309.174 274.979C339.987 264.267 382.826 245.357 425.894 213.37L424.145 225.997C422.901 234.973 429.857 243.057 439.022 243.057C446.393 243.057 452.821 237.621 453.861 230.114L460.859 179.597C461.953 171.674 456.49 163.885 448.122 162.693Z" fill="#F7974F"/>
<path d="M126 231C90.159 231 61 260.159 61 296C61 331.841 90.159 361 126 361C161.841 361 191 331.841 191 296C191 260.159 161.841 231 126 231ZM126 331C106.701 331 91 315.299 91 296C91 276.701 106.701 261 126 261C145.299 261 161 276.701 161 296C161 315.299 145.299 331 126 331Z" fill="#FDF05F"/>
<path d="M277.213 116L311.606 81.606C317.464 75.749 317.464 66.251 311.606 60.393C305.749 54.535 296.251 54.535 290.393 60.393L256 94.787V137.213L290.394 171.607C296.251 177.464 305.749 177.465 311.607 171.607C317.465 165.75 317.465 156.252 311.607 150.394L277.213 116Z" fill="#8DDCF7"/>
<path d="M407.213 396L441.606 361.607C447.464 355.749 447.464 346.252 441.606 340.394C435.749 334.536 426.251 334.536 420.393 340.394L386 374.787L351.606 340.393C345.749 334.535 336.251 334.535 330.393 340.393C324.535 346.251 324.535 355.748 330.393 361.606L364.787 396L330.394 430.393C324.536 436.251 324.536 445.748 330.394 451.606C336.251 457.463 345.749 457.464 351.607 451.606L386 417.213L420.394 451.607C426.251 457.464 435.749 457.465 441.607 451.607C447.465 445.749 447.465 436.252 441.607 430.394L407.213 396Z" fill="#8DDCF7"/>
<path d="M448.122 162.693C448.1 162.69 448.08 162.684 448.058 162.681L397.54 155.683C389.338 154.547 381.761 160.277 380.624 168.483C379.487 176.689 385.218 184.262 393.424 185.399L410.104 187.71C369.656 218.184 329.199 236.18 300.229 246.327C282.621 252.494 267.377 256.466 256 258.964V289.635C268.685 287.101 287.176 282.626 309.173 274.979C339.986 264.267 382.825 245.357 425.893 213.37L424.144 225.997C422.9 234.973 429.856 243.057 439.021 243.057C446.392 243.057 452.82 237.621 453.86 230.114L460.858 179.597C461.953 171.674 456.49 163.885 448.122 162.693Z" fill="#FC5E30"/>
</g>
<defs>
<clipPath id="clip0_8079_116">
<rect width="512" height="512" fill="white"/>
</clipPath>
</defs>
</svg>
