<svg width="141" height="185" viewBox="0 0 141 185" fill="none" xmlns="http://www.w3.org/2000/svg">
<path d="M70.2244 54.3789C61.2887 54.3789 54.0188 61.6488 54.0188 70.5846C54.0188 79.5203 61.2887 86.7902 70.2244 86.7902C79.1602 86.7902 86.4301 79.5203 86.4301 70.5846C86.4301 61.6488 79.1606 54.3789 70.2244 54.3789ZM70.2244 75.9864C67.2458 75.9864 64.8226 73.5632 64.8226 70.5846C64.8226 67.606 67.2458 65.1827 70.2244 65.1827C73.203 65.1827 75.6263 67.606 75.6263 70.5846C75.6263 73.5632 73.2034 75.9864 70.2244 75.9864Z" fill="#486EA1"/>
<path d="M115.751 78.1568L107.916 73.6326C108.072 71.6756 108.084 69.6294 107.916 67.5342L115.751 63.0099C118.335 61.5179 119.221 58.2145 117.729 55.631L106.925 36.9185C105.433 34.3346 102.129 33.4487 99.5462 34.941L91.7131 39.4628C90.0345 38.2999 88.2703 37.2801 86.43 36.4085V27.3687C86.43 24.3854 84.0114 21.9668 81.0281 21.9668H59.4206C56.4373 21.9668 54.0187 24.3854 54.0187 27.3687V36.4089C52.1785 37.2808 50.4142 38.3006 48.7357 39.4631L40.9026 34.9414C38.3183 33.4501 35.0156 34.3346 33.524 36.9188L22.7202 55.6313C21.2282 58.2149 22.1134 61.5187 24.6973 63.0103L32.5329 67.5346C32.3762 69.4915 32.3651 71.5377 32.5329 73.6329L24.6973 78.1572C22.1134 79.6492 21.2282 82.9526 22.7202 85.5362L33.524 104.249C35.016 106.833 38.319 107.718 40.9026 106.226L48.7357 101.704C50.4142 102.867 52.1785 103.887 54.0187 104.759V113.799C54.0187 116.782 56.4373 119.201 59.4206 119.201H81.0281C84.0114 119.201 86.43 116.782 86.43 113.799V104.759C88.2703 103.887 90.0345 102.867 91.7131 101.704L99.5462 106.226C102.13 107.717 105.433 106.833 106.925 104.249L117.729 85.5362C119.221 82.9526 118.335 79.6488 115.751 78.1568ZM96.7826 65.6554C97.3678 68.7745 97.4005 72.2166 96.7826 75.5117C96.3598 77.765 97.4052 80.0396 99.3909 81.1858L105.671 84.8119L100.269 94.1684L93.9851 90.5412C92.0005 89.3956 89.5098 89.6268 87.7697 91.1177C85.2326 93.2911 82.361 94.9516 79.2344 96.0518C77.0725 96.8128 75.6259 98.8554 75.6259 101.147V108.397H64.8221V101.148C64.8221 98.8558 63.3755 96.8131 61.2137 96.0522C58.0867 94.9516 55.2154 93.2915 52.6783 91.1181C50.9382 89.6275 48.4479 89.3956 46.4629 90.5415L40.1791 94.1687L34.7768 84.8123L41.0571 81.1862C43.0428 80.0399 44.0883 77.7654 43.6655 75.5121C43.0803 72.393 43.0475 68.9509 43.6655 65.6558C44.0883 63.4025 43.0428 61.1279 41.0571 59.9816L34.7768 56.3555L40.1791 46.9991L46.4629 50.6263C48.4476 51.7719 50.9382 51.5407 52.6783 50.0497C55.2154 47.8764 58.0871 46.2158 61.2137 45.1157C63.3755 44.3547 64.8221 42.3121 64.8221 40.0202V32.7706H75.6259V40.0199C75.6259 42.3117 77.0725 44.3544 79.2344 45.1153C82.3613 46.2158 85.2326 47.876 87.7697 50.0494C89.5098 51.5396 91.9994 51.7715 93.9851 50.6259L100.269 46.9988L105.671 56.3552L99.3909 59.9816C97.4056 61.1276 96.3598 63.4025 96.7826 65.6554Z" fill="#486EA1"/>
<path d="M70.225 0C31.5036 0 0.000881734 31.664 0.000881734 70.5576C-0.101754 91.0275 8.76022 110.424 24.3151 123.774C32.894 131.138 37.8141 142.006 37.8141 153.593V173.581C37.8141 179.538 42.6606 184.384 48.6178 184.384H91.8325C97.7897 184.384 102.636 179.538 102.636 173.581V153.585C102.636 142.01 107.539 131.142 116.087 123.764C131.57 110.402 140.449 91.0192 140.449 70.5846C140.449 31.664 108.947 0 70.225 0ZM91.8325 173.581H48.6178C48.6178 152.009 48.7738 150.978 48.0816 146.211H92.3666C91.6777 150.971 91.8325 151.989 91.8325 173.581ZM109.028 115.585C102.787 120.971 98.0692 127.8 95.1677 135.407H45.2733C42.3603 127.79 37.6214 120.958 31.3516 115.577C18.2067 104.295 10.7179 87.9056 10.8046 70.5846C10.8046 37.6216 37.4608 10.8038 70.225 10.8038C102.989 10.8038 129.645 37.6216 129.645 70.5846C129.645 87.8753 122.131 104.278 109.028 115.585Z" fill="#486EA1"/>
</svg>
