<svg width="383" height="383" viewBox="0 0 383 383" fill="none" xmlns="http://www.w3.org/2000/svg">
<g clip-path="url(#clip0_8098_167)">
<mask id="mask0_8098_167" style="mask-type:luminance" maskUnits="userSpaceOnUse" x="0" y="0" width="383" height="383">
<path d="M0 3.05176e-05H383V383H0V3.05176e-05Z" fill="white"/>
</mask>
<g mask="url(#mask0_8098_167)">
<path d="M367.502 99.4077C351.119 106.29 338.991 121.682 319.167 121.682C293.633 121.682 280.867 96.1492 255.333 96.1492C229.8 96.1492 217.034 121.682 191.5 121.682C165.967 121.682 153.2 96.1492 127.667 96.1492C102.133 96.1492 89.3667 121.682 63.8328 121.682C44.0089 121.682 31.8808 106.29 15.4986 99.4077C8.13329 96.313 -0.000244141 101.797 -0.000244141 109.785V187.42C-0.000244141 201.521 11.4314 212.953 25.5336 212.953H357.467C371.568 212.953 383 201.521 383 187.42V109.785C383 101.797 374.866 96.313 367.502 99.4077Z" fill="#48E9FA"/>
<path d="M357.467 212.953C371.568 212.953 383 201.521 383 187.42V109.785C383 101.797 374.866 96.3131 367.502 99.4077C351.119 106.291 338.991 121.682 319.167 121.682C293.634 121.682 280.867 96.1485 255.333 96.1485C229.8 96.1485 217.034 121.682 191.5 121.682V212.953H357.467Z" fill="#00C1FF"/>
<path d="M191.5 82.5347C187.25 82.5347 183.365 80.1334 181.463 76.3319C181.401 76.2122 172.078 58.4977 155.444 58.4977C149.247 58.4977 144.223 53.4738 144.223 47.277C144.223 41.0802 149.247 36.0563 155.444 36.0563C171.98 36.0563 183.919 44.5159 191.5 52.4924C199.081 44.5159 211.02 36.0563 227.556 36.0563C233.753 36.0563 238.777 41.0802 238.777 47.277C238.777 53.4738 233.753 58.4977 227.556 58.4977C210.919 58.4977 201.626 76.1538 201.537 76.3319C199.635 80.1334 195.75 82.5347 191.5 82.5347Z" fill="#08405F"/>
<path d="M319.167 212.953C293.633 212.953 280.867 187.42 255.333 187.42C229.8 187.42 217.033 212.953 191.5 212.953C165.967 212.953 153.2 187.42 127.667 187.42C102.133 187.42 89.3665 212.953 63.8334 212.953C38.3004 212.953 25.5335 187.42 -0.000366211 187.42V278.691C-0.000366211 292.792 11.432 304.224 25.5335 304.224H357.467C371.568 304.224 383 292.792 383 278.691V187.42C357.467 187.42 344.7 212.953 319.167 212.953Z" fill="#00C1FF"/>
<path d="M357.467 304.224C371.568 304.224 383 292.792 383 278.691V187.419C357.467 187.419 344.7 212.953 319.167 212.953C293.634 212.953 280.867 187.419 255.333 187.419C229.8 187.419 217.034 212.953 191.5 212.953V304.224H357.467Z" fill="#0084FF"/>
<path d="M255.333 278.691C229.8 278.691 217.033 304.224 191.5 304.224C165.967 304.224 153.2 278.691 127.667 278.691C102.133 278.691 89.3665 304.224 63.8335 304.224C38.3004 304.224 25.5334 278.691 0.000366211 278.691V371.779C0.000366211 377.977 5.0235 383 11.2211 383H371.78C377.976 383 383 377.977 383 371.779V278.691C357.467 278.691 344.7 304.224 319.167 304.224C293.633 304.224 280.867 278.691 255.333 278.691Z" fill="#0084FF"/>
<path d="M371.779 383C377.976 383 383 377.976 383 371.779V278.691C357.467 278.691 344.7 304.224 319.167 304.224C293.633 304.224 280.867 278.691 255.333 278.691C229.8 278.691 217.033 304.224 191.5 304.224V383H371.779Z" fill="#005FFE"/>
<path d="M191.5 52.4922C199.081 44.5158 211.02 36.0562 227.556 36.0562C233.753 36.0562 238.777 41.08 238.777 47.2769C238.777 53.4737 233.753 58.4976 227.556 58.4976C210.919 58.4976 201.626 76.1537 201.537 76.3325C199.635 80.1333 195.75 82.5345 191.5 82.5345V52.4922Z" fill="#062636"/>
<path d="M311.686 46.4786C307.436 46.4786 303.551 44.0774 301.65 40.2758C301.587 40.1561 292.265 22.4416 275.63 22.4416C269.433 22.4416 264.409 17.4178 264.409 11.2209C264.409 5.02413 269.433 0.000245348 275.63 0.000245348C292.166 0.000245348 304.105 8.45991 311.686 16.4363C319.267 8.45991 331.206 0.000245348 347.742 0.000245348C353.939 0.000245348 358.963 5.02413 358.963 11.2209C358.963 17.4178 353.939 22.4416 347.742 22.4416C331.105 22.4416 321.812 40.0978 321.723 40.2758C319.821 44.0774 315.936 46.4786 311.686 46.4786Z" fill="#08405F"/>
<path d="M311.686 16.4363C319.267 8.45985 331.206 0.000184313 347.742 0.000184313C353.939 0.000184313 358.963 5.02407 358.963 11.2209C358.963 17.4177 353.939 22.4416 347.742 22.4416C331.105 22.4416 321.812 40.0977 321.723 40.2765C319.821 44.0773 315.936 46.4786 311.686 46.4786V16.4363Z" fill="#062636"/>
</g>
<mask id="mask1_8098_167" style="mask-type:luminance" maskUnits="userSpaceOnUse" x="0" y="0" width="383" height="383">
<path d="M0 3.05176e-05H383V383H0V3.05176e-05Z" fill="white"/>
</mask>
<g mask="url(#mask1_8098_167)">
<path d="M-63.0843 48.1234C-133.454 -22.2462 -223.411 -1.70405 -248.95 23.838C-266.618 41.5069 -269.355 67.8763 -240.855 96.3724L-111.333 225.894C-82.8372 254.394 -56.4678 251.657 -38.799 233.989C-13.2569 208.45 7.28522 118.493 -63.0843 48.1234Z" fill="#FF91DF"/>
<path d="M-38.7987 233.989C-13.2567 208.45 7.28471 118.493 -63.0841 48.1235L-176.094 161.133L-111.333 225.895C-82.837 254.394 -56.4683 251.657 -38.7987 233.989Z" fill="#FF5FB4"/>
</g>
</g>
<defs>
<clipPath id="clip0_8098_167">
<rect width="383" height="383" fill="white"/>
</clipPath>
</defs>
</svg>
