<svg width="512" height="416" viewBox="0 0 512 416" fill="none" xmlns="http://www.w3.org/2000/svg">
<path d="M191.733 364.4H15C6.716 364.4 0 357.684 0 349.4C0 341.116 6.716 334.4 15 334.4H191.733C200.017 334.4 206.733 341.116 206.733 349.4C206.733 357.684 200.018 364.4 191.733 364.4Z" fill="#16C4E2"/>
<path d="M79.267 81.6H15C6.716 81.6 0 74.884 0 66.6C0 58.316 6.716 51.6 15 51.6H79.267C87.551 51.6 94.267 58.316 94.267 66.6C94.267 74.884 87.551 81.6 79.267 81.6Z" fill="#16C4E2"/>
<path d="M453.601 74.472C420.536 74.009 393.489 100.772 393.489 133.733C393.489 147.981 405.029 154.303 411.452 155.483C425.474 158.058 437.743 147.314 437.756 133.755C437.762 127.213 441.878 121.292 448.147 119.42C458.397 116.36 467.756 123.954 467.756 133.733C467.756 162.48 444.369 185.866 415.623 185.866H15C6.716 185.866 0 192.582 0 200.866V215.133C0 223.417 6.716 230.133 15 230.133H415.622C467.233 230.133 510.135 189.418 511.961 137.199C513.134 103.679 487.138 74.942 453.601 74.472Z" fill="#2066A7"/>
<path d="M285.656 260.133H15C6.716 260.133 0 266.849 0 275.133V289.4C0 297.684 6.716 304.4 15 304.4H285.656C314.155 304.4 337.385 327.385 337.784 355.791C337.9 364.022 331.362 371.346 323.132 371.53C314.691 371.719 307.789 364.932 307.789 356.534C307.789 344.329 297.86 334.401 285.656 334.401C273.58 334.401 263.523 344.112 263.523 356.534C263.523 389.495 290.57 416.258 323.635 415.795C357.172 415.325 383.168 386.588 381.996 353.068C380.172 300.95 337.384 260.133 285.656 260.133Z" fill="#1F6892"/>
<path d="M155.689 155.867H15.003C6.719 155.867 0.00300026 149.151 0.00300026 140.867V126.6C0.00300026 118.316 6.719 111.6 15.003 111.6H155.688C184.187 111.6 207.417 88.615 207.816 60.209C207.932 51.978 201.394 44.654 193.164 44.47C184.723 44.281 177.821 51.068 177.821 59.466C177.821 71.671 167.892 81.599 155.688 81.599C143.612 81.599 133.555 71.888 133.555 59.466C133.555 26.505 160.602 -0.257985 193.667 0.205015C227.204 0.675015 253.2 29.412 252.028 62.932C250.205 115.05 207.417 155.867 155.689 155.867Z" fill="#1F6892"/>
<path d="M511.962 137.199C513.134 103.679 487.138 74.941 453.601 74.472C420.536 74.009 393.489 100.772 393.489 133.733C393.489 147.981 405.029 154.303 411.452 155.483C425.474 158.058 437.743 147.314 437.756 133.755C437.762 127.213 441.878 121.292 448.147 119.42C458.397 116.36 467.756 123.954 467.756 133.733C467.756 162.48 444.369 185.866 415.623 185.866H252.028V230.133H415.622C467.234 230.133 510.135 189.418 511.962 137.199Z" fill="#0096FF"/>
<path d="M337.784 355.791C337.9 364.022 331.362 371.346 323.132 371.53C314.691 371.719 307.789 364.932 307.789 356.534C307.789 344.329 297.86 334.401 285.656 334.401C273.58 334.401 263.523 344.112 263.523 356.534C263.523 389.495 290.57 416.258 323.635 415.795C357.172 415.325 383.168 386.588 381.996 353.068C380.173 300.951 337.385 260.134 285.657 260.134H252.03V304.4H285.657C314.154 304.4 337.385 327.385 337.784 355.791Z" fill="#2066A7"/>
</svg>
