<svg width="512" height="512" viewBox="0 0 512 512" fill="none" xmlns="http://www.w3.org/2000/svg">
<g clip-path="url(#clip0_8077_457)">
<path d="M434.487 403.638H123.363C122.49 403.638 121.618 403.562 120.759 403.41L12.396 384.303C8.47802 383.613 4.99502 381.393 2.71302 378.135C0.43102 374.876 -0.46298 370.844 0.22802 366.927L62.741 12.3961C63.434 8.46406 65.667 4.97106 68.943 2.69006C72.22 0.409057 76.272 -0.470944 80.199 0.243056L437.172 65.1991C444.303 66.497 449.486 72.7081 449.486 79.9571V388.639C449.487 396.922 442.771 403.638 434.487 403.638Z" fill="#E05169"/>
<path d="M437.172 65.198L256 32.231V403.637H434.486C442.77 403.637 449.486 396.921 449.486 388.637V79.956C449.487 72.708 444.303 66.496 437.172 65.198Z" fill="#FF8F45"/>
<path d="M142.469 512C139.411 512 136.405 511.065 133.865 509.287C130.606 507.005 128.387 503.522 127.696 499.604L65.1841 145.074C63.7461 136.916 69.1941 129.136 77.3521 127.698L431.882 65.185C440.044 63.75 447.82 69.194 449.259 77.352L511.773 431.883C512.463 435.8 511.57 439.832 509.288 443.091C507.007 446.35 503.523 448.569 499.605 449.259L145.074 511.772C144.208 511.925 143.336 512 142.469 512Z" fill="#49ABF4"/>
<path d="M449.259 77.3511C447.821 69.1931 440.044 63.7491 431.882 65.1841L256 96.1971V492.213L499.604 449.259C503.522 448.569 507.005 446.349 509.287 443.091C511.569 439.832 512.463 435.8 511.772 431.883L449.259 77.3511Z" fill="#3685F8"/>
<path d="M159.864 265.23C152.721 265.23 146.392 260.11 145.109 252.832C143.671 244.674 149.119 236.894 157.277 235.456L393.632 193.78C401.797 192.342 409.571 197.789 411.009 205.947C412.447 214.105 406.999 221.885 398.841 223.323L162.487 265C161.606 265.155 160.729 265.23 159.864 265.23Z" fill="white"/>
<path d="M170.283 324.318C163.14 324.318 156.811 319.198 155.528 311.92C154.09 303.762 159.538 295.982 167.696 294.544L404.051 252.868C412.215 251.43 419.989 256.877 421.428 265.035C422.866 273.193 417.418 280.973 409.26 282.411L172.905 324.087C172.025 324.243 171.148 324.318 170.283 324.318Z" fill="white"/>
<path d="M180.702 383.407C173.559 383.407 167.23 378.287 165.947 371.009C164.509 362.851 169.957 355.071 178.115 353.633L335.684 325.849C343.848 324.41 351.622 329.858 353.061 338.016C354.499 346.175 349.051 353.954 340.893 355.393L183.324 383.177C182.444 383.332 181.567 383.407 180.702 383.407Z" fill="white"/>
<path d="M393.632 193.78L256 218.048V248.51L398.841 223.323C406.999 221.885 412.447 214.105 411.009 205.947C409.572 197.789 401.797 192.342 393.632 193.78Z" fill="white"/>
<path d="M404.051 252.868L256 278.974V309.436L409.26 282.412C417.418 280.974 422.866 273.194 421.428 265.036C419.99 256.877 412.215 251.43 404.051 252.868Z" fill="white"/>
<path d="M335.685 325.849L256 339.899V370.361L340.894 355.392C349.052 353.954 354.5 346.174 353.062 338.015C351.623 329.858 343.849 324.41 335.685 325.849Z" fill="white"/>
</g>
<defs>
<clipPath id="clip0_8077_457">
<rect width="512" height="512" fill="white"/>
</clipPath>
</defs>
</svg>
