<svg width="512" height="512" viewBox="0 0 512 512" fill="none" xmlns="http://www.w3.org/2000/svg">
<path d="M257.673 247.712H154.056V264.821H257.673C267.167 264.821 274.89 272.545 274.89 282.039V340.225C274.89 349.719 267.167 357.443 257.673 357.443H251.415L261.108 347.75L249.01 335.652L218.664 365.998L249.01 396.344L261.108 384.246L251.415 374.553H257.673C276.601 374.553 292 359.154 292 340.226V282.039C292 263.111 276.601 247.712 257.673 247.712Z" fill="#523D64"/>
<path d="M111.841 445.892L99.743 457.99L109.436 467.683H34.3271C24.8331 467.683 17.1094 459.959 17.1094 450.466V391.771C17.1094 382.277 24.8331 374.554 34.3271 374.554H69.2216V357.444H34.3271C15.399 357.444 0 372.843 0 391.771V450.466C0 469.393 15.399 484.792 34.3271 484.792H109.437L99.743 494.486L111.841 506.584L142.187 476.237L111.841 445.892Z" fill="#61619C"/>
<path d="M146 329.5H91.2499V402.5H146L153.632 366L146 329.5Z" fill="#00E3A1"/>
<path d="M146 329.5H200.75V402.5H146V329.5Z" fill="#04BFA9"/>
<path d="M146 357.446H118.665V374.555H146L153.632 366L146 357.446Z" fill="#F9F3F1"/>
<path d="M146 357.446H173.335V374.555H146V357.446Z" fill="#E8EDF2"/>
<path d="M18.25 220H127.75V293H18.25V220Z" fill="#FF6946"/>
<path d="M45.6625 247.946H100.337V265.055H45.6625V247.946Z" fill="#F9F3F1"/>
<path d="M164.25 439H273.75V512H164.25V439Z" fill="#23A7E9"/>
<path d="M191.662 466.945H246.337V484.055H191.662V466.945Z" fill="#E8EDF2"/>
</svg>
