<svg width="107" height="101" viewBox="0 0 107 101" fill="none" xmlns="http://www.w3.org/2000/svg">
<path d="M88.345 47.9756C90.1047 47.9756 91.5312 49.3887 91.5312 51.1318C91.5312 52.8749 90.1047 54.288 88.345 54.2881H71.9925C70.2328 54.2881 68.8062 52.875 68.8062 51.1318C68.8062 49.3887 70.2328 47.9756 71.9925 47.9756H88.345Z" fill="#486EA1"/>
<path d="M103.525 42.2944C105.268 42.2944 106.681 43.7075 106.681 45.4507V58.0757C106.681 59.8188 105.268 61.2319 103.525 61.2319H90.8999C89.1568 61.2319 87.7437 59.8188 87.7437 58.0757V45.4507C87.7437 43.7075 89.1568 42.2944 90.8999 42.2944H103.525ZM94.0562 54.9194H100.369V48.6069H94.0562V54.9194Z" fill="#486EA1"/>
<path d="M103.525 16.4131C105.268 16.4131 106.681 17.7791 106.681 19.4641V31.6683C106.681 33.3533 105.268 34.7193 103.525 34.7193H90.8999C89.1568 34.7193 87.7437 33.3533 87.7437 31.6683V19.4641C87.7437 17.7791 89.1568 16.4131 90.8999 16.4131H103.525ZM94.0562 28.6173H100.369V22.5152H94.0562V28.6173Z" fill="#486EA1"/>
<path d="M103.525 68.8066C105.268 68.8066 106.681 70.1726 106.681 71.8577V84.0618C106.681 85.7469 105.268 87.1129 103.525 87.1129H90.8999C89.1568 87.1129 87.7437 85.7469 87.7437 84.0618V71.8577C87.7437 70.1726 89.1568 68.8066 90.8999 68.8066H103.525ZM94.0562 81.0108H100.369V74.9087H94.0562V81.0108Z" fill="#486EA1"/>
<path d="M88.3576 22.0942C90.1104 22.0942 91.5312 23.5073 91.5312 25.2505C91.5312 26.9936 90.1104 28.4067 88.3576 28.4067H72.6111C70.8584 28.4067 69.4375 26.9936 69.4375 25.2505C69.4375 23.5073 70.8584 22.0942 72.6111 22.0942H88.3576Z" fill="#486EA1"/>
<path d="M88.3576 75.1191C90.1104 75.1191 91.5312 76.5322 91.5312 78.2754C91.5312 80.0185 90.1104 81.4316 88.3576 81.4316H72.6111C70.8584 81.4316 69.4375 80.0185 69.4375 78.2754C69.4375 76.5322 70.8584 75.1191 72.6111 75.1191H88.3576Z" fill="#486EA1"/>
<path d="M0 85.1587C0 84.779 0.000151571 84.5691 0.00020381 84.3713V63.1005C0.00020381 61.3709 1.40179 59.9688 3.13073 59.9688C4.85966 59.9688 6.26125 61.3709 6.26125 63.1005V83.6571C6.26125 83.9892 6.2611 84.1753 6.26105 84.3729C6.26099 84.5704 6.26105 84.7797 6.26105 85.1587C6.26107 85.6877 6.53797 86.573 7.88011 87.7552C9.21735 88.9331 11.3321 90.1369 14.2147 91.2109C19.9563 93.35 28.0977 94.7366 37.2439 94.7366C46.3899 94.7366 54.5312 93.35 60.2728 91.2109C63.1554 90.137 65.2702 88.9333 66.6074 87.7554C67.9495 86.5732 68.2264 85.6877 68.2265 85.1587V63.1005C68.2265 61.3709 69.628 59.9688 71.357 59.9688C73.0859 59.9688 74.4875 61.3709 74.4875 63.1005V85.1587C74.4875 88.1394 72.8551 90.5975 70.7449 92.4563C68.6297 94.3195 65.7486 95.8545 62.458 97.0805C55.8531 99.5413 46.9378 101 37.2439 101C27.5498 101 18.6345 99.5413 12.0295 97.0805C8.73884 95.8545 5.85777 94.3193 3.74257 92.4561C1.63239 90.5973 2.79136e-05 88.1393 0 85.1587Z" fill="#486EA1"/>
<path d="M0 61.8021C0 61.4224 0.000151571 61.2125 0.00020381 61.0147V39.744C0.00020381 38.0144 1.40179 36.6123 3.13073 36.6123C4.85966 36.6123 6.26125 38.0144 6.26125 39.744V60.3005C6.26125 60.6327 6.2611 60.8187 6.26105 61.0164C6.26099 61.2138 6.26105 61.4232 6.26105 61.8021C6.26107 62.3312 6.53796 63.2166 7.88011 64.3988C9.21735 65.5768 11.3321 66.7805 14.2147 67.8545C19.9563 69.9937 28.0977 71.3801 37.2439 71.3801C46.3899 71.3801 54.5312 69.9937 60.2728 67.8545C63.1554 66.7805 65.2702 65.5768 66.6074 64.3988C67.9495 63.2166 68.2264 62.3312 68.2265 61.8021V39.744C68.2265 38.0144 69.628 36.6123 71.357 36.6123C73.0859 36.6123 74.4875 38.0144 74.4875 39.744V61.8021C74.4875 64.7828 72.8551 67.2409 70.7449 69.0997C68.6297 70.9629 65.7486 72.498 62.458 73.724C55.8531 76.1849 46.9378 77.6436 37.2439 77.6436C27.5498 77.6436 18.6345 76.1849 12.0295 73.724C8.73886 72.498 5.85777 70.9629 3.74257 69.0997C1.63237 67.2409 2.67499e-05 64.7828 0 61.8021Z" fill="#486EA1"/>
<path d="M0 39.0775C0 38.6978 0.000151571 38.4879 0.00020381 38.2901V17.0194C0.00020381 15.2898 1.40179 13.8877 3.13073 13.8877C4.85966 13.8877 6.26125 15.2898 6.26125 17.0194V37.5759C6.26125 37.908 6.2611 38.0941 6.26105 38.2918C6.26099 38.4892 6.26105 38.6986 6.26105 39.0775C6.26107 39.6066 6.53796 40.492 7.88011 41.6742C9.21735 42.8522 11.3321 44.0559 14.2147 45.1299C19.9563 47.2691 28.0977 48.6555 37.2439 48.6555C46.3899 48.6555 54.5312 47.2691 60.2728 45.1299C63.1554 44.0559 65.2702 42.8522 66.6074 41.6742C67.9495 40.492 68.2264 39.6066 68.2265 39.0775V17.0194C68.2265 15.2898 69.628 13.8877 71.357 13.8877C73.0859 13.8877 74.4875 15.2898 74.4875 17.0194V39.0775C74.4875 42.0582 72.8551 44.5163 70.7449 46.3751C68.6297 48.2383 65.7486 49.7734 62.458 50.9994C55.8531 53.4603 46.9378 54.9189 37.2439 54.9189C27.5498 54.9189 18.6345 53.4603 12.0295 50.9994C8.73885 49.7734 5.85777 48.2383 3.74257 46.3751C1.63237 44.5163 2.55869e-05 42.0582 0 39.0775Z" fill="#486EA1"/>
<path d="M68.2264 15.7812C68.2264 15.2542 67.9496 14.372 66.6074 13.1942C65.2701 12.0208 63.1553 10.8218 60.2727 9.75185C54.5312 7.62083 46.3899 6.23963 37.2438 6.23962C28.0976 6.23962 19.9561 7.62081 14.2146 9.75185C11.332 10.8217 9.21737 12.0208 7.88014 13.1942C6.5379 14.372 6.26107 15.2542 6.26106 15.7812C6.26106 16.3083 6.5379 17.1905 7.88014 18.3683C9.21736 19.5417 11.332 20.7408 14.2146 21.8107C19.9561 23.9417 28.0976 25.3229 37.2438 25.3229C46.3899 25.3229 54.5312 23.9417 60.2727 21.8107C63.1553 20.7407 65.2701 19.5417 66.6074 18.3683C67.9496 17.1905 68.2264 16.3083 68.2264 15.7812ZM74.4875 15.7812C74.4875 18.7506 72.8551 21.1993 70.7449 23.0511C68.6297 24.9072 65.7486 26.4365 62.458 27.6579C55.853 30.1094 46.9378 31.5625 37.2438 31.5625C27.5497 31.5625 18.6345 30.1094 12.0295 27.6579C8.73888 26.4365 5.85778 24.9072 3.74258 23.0511C1.63237 21.1993 0 18.7506 0 15.7812C1.74468e-06 12.8119 1.63237 10.3632 3.74258 8.51144C5.85778 6.65531 8.73888 5.12599 12.0295 3.90464C18.6345 1.45315 27.5497 0 37.2438 0C46.9378 2.22794e-06 55.853 1.45314 62.458 3.90464C65.7486 5.12599 68.6297 6.6553 70.7449 8.51144C72.8551 10.3632 74.4875 12.8119 74.4875 15.7812Z" fill="#486EA1"/>
</svg>
