<svg width="225" height="288" viewBox="0 0 225 288" fill="none" xmlns="http://www.w3.org/2000/svg">
<path d="M75.5705 245.227L38.3652 282.432C36.7851 284.012 34.9093 285.265 32.8449 286.121C30.7804 286.976 28.5678 287.416 26.3332 287.416C24.0987 287.416 21.886 286.976 19.8215 286.121C17.7571 285.265 15.8813 284.012 14.3012 282.432C12.7211 280.852 11.4678 278.976 10.6126 276.912C9.75751 274.847 9.31738 272.635 9.31738 270.4C9.31738 268.165 9.75751 265.953 10.6126 263.888C11.4678 261.824 12.7211 259.948 14.3012 258.368L50.7385 221.931L75.5705 245.227Z" fill="#A56A43"/>
<path d="M173.832 222L210.269 258.437C213.46 261.628 215.253 265.956 215.253 270.469C215.253 274.982 213.46 279.31 210.269 282.501C207.078 285.692 202.75 287.485 198.237 287.485C193.724 287.485 189.396 285.692 186.205 282.501L149 245.296L173.832 222Z" fill="#A56A43"/>
<path d="M112.733 49.4659C118.65 46.0667 125.387 44.3755 132.2 44.5789C145.53 44.5789 148.494 49.4659 161.4 49.4659C168.61 49.4927 175.772 48.2795 182.575 45.8788C183.507 45.536 184.312 44.9119 184.877 44.0921C185.442 43.2723 185.742 42.2969 185.733 41.2997V12.4663C185.732 11.7061 185.554 10.9566 185.214 10.2775C184.874 9.59837 184.381 9.00832 183.773 8.55425C183.166 8.10018 182.462 7.79461 181.717 7.66183C180.971 7.52905 180.205 7.57273 179.48 7.78939C173.605 9.5051 167.518 10.3739 161.4 10.3697C148.494 10.3697 145.53 5.48271 132.2 5.48271C125.387 5.27931 118.65 6.97056 112.733 10.3697V49.4659Z" fill="#E64C3C"/>
<path d="M112.733 287.466C174.589 287.466 224.733 237.546 224.733 175.966C224.733 114.387 174.589 64.4663 112.733 64.4663C50.8775 64.4663 0.733398 114.387 0.733398 175.966C0.733398 237.546 50.8775 287.466 112.733 287.466Z" fill="#E64C3C"/>
<path d="M112.233 258.466C157.797 258.466 194.733 221.53 194.733 175.966C194.733 130.403 157.797 93.4663 112.233 93.4663C66.6699 93.4663 29.7334 130.403 29.7334 175.966C29.7334 221.53 66.6699 258.466 112.233 258.466Z" fill="#ECF0F1"/>
<path d="M112.233 229.466C141.781 229.466 165.733 205.514 165.733 175.966C165.733 146.419 141.781 122.466 112.233 122.466C82.6862 122.466 58.7334 146.419 58.7334 175.966C58.7334 205.514 82.6862 229.466 112.233 229.466Z" fill="#E64C3C"/>
<path d="M112.233 200.466C125.764 200.466 136.733 189.497 136.733 175.966C136.733 162.435 125.764 151.466 112.233 151.466C98.7024 151.466 87.7334 162.435 87.7334 175.966C87.7334 189.497 98.7024 200.466 112.233 200.466Z" fill="#ECF0F1"/>
<path d="M112.733 180.466C111.407 180.466 110.136 179.954 109.198 179.041C108.26 178.129 107.733 176.892 107.733 175.601V5.33117C107.733 4.04093 108.26 2.80353 109.198 1.89119C110.136 0.978855 111.407 0.466309 112.733 0.466309C114.059 0.466309 115.331 0.978855 116.269 1.89119C117.207 2.80353 117.733 4.04093 117.733 5.33117V175.601C117.733 176.892 117.207 178.129 116.269 179.041C115.331 179.954 114.059 180.466 112.733 180.466Z" fill="#805333"/>
</svg>
