<svg width="221" height="221" viewBox="0 0 221 221" fill="none" xmlns="http://www.w3.org/2000/svg">
<mask id="mask0_8077_183" style="mask-type:luminance" maskUnits="userSpaceOnUse" x="0" y="0" width="221" height="221">
<path d="M0 0H221V221H0V0Z" fill="white"/>
</mask>
<g mask="url(#mask0_8077_183)">
<path d="M109.897 220.972C110.365 221.016 110.837 221.008 111.303 220.95L215.328 207.971C218.876 207.528 221.393 204.299 220.949 200.757C220.506 197.215 217.27 194.703 213.722 195.146L110.5 208.025L7.2783 195.146C3.73015 194.703 0.494211 197.215 0.0506771 200.757C-0.392847 204.299 2.12411 207.528 5.6723 207.971L109.697 220.95L109.897 220.972Z" fill="#486EA1"/>
<path d="M103.619 189.474V209.688C103.619 213.253 106.535 216.143 110.132 216.143C113.729 216.143 116.645 213.253 116.645 209.688V189.474C116.645 174.211 127.432 161.036 142.502 157.891L186.117 148.791V169.187C186.117 172.752 189.033 175.642 192.63 175.642C196.227 175.642 199.143 172.752 199.143 169.187V140.836C199.143 138.89 198.258 137.049 196.734 135.823C195.21 134.597 193.209 134.118 191.288 134.519L139.818 145.258C118.721 149.66 103.619 168.107 103.619 189.474Z" fill="#486EA1"/>
<path d="M103.656 189.474V209.688C103.656 213.253 106.547 216.143 110.114 216.143C113.68 216.143 116.571 213.253 116.571 209.688V189.474C116.571 168.107 101.597 149.66 80.6796 145.258L29.6453 134.519C27.741 134.118 25.7573 134.597 24.2461 135.823C22.7348 137.049 21.8572 138.89 21.8572 140.836V169.187C21.8572 172.752 24.7484 175.642 28.315 175.642C31.8815 175.642 34.7728 172.752 34.7728 169.187V148.791L78.0189 157.891C92.9601 161.036 103.656 174.212 103.656 189.474Z" fill="#486EA1"/>
<path d="M147.298 49.3813C147.298 60.7702 142.094 70.9302 133.904 77.6646C128.677 81.9621 124.797 87.9052 123.457 94.7146H97.5431C96.203 87.9051 92.3226 81.9621 87.096 77.6646C78.9057 70.9302 73.7019 60.7702 73.7019 49.3813C73.7019 45.8046 70.7946 42.9051 67.2081 42.9051C63.6217 42.9051 60.7144 45.8046 60.7144 49.3813C60.7144 64.8081 67.7856 78.5738 78.8342 87.6585L79.019 87.8125C82.8764 91.0634 85.066 95.4381 85.066 99.9531V101.191C85.066 104.768 87.9734 107.667 91.5598 107.667H129.44C133.027 107.667 135.934 104.767 135.934 101.191V99.9531C135.934 95.4382 138.124 91.0634 141.981 87.8125L142.166 87.6585L142.681 87.229C153.434 78.143 160.286 64.567 160.286 49.3813C160.286 45.8046 157.378 42.9052 153.792 42.9051C150.206 42.9051 147.298 45.8046 147.298 49.3813Z" fill="#486EA1"/>
<path d="M122.979 118.46C122.979 119.652 122.007 120.619 120.808 120.619H100.192C98.9929 120.619 98.0212 119.652 98.0212 118.46V107.667H122.979V118.46ZM136 101.19C136 97.6137 133.085 94.7142 129.489 94.7141H91.5106C87.9149 94.7141 85 97.6136 85 101.19V118.46C85 126.806 91.8014 133.571 100.192 133.571H120.808C129.199 133.571 136 126.806 136 118.46V101.19Z" fill="#486EA1"/>
<path d="M60.7144 49.4124C60.7144 52.9719 63.6217 55.8574 67.2081 55.8574C70.7946 55.8574 73.7019 52.9719 73.7019 49.4124C73.7019 29.2416 90.1767 12.8905 110.5 12.8904C130.823 12.8904 147.298 29.2416 147.298 49.4124C147.298 52.9719 150.206 55.8574 153.792 55.8574C157.378 55.8574 160.286 52.9718 160.286 49.4124C160.286 22.1225 137.996 0.000278473 110.5 0.000278473C83.0039 0.000335693 60.7144 22.1226 60.7144 49.4124Z" fill="#486EA1"/>
<path d="M192.667 55.8574C196.243 55.8574 199.143 52.9579 199.143 49.3812C199.143 45.8045 196.243 42.905 192.667 42.905H179.714C176.138 42.905 173.238 45.8045 173.238 49.3812C173.238 52.9579 176.138 55.8574 179.714 55.8574H192.667Z" fill="#486EA1"/>
<path d="M169.254 25.0942C171.051 28.1914 175.03 29.2525 178.142 27.4644L189.412 20.9889C192.524 19.2006 193.59 15.2404 191.794 12.1432C189.997 9.04607 186.017 7.9849 182.905 9.7731L171.635 16.2486C168.523 18.0368 167.457 21.9971 169.254 25.0942Z" fill="#486EA1"/>
<path d="M182.905 89.7983C186.017 91.5865 189.997 90.5254 191.794 87.4282C193.59 84.3311 192.524 80.3708 189.412 78.5826L178.142 72.1071C175.03 70.3189 171.051 71.3801 169.254 74.4772C167.457 77.5744 168.523 81.5346 171.635 83.3228L182.905 89.7983Z" fill="#486EA1"/>
<path d="M41.2857 55.8574C44.8625 55.8574 47.7619 52.9579 47.7619 49.3812C47.7619 45.8045 44.8625 42.905 41.2857 42.905H28.3334C24.7567 42.905 21.8572 45.8045 21.8572 49.3812C21.8572 52.9579 24.7567 55.8574 28.3334 55.8574H41.2857Z" fill="#486EA1"/>
<path d="M42.3734 27.4643C45.3818 29.2525 49.2286 28.1914 50.9656 25.0942C52.7026 21.9971 51.672 18.0368 48.6637 16.2486L37.7692 9.77308C34.7608 7.98491 30.914 9.04607 29.177 12.1432C27.4401 15.2404 28.4708 19.2007 31.4792 20.9888L42.3734 27.4643Z" fill="#486EA1"/>
<path d="M29.177 87.4282C30.914 90.5254 34.7608 91.5865 37.7692 89.7983L48.6637 83.3228C51.672 81.5346 52.7026 77.5743 50.9656 74.4772C49.2286 71.3801 45.3818 70.3189 42.3734 72.1071L31.4792 78.5826C28.4708 80.3708 27.4401 84.3311 29.177 87.4282Z" fill="#486EA1"/>
<path d="M103.619 58.2549V101.222C103.619 104.781 106.519 107.667 110.095 107.667C113.672 107.667 116.572 104.781 116.572 101.222V58.2549C116.572 54.6954 113.672 51.8098 110.095 51.8098C106.519 51.8098 103.619 54.6954 103.619 58.2549Z" fill="#486EA1"/>
<path d="M105.636 62.9816C108.173 65.3933 112.185 65.3545 114.675 62.8649L127.627 49.9127C130.156 47.3836 130.156 43.2829 127.627 40.7538C125.098 38.2247 120.997 38.2247 118.468 40.7538L110.095 49.1266L101.723 40.7538C99.1934 38.2247 95.0927 38.2247 92.5636 40.7538C90.0345 43.2829 90.0345 47.3836 92.5636 49.9127L105.516 62.8649L105.636 62.9816Z" fill="#486EA1"/>
<path d="M103.619 210.142V214.485C103.619 218.083 106.519 221 110.095 221C113.672 221 116.572 218.083 116.572 214.485V210.142C116.572 198.672 124.675 188.822 135.874 186.675L194.286 175.483V203.084C194.286 206.682 197.185 209.599 200.762 209.599C204.339 209.599 207.238 206.682 207.238 203.084V167.61C207.238 165.669 206.378 163.829 204.891 162.591C203.404 161.353 201.446 160.847 199.55 161.21L133.45 173.876H133.45C116.142 177.193 103.619 192.416 103.619 210.142Z" fill="#486EA1"/>
<path d="M103.72 210.142V214.485C103.72 218.083 106.597 221 110.146 221C113.695 221 116.571 218.083 116.571 214.485V210.142C116.571 192.554 104.34 177.431 87.3746 173.956L86.973 173.876L21.3898 161.21C19.5089 160.847 17.5661 161.353 16.0909 162.591C14.6158 163.829 13.762 165.669 13.762 167.61V203.084C13.762 206.682 16.6388 209.599 20.1876 209.599C23.7363 209.599 26.6132 206.682 26.6132 203.084V175.483L84.5684 186.675C95.6805 188.822 103.72 198.672 103.72 210.142Z" fill="#486EA1"/>
</g>
</svg>
