<svg width="118" height="118" viewBox="0 0 118 118" fill="none" xmlns="http://www.w3.org/2000/svg">
<path d="M113.18 93.5877C112.456 92.8622 111.673 92.2161 110.848 91.6469C112.979 89.3653 114.288 86.3031 114.288 82.94C114.288 75.9038 108.57 70.1787 101.542 70.1787C94.5138 70.1787 88.7963 75.9038 88.7963 82.94C88.7963 86.3031 90.1049 89.3653 92.2367 91.6469C91.41 92.2161 90.6284 92.8622 89.9046 93.5877C86.7954 96.6997 85.0842 100.837 85.0842 105.239V114.53C85.0842 116.447 86.6357 118 88.5499 118H114.534C116.449 118 118 116.447 118 114.53V105.239C118 100.838 116.288 96.6997 113.18 93.5877ZM95.7276 82.94C95.7276 79.7295 98.3359 77.1182 101.542 77.1182C104.748 77.1182 107.357 79.7295 107.357 82.94C107.357 86.1495 104.748 88.7617 101.542 88.7617C98.3359 88.7617 95.7276 86.1495 95.7276 82.94ZM111.069 111.06H92.0147V105.239C92.0147 102.691 93.0056 100.296 94.8053 98.4942C96.6049 96.6924 98.9975 95.7003 101.542 95.7003C104.087 95.7003 106.479 96.6924 108.278 98.4942C110.078 100.296 111.069 102.691 111.069 105.239V111.06Z" fill="#486EA1"/>
<path d="M68.1301 91.6469C70.2215 89.3653 71.5055 86.3031 71.5055 82.94C71.5055 75.9038 65.8952 70.1787 59 70.1787C52.1049 70.1787 46.4946 75.9038 46.4946 82.94C46.4946 86.3031 47.7785 89.3653 49.87 91.6469C49.0598 92.2161 48.293 92.8622 47.5819 93.5877C44.5324 96.6997 42.8527 100.837 42.8527 105.239V114.53C42.8527 116.447 44.3757 118 46.2529 118H71.7472C73.6253 118 75.1474 116.447 75.1474 114.53V105.239C75.1474 100.837 73.4677 96.6997 70.4181 93.5877C69.7071 92.8622 68.9403 92.2161 68.1301 91.6469ZM53.295 82.94C53.295 79.7295 55.854 77.1182 59 77.1182C62.1461 77.1182 64.7051 79.7295 64.7051 82.94C64.7051 86.1495 62.1461 88.7617 59 88.7617C55.854 88.7617 53.295 86.1495 53.295 82.94ZM68.347 111.06H49.653V105.239C49.653 102.691 50.6253 100.296 52.3909 98.4942C54.1565 96.6924 56.503 95.7003 59 95.7003C61.4962 95.7003 63.8435 96.6924 65.6092 98.4942C67.3739 100.296 68.3461 102.691 68.3461 105.239V111.06H68.347Z" fill="#486EA1"/>
<path d="M25.7626 91.6469C27.8943 89.3653 29.2029 86.3031 29.2029 82.94C29.2029 75.9038 23.4856 70.1787 16.4579 70.1787C9.42927 70.1787 3.71196 75.9038 3.71196 82.94C3.71196 86.3031 5.02058 89.3653 7.15227 91.6469C6.32649 92.2161 5.54403 92.8622 4.82022 93.5877C1.71203 96.6997 0 100.838 0 105.239V114.53C0 116.447 1.55139 118 3.46558 118H29.4502C31.3635 118 32.9158 116.447 32.9158 114.53V105.239C32.9158 100.837 31.2038 96.6997 28.0956 93.5877C27.3709 92.8622 26.5893 92.2161 25.7626 91.6469ZM10.6431 82.94C10.6431 79.7295 13.2513 77.1182 16.4579 77.1182C19.6636 77.1182 22.2718 79.7295 22.2718 82.94C22.2718 86.1495 19.6636 88.7617 16.4579 88.7617C13.2513 88.7617 10.6431 86.1495 10.6431 82.94ZM25.9846 111.06H6.93116V105.239C6.93116 102.691 7.9221 100.296 9.72077 98.4942C11.5203 96.6934 13.9129 95.7012 16.4579 95.7012C19.002 95.7012 21.3945 96.6934 23.1941 98.4942C24.9928 100.296 25.9837 102.691 25.9837 105.239V111.06H25.9846Z" fill="#486EA1"/>
<path d="M22.0256 62.1053H95.9744C98.8717 62.1053 101.596 60.9818 103.643 58.9416C105.692 56.9024 106.821 54.189 106.821 51.3038V10.8015C106.821 7.91534 105.693 5.20289 103.644 3.16363C101.596 1.12347 98.8717 0 95.9744 0H22.0256C19.1283 0 16.4045 1.12347 14.3567 3.16363C12.308 5.20289 11.179 7.91624 11.179 10.8015V51.3038C11.179 54.189 12.3071 56.9015 14.3558 58.9407C16.4045 60.9818 19.1283 62.1053 22.0256 62.1053ZM18.0828 10.8015C18.0828 9.75229 18.4928 8.76667 19.238 8.02456C19.9823 7.28333 20.9729 6.87512 22.0256 6.87512H95.9744C97.0271 6.87512 98.0177 7.28333 98.762 8.02545C99.5064 8.76667 99.9172 9.75318 99.9172 10.8015V51.3038C99.9172 52.353 99.5073 53.3386 98.762 54.0807C98.0177 54.8219 97.0271 55.2301 95.9744 55.2301H22.0256C20.9729 55.2301 19.9823 54.8219 19.238 54.0798C18.4937 53.3386 18.0828 52.3521 18.0828 51.3038V10.8015Z" fill="#486EA1"/>
<path d="M29.5244 47.2C30.404 47.2 31.2846 46.868 31.9565 46.2039L42.0021 36.2734H73.7379C74.6507 36.2734 75.5259 35.9148 76.17 35.2773L90.9087 20.7097C92.2515 19.3815 92.2515 17.2289 90.9087 15.9008C89.565 14.5734 87.3873 14.5734 86.0436 15.9008L72.3135 29.4731H40.5777C39.6649 29.4731 38.7897 29.8317 38.1456 30.4692L27.0913 41.3949C25.7485 42.7231 25.7485 44.8757 27.0913 46.2039C27.7632 46.868 28.6438 47.2 29.5244 47.2Z" fill="#486EA1"/>
<path d="M29.5482 21.7369H51.8097C53.7221 21.7369 55.2737 20.2078 55.2737 18.3211C55.2737 16.4353 53.7221 14.9053 51.8097 14.9053H29.5482C27.6349 14.9053 26.0842 16.4353 26.0842 18.3211C26.0842 20.2078 27.6349 21.7369 29.5482 21.7369Z" fill="#486EA1"/>
</svg>
