<svg width="237" height="239" viewBox="0 0 237 239" fill="none" xmlns="http://www.w3.org/2000/svg">
<path d="M237 40.7317V167.334C237 169.494 235.223 171.281 233.075 171.281H3.92525C1.77821 171.281 0 169.494 0 167.334V12.1741C0 5.43468 5.40694 -0.0012207 12.1084 -0.0012207H71.7249C78.3903 -0.0012207 83.8334 5.43468 83.8334 12.1741V16.381C83.8334 23.1205 89.2394 28.5564 95.9418 28.5564H224.892C231.594 28.5564 237 33.9923 237 40.7317Z" fill="#304056"/>
<path d="M205.525 182.153H31.4748C25.5646 182.153 20.7734 177.336 20.7734 171.393V53.2795C20.7734 47.3367 25.5646 42.519 31.4748 42.519H205.525C211.435 42.519 216.227 47.3367 216.227 53.2795V171.393C216.227 177.336 211.435 182.153 205.525 182.153Z" fill="white"/>
<path d="M116.586 63.4623H62.7748C61.7514 63.4623 60.9233 62.6297 60.9233 61.6007C60.9233 60.5717 61.7514 59.739 62.7748 59.739H116.586C117.609 59.739 118.437 60.5717 118.437 61.6007C118.437 62.6297 117.609 63.4623 116.586 63.4623Z" fill="black"/>
<path d="M51.6662 63.4623H36.2798C35.2564 63.4623 34.4283 62.6297 34.4283 61.6007C34.4283 60.5717 35.2564 59.739 36.2798 59.739H51.6662C52.6895 59.739 53.5176 60.5717 53.5176 61.6007C53.5176 62.6297 52.6895 63.4623 51.6662 63.4623Z" fill="black"/>
<path d="M92.3978 78.8211H78.0492C77.0258 78.8211 76.1978 77.9884 76.1978 76.9594C76.1978 75.9304 77.0258 75.0978 78.0492 75.0978H92.3978C93.4211 75.0978 94.2492 75.9304 94.2492 76.9594C94.2492 77.9884 93.4211 78.8211 92.3978 78.8211Z" fill="black"/>
<path d="M67.172 78.8211H35.5856C34.5622 78.8211 33.7341 77.9884 33.7341 76.9594C33.7341 75.9304 34.5622 75.0978 35.5856 75.0978H67.172C68.1954 75.0978 69.0234 75.9304 69.0234 76.9594C69.0234 77.9884 68.1954 78.8211 67.172 78.8211Z" fill="black"/>
<path d="M237 71.4873V227.018C237 233.236 231.964 238.301 225.78 238.301H11.2207C5.03629 238.301 0 233.236 0 227.018V100.045C0 93.789 5.03629 88.7622 11.2207 88.7622H101.607C104.606 88.7622 107.457 87.5714 109.568 85.4116L131.267 63.5189C133.377 61.3954 136.229 60.2046 139.191 60.2046H225.78C231.964 60.2046 237 65.2314 237 71.4873Z" fill="#488FF7"/>
<path d="M171.229 163.531C171.229 179.387 164.55 193.662 153.867 203.664C144.104 212.865 131.01 218.472 116.589 218.472C102.169 218.472 89.0546 212.865 79.2913 203.664C68.6284 193.662 61.949 179.387 61.949 163.531C61.949 148.66 67.8115 135.166 77.3913 125.287C87.2982 114.977 101.209 108.589 116.589 108.589C131.97 108.589 145.86 114.977 155.767 125.287C165.347 135.166 171.229 148.66 171.229 163.531Z" fill="#DBDBDB"/>
<path d="M171.177 165.394C171.214 164.798 171.214 164.165 171.214 163.533C171.214 162.899 171.214 162.266 171.177 161.671H144.442C144.331 152.995 143.368 144.842 141.776 137.543C147.22 134.714 152.255 130.954 156.773 126.337C156.44 125.964 156.107 125.629 155.773 125.294C155.255 124.735 154.699 124.214 154.144 123.655C150.182 127.826 145.664 131.214 140.887 133.82C138.221 123.619 134.222 115.389 129.335 110.103C126.928 109.507 124.41 109.06 121.855 108.836C128.409 112.337 134.038 122.315 137.444 135.608C131.482 138.288 125.039 139.777 118.448 140.001V108.614C117.856 108.576 117.226 108.576 116.597 108.576C115.967 108.576 115.375 108.576 114.745 108.614V140.001C108.118 139.777 101.711 138.288 95.7497 135.608C99.1194 122.353 104.711 112.374 111.302 108.836C108.747 109.06 106.229 109.507 103.822 110.103C98.9341 115.389 94.9352 123.619 92.2692 133.82C87.4924 131.214 82.975 127.826 79.0127 123.655C78.4576 124.214 77.9016 124.735 77.3836 125.294C77.05 125.629 76.7169 126.001 76.4208 126.373C80.9382 130.991 85.9741 134.714 91.3805 137.543C89.7881 144.842 88.8624 152.995 88.7146 161.671H61.9796C61.9425 162.266 61.9425 162.899 61.9425 163.533C61.9425 164.165 61.9425 164.798 61.9796 165.394H88.7146C88.8624 175.112 90.0101 184.197 91.9727 192.165C86.6037 194.51 81.5679 197.563 76.9759 201.361C77.7538 202.143 78.5317 202.925 79.3092 203.67C79.4204 203.781 79.5311 203.893 79.6423 203.967C83.7524 200.617 88.1957 197.862 92.9725 195.776C95.6385 204.786 99.3413 212.122 103.822 216.962C106.229 217.558 108.71 217.967 111.264 218.228C105.192 214.915 99.8969 206.127 96.4901 194.324C102.267 192.165 108.414 191.01 114.745 190.787V218.452C115.375 218.489 115.967 218.489 116.597 218.489C117.226 218.489 117.856 218.489 118.448 218.452V190.787C124.743 191.01 130.89 192.165 136.667 194.324C133.26 206.127 128.001 214.915 121.929 218.228C124.447 217.967 126.928 217.558 129.335 216.962C133.815 212.122 137.518 204.786 140.184 195.776C144.961 197.862 149.441 200.617 153.515 204.005C153.663 203.893 153.774 203.781 153.884 203.67C154.662 202.925 155.44 202.143 156.181 201.361C151.589 197.563 146.553 194.473 141.184 192.165C143.147 184.197 144.294 175.112 144.442 165.394H171.177ZM114.745 187.063C108.118 187.287 101.638 188.516 95.5273 190.749C93.6759 183.117 92.5653 174.516 92.4175 165.394H114.745V187.063ZM114.745 161.671H92.4175C92.5653 153.703 93.4169 146.107 94.8981 139.257C101.119 141.975 107.821 143.501 114.745 143.724V161.671ZM137.629 190.749C131.519 188.516 125.039 187.287 118.448 187.063V165.394H140.74C140.591 174.516 139.481 183.117 137.629 190.749ZM118.448 161.671V143.724C125.336 143.501 132.038 141.975 138.258 139.257C139.74 146.107 140.628 153.703 140.74 161.671H118.448Z" fill="#B9B9B9"/>
</svg>
