<svg width="301" height="301" viewBox="0 0 301 301" fill="none" xmlns="http://www.w3.org/2000/svg">
<path d="M294.298 124.397L279.248 120.694C276.073 106.408 270.43 92.8273 262.67 80.4816L270.253 67.7838C272.37 64.2564 271.841 59.8473 269.019 57.0254L243.975 31.9807C241.153 29.1594 236.744 28.6297 233.216 30.7461L220.517 38.3305C208.173 30.5703 194.592 24.9266 180.306 21.752L176.602 6.70195C175.721 2.82129 172.193 0 168.137 0H132.863C128.807 0 125.279 2.82129 124.398 6.70195L120.694 21.752C106.408 24.9266 92.8273 30.5703 80.4828 38.3305L67.7838 30.7461C64.2564 28.6297 59.8473 29.1594 57.0254 31.9807L31.9818 57.0254C29.1594 59.8467 28.6309 64.2559 30.7473 67.7838L38.3311 80.4816C30.5703 92.8273 24.9266 106.408 21.752 120.694L6.70195 124.397C2.82129 125.279 0 128.806 0 132.863V168.137C0 172.193 2.82129 175.721 6.70195 176.602L21.752 180.306C24.9266 194.592 30.5703 208.171 38.3305 220.517L30.7467 233.216C28.6303 236.744 29.1588 241.153 31.9813 243.975L57.0254 269.018C59.8467 271.841 64.2559 272.369 67.7838 270.253L80.4828 262.669C92.8273 270.43 106.408 276.073 120.694 279.248L124.398 294.298C125.28 298.178 128.807 301 132.863 301H168.137C172.193 301 175.721 298.178 176.602 294.298L180.306 279.248C194.592 276.073 208.173 270.43 220.517 262.67L233.216 270.253C236.744 272.37 241.153 271.841 243.975 269.019L269.018 243.975C271.841 241.153 272.369 236.744 270.253 233.216L262.669 220.517C270.429 208.171 276.073 194.592 279.247 180.306L294.297 176.602C298.178 175.72 300.999 172.193 300.999 168.137V132.863C301 128.806 298.179 125.279 294.298 124.397ZM150.5 229.865C106.762 229.865 71.1348 194.238 71.1348 150.5C71.1348 106.76 106.762 71.1348 150.5 71.1348C194.238 71.1348 229.865 106.76 229.865 150.5C229.865 194.238 194.238 229.865 150.5 229.865Z" fill="#F6B73C"/>
<path d="M301 132.863V168.137C301 172.193 298.179 175.721 294.298 176.602L279.248 180.306C276.073 194.592 270.43 208.171 262.67 220.517L270.253 233.216C272.37 236.744 271.841 241.153 269.019 243.975L243.975 269.018C241.153 271.841 236.744 272.369 233.216 270.253L220.517 262.669C208.173 270.43 194.592 276.073 180.306 279.248L176.602 294.298C175.72 298.178 172.193 301 168.137 301H150.5V229.865C194.238 229.865 229.865 194.238 229.865 150.5C229.865 106.76 194.238 71.1348 150.5 71.1348V0H168.137C172.193 0 175.721 2.82129 176.602 6.70195L180.306 21.752C194.592 24.9266 208.173 30.5703 220.517 38.3305L233.216 30.7461C236.744 28.6297 241.153 29.1594 243.975 31.9807L269.018 57.0254C271.841 59.8467 272.369 64.2559 270.253 67.7838L262.669 80.4816C270.429 92.8273 276.073 106.408 279.247 120.694L294.297 124.397C298.179 125.279 301 128.806 301 132.863Z" fill="#F29737"/>
<path d="M150.5 124.045C126.161 124.045 106.408 143.798 106.408 168.137V185.773C106.408 190.711 110.288 194.592 115.227 194.592H185.773C190.712 194.592 194.592 190.711 194.592 185.773V168.137C194.592 143.798 174.839 124.045 150.5 124.045Z" fill="#7984EB"/>
<path d="M194.592 168.137V185.773C194.592 190.711 190.712 194.592 185.773 194.592H150.5V124.045C174.839 124.045 194.592 143.798 194.592 168.137Z" fill="#6B77E8"/>
<path d="M150.5 88.7715C135.861 88.7715 124.045 100.587 124.045 115.227C124.045 129.864 135.861 141.682 150.5 141.682C165.139 141.682 176.955 129.864 176.955 115.227C176.955 100.587 165.139 88.7715 150.5 88.7715Z" fill="#83C9FF"/>
<path d="M176.955 115.227C176.955 129.864 165.139 141.682 150.5 141.682V88.7715C165.139 88.7715 176.955 100.587 176.955 115.227Z" fill="#00A5FF"/>
</svg>
