<svg width="124" height="123" viewBox="0 0 124 123" fill="none" xmlns="http://www.w3.org/2000/svg">
<path d="M116.636 13.5667C116.636 10.161 113.889 7.4 110.5 7.4C107.111 7.4 104.364 10.161 104.364 13.5667V29.6H116.636V13.5667ZM124 33.3C124 35.3435 122.352 37 120.318 37H100.682C98.6484 37 97 35.3435 97 33.3V13.5667C97 6.0741 103.044 0 110.5 0C117.956 0 124 6.0741 124 13.5667V33.3Z" fill="#486EA1"/>
<path d="M62.5714 79C62.5714 68.7433 54.2567 60.4286 44 60.4286C33.7433 60.4286 25.4286 68.7433 25.4286 79C25.4286 89.2567 33.7433 97.5714 44 97.5714C54.2567 97.5714 62.5714 89.2567 62.5714 79ZM70 79C70 93.3594 58.3594 105 44 105C29.6406 105 18 93.3594 18 79C18 64.6406 29.6406 53 44 53C58.3594 53 70 64.6406 70 79Z" fill="#486EA1"/>
<path d="M18.6639 88.1195C20.1566 86.6268 22.5769 86.6268 24.0696 88.1195C25.5622 89.6122 25.5622 92.0323 24.0696 93.525L8.76399 108.831C7.27126 110.323 7.27123 112.743 8.76399 114.236H8.76423C10.2566 115.728 12.6766 115.729 14.1694 114.236L29.4748 98.9304C30.9675 97.4377 33.3878 97.4377 34.8805 98.9304C36.3732 100.423 36.3731 102.843 34.8805 104.336L19.5749 119.641C15.0968 124.12 7.83626 124.12 3.35827 119.641L3.35852 119.641C-1.11944 115.163 -1.11958 107.903 3.35852 103.425L18.6639 88.1195Z" fill="#486EA1"/>
<path d="M85.2895 26C87.3387 26 89 27.7909 89 30C89 32.2091 87.3387 34 85.2895 34H45.7105C43.6613 34 42 32.2091 42 30C42 27.7909 43.6613 26 45.7105 26H85.2895Z" fill="#486EA1"/>
<path d="M85.2895 41C87.3387 41 89 42.7909 89 45C89 47.2091 87.3387 49 85.2895 49H45.7105C43.6613 49 42 47.2091 42 45C42 42.7909 43.6613 41 45.7105 41H85.2895Z" fill="#486EA1"/>
<path d="M85.25 57C87.3211 57 89 58.567 89 60.5C89 62.433 87.3211 64 85.25 64H67.75C65.6789 64 64 62.433 64 60.5C64 58.567 65.6789 57 67.75 57H85.25Z" fill="#486EA1"/>
<path d="M96.5141 33.72C96.5141 31.6655 98.1899 30 100.257 30C102.324 30.0001 104 31.6655 104 33.72V88.28C104 90.3345 102.324 91.9999 100.257 92H59.7431C57.6759 92 61.5001 90.3345 61.5001 88.28C61.5001 86.2255 65.257 84.56 63.5 84.56H96.5141V33.72Z" fill="#486EA1"/>
<path d="M26.0005 65.2561V13.7277C26.0005 6.14595 32.1916 0 39.8291 0H110.229C112.312 0 114 1.67621 114 3.74392C114 5.81163 112.312 7.48784 110.229 7.48784H39.8291C36.3574 7.48784 33.5433 10.2814 33.5433 13.7277V59.5C33.5433 61.5677 31.2451 63.5 29.1622 63.5C27.0793 63.5 26.0005 67.3238 26.0005 65.2561Z" fill="#486EA1"/>
</svg>
