<svg width="512" height="512" viewBox="0 0 512 512" fill="none" xmlns="http://www.w3.org/2000/svg">
<g clip-path="url(#clip0_8079_171)">
<path d="M106 330H46C37.599 330 31 336.599 31 345V497C31 505.399 37.599 512 46 512H106C114.401 512 121 505.399 121 497V345C121 336.599 114.401 330 106 330Z" fill="#17ACE8"/>
<path d="M226 240H166C157.599 240 151 246.599 151 255V497C151 505.399 157.599 512 166 512H226C234.401 512 241 505.399 241 497V255C241 246.599 234.401 240 226 240Z" fill="#17ACE8"/>
<path d="M346 300H286C277.599 300 271 306.599 271 315V497C271 505.399 277.599 512 286 512H346C354.401 512 361 505.399 361 497V315C361 306.599 354.401 300 346 300Z" fill="#17ACE8"/>
<path d="M466 180H406C397.599 180 391 186.599 391 195V497C391 505.399 397.599 512 406 512H466C474.401 512 481 505.399 481 497V195C481 186.599 474.401 180 466 180Z" fill="#17ACE8"/>
<path d="M121 345V497C121 505.399 114.401 512 106 512H76V330H106C114.401 330 121 336.599 121 345Z" fill="#1689FC"/>
<path d="M241 255V497C241 505.399 234.401 512 226 512H196V240H226C234.401 240 241 246.599 241 255Z" fill="#1689FC"/>
<path d="M361 315V497C361 505.399 354.401 512 346 512H316V300H346C354.401 300 361 306.599 361 315Z" fill="#1689FC"/>
<path d="M481 195V497C481 505.399 474.401 512 466 512H436V180H466C474.401 180 481 186.599 481 195Z" fill="#1689FC"/>
<path d="M100.009 191.997C95.439 191.997 90.942 189.932 87.997 185.991C83.017 179.37 84.364 169.966 91 165L163.012 111.006C169.633 106.04 179.037 107.344 184.003 114.009C188.983 120.63 187.636 130.034 181 135L108.988 188.994C106.293 191.016 103.144 191.997 100.009 191.997Z" fill="#C85F03"/>
<path d="M303.999 186C301 189.898 296.499 191.999 292 191.999C288.999 191.999 285.699 191.1 283 189L256 168.9L211 135C204.401 129.899 202.899 120.599 208.001 114C213.1 107.399 222.4 106.2 229 111.001L256 131.4L301 165C307.599 170.099 309.101 179.399 303.999 186Z" fill="#C85F03"/>
<path d="M330.883 183.955C327.25 183.955 323.603 182.637 320.717 179.985C314.623 174.375 314.242 164.882 319.853 158.789L410.087 60.879C415.712 54.8 425.19 54.434 431.283 60.015C437.377 65.625 437.758 75.118 432.147 81.211L341.913 179.121C338.954 182.329 334.926 183.955 330.883 183.955Z" fill="#C85F03"/>
<path d="M512 497C512 505.399 505.401 512 497 512H15C6.599 512 0 505.399 0 497C0 488.599 6.599 482 15 482H497C505.401 482 512 488.599 512 497Z" fill="#063E8B"/>
<path d="M512 497C512 505.399 505.401 512 497 512H256V482H497C505.401 482 512 488.599 512 497Z" fill="#032E68"/>
<path d="M196 150C171.186 150 151 129.814 151 105C151 80.186 171.186 60 196 60C220.814 60 241 80.186 241 105C241 129.814 220.814 150 196 150Z" fill="#FEA832"/>
<path d="M316 240C291.186 240 271 219.814 271 195C271 170.186 291.186 150 316 150C340.814 150 361 170.186 361 195C361 219.814 340.814 240 316 240Z" fill="#FE9923"/>
<path d="M436 90C411.186 90 391 69.814 391 45C391 20.186 411.186 0 436 0C460.814 0 481 20.186 481 45C481 69.814 460.814 90 436 90Z" fill="#FE9923"/>
<path d="M76 240C51.186 240 31 219.814 31 195C31 170.186 51.186 150 76 150C100.814 150 121 170.186 121 195C121 219.814 100.814 240 76 240Z" fill="#FEA832"/>
</g>
<defs>
<clipPath id="clip0_8079_171">
<rect width="512" height="512" fill="white"/>
</clipPath>
</defs>
</svg>
