<svg width="162" height="161" viewBox="0 0 162 161" fill="none" xmlns="http://www.w3.org/2000/svg">
<mask id="mask0_8076_269" style="mask-type:luminance" maskUnits="userSpaceOnUse" x="0" y="0" width="162" height="161">
<path d="M0.949463 0.649658H161.3V161H0.949463V0.649658Z" fill="white"/>
</mask>
<g mask="url(#mask0_8076_269)">
<path d="M139.377 101.182H22.8723V24.4514C22.8724 20.1273 26.3776 16.6219 30.7019 16.6219H131.547C135.872 16.6219 139.377 20.1273 139.377 24.4514V101.182ZM148.772 24.4514C148.772 14.9385 141.061 7.22637 131.547 7.22633H30.7019C21.1885 7.22638 13.4768 14.9385 13.4768 24.4514V105.879C13.4768 108.474 15.5801 110.577 18.1746 110.577H144.075C146.669 110.577 148.772 108.474 148.772 105.879V24.4514Z" fill="#486EA1"/>
<path d="M156.602 135.633C158.23 135.633 159.742 134.79 160.598 133.405C161.454 132.02 161.532 130.29 160.804 128.834L148.276 103.779C147.481 102.188 145.854 101.182 144.075 101.182H18.1745C16.3952 101.182 14.7684 102.188 13.9727 103.779L1.44538 128.834C0.717252 130.29 0.795171 132.02 1.65113 133.405C2.5071 134.79 4.01909 135.633 5.64722 135.633H156.602ZM21.078 110.578H141.171L149.001 126.237H13.2483L21.078 110.578Z" fill="#486EA1"/>
<path d="M151.904 137.199C151.904 141.523 148.399 145.028 144.075 145.028H18.1745C13.8503 145.028 10.345 141.523 10.345 137.199V135.633H151.904V137.199ZM161.3 130.935C161.3 128.341 159.197 126.237 156.602 126.237H5.64723C3.05272 126.237 0.949463 128.341 0.949463 130.935V137.199C0.949504 146.712 8.66114 154.424 18.1745 154.424H144.075C153.588 154.424 161.3 146.712 161.3 137.199V130.935Z" fill="#486EA1"/>
<path d="M101.61 91.501C104.643 91.8605 108.23 91.4873 110.895 88.9221L111.021 88.7982L111.145 88.6721C113.71 86.0071 114.083 82.4205 113.724 79.3871C113.351 76.2386 112.113 72.7921 110.381 69.3282C106.894 62.354 100.901 54.3178 93.3046 46.7218C85.7085 39.1258 77.6723 33.1325 70.6982 29.6454C67.2342 27.9134 63.7877 26.6757 60.6393 26.3026C57.5578 25.9374 53.9055 26.3282 51.2284 29.0052H51.2281C48.551 31.6823 48.1601 35.3348 48.5253 38.4163C48.8984 41.5648 50.1361 45.0112 51.8681 48.4752C55.3552 55.4495 61.3485 63.4857 68.9448 71.0816L69.3012 71.4364C76.7917 78.8642 84.6858 84.7256 91.5509 88.1582C95.0148 89.8902 98.4614 91.1279 101.61 91.501ZM104.354 82.1319C104.163 82.1939 103.685 82.2858 102.716 82.1709C101.055 81.9741 98.701 81.2286 95.753 79.7546C89.9945 76.8753 82.8948 71.6841 75.9203 64.7685L75.5884 64.438C68.5076 57.3575 63.1965 50.1233 60.2716 44.2734C58.7976 41.3253 58.0523 38.9713 57.8555 37.3107C57.7405 36.3409 57.8325 35.8633 57.8945 35.672C58.0856 35.61 58.563 35.5177 59.5334 35.6327C61.194 35.8296 63.5482 36.5748 66.4963 38.0488C72.3462 40.9738 79.5802 46.2847 86.6609 53.3654C93.7416 60.4461 99.0526 67.6801 101.978 73.53C103.452 76.4781 104.197 78.8321 104.394 80.4927C104.509 81.4634 104.416 81.9409 104.354 82.1319Z" fill="#486EA1"/>
<path d="M51.3548 88.9221C54.0197 91.4873 57.6062 91.8605 60.6395 91.501C63.7879 91.1279 67.2343 89.8902 70.6982 88.1582C77.6723 84.6711 85.7085 78.6776 93.3046 71.0816C100.901 63.4857 106.894 55.4494 110.381 48.4752C112.113 45.0112 113.351 41.5648 113.724 38.4163C114.083 35.383 113.71 31.7965 111.145 29.1316L111.021 29.0052C108.344 26.3282 104.691 25.9374 101.61 26.3026C98.4614 26.6758 95.0151 27.9134 91.5512 29.6454C84.577 33.1325 76.5408 39.1258 68.9448 46.7218C61.3487 54.3178 55.3552 62.354 51.8681 69.3282C50.1362 72.7921 48.8987 76.2386 48.5256 79.3871C48.1604 82.4686 48.5513 86.1211 51.2284 88.7982L51.3548 88.9221ZM59.5337 82.1709C58.5633 82.2859 58.0858 82.1939 57.8947 82.1319C57.8327 81.9408 57.7407 81.4632 57.8557 80.4927C58.0525 78.8321 58.7978 76.4781 60.2718 73.53C63.1967 67.6801 68.5077 60.4461 75.5884 53.3654C82.6691 46.2847 89.9031 40.9738 95.753 38.0488C98.701 36.5748 101.055 35.8296 102.716 35.6327C103.686 35.5178 104.163 35.61 104.354 35.672C104.416 35.8633 104.509 36.3407 104.394 37.3107C104.197 38.9713 103.452 41.3253 101.978 44.2734C99.0985 50.0319 93.9071 57.1316 86.9915 64.1058L86.6609 64.438C79.5802 71.5187 72.3462 76.8296 66.4963 79.7546C63.5483 81.2286 61.1942 81.9741 59.5337 82.1709Z" fill="#486EA1"/>
</g>
</svg>
