<svg width="221" height="221" viewBox="0 0 221 221" fill="none" xmlns="http://www.w3.org/2000/svg">
<g clip-path="url(#clip0_8077_397)">
<path d="M32.8047 52.2285C14.9354 52.2285 0 66.7323 0 84.6016V97.5508C0 101.176 2.84782 104.025 6.47461 104.025H58.7031C62.3299 104.025 65.1777 101.176 65.1777 97.5508V84.6016C65.1777 66.7323 50.6739 52.2285 32.8047 52.2285Z" fill="#FF9100"/>
<path d="M32.8047 13.3809C22.0558 13.3809 13.3809 22.0558 13.3809 32.8047C13.3809 43.5519 22.0558 52.2285 32.8047 52.2285C43.5536 52.2285 52.2285 43.5519 52.2285 32.8047C52.2285 22.0558 43.5536 13.3809 32.8047 13.3809Z" fill="#FF9100"/>
<path d="M32.8047 52.2285V13.3809C43.5536 13.3809 52.2285 22.0558 52.2285 32.8047C52.2285 43.5519 43.5536 52.2285 32.8047 52.2285Z" fill="#FF641A"/>
<path d="M65.1777 84.6016V97.5508C65.1777 101.176 62.3299 104.025 58.7031 104.025H32.8047V52.2285C50.6739 52.2285 65.1777 66.7323 65.1777 84.6016Z" fill="#FF641A"/>
<path d="M110.5 39.2793C92.6308 39.2793 78.127 53.7831 78.127 71.6523V84.6016C78.127 88.2267 80.9748 91.0762 84.6016 91.0762H136.398C140.025 91.0762 142.873 88.2267 142.873 84.6016V71.6523C142.873 53.7831 128.369 39.2793 110.5 39.2793Z" fill="#FF9100"/>
<path d="M110.5 0C99.7511 0 91.0762 9.10661 91.0762 19.8555C91.0762 30.6026 99.7511 39.2793 110.5 39.2793C121.249 39.2793 129.924 30.6026 129.924 19.8555C129.924 9.10661 121.249 0 110.5 0Z" fill="#FF9100"/>
<path d="M110.5 39.2793V0C121.249 0 129.924 9.10661 129.924 19.8555C129.924 30.6026 121.249 39.2793 110.5 39.2793Z" fill="#FF641A"/>
<path d="M142.873 71.6523V84.6016C142.873 88.2267 140.025 91.0762 136.398 91.0762H110.5V39.2793C128.369 39.2793 142.873 53.7831 142.873 71.6523Z" fill="#FF641A"/>
<path d="M188.195 78.127C170.326 78.127 155.822 92.6308 155.822 110.5V123.449C155.822 127.074 158.67 129.924 162.297 129.924H214.525C218.152 129.924 221 127.074 221 123.449V110.5C221 92.6308 206.065 78.127 188.195 78.127Z" fill="#FF9100"/>
<path d="M188.195 39.2793C177.446 39.2793 168.771 47.9543 168.771 58.7031C168.771 69.4503 177.446 78.127 188.195 78.127C200.094 78.127 207.619 69.4503 207.619 58.7031C207.619 47.9543 198.944 39.2793 188.195 39.2793Z" fill="#FF9100"/>
<path d="M188.195 78.127V39.2793C198.944 39.2793 207.619 47.9543 207.619 58.7031C207.619 69.4503 200.094 78.127 188.195 78.127Z" fill="#FF641A"/>
<path d="M221 110.5V123.449C221 127.074 218.152 129.924 214.525 129.924H188.195V78.127C206.065 78.127 221 92.6308 221 110.5Z" fill="#FF641A"/>
<path d="M65.1777 182.152V214.525H0V182.152L32.8047 169.203L65.1777 182.152Z" fill="#FF9100"/>
<path d="M65.1777 182.152V214.525H32.8047V169.203L65.1777 182.152Z" fill="#FF641A"/>
<path d="M65.1777 123.449V182.152H0V123.449C0 119.822 2.84782 116.975 6.47461 116.975H58.7031C62.3299 116.975 65.1777 119.822 65.1777 123.449Z" fill="#FDBF00"/>
<path d="M65.1777 123.449V182.152H32.8047V116.975H58.7031C62.3299 116.975 65.1777 119.822 65.1777 123.449Z" fill="#FF9100"/>
<path d="M221 182.152V214.525H155.822V182.152L188.195 169.203L221 182.152Z" fill="#FF9100"/>
<path d="M221 182.152V214.525H188.195V169.203L221 182.152Z" fill="#FF641A"/>
<path d="M221 149.348V182.152H155.822V149.348C155.822 145.721 158.67 142.873 162.297 142.873H214.525C218.152 142.873 221 145.721 221 149.348Z" fill="#FDBF00"/>
<path d="M221 149.348V182.152H188.195V142.873H214.525C218.152 142.873 221 145.721 221 149.348Z" fill="#FF9100"/>
<path d="M142.873 182.152V214.525H78.127V182.152L110.5 169.203L142.873 182.152Z" fill="#FF9100"/>
<path d="M142.873 182.152V214.525H110.5V169.203L142.873 182.152Z" fill="#FF641A"/>
<path d="M142.873 110.5V182.152H78.127V110.5C78.127 106.873 80.9748 104.025 84.6016 104.025H136.398C140.025 104.025 142.873 106.873 142.873 110.5Z" fill="#FDBF00"/>
<path d="M142.873 110.5V182.152H110.5V104.025H136.398C140.025 104.025 142.873 106.873 142.873 110.5Z" fill="#FF9100"/>
<path d="M221 214.525C221 218.15 218.152 221 214.525 221H6.47461C2.84782 221 0 218.15 0 214.525C0 210.899 2.84782 208.051 6.47461 208.051H214.525C218.152 208.051 221 210.899 221 214.525Z" fill="#575F64"/>
<path d="M221 214.525C221 218.15 218.152 221 214.525 221H110.5V208.051H214.525C218.152 208.051 221 210.899 221 214.525Z" fill="#32393F"/>
</g>
<defs>
<clipPath id="clip0_8077_397">
<rect width="221" height="221" fill="white"/>
</clipPath>
</defs>
</svg>
