<svg width="89" height="94" viewBox="0 0 89 94" fill="none" xmlns="http://www.w3.org/2000/svg">
<path d="M15.6704 48H41.3296C42.8044 48 44 46.6568 44 45C44 43.3432 42.8044 42 41.3296 42H15.6704C14.1956 42 13 43.3432 13 45C13 46.6568 14.1956 48 15.6704 48Z" fill="#486EA1"/>
<path d="M15.6704 34H41.3296C42.8044 34 44 32.6568 44 31C44 29.3432 42.8044 28 41.3296 28H15.6704C14.1956 28 13 29.3432 13 31C13 32.6568 14.1956 34 15.6704 34Z" fill="#486EA1"/>
<path d="M15.6908 20H52.3092C53.7952 20 55 18.6568 55 17C55 15.3432 53.7952 14 52.3092 14H15.6908C14.2048 14 13 15.3432 13 17C13 18.6568 14.2048 20 15.6908 20Z" fill="#486EA1"/>
<path d="M15.6704 60.5H41.3296C42.8044 60.5 44 59.3807 44 58C44 56.6193 42.8044 55.5 41.3296 55.5H15.6704C14.1956 55.5 13 56.6193 13 58C13 59.3807 14.1956 60.5 15.6704 60.5Z" fill="#486EA1"/>
<path d="M52.3092 70H15.6908C14.2048 70 13 71.3432 13 73C13 74.6568 14.2048 76 15.6908 76H52.3092C53.7952 76 55 74.6568 55 73C55 71.3432 53.7952 70 52.3092 70Z" fill="#486EA1"/>
<path d="M88.9238 32.5995C88.9183 31.8691 88.6241 31.1709 88.106 30.6583C87.5926 30.1505 86.9012 29.8663 86.1814 29.8663C86.1594 29.8665 86.137 29.8665 86.1148 29.8665C83.7281 29.8665 81.5342 28.4686 80.5166 26.2952C80.0641 25.329 79.0968 24.7132 78.0351 24.7132C78.0282 24.7132 78.0212 24.7132 78.0145 24.7132L72.3387 24.7558V4.58984C72.3387 2.059 70.2883 0 67.7681 0H4.57061C2.05038 0 0 2.059 0 4.58984V89.4102C0 91.941 2.05038 94 4.57061 94H67.7679C70.2881 94 72.3385 91.941 72.3385 89.4102V68.1797L76.0195 65.9617C84.0963 61.095 89.0696 52.1961 88.9993 42.7373L88.9238 32.5995ZM5.48473 88.4922V5.50781H66.8537V24.7971L60.8461 24.8423C59.7761 24.8503 58.8086 25.4824 58.3678 26.4615C57.3761 28.6641 55.1817 30.0989 52.7772 30.1171C51.2627 30.1285 50.0441 31.3707 50.0553 32.8916L50.1308 43.0294C50.2016 52.488 55.3073 61.3113 63.4556 66.0559L66.8537 68.0347V88.4922H5.48473ZM73.1974 61.2388L69.7175 63.3356L66.2069 61.2915C59.73 57.5201 55.6717 50.5066 55.6155 42.9883L55.5581 35.2737C58.3839 34.5601 60.8706 32.7987 62.4839 30.3379L76.4586 30.2329C78.1086 32.6694 80.6208 34.3932 83.4573 35.0638L83.5145 42.7786C83.5707 50.297 79.6173 57.3705 73.1974 61.2388Z" fill="#486EA1"/>
<path d="M74.2727 39.8058L68.5626 45.478L66.698 43.6806C65.6118 42.6331 63.8639 42.6464 62.794 43.7092C61.724 44.772 61.7371 46.4826 62.8233 47.5296L66.6544 51.223C67.1922 51.7415 67.8921 52 68.5914 52C69.305 52 70.018 51.7309 70.5583 51.1944L78.2059 43.5975C79.276 42.5347 79.2629 40.8241 78.1769 39.7771C77.0903 38.7296 75.3426 38.743 74.2727 39.8058Z" fill="#486EA1"/>
</svg>
