<svg width="96" height="128" viewBox="0 0 96 128" fill="none" xmlns="http://www.w3.org/2000/svg">
<path fill-rule="evenodd" clip-rule="evenodd" d="M47.8745 36.1059C49.9415 36.1059 51.6199 37.7841 51.6199 39.8513C51.6199 41.9187 49.9415 43.5967 47.8745 43.5967C45.8076 43.5967 44.1292 41.9187 44.1292 39.8513C44.1292 37.7841 45.8076 36.1059 47.8745 36.1059Z" fill="#486EA1"/>
<path d="M44.1292 51.8864V63.9216C44.1292 65.9901 45.806 67.667 47.8745 67.667C49.9431 67.667 51.6199 65.9901 51.6199 63.9216V51.8864C51.6199 49.8179 49.9431 48.141 47.8745 48.141C45.806 48.141 44.1292 49.8179 44.1292 51.8864Z" fill="#486EA1"/>
<path d="M72.2115 51.8863C72.2115 65.3171 61.3052 76.2231 47.8747 76.2231C34.4443 76.2231 23.5379 65.3171 23.5379 51.8863C23.5379 38.4556 34.4443 27.5495 47.8747 27.5495C61.3051 27.5495 72.2115 38.4557 72.2115 51.8863ZM79.7023 51.8863C79.7023 34.3186 65.4421 20.0587 47.8747 20.0587C30.3073 20.0587 16.0471 34.3186 16.0471 51.8863C16.0471 69.4543 30.3073 83.7139 47.8747 83.7139C65.4421 83.7139 79.7023 69.4543 79.7023 51.8863Z" fill="#486EA1"/>
<path d="M88.2582 87.9919C88.2582 90.1902 87.3844 92.3003 85.8305 93.8537L85.8303 93.8541C84.276 95.4082 82.1674 96.2815 79.9684 96.2815H15.7767C12.7373 96.2815 9.89894 97.1413 7.4909 98.6306V15.7806C7.49095 11.2018 11.2023 7.49082 15.7807 7.49081H79.9684C82.167 7.49081 84.2749 8.36402 85.829 9.91929L85.8305 9.92075C87.3849 11.4747 88.2582 13.5827 88.2582 15.7806V87.9919ZM95.749 15.7806C95.749 11.5966 94.0868 7.58356 91.1278 4.62472C88.1679 1.66255 84.1535 3.05176e-05 79.9684 3.05176e-05H15.7807C7.06553 3.8147e-05 0.000165817 7.0644 0.00012207 15.7806V112.062C0.00012207 114.131 1.67699 115.808 3.74551 115.808C5.81404 115.808 7.4909 114.131 7.4909 112.062V112.058L7.49365 111.844C7.60709 107.368 11.2725 103.772 15.7767 103.772H79.9684C84.153 103.772 88.1669 102.111 91.1265 99.1514L91.2642 99.0119C94.1384 96.0663 95.749 92.1103 95.749 87.9919V15.7806Z" fill="#486EA1"/>
<path d="M88.2582 112.062C88.2582 114.261 87.3846 116.37 85.8305 117.924C84.2758 119.479 82.167 120.352 79.9684 120.352H15.7807C13.5821 120.352 11.4735 119.479 9.91883 117.924C8.36466 116.37 7.49093 114.261 7.4909 112.062C7.4909 109.933 8.31045 107.888 9.7749 106.349L9.91864 106.202L9.92011 106.201C11.4742 104.645 13.5821 103.772 15.7807 103.772H79.9684C82.92 103.772 85.7866 102.945 88.2582 101.42V112.062ZM95.749 87.9919C95.749 85.9233 94.0721 84.2465 92.0036 84.2465C89.9351 84.2465 88.2582 85.9233 88.2582 87.9919C88.2582 90.1902 87.3844 92.3003 85.8305 93.8537L85.8303 93.8541C84.276 95.4082 82.1674 96.2815 79.9684 96.2815H15.7807C11.5957 96.2815 7.5812 97.9436 4.62133 100.906V100.906C1.66225 103.865 0.00012207 107.878 0.00012207 112.062C0.00014307 116.246 1.66238 120.262 4.62261 123.222C7.58191 126.18 11.5956 127.843 15.7807 127.843H79.9684C84.1535 127.843 88.1672 126.18 91.1265 123.222C94.0868 120.262 95.749 116.246 95.749 112.062V87.9919Z" fill="#486EA1"/>
</svg>
