<svg width="115" height="116" viewBox="0 0 115 116" fill="none" xmlns="http://www.w3.org/2000/svg">
<path d="M61.4321 74.8662H30.4135C28.5358 74.8662 27.0134 76.2485 27.0134 77.9535C27.0134 79.6584 28.5358 81.0407 30.4135 81.0407H61.4321C63.3099 81.0407 64.8322 79.6584 64.8322 77.9535C64.8322 76.2485 63.3099 74.8662 61.4321 74.8662Z" fill="#486EA1"/>
<path d="M30.4175 67.9196H57.5691C59.449 67.9196 60.9732 66.5376 60.9732 64.8324C60.9732 63.1274 59.449 61.7451 57.5691 61.7451H30.4175C28.5375 61.7451 27.0134 63.1274 27.0134 64.8324C27.0134 66.5376 28.5375 67.9196 30.4175 67.9196Z" fill="#486EA1"/>
<path d="M30.3988 54.027H59.9032C61.7729 54.027 63.2886 52.6448 63.2886 50.9398C63.2886 49.2348 61.7729 47.8525 59.9032 47.8525H30.3988C28.5292 47.8525 27.0134 49.2348 27.0134 50.9398C27.0134 52.6448 28.5292 54.027 30.3988 54.027Z" fill="#486EA1"/>
<path d="M30.4062 40.906H49.0905C50.9642 40.906 52.4832 39.4429 52.4832 37.6383V24.1066C52.4832 22.3019 50.9642 20.8389 49.0905 20.8389H30.4062C28.5325 20.8389 27.0134 22.3019 27.0134 24.1066V37.6383C27.0134 39.4429 28.5325 40.906 30.4062 40.906ZM33.799 27.3743H45.6977V34.3705H33.799V27.3743Z" fill="#486EA1"/>
<path d="M114.013 85.0716L103.959 74.994C106.315 71.6808 107.702 67.6301 107.702 63.2605C107.702 53.2387 100.405 44.8947 90.8566 43.2821V23.6364H90.8548C90.8543 22.7585 90.5136 21.8953 89.8696 21.2494L69.6556 0.988979C69.0114 0.343318 68.1496 0.00202614 67.2729 0.00180101V0H16.8471C14.9864 0 13.478 1.51195 13.478 3.37689V13.5087H3.36915C1.50848 13.5087 0 15.0206 0 16.8856V112.395C0 114.26 1.50848 115.772 3.36915 115.772H74.0095C75.8701 115.772 77.3786 114.26 77.3786 112.395V102.263H87.4874C89.3481 102.263 90.8566 100.751 90.8566 98.8862V83.2388C93.9236 82.7208 96.7589 81.5094 99.1941 79.7699L109.249 89.8472C109.906 90.5066 110.769 90.8364 111.631 90.8364C112.493 90.8364 113.355 90.5066 114.013 89.8472C115.329 88.5284 115.329 86.3901 114.013 85.0716ZM100.964 63.2605C100.964 66.9766 99.4587 70.3468 97.0275 72.7914C97.0223 72.7966 97.0165 72.8008 97.0113 72.806C97.0062 72.8112 97.0017 72.8173 96.9967 72.8225C94.5615 75.2554 91.2058 76.7626 87.5049 76.7673C87.4993 76.7673 87.4935 76.7665 87.4876 76.7665C87.4818 76.7665 87.476 76.7673 87.4703 76.7673C80.0472 76.7581 74.011 70.7027 74.011 63.2602C74.011 55.8122 80.0566 49.7527 87.4876 49.7527C94.9186 49.7527 100.964 55.8124 100.964 63.2605ZM70.6423 11.5294L79.3534 20.2605H70.6423V11.5294ZM70.6403 109.018H6.7383V20.2625H13.478V98.8862C13.478 100.751 14.9864 102.263 16.8471 102.263H70.6403V109.018ZM20.2163 95.5093V6.75379H63.904V23.6373C63.904 25.5023 65.4125 27.0142 67.2732 27.0142H84.1183V43.2821C74.5699 44.8947 67.2725 53.2387 67.2725 63.2605C67.2725 73.2822 74.5699 81.6263 84.1183 83.2388V95.5093H20.2163Z" fill="#486EA1"/>
</svg>
