<svg width="369" height="327" viewBox="0 0 369 327" fill="none" xmlns="http://www.w3.org/2000/svg">
<path d="M269.954 57.0326C275.069 51.917 274.776 43.4992 269.263 38.8128C205.028 -15.8034 108.55 -12.7789 47.8853 47.8863C-15.9241 111.696 -15.9609 215.125 47.7699 278.983H152.819L163.492 163.494L269.954 57.0326Z" fill="#F70057"/>
<path d="M321.906 67.605L235.021 156.372C231.161 160.316 231.2 166.633 235.108 170.529L322.107 257.253C326.507 261.64 333.803 261.036 337.397 255.968C348.622 240.132 369 205.591 369 163.514C369 121.451 348.637 85.5695 337.408 68.982C333.846 63.7214 326.35 63.0657 321.906 67.605Z" fill="#509DFC"/>
<path d="M47.7699 278.983V278.986C108.428 339.762 204.987 342.825 269.264 288.175C274.776 283.489 275.07 275.071 269.954 269.955L163.493 163.494L47.7699 278.983Z" fill="#FFB329"/>
<path d="M269.264 38.8034C238.831 12.9282 201.162 0.000732422 163.492 0.000732422V163.485L269.954 57.0233C275.069 51.9069 274.776 43.4898 269.264 38.8034Z" fill="#B10F61"/>
<path d="M269.264 288.184C274.776 283.498 275.07 275.08 269.954 269.964L163.493 163.502V326.987C201.162 326.987 238.831 314.059 269.264 288.184Z" fill="#FF7D43"/>
</svg>
