<svg width="292" height="292" viewBox="0 0 292 292" fill="none" xmlns="http://www.w3.org/2000/svg">
<path d="M214.438 248.085C214.438 252.808 210.606 256.64 205.883 256.64H86.1186C81.3964 256.64 77.564 252.808 77.564 248.085C77.564 243.363 81.3964 239.531 86.1186 239.531H205.883C210.606 239.531 214.438 243.363 214.438 248.085Z" fill="#47568C"/>
<path d="M214.438 248.085C214.438 252.807 210.606 256.64 205.884 256.64H146.001V239.531H205.884C210.606 239.531 214.438 243.363 214.438 248.085Z" fill="#29376D"/>
<path d="M77.5703 292.001C72.0109 292.001 67.932 286.786 69.2563 281.402L86.3657 211.824C87.4937 207.236 92.1264 204.431 96.7157 205.56C101.303 206.688 104.108 211.321 102.98 215.91L85.8706 285.488C84.9114 289.389 81.4165 292.001 77.5703 292.001Z" fill="#47568C"/>
<path d="M214.431 292.001C210.585 292.001 207.09 289.389 206.13 285.487L189.021 215.909C187.893 211.321 190.698 206.687 195.285 205.559C199.876 204.432 204.507 207.236 205.635 211.824L222.745 281.402C224.068 286.784 219.994 292.001 214.431 292.001Z" fill="#29376D"/>
<path d="M17.6816 8.55542H274.32V213.867H17.6816V8.55542Z" fill="#7ED8F6"/>
<path d="M146.001 8.55542H274.32V213.867H146.001V8.55542Z" fill="#6AA9FF"/>
<path d="M292 8.55536C292 13.2775 288.167 17.11 283.445 17.11H8.55658C3.83443 17.11 0.00195312 13.2775 0.00195312 8.55536C0.00195312 3.83321 3.83443 0.000732422 8.55658 0.000732422H283.445C288.167 0.000732422 292 3.83321 292 8.55536Z" fill="#61729B"/>
<path d="M292 8.55536C292 13.2775 288.167 17.11 283.445 17.11H146.001V0.000732422H283.445C288.167 0.000732422 292 3.83321 292 8.55536Z" fill="#47568C"/>
<path d="M292 213.867C292 218.589 288.167 222.421 283.445 222.421H8.55658C3.83443 222.421 0.00195312 218.589 0.00195312 213.867C0.00195312 209.144 3.83443 205.312 8.55658 205.312H283.445C288.167 205.312 292 209.144 292 213.867Z" fill="#61729B"/>
<path d="M292 213.867C292 218.589 288.167 222.421 283.445 222.421H146.001V205.312H283.445C288.167 205.312 292 209.144 292 213.867Z" fill="#47568C"/>
<path d="M231.546 51.3286H197.329C192.604 51.3286 188.774 55.1588 188.774 59.8832C188.774 64.6077 192.604 68.4379 197.329 68.4379H210.895L146.001 133.332L117.831 105.162C114.491 101.821 109.074 101.821 105.733 105.162L54.4054 156.49C51.0646 159.83 51.0646 165.247 54.4054 168.587C57.7463 171.928 63.1631 171.928 66.5034 168.587L111.782 123.308L139.952 151.478C143.293 154.819 148.709 154.819 152.05 151.478L222.993 80.5353V94.1018C222.993 98.8262 226.823 102.656 231.548 102.656C236.272 102.656 240.102 98.8262 240.102 94.1018V59.8861C240.104 55.1263 236.208 51.328 231.546 51.3286Z" fill="#F0F7FF"/>
<path d="M152.05 151.479L222.993 80.5358V94.1018C222.993 98.8262 226.823 102.656 231.547 102.656C236.272 102.656 240.102 98.8262 240.102 94.1018V59.8861C240.104 55.1263 236.208 51.328 231.546 51.3286H197.329C192.604 51.3286 188.774 55.1588 188.774 59.8832C188.774 64.6077 192.604 68.4379 197.329 68.4379H210.895L146.001 133.332V153.984C148.19 153.984 150.379 153.149 152.05 151.479Z" fill="#DFE7F4"/>
</svg>
