<svg width="165" height="165" viewBox="0 0 165 165" fill="none" xmlns="http://www.w3.org/2000/svg">
<path d="M164.389 157.813L115.727 70.4792C114.872 68.9472 113.257 67.998 111.504 67.998C111.496 67.998 111.49 67.998 111.482 67.998C109.721 68.0056 108.104 68.9711 107.26 70.517L92.6197 97.3595L67.9979 51.9477V38.6719H87.3338V43.5059C87.3338 46.1759 89.4978 48.3398 92.1678 48.3398H130.84C132.622 48.3398 134.261 47.3592 135.102 45.7869C135.943 44.2159 135.851 42.3074 134.862 40.8245L126.981 29.0039L134.862 17.1833C135.851 15.7004 135.943 13.7932 135.102 12.2209C134.261 10.6499 132.622 9.66797 130.84 9.66797H97.0018V4.83398C97.0018 2.16396 94.8378 0 92.1678 0H63.164C60.4939 0 58.33 2.16396 58.33 4.83398V51.9414L0.590407 157.852C-0.226585 159.35 -0.193855 161.167 0.677267 162.635C1.54839 164.101 3.12824 165 4.83398 165H160.166C161.88 165 163.465 164.092 164.334 162.614C165.202 161.138 165.223 159.31 164.389 157.813ZM63.1526 63.295L78.7573 92.0761L73.4487 95.616L66.5817 88.7502C64.6947 86.8619 61.6344 86.8619 59.7462 88.7502L52.8804 95.616L47.49 92.0219L63.1526 63.295ZM121.807 19.3359L117.15 26.3226C116.067 27.9465 116.067 30.0626 117.15 31.6853L121.807 38.6719H97.0018V19.3359H121.807ZM67.9979 9.66797H87.3338V29.0039H67.9979C67.9979 26.8865 67.9979 12.1278 67.9979 9.66797ZM12.9749 155.332L42.8449 100.544L50.8147 105.858C52.7319 107.137 55.2848 106.884 56.9138 105.254L63.164 99.0048L69.4141 105.254C70.3482 106.188 71.5856 106.67 72.8332 106.67C73.7622 106.67 74.695 106.403 75.5132 105.858L83.3836 100.611L113.052 155.332H12.9749ZM124.049 155.332L98.1083 107.484L111.549 82.8437L151.939 155.332H124.049Z" fill="#486EA1"/>
</svg>
