<svg width="117" height="117" viewBox="0 0 117 117" fill="none" xmlns="http://www.w3.org/2000/svg">
<mask id="mask0_8064_369" style="mask-type:luminance" maskUnits="userSpaceOnUse" x="0" y="0" width="117" height="117">
<path d="M0 0H117V117H0V0Z" fill="white"/>
</mask>
<g mask="url(#mask0_8064_369)">
<path d="M106.5 110C107.826 110 109.038 109.266 109.631 108.105L116.631 94.3905C116.874 93.9144 117 93.3894 117 92.8571V17.4286C117 15.535 115.433 14 113.5 14H99.5C97.567 14 96 15.535 96 17.4286V92.8571C96 93.3894 96.1265 93.9144 96.3695 94.3905L103.369 108.105L103.427 108.212C104.038 109.311 105.216 110 106.5 110ZM103 92.0477V20.8571H110V92.0477L106.5 98.9049L103 92.0477Z" fill="#486EA1"/>
<path d="M113.5 34C115.433 34 117 32.6569 117 31C117 29.3431 115.433 28 113.5 28H99.5C97.567 28 96 29.3431 96 31C96 32.6569 97.567 34 99.5 34H113.5Z" fill="#486EA1"/>
<path d="M84.6154 110C86.4847 110 88 108.463 88 106.567V10.4333C88 8.53716 86.4847 7 84.6154 7H3.38462C1.51534 7 0 8.53716 0 10.4333V106.567C0 108.463 1.51534 110 3.38462 110H84.6154ZM6.76923 13.8667H81.2308V103.133H6.76923V13.8667Z" fill="#486EA1"/>
<path d="M84.6154 48C86.4847 48 88 46.433 88 44.5C88 42.567 86.4847 41 84.6154 41H3.38462C1.51534 41 0 42.567 0 44.5C0 46.433 1.51534 48 3.38462 48H84.6154Z" fill="#486EA1"/>
<path d="M54 44.45V106.55C54 108.455 55.7909 110 58 110C60.2091 110 62 108.455 62 106.55V44.45C62 42.5446 60.2091 41 58 41C55.7909 41 54 42.5446 54 44.45Z" fill="#486EA1"/>
<path d="M28 44.45V106.55C28 108.455 29.3431 110 31 110C32.6569 110 34 108.455 34 106.55V44.45C34 42.5446 32.6569 41 31 41C29.3431 41 28 42.5446 28 44.45Z" fill="#486EA1"/>
<path d="M84.6154 89C86.4847 89 88 87.433 88 85.5C88 83.567 86.4847 82 84.6154 82H3.38462C1.51534 82 0 83.567 0 85.5C0 87.433 1.51534 89 3.38462 89H84.6154Z" fill="#486EA1"/>
<path d="M84.6154 68C86.4847 68 88 66.6569 88 65C88 63.3431 86.4847 62 84.6154 62H3.38462C1.51534 62 0 63.3431 0 65C0 66.6569 1.51534 68 3.38462 68H84.6154Z" fill="#486EA1"/>
</g>
<path d="M24.5 33.9995C26.433 33.9995 28 32.6564 28 30.9995C28 29.3427 26.433 27.9995 24.5 27.9995H17.5C15.567 27.9995 14 29.3427 14 30.9995C14 32.6564 15.567 33.9995 17.5 33.9995H24.5Z" fill="#486EA1"/>
</svg>
