<svg width="512" height="512" viewBox="0 0 512 512" fill="none" xmlns="http://www.w3.org/2000/svg">
<path d="M360 75.974V165.974L180 293.774L173.401 298.573L83.401 358.573C78.6 361.574 72.6 361.874 67.8 359.174C62.999 356.473 60 351.374 60 345.974V300.974H45C20.099 300.974 0 280.875 0 255.974V75.974C0 51.073 20.099 30.974 45 30.974H315C339.901 30.974 360 51.074 360 75.974Z" fill="#0E72B0"/>
<path d="M360 75.974V165.974L180 293.774V30.974H315C339.901 30.974 360 51.074 360 75.974Z" fill="#28A8E0"/>
<path d="M467 150.974H197C172.099 150.974 152 171.073 152 195.974V375.974C152 400.875 172.099 420.974 197 420.974H342.499L428.599 478.573C433.4 481.574 439.4 481.874 444.2 479.174C449.001 476.473 452 471.374 452 465.974V420.974H467C491.901 420.974 512 400.875 512 375.974V195.974C512 171.074 491.901 150.974 467 150.974Z" fill="#FEA832"/>
<path d="M512 195.974V375.974C512 400.875 491.901 420.974 467 420.974H452V465.974C452 471.374 449.001 476.473 444.2 479.174C439.401 481.875 433.4 481.575 428.599 478.573L342.499 420.974H332V150.974H467C491.901 150.974 512 171.074 512 195.974Z" fill="#FE9923"/>
<path d="M452 255.974C452 264.375 445.401 270.974 437 270.974H227C218.599 270.974 212 264.375 212 255.974C212 247.573 218.599 240.974 227 240.974H437C445.401 240.974 452 247.573 452 255.974Z" fill="#994C0F"/>
<path d="M362 315.974C362 324.375 355.401 330.974 347 330.974H227C218.599 330.974 212 324.375 212 315.974C212 307.573 218.599 300.974 227 300.974H347C355.401 300.974 362 307.573 362 315.974Z" fill="#994C0F"/>
<path d="M362 315.974C362 324.375 355.401 330.974 347 330.974H332V300.974H347C355.401 300.974 362 307.573 362 315.974Z" fill="#713708"/>
<path d="M452 255.974C452 264.375 445.401 270.974 437 270.974H332V240.974H437C445.401 240.974 452 247.573 452 255.974Z" fill="#713708"/>
</svg>
