<svg width="173" height="173" viewBox="0 0 173 173" fill="none" xmlns="http://www.w3.org/2000/svg">
<path d="M0.948528 67.693C6.64847 86.1948 15.7271 108.404 39.8486 132.856C39.8591 132.865 39.8683 132.874 39.8775 132.883L40.0051 133.012C40.0156 133.021 40.0248 133.031 40.0341 133.04C67.6276 160.264 92.2844 167.86 105.532 171.941C113.902 174.52 122.733 170.414 124.895 161.963L131.657 136.626C132.296 134.227 131.099 131.719 128.83 130.711L95.8104 116.012C93.8784 115.152 91.6137 115.587 90.1381 117.103C88.1101 119.184 83.5254 123.861 80.3585 126.997C74.0785 122.553 67.7986 117.175 62.0158 111.279C61.9934 111.255 61.9698 111.232 61.9461 111.209C55.5596 104.946 50.1872 98.7994 45.9313 92.8864C49.811 88.9869 55.7319 83.1423 55.8108 83.0647C57.3062 81.589 57.731 79.3414 56.8787 77.42L42.2488 44.4684C41.2427 42.2023 38.7426 41.0016 36.3463 41.6342L10.9359 48.3284C2.44519 50.4919 -1.62 59.3561 0.948528 67.693ZM13.4387 58.1133C13.4558 58.1093 13.4716 58.1054 13.4874 58.1014L34.7629 52.4962L46.2324 78.3314C42.9629 81.5693 37.4471 87.0483 35.7413 88.8527C34.1316 90.5546 33.904 93.1415 35.1916 95.0985C40.1353 102.611 46.7454 110.445 54.8402 118.385C62.2341 125.921 70.0712 132.42 78.1358 137.703C80.0494 138.957 82.5666 138.769 84.2711 137.243C86.1912 135.525 91.6466 129.999 94.9121 126.668L120.787 138.186L115.13 159.387C115.124 159.408 115.118 159.429 115.113 159.45C114.395 162.289 111.281 163.144 108.507 162.289C95.2146 158.194 72.9698 151.339 47.1412 125.863L47.0255 125.747C21.3968 99.7647 14.1055 76.0956 10.6019 64.7194C9.74701 61.9457 10.5992 58.8327 13.4387 58.1133Z" fill="#486EA1"/>
<path d="M126.768 26.2475C126.768 29.037 124.506 31.2978 121.718 31.2978C118.929 31.2978 116.668 29.037 116.668 26.2475C116.668 23.458 118.929 21.1973 121.718 21.1973C124.506 21.1973 126.768 23.458 126.768 26.2475Z" fill="#486EA1"/>
<path d="M131.828 71.6999H126.778V46.4487C126.778 43.6592 124.517 41.3984 121.727 41.3984H111.627C108.837 41.3984 106.577 43.6592 106.577 46.4487C106.577 49.2382 108.837 51.4989 111.627 51.4989H116.677V71.6999H111.627C108.837 71.6999 106.577 73.9607 106.577 76.7502C106.577 79.5384 108.837 81.8004 111.627 81.8004H131.828C134.617 81.8004 136.878 79.5384 136.878 76.7502C136.878 73.9607 134.617 71.6999 131.828 71.6999Z" fill="#486EA1"/>
<path d="M121.727 0.323242C93.6774 0.323242 71.2249 23.7346 71.2249 51.4991C71.2249 60.2818 73.4896 68.8462 77.7954 76.4229L71.4839 95.3548C70.8803 97.1684 71.3511 99.1701 72.7044 100.522C74.0617 101.881 76.0634 102.345 77.873 101.743L96.8036 95.4324C104.379 99.7369 112.945 102.002 121.727 102.002C149.76 102.002 172.567 79.3465 172.567 51.4991C172.567 23.5439 149.613 0.323242 121.727 0.323242ZM121.727 91.9011C114.043 91.9011 106.57 89.7364 100.116 85.6422C98.8329 84.8268 97.2521 84.6361 95.8133 85.1149L84.2608 88.9657L88.1116 77.4132C88.5917 75.9731 88.3983 74.3923 87.5842 73.11C83.4901 66.6565 81.3254 59.1837 81.3254 51.4991C81.3254 28.8506 99.4497 10.4237 121.727 10.4237C143.81 10.4237 162.466 29.2333 162.466 51.4991C162.466 73.7768 144.19 91.9011 121.727 91.9011Z" fill="#486EA1"/>
</svg>
