<svg width="277" height="236" viewBox="0 0 277 236" fill="none" xmlns="http://www.w3.org/2000/svg">
<path d="M234.614 190.926H15.0714C6.74767 190.926 0 184.179 0 175.855V15.4822C0 7.15856 6.74767 0.410889 15.0714 0.410889H234.614C242.938 0.410889 249.686 7.15856 249.686 15.4822V175.855C249.686 184.179 242.938 190.926 234.614 190.926Z" fill="#DBDBDB"/>
<path d="M15.605 170.534V20.8033C15.605 18.1597 17.748 16.0166 20.3916 16.0166H229.293C231.937 16.0166 234.08 18.1597 234.08 20.8033V170.534C234.08 173.178 231.937 175.321 229.293 175.321H20.3916C17.748 175.321 15.605 173.178 15.605 170.534Z" fill="white"/>
<path d="M68.6145 33.787H31.2096C30.0131 33.787 29.045 32.8178 29.045 31.6224C29.045 30.427 30.0131 29.4578 31.2096 29.4578H68.6145C69.811 29.4578 70.7792 30.427 70.7792 31.6224C70.7792 32.8178 69.811 33.787 68.6145 33.787Z" fill="black"/>
<path d="M48.1332 48.5787H31.2096C30.0131 48.5787 29.045 47.6095 29.045 46.4141C29.045 45.2187 30.0131 44.2495 31.2096 44.2495H48.1332C49.3297 44.2495 50.2978 45.2187 50.2978 46.4141C50.2978 47.6095 49.3297 48.5787 48.1332 48.5787Z" fill="black"/>
<path d="M135.574 90.1554V155.742C135.574 157.951 133.799 159.725 131.591 159.725H118.084C115.919 159.725 114.101 157.951 114.101 155.742V90.1554C114.101 87.9464 115.919 86.1729 118.084 86.1729H131.591C133.799 86.1729 135.574 87.9464 135.574 90.1554Z" fill="#488FF7"/>
<path d="M208.391 71.4962V155.742C208.391 157.951 206.616 159.725 204.408 159.725H190.944C188.736 159.725 186.918 157.951 186.918 155.742V71.4962C186.918 69.2893 188.736 67.5137 190.944 67.5137H204.408C206.616 67.5137 208.391 69.2893 208.391 71.4962Z" fill="#488FF7"/>
<path d="M171.982 109.248V155.743C171.982 157.952 170.207 159.725 167.999 159.725H154.493C152.328 159.725 150.51 157.952 150.51 155.743V109.248C150.51 107.039 152.328 105.263 154.493 105.263H167.999C170.207 105.263 171.982 107.039 171.982 109.248Z" fill="#488FF7"/>
<path d="M62.7564 104.225V155.742C62.7564 157.951 60.9813 159.725 58.7734 159.725H45.2668C43.0589 159.725 41.2832 157.951 41.2832 155.742V104.225C41.2832 102.061 43.0589 100.243 45.2668 100.243H58.7734C60.9813 100.243 62.7564 102.061 62.7564 104.225Z" fill="#488FF7"/>
<path d="M99.1653 123.662V155.742C99.1653 157.951 97.3902 159.725 95.1822 159.725H81.6751C79.4672 159.725 77.6926 157.951 77.6926 155.742V123.662C77.6926 121.455 79.4672 119.68 81.6751 119.68H95.1822C97.3902 119.68 99.1653 121.455 99.1653 123.662Z" fill="#488FF7"/>
<path d="M105.412 190.926H150.219V219.863H105.412V190.926Z" fill="#B9B9B9"/>
<path d="M204.674 235.609H51.8055V231.721C51.8055 225.171 57.1155 219.861 63.6657 219.861H192.814C199.364 219.861 204.674 225.171 204.674 231.721V235.609Z" fill="#304056"/>
<path d="M52.0207 84.4702C51.211 84.4702 50.4353 84.0146 50.0632 83.2357C49.5495 82.1555 50.0083 80.8639 51.0884 80.3513L123.911 45.7176C124.607 45.39 125.416 45.4502 126.051 45.8772L161.065 69.4659L196.221 37.947C197.113 37.1511 198.48 37.223 199.277 38.114C200.076 39.004 200.002 40.3727 199.112 41.1707L162.701 73.8152C161.959 74.4758 160.868 74.5529 160.046 73.9991L124.655 50.1567L52.9486 84.2609C52.6485 84.4036 52.3314 84.4702 52.0207 84.4702Z" fill="black"/>
<path d="M200.588 48.5788C199.391 48.5788 198.423 47.6096 198.423 46.4142V38.2916H190.3C189.103 38.2916 188.135 37.3224 188.135 36.127C188.135 34.9316 189.103 33.9624 190.3 33.9624H200.588C201.784 33.9624 202.752 34.9316 202.752 36.127V46.4142C202.752 47.6096 201.784 48.5788 200.588 48.5788Z" fill="black"/>
<path d="M234.08 222.209C257.784 222.209 277 202.994 277 179.29C277 155.586 257.784 136.37 234.08 136.37C210.376 136.37 191.16 155.586 191.16 179.29C191.16 202.994 210.376 222.209 234.08 222.209Z" fill="#3275C6"/>
<path d="M234.08 209.464C250.745 209.464 264.255 195.955 264.255 179.29C264.255 162.625 250.745 149.115 234.08 149.115C217.415 149.115 203.906 162.625 203.906 179.29C203.906 195.955 217.415 209.464 234.08 209.464Z" fill="#FEFEFE"/>
<path d="M234.08 198.779C228.425 198.779 223.823 194.177 223.823 188.521C223.823 187.326 224.792 186.356 225.988 186.356C227.184 186.356 228.153 187.326 228.153 188.521C228.153 191.79 230.812 194.449 234.08 194.449C237.348 194.449 240.007 191.79 240.007 188.521C240.007 185.253 237.348 182.594 234.08 182.594C228.425 182.594 223.823 177.992 223.823 172.336C223.823 166.68 228.425 162.08 234.08 162.08C239.735 162.08 244.336 166.68 244.336 172.336C244.336 173.531 243.368 174.501 242.172 174.501C240.975 174.501 240.007 173.531 240.007 172.336C240.007 169.068 237.348 166.409 234.08 166.409C230.812 166.409 228.153 169.068 228.153 172.336C228.153 175.605 230.812 178.264 234.08 178.264C239.735 178.264 244.336 182.865 244.336 188.521C244.336 194.177 239.735 198.779 234.08 198.779Z" fill="black"/>
<path d="M234.08 166.409C232.883 166.409 231.915 165.44 231.915 164.244V161.951C231.915 160.755 232.883 159.786 234.08 159.786C235.276 159.786 236.245 160.755 236.245 161.951V164.244C236.245 165.44 235.276 166.409 234.08 166.409Z" fill="black"/>
<path d="M234.08 201.071C232.883 201.071 231.915 200.102 231.915 198.907V196.614C231.915 195.419 232.883 194.45 234.08 194.45C235.276 194.45 236.245 195.419 236.245 196.614V198.907C236.245 200.102 235.276 201.071 234.08 201.071Z" fill="black"/>
</svg>
