<svg width="155" height="155" viewBox="0 0 155 155" fill="none" xmlns="http://www.w3.org/2000/svg">
<mask id="mask0_8064_646" style="mask-type:luminance" maskUnits="userSpaceOnUse" x="0" y="0" width="155" height="155">
<path d="M0 0H155V155H0V0Z" fill="white"/>
</mask>
<g mask="url(#mask0_8064_646)">
<path d="M36 22.5005V40.8004C36 43.2857 38.048 45.3004 40.5743 45.3004C43.1007 45.3004 45.1487 43.2857 45.1487 40.8004V22.5005C45.1487 15.0447 51.2927 9.00049 58.8716 9.00049H101.128C108.708 9.00049 114.851 15.0446 114.851 22.5005V67.5005C114.851 69.9858 116.899 72.0005 119.426 72.0005C121.952 72.0005 124 69.9858 124 67.5005V22.5005C124 10.0742 113.76 0.000488281 101.128 0.000488281H58.8716C46.24 0.000488281 36 10.0741 36 22.5005Z" fill="#486EA1"/>
<path d="M124 118.5C124 120.985 121.985 123 119.5 123C117.015 123 115 120.985 115 118.5C115 116.015 117.015 114 119.5 114C121.985 114 124 116.015 124 118.5ZM133 118.5C133 111.044 126.956 105 119.5 105C112.044 105 106 111.044 106 118.5C106 125.956 112.044 132 119.5 132C126.956 132 133 125.956 133 118.5Z" fill="#486EA1"/>
<path d="M115.807 70.7636C117.624 72.4394 120.496 72.4124 122.278 70.6825L134.642 58.6824C136.453 56.9251 136.453 54.0759 134.642 52.3185C132.831 50.5612 129.896 50.5612 128.085 52.3185L119 61.1365L109.915 52.3185C108.104 50.5611 105.169 50.5611 103.358 52.3185C101.547 54.0758 101.547 56.9251 103.358 58.6824L115.722 70.6825L115.807 70.7636Z" fill="#486EA1"/>
<path d="M53.0001 141.091C53.0001 143.651 50.9852 145.727 48.5001 145.727H33.5C31.0149 145.727 29 143.651 29 141.091V130.273H53.0001V141.091ZM62.0001 125.636C62 123.076 59.9853 121 57.5001 121H24.5001C22.0148 121 20.0001 123.076 20.0001 125.636V141.091C20.0001 148.773 26.0444 155 33.5 155H48.5001C55.9557 155 62.0001 148.773 62.0001 141.091V125.636Z" fill="#486EA1"/>
<path d="M72.8889 77.5005C72.8889 85.8748 69.5763 93.4632 64.1668 99.1001C58.4104 105.099 54.4404 112.685 53.4123 121H28.5877C27.5596 112.685 23.5896 105.099 17.8332 99.1001C12.4237 93.4632 9.11113 85.8748 9.11111 77.5005C9.11111 75.0152 7.07152 73.0005 4.55556 73.0005C2.03959 73.0005 0 75.0152 0 77.5005C1.86203e-05 88.2745 4.27515 98.0539 11.2209 105.292C16.5742 110.87 19.7408 117.908 19.7408 125.277V125.5C19.7408 127.986 21.7804 130 24.2964 130H57.7036C60.2196 130 62.2592 127.986 62.2592 125.5V125.277C62.2592 117.908 65.4258 110.87 70.7791 105.292C77.7249 98.0539 82 88.2745 82 77.5005C82 75.0152 79.9604 73.0005 77.4444 73.0005C74.9285 73.0005 72.8889 75.0152 72.8889 77.5005Z" fill="#486EA1"/>
<path d="M0 77.5C0 79.9853 2.03959 82 4.55556 82C7.07152 82 9.11111 79.9853 9.11111 77.5C9.11111 60.1031 23.3883 46 41 46C58.6117 46 72.8889 60.1031 72.8889 77.5C72.8889 79.9853 74.9285 82 77.4444 82C79.9604 82 82 79.9853 82 77.5C82 55.1325 63.6436 37 41 37C18.3564 37 0 55.1325 0 77.5Z" fill="#486EA1"/>
<path d="M36 89.5005V125.5C36 127.986 38.0147 130 40.5 130C42.9853 130 45 127.986 45 125.5V89.5005C45 87.0152 42.9853 85.0005 40.5 85.0005C38.0147 85.0005 36 87.0152 36 89.5005Z" fill="#486EA1"/>
<path d="M37.9012 92.7319C39.6642 94.4506 42.452 94.4229 44.1819 92.6488L54.6819 81.8794C56.4393 80.077 56.4393 77.1547 54.6819 75.3523C52.9246 73.5499 50.0754 73.5499 48.318 75.3523L40.9998 82.858L33.6821 75.3523C31.9247 73.5499 29.0753 73.5499 27.3179 75.3523C25.5606 77.1547 25.5606 80.077 27.3179 81.8794L37.818 92.6488L37.9012 92.7319Z" fill="#486EA1"/>
<path d="M140.278 118.5C140.278 119.466 140.186 120.46 140.032 121.535C139.825 122.983 140.325 124.443 141.377 125.46L144.712 128.687L140.672 135.688L136.221 134.413C134.812 134.01 133.296 134.309 132.145 135.217C130.555 136.471 128.791 137.499 126.89 138.26C125.53 138.804 124.515 139.968 124.16 141.39L123.039 145.875H114.961L113.84 141.39C113.485 139.968 112.47 138.804 111.11 138.26C109.209 137.499 107.445 136.471 105.855 135.217C104.704 134.309 103.188 134.01 101.779 134.413L97.3274 135.688L93.2882 128.687L96.6235 125.46C97.6746 124.443 98.1747 122.983 97.968 121.535C97.8145 120.46 97.7222 119.466 97.7222 118.5C97.7222 117.534 97.8144 116.54 97.968 115.465C98.1747 114.016 97.6746 112.556 96.6235 111.54L93.2882 108.313L97.3274 101.312L101.779 102.586C103.188 102.99 104.704 102.691 105.855 101.783C107.396 100.568 109.099 99.5653 110.932 98.8124L111.11 98.7402L111.236 98.6874C112.532 98.1231 113.496 96.9874 113.84 95.6104L114.961 91.125H123.039L124.16 95.6104L124.195 95.743C124.579 97.104 125.573 98.2132 126.89 98.7402C128.79 99.5007 130.555 100.529 132.145 101.783L132.254 101.866C133.39 102.709 134.856 102.977 136.221 102.586L140.673 101.312L144.712 108.313L141.377 111.54C140.325 112.556 139.825 114.016 140.032 115.465C140.186 116.54 140.278 117.534 140.278 118.5ZM149.397 118.5C149.397 117.831 149.369 117.179 149.322 116.545L153.61 112.397C155.114 110.941 155.435 108.648 154.389 106.835L146.79 93.6644C145.744 91.8514 143.599 90.9834 141.587 91.5592L135.845 93.2031C134.767 92.4829 133.64 91.8297 132.47 91.2491L131.023 85.456C130.515 83.4249 128.691 82 126.599 82H111.401C109.309 82 107.485 83.4249 106.977 85.456L105.53 91.2491C104.359 91.8297 103.233 92.4829 102.155 93.2031L96.4129 91.5592C94.4013 90.9834 92.2563 91.8514 91.2102 93.6644L83.611 106.835C82.5649 108.648 82.8861 110.941 84.3902 112.397L88.6779 116.545C88.6309 117.179 88.6031 117.831 88.6031 118.5C88.6031 119.169 88.6309 119.821 88.6779 120.455L84.3902 124.603C82.8861 126.059 82.5649 128.351 83.611 130.164L91.2102 143.335C92.2563 145.148 94.4014 146.016 96.4129 145.441L102.155 143.797C103.233 144.517 104.36 145.171 105.53 145.751L106.977 151.544L107.002 151.639C107.542 153.619 109.341 155 111.401 155H126.599L126.697 154.999C128.748 154.955 130.523 153.543 131.023 151.544L132.47 145.751C133.64 145.171 134.767 144.517 135.845 143.797L141.587 145.441L141.682 145.466C143.665 145.989 145.76 145.12 146.79 143.335L154.389 130.164C155.435 128.351 155.114 126.059 153.61 124.603L149.322 120.455C149.369 119.821 149.397 119.169 149.397 118.5Z" fill="#486EA1"/>
</g>
</svg>
