<svg width="341" height="342" viewBox="0 0 341 342" fill="none" xmlns="http://www.w3.org/2000/svg">
<g clip-path="url(#clip0_8077_485)">
<path d="M330.77 128.412H291.14C289.652 124.226 287.948 120.112 286.03 116.101L314.06 88.0709C318.056 84.0748 318.056 77.5968 314.06 73.6007L268.066 27.6066C264.07 23.6157 257.592 23.6157 253.596 27.6066L225.566 55.6365C221.554 53.7191 217.441 52.015 213.255 50.5269V10.8963C213.255 5.25081 208.671 0.666748 203.025 0.666748H137.975C132.329 0.666748 127.745 5.25081 127.745 10.8963V50.5269C123.559 52.015 119.446 53.7191 115.434 55.6365L87.4041 27.6066C85.4815 25.6892 82.8825 24.6121 80.169 24.6121C77.4555 24.6121 74.8565 25.6892 72.9339 27.6066L26.9398 73.6007C22.9489 77.5968 22.9489 84.0748 26.9398 88.0709L54.9697 116.101C53.0523 120.112 51.3482 124.226 49.8601 128.412H10.2296C4.58406 128.412 0 132.996 0 138.641V203.692C0 209.338 4.58406 213.922 10.2296 213.922H49.8601C51.3482 218.108 53.0523 222.221 54.9697 226.233L26.9398 254.263C22.9489 258.259 22.9489 264.737 26.9398 268.733L72.9339 314.727C74.8565 316.644 77.4555 317.721 80.169 317.721C82.8825 317.721 85.4815 316.644 87.4041 314.727L115.434 286.697C119.446 288.614 123.559 290.319 127.745 291.807V331.437C127.745 337.083 132.329 341.667 137.975 341.667H203.025C208.671 341.667 213.255 337.083 213.255 331.437V291.807C217.441 290.319 221.554 288.614 225.566 286.697L253.596 314.727C257.592 318.718 264.07 318.718 268.066 314.727L314.06 268.733C318.056 264.737 318.056 258.259 314.06 254.263L286.03 226.233C287.948 222.221 289.652 218.108 291.14 213.922H330.77C336.416 213.922 341 209.338 341 203.692V138.641C341 132.996 336.416 128.412 330.77 128.412ZM170.497 219.554C143.774 219.554 122.11 197.888 122.11 171.164C122.11 144.44 143.774 122.774 170.497 122.774C197.224 122.774 218.888 144.44 218.888 171.164C218.888 197.888 197.224 219.554 170.497 219.554Z" fill="#3389FF"/>
<path d="M330.77 128.412H291.14C289.652 124.226 287.948 120.112 286.03 116.101L314.06 88.0709C318.056 84.0748 318.056 77.5968 314.06 73.6007L268.066 27.6066C264.07 23.6157 257.592 23.6157 253.596 27.6066L225.566 55.6365C221.554 53.7191 217.441 52.015 213.255 50.5269V10.8963C213.255 5.25081 208.671 0.666748 203.025 0.666748H170.5V122.777C197.224 122.777 218.888 144.44 218.888 171.164C218.888 197.888 197.224 219.552 170.5 219.554V341.667H203.025C208.671 341.667 213.255 337.083 213.255 331.437V291.807C217.441 290.319 221.554 288.614 225.566 286.697L253.596 314.727C257.592 318.718 264.07 318.718 268.066 314.727L314.06 268.733C318.056 264.737 318.056 258.259 314.06 254.263L286.03 226.233C287.948 222.221 289.652 218.108 291.14 213.922H330.77C336.416 213.922 341 209.338 341 203.692V138.641C341 132.996 336.416 128.412 330.77 128.412Z" fill="#0053BF"/>
</g>
<defs>
<clipPath id="clip0_8077_485">
<rect width="341" height="341" fill="white" transform="translate(0 0.666748)"/>
</clipPath>
</defs>
</svg>
