<svg width="173" height="143" viewBox="0 0 173 143" fill="none" xmlns="http://www.w3.org/2000/svg">
<path d="M167.719 0.403809C170.508 0.403809 172.769 2.66488 172.769 5.45406V96.7374C172.769 99.5265 170.508 101.788 167.719 101.788H5.43721C2.64804 101.788 0.386963 99.5265 0.386963 96.7374V5.45406C0.386963 2.66488 2.64804 0.403809 5.43721 0.403809H167.719ZM10.4875 91.6871H162.668V10.5043H10.4875V91.6871Z" fill="#486EA1"/>
<path d="M167.719 91.6875C170.508 91.6875 172.769 93.9486 172.769 96.7378V117.023C172.769 119.812 170.508 122.073 167.719 122.073H5.43721C2.64804 122.073 0.386963 119.812 0.386963 117.023V96.7378C0.386963 93.9486 2.64804 91.6875 5.43721 91.6875H167.719ZM10.4875 111.973H162.668V101.788H10.4875V111.973Z" fill="#486EA1"/>
<path d="M101.771 117.022V137.308H91.6702V117.022H101.771Z" fill="#486EA1"/>
<path d="M81.4855 117.022V137.308H71.385V117.022H81.4855Z" fill="#486EA1"/>
<path d="M127.148 132.258C129.937 132.258 132.198 134.519 132.198 137.308C132.198 140.097 129.937 142.358 127.148 142.358H46.0075C43.2183 142.358 40.9573 140.097 40.9573 137.308C40.9573 134.519 43.2183 132.258 46.0075 132.258H127.148Z" fill="#486EA1"/>
<path d="M71.3854 51.0955C71.3854 45.4823 66.835 40.9316 61.2217 40.9316C55.6084 40.9316 51.0578 45.4822 51.0578 51.0955C51.0579 56.7088 55.6085 61.2591 61.2217 61.2591C66.8349 61.2591 71.3853 56.7087 71.3854 51.0955ZM81.4859 51.0955C81.4858 62.2871 72.4133 71.3596 61.2217 71.3596C50.0301 71.3596 40.9574 62.2871 40.9573 51.0955C40.9573 39.9039 50.0301 30.8311 61.2217 30.8311C72.4133 30.8311 81.4859 39.9039 81.4859 51.0955Z" fill="#486EA1"/>
<path d="M56.1711 76.4523V66.31C56.1711 63.5208 58.4322 61.2598 61.2214 61.2598C64.0106 61.2598 66.2716 63.5208 66.2716 66.31V76.4523C66.2716 79.2415 64.0106 81.5025 61.2214 81.5025C58.4322 81.5025 56.1711 79.2415 56.1711 76.4523Z" fill="#486EA1"/>
<path d="M68.4086 58.2819C70.3808 56.3097 73.5784 56.3097 75.5506 58.2819L82.7226 65.4538C84.6948 67.4261 84.6945 70.624 82.7222 72.5962C80.7499 74.5683 77.5524 74.5681 75.5802 72.5959L68.4086 65.4239C66.4364 63.4516 66.4364 60.2541 68.4086 58.2819Z" fill="#486EA1"/>
<path d="M86.5778 46.0459C89.367 46.0459 91.6281 48.307 91.6281 51.0961C91.6281 53.8853 89.367 56.1464 86.5778 56.1464H76.4353C73.6461 56.1464 71.385 53.8853 71.385 51.0961C71.385 48.307 73.6461 46.0459 76.4353 46.0459H86.5778Z" fill="#486EA1"/>
<path d="M75.5802 29.5949C77.5525 27.6226 80.75 27.6227 82.7223 29.5949C84.6945 31.5671 84.6947 34.7646 82.7226 36.7369L75.5507 43.9089C73.5785 45.8811 70.3809 45.8813 68.4086 43.9092C66.4363 41.937 66.4364 38.7391 68.4086 36.7668L75.5802 29.5949Z" fill="#486EA1"/>
<path d="M56.1711 35.8815V25.7392C56.1711 22.95 58.4322 20.689 61.2214 20.689C64.0106 20.689 66.2716 22.95 66.2716 25.7392V35.8815C66.2716 38.6706 64.0106 40.9317 61.2214 40.9317C58.4322 40.9317 56.1711 38.6706 56.1711 35.8815Z" fill="#486EA1"/>
<path d="M39.7206 29.5949C41.6929 27.6227 44.8904 27.6227 46.8626 29.5949L54.0346 36.7668C56.0068 38.7391 56.0065 41.937 54.0342 43.9092C52.0619 45.8813 48.8644 45.8811 46.8922 43.9088L39.7206 36.7369C37.7484 34.7646 37.7484 31.5671 39.7206 29.5949Z" fill="#486EA1"/>
<path d="M46.0075 46.0459C48.7967 46.0459 51.0578 48.307 51.0578 51.0961C51.0578 53.8853 48.7967 56.1464 46.0075 56.1464H35.8649C33.0758 56.1464 30.8147 53.8853 30.8147 51.0961C30.8147 48.307 33.0758 46.0459 35.8649 46.0459H46.0075Z" fill="#486EA1"/>
<path d="M46.8923 58.2819C48.8645 56.3096 52.062 56.3097 54.0343 58.2819C56.0065 60.2541 56.0068 63.4516 54.0346 65.4239L46.8627 72.5959C44.8905 74.5681 41.6929 74.5683 39.7206 72.5962C37.7483 70.624 37.7484 67.4261 39.7206 65.4538L46.8923 58.2819Z" fill="#486EA1"/>
<path d="M137.291 25.7603C140.08 25.7603 142.341 28.0213 142.341 30.8105C142.341 33.5997 140.08 35.8608 137.291 35.8608H106.863C104.074 35.8608 101.813 33.5997 101.813 30.8105C101.813 28.0213 104.074 25.7603 106.863 25.7603H137.291Z" fill="#486EA1"/>
<path d="M137.291 46.0459C140.08 46.0459 142.341 48.307 142.341 51.0961C142.341 53.8853 140.08 56.1464 137.291 56.1464H106.863C104.074 56.1464 101.813 53.8853 101.813 51.0961C101.813 48.307 104.074 46.0459 106.863 46.0459H137.291Z" fill="#486EA1"/>
<path d="M137.291 66.3311C140.08 66.3311 142.341 68.5921 142.341 71.3813C142.341 74.1705 140.08 76.4316 137.291 76.4316H106.863C104.074 76.4316 101.813 74.1705 101.813 71.3813C101.813 68.5921 104.074 66.3311 106.863 66.3311H137.291Z" fill="#486EA1"/>
</svg>
