<svg width="231" height="230" viewBox="0 0 231 230" fill="none" xmlns="http://www.w3.org/2000/svg">
<mask id="mask0_8076_224" style="mask-type:luminance" maskUnits="userSpaceOnUse" x="0" y="0" width="231" height="230">
<path d="M0.779053 0.157471H230.622V230H0.779053V0.157471Z" fill="white"/>
</mask>
<g mask="url(#mask0_8076_224)">
<path d="M180.792 115.078C180.792 151.028 151.649 180.17 115.7 180.17C79.7509 180.17 50.608 151.028 50.608 115.078C50.608 79.1288 79.7509 49.9861 115.7 49.986C151.649 49.986 180.792 79.1288 180.792 115.078ZM194.26 115.078C194.26 71.6909 159.087 36.5187 115.7 36.5187C72.3131 36.5187 37.1406 71.691 37.1406 115.078C37.1407 158.466 72.3132 193.638 115.7 193.638C159.087 193.638 194.26 158.466 194.26 115.078Z" fill="#486EA1"/>
<path d="M151.613 153.236C155.332 153.236 158.346 150.222 158.346 146.503V142.014C158.346 123.419 143.273 108.345 124.678 108.345H106.722C88.1273 108.345 73.0535 123.419 73.0535 142.014V146.503C73.0535 150.222 76.0682 153.236 79.7871 153.236H151.613ZM86.6444 139.769C87.761 129.669 96.3238 121.813 106.722 121.813H124.678C135.076 121.813 143.639 129.669 144.756 139.769H86.6444Z" fill="#486EA1"/>
<path d="M131.412 92.6332C131.412 101.31 124.378 108.345 115.7 108.345C107.023 108.345 99.9883 101.31 99.9883 92.6332C99.9884 83.9559 107.023 76.9215 115.7 76.9215C124.378 76.9215 131.412 83.9559 131.412 92.6332ZM144.879 92.6332C144.879 76.5181 131.815 63.4542 115.7 63.4542C99.5852 63.4542 86.5211 76.5181 86.521 92.6332C86.521 108.748 99.5852 121.812 115.7 121.812C131.815 121.812 144.879 108.748 144.879 92.6332Z" fill="#486EA1"/>
<path d="M223.888 49.5381C227.607 49.538 230.622 46.5233 230.622 42.8044V6.89141C230.621 3.17259 227.607 0.157799 223.888 0.157738H187.975C184.256 0.157738 181.241 3.17255 181.241 6.89141V42.8044C181.241 46.5233 184.256 49.5381 187.975 49.5381H223.888ZM194.709 13.6251H217.154V36.0707H194.709V13.6251Z" fill="#486EA1"/>
<path d="M43.4257 49.5381C47.1446 49.538 50.1594 46.5233 50.1594 42.8044V6.89141C50.1593 3.17259 47.1445 0.157799 43.4257 0.157738H7.51272C3.79386 0.157738 0.779113 3.17255 0.779053 6.89141V42.8044C0.779053 46.5233 3.79382 49.5381 7.51272 49.5381H43.4257ZM14.2464 13.6251H36.6921V36.0707H14.2464V13.6251Z" fill="#486EA1"/>
<path d="M223.888 230C227.607 230 230.622 226.985 230.622 223.266V187.353C230.621 183.635 227.607 180.62 223.888 180.62H187.975C184.256 180.62 181.241 183.634 181.241 187.353V223.266C181.241 226.985 184.256 230 187.975 230H223.888ZM194.709 194.087H217.154V216.533H194.709V194.087Z" fill="#486EA1"/>
<path d="M43.4257 230C47.1446 230 50.1594 226.985 50.1594 223.266V187.353C50.1593 183.635 47.1445 180.62 43.4257 180.62H7.51272C3.79386 180.62 0.779113 183.634 0.779053 187.353V223.266C0.779053 226.985 3.79382 230 7.51272 230H43.4257ZM14.2464 194.087H36.6921V216.533H14.2464V194.087Z" fill="#486EA1"/>
<path d="M161.727 69.0522C164.357 71.6818 168.62 71.6818 171.25 69.0522L192.736 47.5659C195.366 44.9363 195.366 40.6728 192.736 38.0431C190.106 35.4134 185.843 35.4134 183.213 38.0431L161.727 59.529C159.097 62.1587 159.097 66.4225 161.727 69.0522Z" fill="#486EA1"/>
<path d="M38.6641 192.115C41.2938 194.744 45.5576 194.744 48.1873 192.115L69.6732 170.628C72.3029 167.999 72.3029 163.735 69.6732 161.106C67.0435 158.476 62.7801 158.476 60.1504 161.106L38.6641 182.592C36.0345 185.221 36.0345 189.485 38.6641 192.115Z" fill="#486EA1"/>
<path d="M60.1501 69.0523C62.7797 71.6819 67.0432 71.6818 69.6729 69.0523C72.3025 66.4226 72.3025 62.1588 69.6729 59.5291L48.187 38.0432C45.5573 35.4135 41.2935 35.4135 38.6638 38.0432C36.0343 40.6729 36.0342 44.9364 38.6638 47.566L60.1501 69.0523Z" fill="#486EA1"/>
<path d="M183.213 192.115C185.843 194.744 190.106 194.744 192.736 192.115C195.366 189.485 195.366 185.221 192.736 182.592L171.25 161.106C168.62 158.476 164.356 158.476 161.727 161.106C159.097 163.735 159.097 167.999 161.727 170.628L183.213 192.115Z" fill="#486EA1"/>
</g>
</svg>
