<svg width="103" height="103" viewBox="0 0 103 103" fill="none" xmlns="http://www.w3.org/2000/svg">
<mask id="mask0_8064_1022" style="mask-type:luminance" maskUnits="userSpaceOnUse" x="0" y="0" width="103" height="103">
<path d="M0 -7.62939e-06H103V103H0V-7.62939e-06Z" fill="white"/>
</mask>
<g mask="url(#mask0_8064_1022)">
<path d="M64.8332 96.9546H38.762V95.947C38.7621 88.713 44.5981 82.8488 51.7977 82.8488C58.9971 82.8489 64.8332 88.713 64.8332 95.947V96.9546ZM70.8497 95.947C70.8496 85.3743 62.3199 76.8035 51.7977 76.8035C41.2753 76.8035 32.7456 85.3743 32.7456 95.947V99.9773C32.7456 101.647 34.0924 103 35.7538 103H67.8414C69.5028 103 70.8497 101.647 70.8497 99.9773V95.947Z" fill="#486EA1"/>
<path d="M58.8506 69.6595C58.8506 73.5546 55.693 76.7124 51.7978 76.7124C47.9026 76.7124 44.7448 73.5546 44.7448 69.6595C44.7449 65.7643 47.9026 62.6066 51.7978 62.6066C55.6929 62.6067 58.8506 65.7643 58.8506 69.6595ZM64.896 69.6595C64.896 62.4256 59.0317 56.5613 51.7978 56.5613C44.5639 56.5613 38.6995 62.4256 38.6995 69.6595C38.6995 76.8934 44.5639 82.7578 51.7978 82.7578C59.0317 82.7578 64.896 76.8934 64.896 69.6595Z" fill="#486EA1"/>
<path d="M96.9836 96.9546H70.9124V95.947C70.9125 88.713 76.7487 82.8488 83.9481 82.8488C91.1475 82.8489 96.9836 88.713 96.9836 95.947V96.9546ZM103 95.947C103 85.3743 94.4703 76.8035 83.9481 76.8035C73.4259 76.8035 64.896 85.3743 64.896 95.947V99.9773C64.896 101.647 66.2428 103 67.9042 103H99.9918C101.653 103 103 101.647 103 99.9773V95.947Z" fill="#486EA1"/>
<path d="M32.6831 96.9546H6.6119V95.947C6.61192 88.713 12.4482 82.8488 19.6476 82.8488C26.8469 82.8489 32.683 88.713 32.6831 95.947V96.9546ZM38.6995 95.947C38.6995 85.3743 30.1697 76.8035 19.6476 76.8035C9.12537 76.8035 0.595486 85.3743 0.595459 95.947V99.9773C0.595459 101.647 1.94228 103 3.60368 103H35.6913C37.3527 103 38.6995 101.647 38.6995 99.9773V95.947Z" fill="#486EA1"/>
<path d="M26.7002 69.6595C26.7002 73.5546 23.5426 76.7124 19.6474 76.7124C15.7522 76.7124 12.5944 73.5546 12.5944 69.6595C12.5945 65.7643 15.7523 62.6066 19.6474 62.6066C23.5425 62.6067 26.7002 65.7643 26.7002 69.6595ZM32.7456 69.6595C32.7456 62.4256 26.8813 56.5613 19.6474 56.5613C12.4135 56.5613 6.5491 62.4256 6.54907 69.6595C6.54907 76.8934 12.4135 82.7578 19.6474 82.7578C26.8813 82.7578 32.7456 76.8934 32.7456 69.6595Z" fill="#486EA1"/>
<path d="M55.3289 46.4395C56.9956 46.4394 58.3468 45.0835 58.3468 43.4108V3.02879C58.3468 1.35616 56.9956 0.000171661 55.3289 0.000144958H3.01794C1.35119 0.000144958 2.78423e-05 1.35614 0 3.02879V43.4108C0 45.0835 1.35118 46.4395 3.01794 46.4395H55.3289ZM6.03587 6.05744H52.3109V40.3822H6.03587V6.05744Z" fill="#486EA1"/>
<path d="M12.7999 33.0567C13.9898 34.2298 15.9191 34.2298 17.109 33.0567L23.0795 27.1703L27.019 31.054L27.0752 31.1081C28.2689 32.2268 30.1566 32.2088 31.3279 31.054L45.5468 17.0356C46.7367 15.8625 46.7367 13.9606 45.5468 12.7875C44.3569 11.6143 42.4278 11.6143 41.2379 12.7875L29.1734 24.6818L25.2341 20.7979C24.0442 19.6248 22.115 19.6248 20.9251 20.7979L12.7999 28.8084C11.61 29.9815 11.61 31.8836 12.7999 33.0567Z" fill="#486EA1"/>
<path d="M91.0008 69.6595C91.0008 73.5546 87.8431 76.7124 83.9479 76.7124C80.0528 76.7124 76.895 73.5546 76.895 69.6595C76.895 65.7643 80.0528 62.6066 83.9479 62.6066C87.8431 62.6067 91.0007 65.7643 91.0008 69.6595ZM97.0461 69.6595C97.0461 62.4256 91.1818 56.5613 83.9479 56.5613C76.714 56.5613 70.8496 62.4256 70.8496 69.6595C70.8496 76.8934 76.714 82.7578 83.9479 82.7578C91.1819 82.7578 97.0461 76.8934 97.0461 69.6595Z" fill="#486EA1"/>
<path d="M96.9836 40.3936H70.9124V39.386C70.9125 32.152 76.7487 26.2878 83.9481 26.2878C91.1475 26.2878 96.9836 32.152 96.9836 39.386V40.3936ZM103 39.386C103 28.8132 94.4703 20.2425 83.9481 20.2424C73.4259 20.2424 64.896 28.8132 64.896 39.386V43.4163C64.896 45.0857 66.2428 46.439 67.9042 46.439H99.9918C101.653 46.439 103 45.0857 103 43.4163V39.386Z" fill="#486EA1"/>
<path d="M91.0008 13.0984C91.0008 16.9936 87.8431 20.1514 83.9479 20.1514C80.0528 20.1514 76.895 16.9936 76.895 13.0984C76.895 9.20329 80.0528 6.04561 83.9479 6.04561C87.8431 6.04564 91.0007 9.2033 91.0008 13.0984ZM97.0461 13.0984C97.0461 5.86454 91.1818 0.000272751 83.9479 0.000246048C76.714 0.000246048 70.8496 5.86452 70.8496 13.0984C70.8496 20.3324 76.714 26.1968 83.9479 26.1968C91.1819 26.1968 97.0461 20.3324 97.0461 13.0984Z" fill="#486EA1"/>
<path d="M40.3155 23.1348C40.3155 24.8259 41.6864 26.1968 43.3775 26.1968C45.0685 26.1968 46.4394 24.8259 46.4394 23.1348V14.9697C46.4394 13.2786 45.0685 11.9078 43.3775 11.9078H35.2123C33.5213 11.9078 32.1504 13.2786 32.1504 14.9697C32.1504 16.6607 33.5213 18.0316 35.2123 18.0316H40.3155V23.1348Z" fill="#486EA1"/>
</g>
</svg>
