<svg width="480" height="512" viewBox="0 0 480 512" fill="none" xmlns="http://www.w3.org/2000/svg">
<path d="M400.601 142.467H15C6.716 142.467 0 135.751 0 127.467V79.267C0 53.523 20.795 32.134 47.134 32.134H368.467C394.264 32.134 415.601 52.979 415.601 79.267V127.467C415.601 135.751 408.885 142.467 400.601 142.467Z" fill="#A191F4"/>
<path d="M415.601 127.467V79.267C415.601 52.979 394.265 32.134 368.467 32.134H207.801V142.467H400.601C408.885 142.467 415.601 135.751 415.601 127.467Z" fill="#7662E9"/>
<path d="M368.467 512H47.134C21.336 512 0 491.153 0 464.867V127.467C0 119.183 6.716 112.467 15 112.467H400.601C408.885 112.467 415.601 119.183 415.601 127.467V464.867C415.601 490.612 394.806 512 368.467 512Z" fill="#D3D3D3"/>
<path d="M415.601 464.867V127.467C415.601 119.183 408.885 112.467 400.601 112.467H207.801V512H368.468C394.806 512 415.601 490.612 415.601 464.867Z" fill="#DEDEDE"/>
<path d="M95.334 206.733H79.267C70.983 206.733 64.267 200.017 64.267 191.733C64.267 183.449 70.983 176.733 79.267 176.733H95.334C103.618 176.733 110.334 183.449 110.334 191.733C110.334 200.017 103.619 206.733 95.334 206.733Z" fill="#157EA9"/>
<path d="M175.667 206.733H159.601C151.317 206.733 144.601 200.017 144.601 191.733C144.601 183.449 151.317 176.733 159.601 176.733H175.667C183.951 176.733 190.667 183.449 190.667 191.733C190.667 200.017 183.952 206.733 175.667 206.733Z" fill="#157EA9"/>
<path d="M256 206.733H239.934C231.65 206.733 224.934 200.017 224.934 191.733C224.934 183.449 231.65 176.733 239.934 176.733H256C264.284 176.733 271 183.449 271 191.733C271 200.017 264.285 206.733 256 206.733Z" fill="#0097FF"/>
<path d="M95.334 78.2C87.05 78.2 80.334 71.484 80.334 63.2V15C80.334 6.716 87.05 0 95.334 0C103.618 0 110.334 6.716 110.334 15V63.2C110.334 71.484 103.619 78.2 95.334 78.2Z" fill="#0B3A53"/>
<path d="M320.267 78.2C311.983 78.2 305.267 71.484 305.267 63.2V15C305.267 6.716 311.983 0 320.267 0C328.551 0 335.267 6.716 335.267 15V63.2C335.267 71.484 328.551 78.2 320.267 78.2Z" fill="#15233B"/>
<path d="M336.334 206.733H320.267C311.983 206.733 305.267 200.017 305.267 191.733C305.267 183.449 311.983 176.733 320.267 176.733H336.334C344.618 176.733 351.334 183.449 351.334 191.733C351.334 200.017 344.619 206.733 336.334 206.733Z" fill="#0097FF"/>
<path d="M95.334 335.267H79.267C70.983 335.267 64.267 328.551 64.267 320.267C64.267 311.983 70.983 305.267 79.267 305.267H95.334C103.618 305.267 110.334 311.983 110.334 320.267C110.334 328.551 103.619 335.267 95.334 335.267Z" fill="#157EA9"/>
<path d="M175.667 335.267H159.601C151.317 335.267 144.601 328.551 144.601 320.267C144.601 311.983 151.317 305.267 159.601 305.267H175.667C183.951 305.267 190.667 311.983 190.667 320.267C190.667 328.551 183.952 335.267 175.667 335.267Z" fill="#157EA9"/>
<path d="M95.334 271H79.267C70.983 271 64.267 264.284 64.267 256C64.267 247.716 70.983 241 79.267 241H95.334C103.618 241 110.334 247.716 110.334 256C110.334 264.284 103.619 271 95.334 271Z" fill="#157EA9"/>
<path d="M175.667 271H159.601C151.317 271 144.601 264.284 144.601 256C144.601 247.716 151.317 241 159.601 241H175.667C183.951 241 190.667 247.716 190.667 256C190.667 264.284 183.952 271 175.667 271Z" fill="#157EA9"/>
<path d="M95.334 399.533H79.267C70.983 399.533 64.267 392.817 64.267 384.533C64.267 376.249 70.983 369.533 79.267 369.533H95.334C103.618 369.533 110.334 376.249 110.334 384.533C110.334 392.817 103.619 399.533 95.334 399.533Z" fill="#157EA9"/>
<path d="M175.667 399.533H159.601C151.317 399.533 144.601 392.817 144.601 384.533C144.601 376.249 151.317 369.533 159.601 369.533H175.667C183.951 369.533 190.667 376.249 190.667 384.533C190.667 392.817 183.952 399.533 175.667 399.533Z" fill="#157EA9"/>
<path d="M224.934 367.4H223.868C188.96 367.4 160.668 339.163 160.668 304.2C160.668 269.297 188.906 241 223.868 241H224.934C233.218 241 239.934 247.716 239.934 256V352.4C239.934 360.684 233.218 367.4 224.934 367.4Z" fill="#0B3A53"/>
<path d="M223.868 367.4H224.934C233.218 367.4 239.934 360.684 239.934 352.4V304.2H160.667C160.667 339.162 188.959 367.4 223.868 367.4Z" fill="#15233B"/>
<path d="M285.66 447.733H239.934C231.65 447.733 224.934 441.017 224.934 432.733V367.4C224.934 359.116 231.65 352.4 239.934 352.4H285.66C293.944 352.4 300.66 359.116 300.66 367.4V432.733C300.66 441.018 293.944 447.733 285.66 447.733Z" fill="#15233B"/>
<path d="M300.66 367.4H224.934V241H300.66C308.944 241 315.66 247.716 315.66 256V352.4C315.66 360.684 308.944 367.4 300.66 367.4Z" fill="#00516A"/>
<path d="M300.66 367.4C308.944 367.4 315.66 360.684 315.66 352.4V304.2H224.934V367.4H300.66Z" fill="#0B3A53"/>
<path d="M472.753 162.907C468.33 160.174 462.809 159.926 458.159 162.25L300.66 241V367.4L458.16 446.15C462.813 448.477 468.336 448.224 472.754 445.493C477.177 442.76 479.868 437.932 479.868 432.733V175.667C479.868 170.468 477.176 165.64 472.753 162.907Z" fill="#FF6791"/>
<path d="M458.16 446.15C462.813 448.477 468.336 448.224 472.754 445.493C477.177 442.76 479.868 437.932 479.868 432.733V304.2H300.66V367.4L458.16 446.15Z" fill="#FF3378"/>
</svg>
