<svg width="123" height="123" viewBox="0 0 123 123" fill="none" xmlns="http://www.w3.org/2000/svg">
<path d="M110.687 105.502C132.097 80.8081 124.647 42.4184 95.5298 27.4427C87.1207 11.1586 70.1241 0 50.5693 0C22.6868 0 0.00293023 22.6853 0.00293023 50.5693C0.00293023 62.8451 4.34828 74.4551 12.3118 83.6407L1.07509 94.7299C-1.20232 96.9778 0.375293 100.883 3.58914 100.898L30.725 101.028C40.0761 114.635 55.5239 123 72.4296 123C72.4642 123 119.382 122.76 119.41 122.76C122.613 122.744 124.209 118.846 121.924 116.591L110.687 105.502ZM19.8823 81.2033C11.7103 73.0161 7.20947 62.1366 7.20947 50.5693C7.20947 26.6593 26.6607 7.20703 50.5693 7.20703C74.4779 7.20703 93.9291 26.6593 93.9291 50.5693C93.9291 73.4812 75.798 94.1164 49.1632 93.9083L12.3454 93.733L19.8631 86.314C21.2848 84.9106 21.2932 82.6171 19.8823 81.2033ZM72.4296 115.793C59.7852 115.793 48.0322 110.39 39.8623 101.071C53.5806 101.161 49.9389 101.139 50.5693 101.139C83.0975 101.139 107.386 70.6267 99.7426 38.7697C119.674 55.0514 121.306 84.8417 103.117 103.065C101.706 104.478 101.714 106.772 103.136 108.175L110.654 115.594C110.625 115.594 72.4575 115.793 72.4296 115.793Z" fill="#486EA1"/>
<path d="M29.5714 40H72.4286C74.4011 40 76 38.2091 76 36C76 33.7909 74.4011 32 72.4286 32H29.5714C27.5989 32 26 33.7909 26 36C26 38.2091 27.5991 40 29.5714 40Z" fill="#486EA1"/>
<path d="M29.5714 54H72.4286C74.4011 54 76 52.4329 76 50.5C76 48.5671 74.4011 47 72.4286 47H29.5714C27.5989 47 26 48.5671 26 50.5C26 52.4329 27.5991 54 29.5714 54Z" fill="#486EA1"/>
<path d="M29.5714 69H72.4286C74.4011 69 76 67.4329 76 65.5C76 63.5671 74.4011 62 72.4286 62H29.5714C27.5989 62 26 63.5671 26 65.5C26 67.4329 27.5991 69 29.5714 69Z" fill="#486EA1"/>
</svg>
