<svg width="555" height="556" viewBox="0 0 555 556" fill="none" xmlns="http://www.w3.org/2000/svg">
<g clip-path="url(#clip0_8079_149)">
<path d="M500.64 234.807H379.555C332.893 182.772 369.859 99.3093 440.098 99.3093C510.408 99.3093 547.243 182.844 500.64 234.807Z" fill="#FCBE29"/>
<path d="M500.64 234.807H440.098V99.3093C510.358 99.3093 547.251 182.763 500.64 234.807Z" fill="#FE9022"/>
<path d="M520.668 462.444H361.272L390.692 256.487H491.642L520.668 462.444Z" fill="#FCBE29"/>
<path d="M520.668 462.444H440.098V256.487H491.642C493.285 268.233 519.085 451.126 520.668 462.444Z" fill="#FE9022"/>
<path d="M196.201 50.53C196.201 59.5068 188.918 66.7898 179.941 66.7898H163.682V104.729H131.162V66.7898H114.902C105.926 66.7898 98.6426 59.5068 98.6426 50.53C98.6426 41.5533 105.926 34.2703 114.902 34.2703H131.162V16.9265C131.162 7.94977 138.445 0.666748 147.422 0.666748C156.399 0.666748 163.682 7.94977 163.682 16.9265V34.2703H179.941C188.918 34.2703 196.201 41.5533 196.201 50.53Z" fill="#165771"/>
<path d="M196.201 50.53C196.201 59.5068 188.918 66.7898 179.941 66.7898H163.682V104.729H147.422V0.666748C156.399 0.666748 163.682 7.94977 163.682 16.9265V34.2703H179.941C188.918 34.2703 196.201 41.5533 196.201 50.53Z" fill="#0C3F60"/>
<path d="M228.805 409.329H228.263C217.665 401.817 204.733 397.405 190.781 397.405H104.194C90.915 397.405 78.5465 401.406 68.2275 408.258L66.123 408.245L81.2141 256.487H213.63L228.805 409.329Z" fill="#1C6C94"/>
<path d="M228.805 409.329H228.263C217.665 401.817 204.733 397.405 190.781 397.405H147.422V256.487H213.63L228.805 409.329Z" fill="#165771"/>
<path d="M537.656 457.024H342.539C333.558 457.024 326.279 464.303 326.279 473.284V539.407C326.279 548.388 333.558 555.667 342.539 555.667H537.656C546.637 555.667 553.916 548.388 553.916 539.407V473.284C553.916 464.303 546.637 457.024 537.656 457.024Z" fill="#FE9022"/>
<path d="M553.916 473.284V539.407C553.916 548.384 546.633 555.667 537.656 555.667H440.098V457.024H537.656C546.633 457.024 553.916 464.307 553.916 473.284Z" fill="#FD6328"/>
<path d="M521.396 229.387H358.799C349.818 229.387 342.539 236.666 342.539 245.647C342.539 254.628 349.818 261.907 358.799 261.907H521.396C530.377 261.907 537.656 254.628 537.656 245.647C537.656 236.666 530.377 229.387 521.396 229.387Z" fill="#FE9022"/>
<path d="M537.656 245.647C537.656 254.624 530.373 261.907 521.396 261.907H440.098V229.387H521.396C530.373 229.387 537.656 236.67 537.656 245.647Z" fill="#FD6328"/>
<path d="M190.781 391.985H104.19C65.2804 391.985 33.684 423.493 33.6247 462.444H261.24C261.24 423.552 229.716 391.985 190.781 391.985Z" fill="#165771"/>
<path d="M261.24 462.444H147.422V391.985H190.781C229.673 391.985 261.24 423.51 261.24 462.444Z" fill="#0C3F60"/>
<path d="M228.234 119.515L215.671 169.768H79.1732L66.61 119.515C64.0355 109.209 71.8648 99.3093 82.3828 99.3093H212.461C223 99.3093 230.804 109.226 228.234 119.515Z" fill="#1C6C94"/>
<path d="M228.234 119.515C213.507 178.415 217.83 161.13 215.671 169.768H147.422V99.3093H212.461C222.996 99.3093 230.804 109.226 228.234 119.515Z" fill="#165771"/>
<path d="M212.461 164.348H82.3828C55.4441 164.348 33.6035 186.189 33.6035 213.128C33.6035 240.066 55.4441 261.907 82.3828 261.907H212.461C239.4 261.907 261.24 240.066 261.24 213.128C261.24 186.189 239.4 164.348 212.461 164.348Z" fill="#165771"/>
<path d="M261.24 213.128C261.24 240.066 239.4 261.907 212.461 261.907H147.422V164.348H212.461C239.4 164.348 261.24 186.189 261.24 213.128Z" fill="#0C3F60"/>
<path d="M277.5 457.024H17.3438C8.36277 457.024 1.08398 464.303 1.08398 473.284V539.407C1.08398 548.388 8.36277 555.667 17.3438 555.667H277.5C286.481 555.667 293.76 548.388 293.76 539.407V473.284C293.76 464.303 286.481 457.024 277.5 457.024Z" fill="#1C6C94"/>
<path d="M293.76 473.284V539.407C293.76 548.384 286.477 555.667 277.5 555.667H147.422V457.024H277.5C286.477 457.024 293.76 464.307 293.76 473.284Z" fill="#165771"/>
</g>
<defs>
<clipPath id="clip0_8079_149">
<rect width="555" height="555" fill="white" transform="translate(0 0.666748)"/>
</clipPath>
</defs>
</svg>
