<svg width="292" height="292" viewBox="0 0 292 292" fill="none" xmlns="http://www.w3.org/2000/svg">
<path d="M292 194.427V286.39C292 289.489 289.487 292 286.388 292H234.822L226.115 245.665L234.822 194.427C234.822 191.064 237.549 188.339 240.912 188.339H285.91C289.273 188.339 292 191.065 292 194.427Z" fill="#FF4150"/>
<path d="M234.821 140.228V292H177.002L169.274 207.117L177.644 140.228C177.644 136.866 180.37 134.14 183.733 134.14H228.732C232.095 134.14 234.821 136.866 234.821 140.228Z" fill="#FDC54E"/>
<path d="M0 194.426V286.39C0 289.488 2.51279 292 5.61187 292H57.1783L65.8859 245.664L57.1783 194.426C57.1783 191.064 54.4517 188.338 51.0885 188.338H6.08979C2.72666 188.338 0 191.064 0 194.426Z" fill="#FF6355"/>
<path d="M57.1784 140.228V292H114.357L122.726 207.117L114.357 140.228C114.357 136.866 111.63 134.14 108.267 134.14H63.2687C59.905 134.14 57.1784 136.866 57.1784 140.228Z" fill="#FCDB5A"/>
<path d="M205.155 46.33L149.658 1.47269C147.228 -0.491466 143.755 -0.490896 141.326 1.4744L86.7467 45.6274C81.8934 49.5534 84.6708 57.3969 90.914 57.3969H112.388C113.474 57.3969 114.356 58.2775 114.356 59.3639V292H177.001V60.0682C177.001 58.9818 177.883 58.1012 178.969 58.1012H200.99C207.234 58.1012 210.011 50.2549 205.155 46.33Z" fill="#A7D35F"/>
<path d="M205.155 46.3136L149.658 1.45625C148.553 0.563142 147.232 0.0806581 145.892 0.000244141V292H177.001V60.0518C177.001 58.9654 177.883 58.0848 178.969 58.0848H200.99C207.234 58.0848 210.011 50.2384 205.155 46.3136Z" fill="#76C528"/>
</svg>
