<svg width="112" height="112" viewBox="0 0 112 112" fill="none" xmlns="http://www.w3.org/2000/svg">
<mask id="mask0_8064_622" style="mask-type:luminance" maskUnits="userSpaceOnUse" x="0" y="0" width="112" height="112">
<path d="M0 0H112V112H0V0Z" fill="white"/>
</mask>
<g mask="url(#mask0_8064_622)">
<path d="M78.9264 31.1946C78.9264 33.0627 77.4119 34.5771 75.5438 34.5771C73.6757 34.5771 72.1613 33.0627 72.1613 31.1946C72.1613 29.3265 73.6757 27.812 75.5438 27.812C77.4119 27.812 78.9264 29.3265 78.9264 31.1946Z" fill="#486EA1"/>
<path d="M96.4245 105.382H15.5755V103.838C15.5755 100.792 18.0211 98.3227 21.0382 98.3227H90.9618C93.9787 98.3227 96.4245 100.792 96.4245 103.838V105.382ZM102.98 103.838C102.98 97.137 97.5991 91.7047 90.9618 91.7047H21.0382C14.4006 91.7047 9.02014 97.1371 9.02014 103.838V108.691C9.02014 110.519 10.4876 112 12.2978 112H99.7022C101.512 112 102.98 110.519 102.98 108.691V103.838Z" fill="#486EA1"/>
<path d="M87.388 91.7046H23.8605V90.5771C23.8605 87.4636 26.3123 84.9396 29.337 84.9395H81.9114C84.9359 84.9395 87.388 87.4636 87.388 90.5771V91.7046ZM93.9598 90.5771C93.9598 83.7274 88.5654 78.1744 81.9114 78.1744H29.337C22.6827 78.1745 17.2887 83.7274 17.2887 90.5771V95.0872C17.2887 96.9553 18.7598 98.4697 20.5746 98.4697H90.6739C92.4887 98.4697 93.9598 96.9553 93.9598 95.0872V90.5771Z" fill="#486EA1"/>
<path d="M74.216 78.4056H36.4918C36.1278 76.9229 35.6618 74.7872 35.256 72.1843C34.4333 66.9078 33.8734 59.807 34.856 52.3726C35.8376 44.9461 38.3407 37.3082 43.542 30.7882C48.6745 24.3545 56.6115 18.7847 68.8769 15.6569L69.1675 15.5835L69.2571 15.5596C69.7035 15.4342 70.1184 15.2148 70.4739 14.9156L75.9851 10.2777V18.9479C75.9851 19.7122 76.2525 20.4522 76.7409 21.0393L96.2067 44.4424L96.2068 44.4426C96.527 44.8274 96.5424 45.3797 96.2497 45.7812L96.2204 45.8197L91.9384 51.1825C91.6183 51.5832 91.0618 51.7058 90.6033 51.4761L90.6032 51.4763L75.1843 43.752L75.1842 43.7519C72.0565 42.1853 68.2864 42.7315 65.7298 45.1219C65.7244 45.127 65.7191 45.1322 65.7137 45.1373C62.2307 48.411 62.183 53.939 65.6133 57.2724L65.6174 57.2763C71.1138 62.6196 74.216 69.9652 74.216 77.6382V78.4056ZM80.7375 77.6382C80.7375 68.1958 76.9191 59.1563 70.154 52.5822C70.1529 52.5812 70.1517 52.5802 70.1507 52.5792C69.3951 51.8416 69.4079 50.6204 70.1795 49.8988C70.1804 49.898 70.1812 49.8971 70.182 49.8963C70.7467 49.3703 71.5779 49.2505 72.2678 49.5961L87.6871 57.3204C90.8958 58.9275 94.7896 58.0708 97.0308 55.264L101.313 49.9014C103.571 47.0731 103.531 43.0426 101.216 40.2597L101.217 40.2595L82.5066 17.7653V3.26676C82.5066 1.99683 81.772 0.842041 80.6231 0.305649C79.4741 -0.230736 78.119 -0.05159 77.1485 0.765221L66.8485 9.43353C53.594 12.8944 44.5 19.1223 38.4477 26.7091C32.3122 34.4001 29.4819 43.2602 28.3908 51.5147C27.3008 59.7615 27.929 67.5252 28.8126 73.1928C29.2559 76.0359 29.7672 78.3755 30.1711 80.0152C30.3731 80.8355 30.5487 81.4824 30.6759 81.9311C30.7396 82.1555 30.7911 82.3305 30.828 82.4531C30.8464 82.5143 30.8611 82.5626 30.8718 82.5973C30.8771 82.6146 30.8815 82.6286 30.8848 82.6392C30.8865 82.6445 30.8878 82.6489 30.889 82.6525C30.8895 82.6542 30.8903 82.6562 30.8906 82.6571C30.8911 82.6589 30.8916 82.6606 33.9996 81.6725L30.8915 82.6606C31.3213 84.0175 32.5787 84.9394 33.9996 84.9395H77.4768C79.2776 84.9394 80.7375 83.4768 80.7375 81.6725V77.6382Z" fill="#486EA1"/>
<path d="M29.3787 66.6335C31.0439 67.3466 32.9723 66.5759 33.686 64.9119C34.3996 63.2479 33.6283 61.3208 31.9631 60.6076L20.9395 55.8867C21.4312 47.4799 23.3393 38.3607 27.9576 29.905L28.1995 29.4672V29.467C30.8181 24.781 34.0552 20.6546 37.8925 17.0795C45.6035 9.89532 57.4144 9.09324 66.3224 14.965C67.8347 15.9618 69.8694 15.5448 70.8669 14.0336C71.8645 12.5224 71.4472 10.4891 69.9349 9.49221C58.6064 2.02505 43.4387 2.94859 33.4185 12.2843C29.0766 16.3295 25.4183 20.9969 22.4712 26.2708C16.598 36.7806 14.5818 48.0631 14.2834 57.9074C14.2426 59.2542 15.0307 60.4888 16.27 61.0196L29.3787 66.6335Z" fill="#486EA1"/>
</g>
</svg>
