<svg width="376" height="380" viewBox="0 0 376 380" fill="none" xmlns="http://www.w3.org/2000/svg">
<path d="M375.954 174.688C375.954 193.413 368.379 210.372 356.112 222.618C343.844 234.908 326.907 242.482 308.182 242.482H67.7725C30.3446 242.482 0 212.138 0 174.688C0 155.985 7.59735 139.025 19.8423 126.758C29.2498 117.373 41.4277 110.715 55.0357 108.144C54.9689 107.005 54.9241 105.843 54.9241 104.681C54.9241 74.4476 79.4365 49.9358 109.669 49.9358C115.658 49.9358 121.423 50.8971 126.83 52.7071C141.153 21.7144 172.525 0.218262 208.903 0.218262C258.822 0.218262 299.288 40.6847 299.288 90.6041C299.288 96.1674 298.775 101.619 297.814 106.916H308.182C345.61 106.916 375.954 137.26 375.954 174.688Z" fill="#30A3F0"/>
<path d="M376 174.722C376 193.4 368.422 210.377 356.144 222.654C343.868 234.933 326.951 242.508 308.21 242.508H284.713C303.453 242.508 320.371 234.933 332.647 222.654C344.925 210.377 352.503 193.4 352.503 174.722C352.503 137.241 322.133 106.932 284.713 106.932H274.316C275.315 101.643 275.784 96.1817 275.784 90.5999C275.784 44.6038 241.479 6.71643 197.069 1.01712C200.946 0.489351 204.881 0.25415 208.936 0.25415C258.867 0.25415 299.281 40.6685 299.281 90.5999C299.281 96.1817 298.812 101.643 297.813 106.932H308.21C345.63 106.932 376 137.241 376 174.722Z" fill="#07D6FF"/>
<path opacity="0.28" d="M115.44 102.539C105.63 112.349 92.9986 115.636 87.2416 109.94C81.5433 104.182 84.8335 91.5525 94.6437 81.7423C104.454 71.9321 117.085 68.6391 122.842 74.3388C128.541 80.0958 125.25 92.6684 115.44 102.539Z" fill="white"/>
<path d="M188.002 332.817C240.647 332.817 283.324 316.339 283.324 296.012C283.324 275.685 240.647 259.207 188.002 259.207C135.357 259.207 92.6798 275.685 92.6798 296.012C92.6798 316.339 135.357 332.817 188.002 332.817Z" fill="#435E88"/>
<path d="M283.324 296.014V342.411C283.324 362.721 240.665 379.218 188.002 379.218C135.376 379.218 92.6798 362.721 92.6798 342.411V296.014C92.6798 316.324 135.376 332.822 188.002 332.822C240.665 332.822 283.324 316.324 283.324 296.014Z" fill="#E5E8EF"/>
<path d="M262.523 350.187C267.782 350.187 272.046 345.924 272.046 340.664C272.046 335.405 267.782 331.142 262.523 331.142C257.264 331.142 253 335.405 253 340.664C253 345.924 257.264 350.187 262.523 350.187Z" fill="#C175FF"/>
<path d="M272.059 340.636C272.059 345.895 267.802 350.152 262.544 350.152C259.498 350.152 256.786 348.734 255.074 346.48C259.414 342.806 265.173 337.924 269.597 334.252C271.099 335.921 272.059 338.175 272.059 340.636Z" fill="#B244F1"/>
<path d="M234.126 359.697C239.385 359.697 243.649 355.434 243.649 350.174C243.649 344.915 239.385 340.652 234.126 340.652C228.867 340.652 224.603 344.915 224.603 350.174C224.603 355.434 228.867 359.697 234.126 359.697Z" fill="#FFD80C"/>
<path d="M243.662 350.165C243.662 355.424 239.406 359.681 234.147 359.681C231.101 359.681 228.389 358.263 226.677 356.009C231.017 352.335 236.776 347.453 241.2 343.781C242.703 345.45 243.662 347.703 243.662 350.165Z" fill="#FFBE00"/>
<path d="M188.002 259.579C240.647 259.579 283.324 243.101 283.324 222.774C283.324 202.448 240.647 185.969 188.002 185.969C135.357 185.969 92.6798 202.448 92.6798 222.774C92.6798 243.101 135.357 259.579 188.002 259.579Z" fill="#435E88"/>
<path d="M283.324 222.777V269.174C283.324 289.484 240.665 305.981 188.002 305.981C135.376 305.981 92.6798 289.484 92.6798 269.174V222.777C92.6798 243.087 135.376 259.585 188.002 259.585C240.665 259.585 283.324 243.087 283.324 222.777Z" fill="#E5E8EF"/>
<path d="M262.523 276.932C267.782 276.932 272.046 272.669 272.046 267.41C272.046 262.15 267.782 257.887 262.523 257.887C257.264 257.887 253 262.15 253 267.41C253 272.669 257.264 276.932 262.523 276.932Z" fill="#C175FF"/>
<path d="M272.059 267.399C272.059 272.658 267.802 276.915 262.544 276.915C259.498 276.915 256.786 275.497 255.074 273.243C259.414 269.569 265.173 264.687 269.597 261.015C271.099 262.684 272.059 264.937 272.059 267.399Z" fill="#B244F1"/>
<path d="M234.126 286.46C239.385 286.46 243.649 282.197 243.649 276.937C243.649 271.678 239.385 267.415 234.126 267.415C228.867 267.415 224.603 271.678 224.603 276.937C224.603 282.197 228.867 286.46 234.126 286.46Z" fill="#FFD80C"/>
<path d="M243.662 276.91C243.662 282.169 239.406 286.426 234.147 286.426C231.101 286.426 228.389 285.007 226.677 282.754C231.017 279.08 236.776 274.197 241.2 270.525C242.703 272.194 243.662 274.448 243.662 276.91Z" fill="#FFBE00"/>
<path d="M188.002 186.32C240.647 186.32 283.324 169.842 283.324 149.515C283.324 129.189 240.647 112.711 188.002 112.711C135.357 112.711 92.6798 129.189 92.6798 149.515C92.6798 169.842 135.357 186.32 188.002 186.32Z" fill="#435E88"/>
<path d="M283.324 149.519V195.915C283.324 216.225 240.665 232.723 188.002 232.723C135.376 232.723 92.6798 216.225 92.6798 195.915V149.519C92.6798 169.828 135.376 186.326 188.002 186.326C240.665 186.326 283.324 169.828 283.324 149.519Z" fill="#E5E8EF"/>
<path d="M262.523 203.691C267.782 203.691 272.046 199.427 272.046 194.168C272.046 188.909 267.782 184.645 262.523 184.645C257.264 184.645 253 188.909 253 194.168C253 199.427 257.264 203.691 262.523 203.691Z" fill="#C175FF"/>
<path d="M272.059 194.14C272.059 199.399 267.802 203.656 262.544 203.656C259.498 203.656 256.786 202.238 255.074 199.984C259.414 196.31 265.173 191.428 269.597 187.756C271.099 189.424 272.059 191.678 272.059 194.14Z" fill="#B244F1"/>
<path d="M234.126 213.219C239.385 213.219 243.649 208.956 243.649 203.697C243.649 198.437 239.385 194.174 234.126 194.174C228.867 194.174 224.603 198.437 224.603 203.697C224.603 208.956 228.867 213.219 234.126 213.219Z" fill="#FFD80C"/>
<path d="M243.662 203.686C243.662 208.945 239.406 213.202 234.147 213.202C231.101 213.202 228.389 211.784 226.677 209.53C231.017 205.856 236.776 200.974 241.2 197.302C242.703 198.971 243.662 201.225 243.662 203.686Z" fill="#FFBE00"/>
</svg>
