<svg width="371" height="371" viewBox="0 0 371 371" fill="none" xmlns="http://www.w3.org/2000/svg">
<path d="M325.713 0H88.7661L51.4603 130.274L88.7661 307.311C88.7661 307.311 336.582 322.363 336.582 316.654V10.8691C336.582 4.86648 331.715 0 325.713 0Z" fill="#4793FF"/>
<path d="M325.713 0H212.674V314.124C274.628 317.173 336.582 319.509 336.582 316.654V10.8691C336.582 4.86648 331.715 0 325.713 0Z" fill="#525CDD"/>
<path d="M88.7663 0H67.0273C49.0476 0 34.4199 14.6277 34.4199 32.6074V338.886C34.4199 340.697 88.7663 307.312 88.7663 307.312V0Z" fill="#7DD5F4"/>
<path fill-rule="evenodd" clip-rule="evenodd" d="M319.491 360.131H67.0249C55.0732 360.131 45.2866 350.349 45.2866 338.393C45.2866 326.437 55.0689 316.654 67.0249 316.654H319.49L319.491 360.131Z" fill="#F0F5FA"/>
<path fill-rule="evenodd" clip-rule="evenodd" d="M212.674 316.654H319.491V360.131H212.674V316.654Z" fill="#D7E3F0"/>
<path d="M325.712 371H67.0249C49.0459 371 34.4182 356.372 34.4182 338.393C34.4182 320.413 49.0459 305.785 67.0249 305.785H325.712C331.715 305.785 336.581 310.652 336.581 316.654C336.581 322.657 331.715 327.523 325.712 327.523H67.0249C61.0317 327.523 56.1565 332.399 56.1565 338.393C56.1565 344.386 61.0324 349.262 67.0249 349.262H325.712C331.715 349.262 336.581 354.128 336.581 360.131C336.581 366.134 331.715 371 325.712 371Z" fill="#525CDD"/>
<path d="M297.171 132.775C296.543 130.128 294.178 128.262 291.462 128.262C291.402 128.262 291.339 128.263 291.277 128.262C283.836 128.262 276.939 124.309 273.25 117.919C269.54 111.493 269.587 103.486 273.372 97.0223C274.752 94.6666 274.325 91.6703 272.341 89.7943C262.485 80.4722 250.436 73.508 237.494 69.6545C234.873 68.8741 232.067 70.0045 230.718 72.3791C227.014 78.8962 220.1 82.9453 212.674 82.9453C205.249 82.9453 198.335 78.8969 194.632 72.3798C193.283 70.0052 190.473 68.8749 187.855 69.6545C174.921 73.5058 162.871 80.4715 153.011 89.798C151.028 91.674 150.6 94.6688 151.979 97.0245C155.761 103.488 155.808 111.494 152.098 117.919C148.408 124.308 141.511 128.262 134.071 128.262C134.009 128.262 133.944 128.261 133.886 128.261C131.169 128.261 128.804 130.128 128.176 132.775C126.619 139.34 125.829 146.109 125.829 152.893C125.829 159.674 126.619 166.443 128.177 173.011C128.805 175.658 131.17 177.524 133.886 177.524C133.947 177.525 134.009 177.524 134.071 177.524C141.511 177.524 148.409 181.477 152.098 187.867C155.808 194.292 155.761 202.299 151.976 208.764C150.596 211.12 151.024 214.116 153.007 215.992C162.864 225.314 174.913 232.279 187.854 236.132C190.475 236.912 193.282 235.782 194.63 233.407C198.334 226.89 205.247 222.841 212.673 222.841C220.099 222.841 227.012 226.889 230.716 233.407C231.78 235.279 233.75 236.376 235.818 236.376C236.374 236.376 236.938 236.297 237.492 236.131C250.426 232.28 262.475 225.314 272.336 215.987C274.319 214.111 274.747 211.116 273.368 208.76C269.586 202.297 269.539 194.291 273.249 187.866C276.938 181.476 283.835 177.524 291.277 177.524C291.338 177.524 291.397 177.525 291.462 177.524C294.178 177.524 296.542 175.658 297.17 173.012C298.728 166.451 299.517 159.683 299.517 152.893C299.518 146.108 298.728 139.34 297.171 132.775Z" fill="#F0F5FA"/>
<path d="M297.171 132.775C296.543 130.128 294.178 128.261 291.462 128.261C291.402 128.262 291.339 128.262 291.277 128.262C283.836 128.262 276.939 124.308 273.25 117.919C269.54 111.492 269.587 103.485 273.372 97.0216C274.752 94.6659 274.325 91.6696 272.34 89.7936C262.485 80.4715 250.435 73.5073 237.494 69.6538C234.872 68.8734 232.066 70.0038 230.717 72.3783C227.013 78.8955 220.099 82.9446 212.674 82.9446V222.839C220.099 222.839 227.013 226.888 230.717 233.405C231.781 235.277 233.75 236.375 235.818 236.375C236.375 236.375 236.939 236.295 237.493 236.13C250.426 232.279 262.476 225.313 272.336 215.986C274.32 214.11 274.748 211.115 273.369 208.759C269.587 202.296 269.54 194.29 273.249 187.864C276.938 181.475 283.835 177.522 291.277 177.522C291.338 177.523 291.397 177.523 291.462 177.523C294.178 177.522 296.542 175.657 297.17 173.011C298.728 166.45 299.517 159.681 299.517 152.892C299.518 146.108 298.728 139.34 297.171 132.775Z" fill="#D7E3F0"/>
<path d="M212.674 188.197C206.671 188.197 201.804 183.331 201.804 177.328V159.252C201.804 153.25 206.671 148.383 212.674 148.383C218.676 148.383 223.543 153.25 223.543 159.252V177.328C223.543 183.331 218.677 188.197 212.674 188.197Z" fill="#7DD5F4"/>
<path d="M212.674 139.326C218.677 139.326 223.543 134.459 223.543 128.457C223.543 122.454 218.677 117.587 212.674 117.587C206.671 117.587 201.805 122.454 201.805 128.457C201.805 134.459 206.671 139.326 212.674 139.326Z" fill="#7DD5F4"/>
<path d="M212.674 117.587V139.326C218.677 139.326 223.543 134.459 223.543 128.457C223.543 122.454 218.677 117.587 212.674 117.587Z" fill="#4793FF"/>
<path d="M212.674 148.384V188.198C218.677 188.198 223.543 183.331 223.543 177.329V159.253C223.543 153.25 218.677 148.384 212.674 148.384Z" fill="#4793FF"/>
<path d="M212.674 327.523H325.712C331.715 327.523 336.581 322.657 336.581 316.654C336.581 310.652 331.715 305.785 325.712 305.785H212.674V327.523Z" fill="#00429D"/>
<path d="M325.712 349.262H212.674V371H325.712C331.715 371 336.581 366.134 336.581 360.131C336.581 354.128 331.715 349.262 325.712 349.262Z" fill="#00429D"/>
</svg>
