<svg width="112" height="112" viewBox="0 0 112 112" fill="none" xmlns="http://www.w3.org/2000/svg">
<path d="M73.4605 52.0112V13.125C73.4605 9.50059 70.5327 6.5625 66.921 6.5625H13.079C9.46731 6.5625 6.53951 9.50059 6.53951 13.125V98.875C6.53951 102.499 9.46731 105.438 13.079 105.438H66.921C68.0476 105.438 69.0987 105.154 70.0172 104.658C71.6069 103.798 73.59 104.394 74.4467 105.989C75.3034 107.585 74.7093 109.575 73.1197 110.435C71.2716 111.434 69.1574 112 66.921 112H13.079C5.85564 112 0 106.124 0 98.875V13.125C0 5.87622 5.85564 0 13.079 0H66.921C74.1444 0 80 5.87622 80 13.125V52.0112C80 53.8234 78.5361 55.2925 76.7302 55.2925C74.9244 55.2925 73.4605 53.8234 73.4605 52.0112Z" fill="#486EA1"/>
<path d="M64.6929 14C66.5194 14 68 15.4924 68 17.3333V38.6667C68 40.5076 66.5194 42 64.6929 42H15.3071C13.4806 42 12 40.5076 12 38.6667V17.3333C12 15.4924 13.4806 14 15.3071 14H64.6929ZM18.6142 35.3333H61.3858V20.6667H18.6142V35.3333Z" fill="#486EA1"/>
<path d="M22.6129 49C24.4835 49 26 50.567 26 52.5C26 54.433 24.4835 56 22.6129 56H15.3871C13.5165 56 12 54.433 12 52.5C12 50.567 13.5165 49 15.3871 49H22.6129Z" fill="#486EA1"/>
<path d="M43.6129 49C45.4835 49 47 50.567 47 52.5C47 54.433 45.4835 56 43.6129 56H36.3871C34.5165 56 33 54.433 33 52.5C33 50.567 34.5165 49 36.3871 49H43.6129Z" fill="#486EA1"/>
<path d="M64.6129 49C66.4835 49 68 50.567 68 52.5C68 54.433 66.4835 56 64.6129 56H57.3871C55.5165 56 54 54.433 54 52.5C54 50.567 55.5165 49 57.3871 49H64.6129Z" fill="#486EA1"/>
<path d="M22.6129 63C24.4835 63 26 64.567 26 66.5C26 68.433 24.4835 70 22.6129 70H15.3871C13.5165 70 12 68.433 12 66.5C12 64.567 13.5165 63 15.3871 63H22.6129Z" fill="#486EA1"/>
<path d="M43.6129 63C45.4835 63 47 64.567 47 66.5C47 68.433 45.4835 70 43.6129 70H36.3871C34.5165 70 33 68.433 33 66.5C33 64.567 34.5165 63 36.3871 63H43.6129Z" fill="#486EA1"/>
<path d="M22.6129 77C24.4835 77 26 78.567 26 80.5C26 82.433 24.4835 84 22.6129 84H15.3871C13.5165 84 12 82.433 12 80.5C12 78.567 13.5165 77 15.3871 77H22.6129Z" fill="#486EA1"/>
<path d="M43.6129 77C45.4835 77 47 78.567 47 80.5C47 82.433 45.4835 84 43.6129 84H36.3871C34.5165 84 33 82.433 33 80.5C33 78.567 34.5165 77 36.3871 77H43.6129Z" fill="#486EA1"/>
<path d="M22.6129 91C24.4835 91 26 92.567 26 94.5C26 96.433 24.4835 98 22.6129 98H15.3871C13.5165 98 12 96.433 12 94.5C12 92.567 13.5165 91 15.3871 91H22.6129Z" fill="#486EA1"/>
<path d="M43.6129 91C45.4835 91 47 92.567 47 94.5C47 96.433 45.4835 98 43.6129 98H36.3871C34.5165 98 33 96.433 33 94.5C33 92.567 34.5165 91 36.3871 91H43.6129Z" fill="#486EA1"/>
<path d="M105.438 80.5C105.438 66.7274 94.2726 55.5625 80.5 55.5625C66.7274 55.5625 55.5625 66.7274 55.5625 80.5C55.5625 94.2726 66.7274 105.438 80.5 105.438C94.2726 105.438 105.438 94.2726 105.438 80.5ZM112 80.5C112 97.897 97.897 112 80.5 112C63.103 112 49 97.897 49 80.5C49 63.103 63.103 49 80.5 49C97.897 49 112 63.103 112 80.5Z" fill="#486EA1"/>
<path d="M77.5126 65.4851C80.3423 64.6234 82.7555 65.0423 84.4624 65.7149C85.3016 66.0456 85.9656 66.4344 86.4347 66.7532C86.6706 66.9135 86.8614 67.0589 87.0048 67.1751C87.0767 67.2333 87.1372 67.2845 87.1859 67.327C87.2102 67.3482 87.2317 67.3674 87.2503 67.3841C87.2595 67.3925 87.2682 67.4002 87.276 67.4073C87.2799 67.4109 87.2835 67.4144 87.287 67.4177C87.2888 67.4193 87.2906 67.421 87.2923 67.4226C87.2932 67.4234 87.2945 67.4244 87.2949 67.4247C87.2961 67.4259 87.2966 67.4279 85.1655 69.764L87.2972 67.4271C88.6223 68.6626 88.7058 70.7503 87.4838 72.0899C86.2808 73.4086 84.2612 73.5109 82.9344 72.3353L82.8764 72.2826C82.878 72.284 82.8794 72.2856 82.8809 72.2869C82.8838 72.2896 82.8866 72.292 82.8892 72.2944C82.8945 72.2993 82.8992 72.3037 82.9034 72.3076C82.9119 72.3152 82.9183 72.3208 82.9225 72.3245C82.931 72.3319 82.9315 72.3319 82.9242 72.326C82.9093 72.3139 82.8647 72.2789 82.7931 72.2302C82.6474 72.1311 82.4076 71.9883 82.0919 71.8639C81.489 71.6264 80.587 71.4411 79.3953 71.804C78.8731 71.963 78.4256 72.4345 78.2597 73.1675C78.1796 73.5217 78.1976 73.8285 78.2529 74.0337C78.2792 74.1312 78.31 74.192 78.3305 74.2249C78.3495 74.2554 78.3625 74.2664 78.3679 74.2706L78.4612 74.343C79.447 75.0911 81.1268 75.8653 83.9718 76.8821C86.3549 77.7337 88.1182 79.3153 89.1085 81.3385C90.076 83.3152 90.2044 85.5014 89.7415 87.4694C88.822 91.3777 85.399 94.9649 80.3759 94.9987H80.3757C79.053 95.0075 77.7472 94.9804 76.4081 94.6459C75.0156 94.2982 73.7981 93.6765 72.4775 92.8032C70.9691 91.8055 70.5461 89.7604 71.5328 88.2353C72.5196 86.7103 74.5423 86.2826 76.0507 87.2802C77.0107 87.915 77.5401 88.1307 77.9735 88.2389C78.4602 88.3605 79.0592 88.4079 80.3325 88.3994L80.4836 88.3951C82.0303 88.3196 83.0834 87.2492 83.3909 85.9422C83.5463 85.2815 83.4686 84.6957 83.2581 84.2655C83.0702 83.8817 82.6832 83.4212 81.7966 83.1043H81.7964C78.9806 82.098 76.4145 81.0458 74.5206 79.6042L74.3393 79.4634C71.8067 77.4551 71.3279 74.2078 71.8966 71.6953C72.485 69.0957 74.3421 66.4506 77.5126 65.4851Z" fill="#486EA1"/>
<path d="M77 94.7419V92.2581C77 90.4587 78.567 89 80.5 89C82.433 89 84 90.4587 84 92.2581V94.7419C84 96.5413 82.433 98 80.5 98C78.567 98 77 96.5413 77 94.7419Z" fill="#486EA1"/>
<path d="M77 68.6447V66.3553C77 64.5022 78.567 63 80.5 63C82.433 63 84 64.5022 84 66.3553V68.6447C84 70.4977 82.433 72 80.5 72C78.567 72 77 70.4977 77 68.6447Z" fill="#486EA1"/>
</svg>
