<svg width="99" height="99" viewBox="0 0 99 99" fill="none" xmlns="http://www.w3.org/2000/svg">
<path d="M89.3154 0H9.68481C4.3446 0 0 4.34459 0 9.68479V67.7935C0 73.1337 4.3446 77.4783 9.68481 77.4783H36.587V92.5435H26.9021C25.1194 92.5435 23.6738 93.9889 23.6738 95.7719C23.6738 97.5548 25.1194 99 26.9021 99C28.2789 99 69.7249 99 72.0979 99C73.8806 99 75.3262 97.5546 75.3262 95.7717C75.3262 93.9887 73.8808 92.5433 72.0979 92.5433H62.4131V77.4781H89.3152C94.6554 77.4781 99 73.1335 99 67.7933V9.68479C99.0002 4.34459 94.6556 0 89.3154 0ZM55.9566 92.5435H43.0434V77.4783H55.9566V92.5435ZM92.5437 67.7935C92.5437 69.5736 91.0955 71.0219 89.3154 71.0219C88.3275 71.0219 11.9918 71.0219 9.68481 71.0219C7.90474 71.0219 6.45648 69.5736 6.45648 67.7935V64.5652H92.5435V67.7935H92.5437ZM92.5437 58.1087H6.45648V9.68479C6.45648 7.90473 7.90474 6.45646 9.68481 6.45646H89.3154C91.0955 6.45646 92.5437 7.90473 92.5437 9.68479V58.1087Z" fill="#486EA1"/>
<path d="M29.8331 29H17.1667C15.418 29 14 30.4711 14 32.2858V48.7142C14 50.5287 15.4178 52 17.1667 52H29.8333C31.582 52 33 50.5289 33 48.7142V32.2858C32.9998 30.4711 31.582 29 29.8331 29ZM26.6664 45.4285H20.3332V35.5713H26.6664V45.4285Z" fill="#486EA1"/>
<path d="M55.8333 23H43.1667C41.418 23 40 24.4426 40 26.2223V48.7777C40 50.5572 41.4178 52 43.1667 52H55.8333C57.582 52 59 50.5574 59 48.7777V26.2223C59 24.4426 57.5822 23 55.8333 23ZM52.6668 45.5553H46.3336V29.4443H52.6668V45.5553Z" fill="#486EA1"/>
<path d="M81.8333 16H69.1667C67.418 16 66 17.4653 66 19.2728V48.7272C66 50.5345 67.4178 52 69.1667 52H81.8333C83.582 52 85 50.5347 85 48.7272V19.2728C84.9998 17.4653 83.582 16 81.8333 16ZM78.6666 45.4544H72.3334V22.5456H78.6666V45.4544Z" fill="#486EA1"/>
</svg>
