<svg width="162" height="162" viewBox="0 0 162 162" fill="none" xmlns="http://www.w3.org/2000/svg">
<path d="M117.567 95.2333C119.174 95.6401 120.875 95.1633 122.047 93.9771C123.218 92.791 123.689 91.0693 123.288 89.4419L113.813 51.0779C113.391 49.3669 112.071 48.031 110.381 47.6032L72.485 38.0122C70.8774 37.6053 69.1768 38.0822 68.0051 39.2683C66.8334 40.4545 66.3623 42.1761 66.7642 43.8035L76.2383 82.1673L76.2805 82.3268C76.7437 83.9611 78.0335 85.2278 79.6709 85.6422L117.567 95.2333ZM84.7047 77.0713L77.8242 49.2087L105.347 56.1744L112.228 84.0368L84.7047 77.0713Z" fill="#486EA1"/>
<mask id="mask0_8077_241" style="mask-type:luminance" maskUnits="userSpaceOnUse" x="0" y="0" width="162" height="162">
<path d="M0 0H162V162H0V0Z" fill="white"/>
</mask>
<g mask="url(#mask0_8077_241)">
<path d="M146.32 66.4836C147.928 66.8855 149.628 66.4144 150.8 65.2427C151.972 64.071 152.443 62.3704 152.041 60.7629L142.567 22.8667C142.144 21.1765 140.825 19.8569 139.135 19.4344L101.238 9.96026C99.6308 9.55838 97.9302 10.0294 96.7585 11.2011C95.5868 12.3728 95.1158 14.0734 95.5177 15.681L104.992 53.5769L105.034 53.7345C105.497 55.3489 106.787 56.6001 108.424 57.0095L146.32 66.4836ZM113.458 48.5431L106.578 21.0203L134.1 27.901L140.981 55.4236L113.458 48.5431Z" fill="#486EA1"/>
<path d="M156.066 104.354C157.693 104.756 159.415 104.285 160.601 103.113C161.787 101.941 162.264 100.241 161.857 98.633L152.266 60.7368C151.838 59.0467 150.502 57.727 148.791 57.3045L110.427 47.8304C108.8 47.4285 107.078 47.8995 105.892 49.0712C104.706 50.2429 104.229 51.9436 104.636 53.5511L114.227 91.4471L114.27 91.6046C114.739 93.219 116.045 94.4702 117.702 94.8796L156.066 104.354ZM122.798 86.4132L115.833 58.8904L143.695 65.7711L150.661 93.2937L122.798 86.4132Z" fill="#486EA1"/>
<path d="M108.378 56.6642C110.005 57.0661 111.727 56.5951 112.913 55.4234C114.099 54.2517 114.576 52.5511 114.169 50.9435L104.578 13.0473C104.15 11.3572 102.814 10.0376 101.103 9.61503L62.7392 0.140923C61.1118 -0.260952 59.3902 0.210072 58.204 1.38176C57.0179 2.55346 56.541 4.2541 56.9479 5.86164L66.5389 43.7576L66.5816 43.9152C67.0505 45.5295 68.3563 46.7808 70.0138 47.1901L108.378 56.6642ZM75.1098 38.7238L68.1444 11.2009L96.0068 18.0816L102.972 45.6042L75.1098 38.7238Z" fill="#486EA1"/>
<path d="M41.7832 76.2691C43.4333 76.7268 45.2018 76.2602 46.4127 75.0476L75.0493 46.3673C76.2298 45.185 76.7044 43.4689 76.2995 41.8467L66.7541 3.60618C66.3388 1.94243 65.0619 0.630936 63.4117 0.173149C61.7615 -0.284637 59.9928 0.182144 58.782 1.39481L30.1454 30.0752C28.9649 31.2575 28.4903 32.9734 28.8951 34.5955L38.4408 72.836C38.8561 74.4998 40.1329 75.8113 41.7832 76.2691ZM38.7701 34.9014L59.5678 14.0719L66.4245 41.5411L45.6268 62.3705L38.7701 34.9014Z" fill="#486EA1"/>
</g>
<path d="M50.9001 114.139C52.5503 114.596 54.3188 114.13 55.5296 112.917L84.1662 84.2369C85.3468 83.0546 85.8213 81.3385 85.4164 79.7163L75.871 41.4758C75.4557 39.8121 74.1789 38.5006 72.5286 38.0428C70.8784 37.585 69.1097 38.0518 67.8989 39.2644L39.2623 67.9448C38.0818 69.1271 37.6072 70.843 38.0121 72.4651L47.5577 110.706C47.973 112.369 49.2499 113.681 50.9001 114.139ZM47.887 72.771L68.6847 51.9416L75.5415 79.4107L54.7438 100.24L47.887 72.771Z" fill="#486EA1"/>
<mask id="mask1_8077_241" style="mask-type:luminance" maskUnits="userSpaceOnUse" x="0" y="0" width="162" height="162">
<path d="M0 0H162V162H0V0Z" fill="white"/>
</mask>
<g mask="url(#mask1_8077_241)">
<path d="M13.03 104.323C14.6802 104.777 16.4487 104.315 17.6595 103.113L46.2961 74.6959C47.4766 73.5245 47.9512 71.8241 47.5463 70.2168L38.0009 32.3271C37.5856 30.6786 36.3087 29.3792 34.6585 28.9256C33.0083 28.472 31.2396 28.9345 30.0288 30.1361L1.39218 58.5533C0.211723 59.7247 -0.262884 61.4249 0.141973 63.0322L9.68759 100.922C10.1029 102.57 11.3798 103.87 13.03 104.323ZM10.0169 63.3352L30.8146 42.6969L37.6714 69.914L16.8737 90.5524L10.0169 63.3352Z" fill="#486EA1"/>
<path d="M22.6565 142.893C24.2824 143.351 26.0249 142.884 27.2179 141.672L55.4334 112.991C56.5966 111.809 57.0642 110.093 56.6652 108.471L47.2602 70.2302C46.851 68.5665 45.5929 67.255 43.967 66.7972C42.341 66.3394 40.5983 66.8062 39.4053 68.0188L11.1898 96.6992C10.0267 97.8815 9.5591 99.5974 9.958 101.22L19.3632 139.46C19.7724 141.124 21.0305 142.435 22.6565 142.893ZM19.6877 101.525L40.1796 80.696L46.9355 108.165L26.4436 128.995L19.6877 101.525Z" fill="#486EA1"/>
<path d="M127.557 133.14C129.133 133.479 130.78 132.998 131.925 131.854L160.605 103.218C161.818 102.007 162.285 100.238 161.827 98.5881C161.369 96.9379 160.058 95.661 158.394 95.2457L120.154 85.7003C118.531 85.2954 116.815 85.7699 115.633 86.9505L86.9526 115.587C85.74 116.798 85.2734 118.566 85.7312 120.217C86.189 121.867 87.5004 123.144 89.1642 123.559L127.405 133.105L127.557 133.14ZM99.6297 116.373L120.459 95.5752L147.928 102.432L127.099 123.23L99.6297 116.373Z" fill="#486EA1"/>
</g>
<path d="M89.3016 123.324C90.8636 123.658 92.4947 123.184 93.6296 122.057L122.047 93.8415C123.248 92.6485 123.711 90.9058 123.257 89.2799C122.804 87.6539 121.504 86.3958 119.856 85.9866L81.966 76.5816C80.3587 76.1827 78.6584 76.6503 77.4869 77.8134L49.0697 106.029C47.8682 107.222 47.4059 108.964 47.8595 110.59C48.3131 112.216 49.6125 113.474 51.261 113.884L89.1507 123.289L89.3016 123.324ZM61.6305 106.803L82.2689 86.3113L109.486 93.0673L88.8476 113.559L61.6305 106.803Z" fill="#486EA1"/>
<mask id="mask2_8077_241" style="mask-type:luminance" maskUnits="userSpaceOnUse" x="0" y="0" width="162" height="162">
<path d="M0 0H162V162H0V0Z" fill="white"/>
</mask>
<g mask="url(#mask2_8077_241)">
<path d="M98.8038 161.893C100.38 162.233 102.027 161.751 103.172 160.608L131.852 131.971C133.065 130.76 133.532 128.992 133.074 127.341C132.616 125.691 131.305 124.414 129.641 123.999L91.4004 114.454C89.7782 114.049 88.0621 114.523 86.8798 115.704L58.1994 144.341C56.9868 145.551 56.5202 147.32 56.978 148.97C57.4358 150.62 58.7473 151.897 60.411 152.312L98.6516 161.858L98.8038 161.893ZM70.8766 145.126L91.706 124.329L119.175 131.185L98.3457 151.983L70.8766 145.126Z" fill="#486EA1"/>
<path d="M60.9337 152.075C62.5102 152.414 64.1564 151.933 65.3018 150.79L93.9821 122.153C95.1948 120.942 95.6616 119.173 95.2038 117.523C94.746 115.873 93.4345 114.596 91.7708 114.181L53.5302 104.635C51.9081 104.23 50.192 104.705 49.0097 105.886L20.3293 134.522C19.1167 135.733 18.6501 137.502 19.1079 139.152C19.5657 140.802 20.8771 142.079 22.5409 142.494L60.7814 152.04L60.9337 152.075ZM33.0064 135.308L53.8359 114.51L81.305 121.367L60.4756 142.165L33.0064 135.308Z" fill="#486EA1"/>
</g>
</svg>
