<svg width="205" height="219" viewBox="0 0 205 219" fill="none" xmlns="http://www.w3.org/2000/svg">
<path d="M193.106 179.696H11.8945C5.32536 179.696 7.62939e-06 174.371 7.62939e-06 167.802V34.9936C7.62939e-06 28.4245 5.32536 23.0991 11.8945 23.0991H193.106C199.675 23.0991 205 28.4245 205 34.9936V167.802C205 174.371 199.675 179.696 193.106 179.696Z" fill="#488FF7"/>
<path d="M13.6664 161.838V40.9584C13.6664 38.6432 15.5432 36.7664 17.8584 36.7664H187.141C189.456 36.7664 191.333 38.6432 191.333 40.9584V161.838C191.333 164.153 189.456 166.03 187.141 166.03H17.8584C15.5432 166.03 13.6664 164.153 13.6664 161.838Z" fill="white"/>
<path d="M85.485 179.696H124.725V205.037H85.485V179.696Z" fill="#3275C6"/>
<path d="M172.4 211.922C172.4 213.835 171.615 215.578 170.385 216.808C169.154 218.038 167.446 218.823 165.533 218.823H45.437C41.6103 218.823 38.5352 215.749 38.5352 211.922C38.5352 210.043 39.321 208.301 40.5514 207.036C41.7813 205.806 43.5234 205.02 45.437 205.02H165.533C169.325 205.02 172.4 208.13 172.4 211.922Z" fill="#304056"/>
<path d="M165.845 12.8322V136.379C165.845 143.384 160.173 149.055 153.135 149.055H51.8647C44.8608 149.055 39.1548 143.384 39.1548 136.379V12.8322C39.1548 5.82869 44.8608 0.156494 51.8647 0.156494H153.135C160.173 0.156494 165.845 5.82869 165.845 12.8322Z" fill="#DBDBDB"/>
<path d="M104.071 137.097H52.8209C51.8767 137.097 51.1126 136.332 51.1126 135.389C51.1126 134.445 51.8767 133.68 52.8209 133.68H104.071C105.015 133.68 105.779 134.445 105.779 135.389C105.779 136.332 105.015 137.097 104.071 137.097Z" fill="#304056"/>
<path d="M152.178 15.5319H104.071C103.127 15.5319 102.363 14.767 102.363 13.8236C102.363 12.8801 103.127 12.1152 104.071 12.1152H152.178C153.122 12.1152 153.886 12.8801 153.886 13.8236C153.886 14.767 153.122 15.5319 152.178 15.5319Z" fill="#304056"/>
<path d="M152.178 35.7924H104.071C103.127 35.7924 102.363 35.0275 102.363 34.0841C102.363 33.1406 103.127 32.3757 104.071 32.3757H152.178C153.122 32.3757 153.886 33.1406 153.886 34.0841C153.886 35.0275 153.122 35.7924 152.178 35.7924Z" fill="#304056"/>
<path d="M152.178 56.0536H104.071C103.127 56.0536 102.363 55.2887 102.363 54.3453C102.363 53.4019 103.127 52.637 104.071 52.637H152.178C153.122 52.637 153.886 53.4019 153.886 54.3453C153.886 55.2887 153.122 56.0536 152.178 56.0536Z" fill="#304056"/>
<path d="M152.178 76.3144H52.8209C51.8767 76.3144 51.1126 75.5495 51.1126 74.606C51.1126 73.6626 51.8767 72.8977 52.8209 72.8977H152.178C153.122 72.8977 153.886 73.6626 153.886 74.606C153.886 75.5495 153.122 76.3144 152.178 76.3144Z" fill="#304056"/>
<path d="M152.178 96.5749H52.8209C51.8767 96.5749 51.1126 95.81 51.1126 94.8665C51.1126 93.9231 51.8767 93.1582 52.8209 93.1582H152.178C153.122 93.1582 153.886 93.9231 153.886 94.8665C153.886 95.81 153.122 96.5749 152.178 96.5749Z" fill="#304056"/>
<path d="M152.178 116.836H52.8209C51.8767 116.836 51.1126 116.071 51.1126 115.128C51.1126 114.184 51.8767 113.419 52.8209 113.419H152.178C153.122 113.419 153.886 114.184 153.886 115.128C153.886 116.071 153.122 116.836 152.178 116.836Z" fill="#304056"/>
<path d="M73.4481 59.1488C86.3003 59.1488 96.719 48.73 96.719 35.8778C96.719 23.0257 86.3003 12.6069 73.4481 12.6069C60.5959 12.6069 50.1772 23.0257 50.1772 35.8778C50.1772 48.73 60.5959 59.1488 73.4481 59.1488Z" fill="#488FF7"/>
<path d="M85.2709 42.6948C84.9635 43.242 84.3825 43.549 83.802 43.549C83.5284 43.549 83.221 43.4806 82.9478 43.3438L75.1577 38.8344V47.8198C75.1577 48.7758 74.4061 49.5282 73.4494 49.5282C72.4926 49.5282 71.741 48.7758 71.741 47.8198V38.8344L63.9509 43.3438C63.6773 43.4806 63.3704 43.549 63.0968 43.549C62.5162 43.549 61.9352 43.242 61.6278 42.6948C61.149 41.9091 61.4226 40.8497 62.2426 40.3709L70.0327 35.8949L62.2426 31.3855C61.4226 30.9067 61.149 29.8473 61.6278 29.0282C62.0716 28.2424 63.131 27.9338 63.9509 28.4126L71.741 32.922V23.9032C71.741 22.9806 72.4926 22.1948 73.4494 22.1948C74.4061 22.1948 75.1577 22.9806 75.1577 23.9032V32.922L82.9478 28.4126C83.7678 27.9338 84.8267 28.2424 85.2709 29.0282C85.7493 29.8473 85.4761 30.9067 84.6561 31.3855L76.866 35.8949L84.6561 40.3709C85.4761 40.8497 85.7493 41.9091 85.2709 42.6948Z" fill="white"/>
</svg>
