<svg width="106" height="106" viewBox="0 0 106 106" fill="none" xmlns="http://www.w3.org/2000/svg">
<path d="M102.895 0.179535C104.61 0.179535 106 1.5699 106 3.285V102.895C106 104.61 104.61 106 102.895 106H3.16801C1.45293 106 0.0625414 104.61 0.0625414 102.895V76.1683C0.0625414 74.4532 1.45293 73.0629 3.16801 73.0628H16.6837V63.3279C16.6837 61.6128 18.074 60.2224 19.7891 60.2224H33.3048V49.1867C33.3048 47.4716 34.6952 46.0812 36.4103 46.0812H49.9259V33.6543C49.9259 31.9392 51.3163 30.5488 53.0314 30.5488H66.5468V18.9998C66.5468 17.2847 67.9372 15.8943 69.6523 15.8943H83.168V3.285C83.168 1.56992 84.5583 0.179559 86.2734 0.179535H102.895ZM89.3789 99.7891H99.7891V6.39047H89.3789V99.7891ZM72.7578 99.7891H83.168V22.1052H72.7578V99.7891ZM56.1368 99.7891H66.5468V36.7598H56.1368V99.7891ZM39.5157 99.7891H49.9259V52.2922H39.5157V99.7891ZM22.8946 99.7891H33.3048V66.4334H22.8946V99.7891ZM6.27348 99.7891H16.6837V79.2738H6.27348V99.7891ZM57.2585 15.6201C57.2585 17.3352 55.8681 18.7256 54.1531 18.7256C52.438 18.7256 51.0476 17.3352 51.0476 15.6201V10.5964L5.30019 56.2903C4.08672 57.5023 2.1203 57.5013 0.908256 56.2878C-0.303793 55.0744 -0.302585 53.108 0.910884 51.8959L46.6494 6.21094H41.3651C39.65 6.21091 38.2596 4.82056 38.2596 3.10547C38.2596 1.39038 39.65 2.39016e-05 41.3651 0H54.1531C55.8681 3.75618e-05 57.2585 1.39039 57.2585 3.10547V15.6201Z" fill="#486EA1"/>
</svg>
