<svg width="273" height="273" viewBox="0 0 273 273" fill="none" xmlns="http://www.w3.org/2000/svg">
<g clip-path="url(#clip0_8079_127)">
<path d="M246.261 115.172H186.7C163.748 89.576 181.931 48.5215 216.48 48.5215C251.066 48.5215 269.184 89.6115 246.261 115.172Z" fill="#FCBE29"/>
<path d="M246.261 115.172H216.48V48.5215C251.041 48.5215 269.188 89.5719 246.261 115.172Z" fill="#FE9022"/>
<path d="M256.112 227.145H177.707L192.178 125.836H241.835L256.112 227.145Z" fill="#FCBE29"/>
<path d="M256.112 227.145H216.48V125.836H241.835C242.643 131.614 255.333 221.577 256.112 227.145Z" fill="#FE9022"/>
<path d="M96.5098 24.5273C96.5098 28.9429 92.9273 32.5254 88.5117 32.5254H80.5137V51.1875H64.5176V32.5254H56.5195C52.1039 32.5254 48.5215 28.9429 48.5215 24.5273C48.5215 20.1118 52.1039 16.5293 56.5195 16.5293H64.5176V7.99805C64.5176 3.58246 68.1 0 72.5156 0C76.9312 0 80.5137 3.58246 80.5137 7.99805V16.5293H88.5117C92.9273 16.5293 96.5098 20.1118 96.5098 24.5273Z" fill="#165771"/>
<path d="M96.5098 24.5273C96.5098 28.9429 92.9273 32.5254 88.5117 32.5254H80.5137V51.1875H72.5156V0C76.9312 0 80.5137 3.58246 80.5137 7.99805V16.5293H88.5117C92.9273 16.5293 96.5098 20.1118 96.5098 24.5273Z" fill="#0C3F60"/>
<path d="M112.548 201.018H112.281C107.068 197.323 100.707 195.152 93.8438 195.152H51.2521C44.7203 195.152 38.6364 197.121 33.5606 200.491L32.5254 200.484L39.9486 125.836H105.083L112.548 201.018Z" fill="#1C6C94"/>
<path d="M112.548 201.018H112.281C107.068 197.323 100.707 195.152 93.8438 195.152H72.5156V125.836H105.083L112.548 201.018Z" fill="#165771"/>
<path d="M264.469 224.479H168.492C164.075 224.479 160.494 228.059 160.494 232.477V265.002C160.494 269.42 164.075 273 168.492 273H264.469C268.886 273 272.467 269.42 272.467 265.002V232.477C272.467 228.059 268.886 224.479 264.469 224.479Z" fill="#FE9022"/>
<path d="M272.467 232.477V265.002C272.467 269.418 268.884 273 264.469 273H216.48V224.479H264.469C268.884 224.479 272.467 228.061 272.467 232.477Z" fill="#FD6328"/>
<path d="M256.471 112.506H176.49C172.073 112.506 168.492 116.086 168.492 120.504C168.492 124.922 172.073 128.502 176.49 128.502H256.471C260.888 128.502 264.469 124.922 264.469 120.504C264.469 116.086 260.888 112.506 256.471 112.506Z" fill="#FE9022"/>
<path d="M264.469 120.504C264.469 124.919 260.886 128.502 256.471 128.502H216.48V112.506H256.471C260.886 112.506 264.469 116.088 264.469 120.504Z" fill="#FD6328"/>
<path d="M93.8438 192.486H51.25C32.1109 192.486 16.5689 207.985 16.5397 227.145H128.502C128.502 208.014 112.995 192.486 93.8438 192.486Z" fill="#165771"/>
<path d="M128.502 227.145H72.5156V192.486H93.8438C112.974 192.486 128.502 207.993 128.502 227.145Z" fill="#0C3F60"/>
<path d="M112.266 58.4607L106.087 83.1797H38.9447L32.7649 58.4607C31.4986 53.3911 35.3497 48.5215 40.5234 48.5215H104.508C109.692 48.5215 113.531 53.3995 112.266 58.4607Z" fill="#1C6C94"/>
<path d="M112.266 58.4607C105.022 87.4328 107.149 78.9307 106.087 83.1797H72.5156V48.5215H104.508C109.69 48.5215 113.531 53.3995 112.266 58.4607Z" fill="#165771"/>
<path d="M104.508 80.5137H40.5234C27.2725 80.5137 16.5293 91.2569 16.5293 104.508C16.5293 117.759 27.2725 128.502 40.5234 128.502H104.508C117.759 128.502 128.502 117.759 128.502 104.508C128.502 91.2569 117.759 80.5137 104.508 80.5137Z" fill="#165771"/>
<path d="M128.502 104.508C128.502 117.759 117.759 128.502 104.508 128.502H72.5156V80.5137H104.508C117.759 80.5137 128.502 91.2569 128.502 104.508Z" fill="#0C3F60"/>
<path d="M136.5 224.479H8.53125C4.11358 224.479 0.533203 228.059 0.533203 232.477V265.002C0.533203 269.42 4.11358 273 8.53125 273H136.5C140.918 273 144.498 269.42 144.498 265.002V232.477C144.498 228.059 140.918 224.479 136.5 224.479Z" fill="#1C6C94"/>
<path d="M144.498 232.477V265.002C144.498 269.418 140.916 273 136.5 273H72.5156V224.479H136.5C140.916 224.479 144.498 228.061 144.498 232.477Z" fill="#165771"/>
</g>
<defs>
<clipPath id="clip0_8079_127">
<rect width="273" height="273" fill="white"/>
</clipPath>
</defs>
</svg>
