<svg width="146" height="155" viewBox="0 0 146 155" fill="none" xmlns="http://www.w3.org/2000/svg">
<path d="M29.5108 68H87.4892C89.9807 68 92 65.9855 92 63.5C92 61.0145 89.9807 59 87.4892 59H29.5108C27.0204 59 25 61.0145 25 63.5C25 65.9855 27.0193 68 29.5108 68Z" fill="#486EA1"/>
<path d="M29.5108 87H87.4892C89.9807 87 92 84.9855 92 82.5C92 80.0145 89.9807 78 87.4892 78H29.5108C27.0204 78 25 80.0145 25 82.5C25 84.9855 27.0193 87 29.5108 87Z" fill="#486EA1"/>
<path d="M58.4906 98H29.5094C27.0198 98 25 100.016 25 102.5C25 104.986 27.0198 107 29.5094 107H58.4906C60.9802 107 63 104.986 63 102.5C63 100.016 60.9802 98 58.4906 98Z" fill="#486EA1"/>
<path d="M58.4906 117H29.5094C27.0198 117 25 119.014 25 121.5C25 123.984 27.0198 126 29.5094 126H58.4906C60.9802 126 63 123.984 63 121.5C63 119.014 60.9802 117 58.4906 117Z" fill="#486EA1"/>
<path d="M116.67 87.858V14.2687C116.67 6.40118 110.236 0 102.329 0H33.8931C32.6832 0 31.5221 0.478935 30.6663 1.33038L1.33704 30.5135C0.481334 31.3649 0 32.5203 0 33.7241V140.731C0 148.599 6.43324 155 14.3402 155H112.106C130.796 155 146 139.872 146 121.276C146 104.22 133.208 90.0824 116.67 87.858ZM34.2175 10.6406V28.8615C34.2175 31.7209 31.8798 34.0482 29.0049 34.0482H10.6928L34.2175 10.6406ZM14.3402 145.918C11.4665 145.918 9.12753 143.591 9.12753 140.731V43.1302H29.0049C36.9118 43.1302 43.345 36.729 43.345 28.8615V9.08203H102.329C105.204 9.08203 107.542 11.4093 107.542 14.2687V87.858C91.0043 90.0824 78.2127 104.22 78.2127 121.275C78.2127 130.991 82.3652 139.758 88.9934 145.918H14.3402ZM112.106 145.918C98.4501 145.918 87.3402 134.863 87.3402 121.276C87.3402 107.687 98.4501 96.6326 112.106 96.6326C125.763 96.6326 136.872 107.687 136.872 121.276C136.872 134.863 125.763 145.918 112.106 145.918Z" fill="#486EA1"/>
<path d="M125.168 110.915C123.145 109.399 120.275 109.81 118.757 111.829L110.021 123.461L105.816 119.264C104.029 117.478 101.13 117.478 99.3415 119.264C97.5528 121.049 97.5528 123.945 99.3415 125.729L107.278 133.654C109.465 135.837 112.695 135.14 114.179 133.165L126.084 117.315C127.601 115.296 127.191 112.43 125.168 110.915Z" fill="#486EA1"/>
</svg>
