<svg width="113" height="113" viewBox="0 0 113 113" fill="none" xmlns="http://www.w3.org/2000/svg">
<path d="M63.5918 0L63.6698 0.000862125C65.3051 0.0388655 66.6731 1.26913 66.8769 2.89997L68.027 12.1023C72.1888 13.1818 76.121 14.8307 79.7355 16.9604L87.0631 11.2609L87.1251 11.2137C88.4393 10.2396 90.2744 10.3709 91.4366 11.5331L101.466 21.5626C102.646 22.7432 102.763 24.6181 101.738 25.9359L96.039 33.2638C98.1688 36.8778 99.8184 40.8106 100.898 44.973L110.1 46.123C111.757 46.3301 113 47.7385 113 49.4082V63.5921C113 65.2617 111.757 66.6702 110.1 66.8772L100.898 68.0268C99.8183 72.1893 98.1686 76.1213 96.039 79.7358L101.739 87.0641C102.763 88.3819 102.647 90.2569 101.466 91.4374L91.4368 101.467C90.2562 102.648 88.3812 102.764 87.0633 101.739L79.7357 96.0394C76.1215 98.1691 72.1893 99.8185 68.0272 100.898L66.8771 110.1C66.6701 111.757 65.2616 113 63.592 113H49.4082C47.7386 113 46.3302 111.757 46.1231 110.1L44.9726 100.897C40.1384 99.6427 35.6131 97.6221 31.5368 94.9704C30.0042 93.9734 29.57 91.9227 30.567 90.3901C31.564 88.8575 33.6148 88.4232 35.1474 89.4202C39.1914 92.051 43.7481 93.9547 48.6331 94.9514C50.0247 95.2353 51.0802 96.3753 51.2564 97.7846L52.3306 106.379H60.6697L61.7439 97.7846L61.763 97.6533C61.9864 96.3048 63.0192 95.2263 64.3675 94.9514C69.3588 93.9337 74.0074 91.9678 78.1166 89.2472L78.2287 89.176C79.3982 88.4671 80.8901 88.5491 81.9768 89.3944L88.8214 94.7184L94.7178 88.8219L89.394 81.9767C88.5218 80.8551 88.4625 79.302 89.2466 78.1171C91.9676 74.006 93.9338 69.3581 94.951 64.3671L94.9801 64.2376C95.3063 62.91 96.4191 61.9138 97.7846 61.7432L106.379 60.6695V52.3306L97.7844 51.2568C96.3747 51.0806 95.2345 50.0247 94.9508 48.6327C93.934 43.6419 91.9676 38.9924 89.2468 34.8833C88.4623 33.6984 88.5215 32.1451 89.3938 31.0233L94.7176 24.1779L88.8212 18.2814L81.9766 23.6056C80.8549 24.4781 79.3015 24.5374 78.1166 23.753C74.0067 21.0323 69.3581 19.0666 64.3671 18.0486C62.9754 17.7647 61.9198 16.6248 61.7436 15.2154L60.6694 6.62112H52.3303L51.2561 15.2154C51.08 16.6249 50.0242 17.7648 48.6325 18.0486C43.6412 19.0663 38.9926 21.0322 34.8834 23.7528C33.6984 24.5374 32.145 24.4782 31.0232 23.6056L24.1784 18.2814L18.2819 24.1779L23.606 31.0233C24.4782 32.1449 24.5375 33.698 23.7534 34.8829C21.0324 38.994 19.0662 43.6419 18.0489 48.6329C17.7652 50.0249 16.625 51.0807 15.2154 51.2568L6.62109 52.3303V60.6692L15.2154 61.743L15.3468 61.762C16.6956 61.9854 17.7742 63.0186 18.0489 64.3671C19.0443 69.2519 20.949 73.8097 23.5799 77.8533C24.577 79.3859 24.143 81.4365 22.6104 82.4336C21.0779 83.4307 19.0273 82.9966 18.0302 81.4641C15.3786 77.3886 13.3564 72.8621 12.1027 68.0266L2.90018 66.877C1.2434 66.67 0 65.2615 0 63.5918V49.4079L0.000862122 49.3299C0.0388605 47.6946 1.26925 46.3266 2.90018 46.1228L12.102 44.973C13.1814 40.8105 14.8312 36.8785 16.9607 33.264L11.2615 25.9359C10.2365 24.6181 10.3534 22.7432 11.5339 21.5626L21.5632 11.5331L21.619 11.4783C22.8022 10.3489 24.6394 10.2518 25.9367 11.2609L33.2641 16.9604C36.8783 14.8307 40.8105 13.1813 44.9726 12.1019L46.1229 2.89997C46.3299 1.24327 47.7384 0 49.408 0H63.5918Z" fill="#486EA1"/>
<path d="M77.4284 56.9222C77.4284 55.5879 77.3056 54.2834 77.0718 53.0188L64.6952 65.3945C63.8652 66.2244 62.6555 66.5485 61.5217 66.2448L51.7081 63.6157C50.5741 63.3119 49.6883 62.4261 49.3845 61.2921L46.755 51.4781C46.4512 50.3442 46.7753 49.1344 47.6053 48.3044L59.981 35.928C58.7165 35.6942 57.4121 35.5716 56.0779 35.5716C44.2954 35.5716 34.7274 45.1395 34.7273 56.9222C34.7273 60.0289 35.391 62.9751 36.5807 65.6298C37.1383 66.8738 36.8697 68.333 35.9058 69.297L7.93233 97.2709L15.7291 105.067L43.7021 77.0953L43.7939 77.0069C44.7569 76.1155 46.1635 75.8801 47.3685 76.4197C50.0242 77.609 52.97 78.2727 56.0779 78.2727C67.8603 78.2727 77.4284 68.7048 77.4284 56.9222ZM84 56.9222C84 72.3342 71.4897 84.8443 56.0779 84.8443C52.8375 84.8443 49.7207 84.2894 46.8209 83.2699L18.0525 112.038C16.7693 113.321 14.6889 113.321 13.4057 112.038L0.962379 99.5945C-0.320803 98.3114 -0.320783 96.231 0.962379 94.9478L29.7304 66.1785C28.7103 63.2786 28.1557 60.1614 28.1557 56.9222C28.1557 41.5101 40.666 29 56.0779 29C60.1301 29 63.9895 29.8671 67.473 31.4267C68.4595 31.8684 69.1658 32.7673 69.3617 33.8303C69.5575 34.8933 69.2181 35.9847 68.4538 36.749L53.5936 51.6097L55.241 57.7588L61.3899 59.406L76.2503 44.5471C77.0145 43.7829 78.1058 43.4435 79.1686 43.6392C80.2314 43.8349 81.13 44.5407 81.572 45.5268C83.1332 49.0101 84 52.8708 84 56.9222Z" fill="#486EA1"/>
</svg>
