<svg width="362" height="362" viewBox="0 0 362 362" fill="none" xmlns="http://www.w3.org/2000/svg">
<path d="M362 158.107C362 192.213 333.396 217.644 298.969 217.644H65.8837C29.4357 217.644 0 190.622 0 154.903C0 110.231 45.0788 80.5381 85.49 96.311C87.7685 97.1975 90.3426 96.068 91.1822 93.7839C104.936 56.1566 141.754 31.6673 181 33.3079C222.8 34.7054 257.544 63.9229 267.313 103.033C268.009 105.806 271.138 107.242 273.638 105.856C312.356 84.3218 362 112.018 362 158.107Z" fill="#0095FF"/>
<path d="M362 158.107C362 192.213 333.396 217.644 298.969 217.644H181V33.3079C222.8 34.7054 257.544 63.9229 267.313 103.033C268.009 105.806 271.138 107.242 273.638 105.856C312.356 84.3218 362 112.018 362 158.107Z" fill="#006EFF"/>
<path d="M269.882 170.406V299.831C269.882 301.877 269.263 303.863 268.078 305.794C255.686 325.911 199.626 329.41 181 329.41C141.194 329.41 107.507 320.708 96.1783 308.705C93.5463 305.91 92.1184 302.927 92.1184 299.839V170.408H269.882V170.406Z" fill="#B4D2D7"/>
<path d="M269.882 170.406V299.831C269.882 301.877 269.263 303.863 268.078 305.794C255.686 325.911 199.626 329.41 181 329.41V170.408H269.882V170.406Z" fill="#87A0AF"/>
<path d="M269.882 237.383V299.831C269.882 301.875 269.263 303.863 268.078 305.794C255.686 325.911 199.626 329.41 181 329.41C141.194 329.41 107.507 320.708 96.1783 308.705C93.5463 305.907 92.1184 302.927 92.1184 299.839V237.383C92.1184 253.717 131.911 266.946 181 266.946C230.089 266.946 269.882 253.717 269.882 237.383Z" fill="#87A0AF"/>
<path d="M269.882 237.383V299.831C269.882 301.875 269.263 303.863 268.078 305.794C255.686 325.911 199.626 329.41 181 329.41V266.946C230.089 266.946 269.882 253.717 269.882 237.383Z" fill="#55696E"/>
<path d="M269.882 170.414C269.882 186.739 230.089 199.977 181 199.977C131.911 199.977 92.1184 186.739 92.1184 170.414C92.1184 154.072 131.911 140.837 181 140.837C230.089 140.837 269.882 154.072 269.882 170.414Z" fill="white"/>
<path d="M269.882 170.414C269.882 186.739 230.089 199.977 181 199.977V140.837C230.089 140.835 269.882 154.072 269.882 170.414Z" fill="#E8F3FF"/>
</svg>
