<svg width="109" height="109" viewBox="0 0 109 109" fill="none" xmlns="http://www.w3.org/2000/svg">
<path d="M25.6 93C25.6 87.6981 21.3019 83.4 16 83.4C10.6981 83.4 6.4 87.6981 6.4 93C6.4 98.3019 10.6981 102.6 16 102.6C21.3019 102.6 25.6 98.3019 25.6 93ZM32 93C32 101.837 24.8366 109 16 109C7.16344 109 0 101.837 0 93C0 84.1634 7.16344 77 16 77C24.8366 77 32 84.1634 32 93Z" fill="#486EA1"/>
<path d="M102.6 93C102.6 87.6981 98.3019 83.4 93 83.4C87.6981 83.4 83.4 87.6981 83.4 93C83.4 98.3019 87.6981 102.6 93 102.6C98.3019 102.6 102.6 98.3019 102.6 93ZM109 93C109 101.837 101.837 109 93 109C84.1634 109 77 101.837 77 93C77 84.1634 84.1634 77 93 77C101.837 77 109 84.1634 109 93Z" fill="#486EA1"/>
<path d="M92.824 77C94.578 77 96 78.3431 96 80C96 81.6569 94.578 83 92.824 83H16.176C14.422 83 13 81.6569 13 80C13 78.3431 14.422 77 16.176 77H92.824Z" fill="#486EA1"/>
<path d="M92.824 103C94.578 103 96 104.343 96 106C96 107.657 94.578 109 92.824 109H16.176C14.422 109 13 107.657 13 106C13 104.343 14.422 103 16.176 103H92.824Z" fill="#486EA1"/>
<path d="M19 93C19 94.6569 17.6569 96 16 96C14.3431 96 13 94.6569 13 93C13 91.3431 14.3431 90 16 90C17.6569 90 19 91.3431 19 93Z" fill="#486EA1"/>
<path d="M96 93C96 94.6569 94.6569 96 93 96C91.3431 96 90 94.6569 90 93C90 91.3431 91.3431 90 93 90C94.6569 90 96 91.3431 96 93Z" fill="#486EA1"/>
<path d="M45 93C45 94.6569 43.6569 96 42 96C40.3431 96 39 94.6569 39 93C39 91.3431 40.3431 90 42 90C43.6569 90 45 91.3431 45 93Z" fill="#486EA1"/>
<path d="M58 93C58 94.6569 56.433 96 54.5 96C52.567 96 51 94.6569 51 93C51 91.3431 52.567 90 54.5 90C56.433 90 58 91.3431 58 93Z" fill="#486EA1"/>
<path d="M70 93C70 94.6569 68.6569 96 67 96C65.3431 96 64 94.6569 64 93C64 91.3431 65.3431 90 67 90C68.6569 90 70 91.3431 70 93Z" fill="#486EA1"/>
<path d="M61.5506 0L61.6292 0.00104621C63.275 0.0418495 64.6219 1.3592 64.7137 3.03569L65.0491 9.16294L69.5572 5.0712L69.6164 5.01868C70.8697 3.93562 72.7396 4.00627 73.91 5.19361L83.8807 15.3088C85.0696 16.515 85.1225 18.4533 84.0014 19.7245L79.9676 24.2981L86.0078 24.6385C87.6866 24.7332 89.0001 26.1417 89.0001 27.8475V42.1525C89.0001 43.8582 87.6865 45.2668 86.0078 45.3615L79.9678 45.7017L84.0016 50.2755C85.1227 51.5467 85.0698 53.485 83.8809 54.6912L73.9102 64.8064C72.7212 66.0125 70.8106 66.0662 69.5576 64.9288L65.0491 60.8366L64.7137 66.9643C64.6204 68.6674 63.2319 69.9999 61.5506 70H47.4498C45.7685 70 44.38 68.6674 44.2867 66.9643L43.9512 60.8366L39.4429 64.9288C38.1898 66.0662 36.2792 66.0125 35.0903 64.8064L25.1196 54.6912C23.9307 53.4851 23.8776 51.5467 24.9987 50.2755L29.0324 45.7017L22.9925 45.3615C21.3137 45.2669 20.0002 43.8583 20.0001 42.1525V27.8475C20.0001 26.1417 21.3137 24.7331 22.9925 24.6385L29.0324 24.2981L24.9987 19.7245C23.8776 18.4533 23.9306 16.5149 25.1196 15.3088L35.0903 5.19361C36.2792 3.98748 38.1898 3.93367 39.4429 5.07099L43.9512 9.16315L44.2867 3.03569L44.2921 2.95618C44.4235 1.29128 45.7947 2.51418e-05 47.4498 0H61.5506ZM50.1375 12.0789C50.0653 13.3982 49.2045 14.5381 47.9678 14.9525C46.9943 15.2786 46.0528 15.6757 45.1491 16.138C43.9855 16.7333 42.5813 16.545 41.6102 15.6635L37.4513 11.8885L31.7189 17.704L35.4399 21.9232C36.3088 22.9084 36.4944 24.3329 35.9077 25.5134C35.452 26.4302 35.0605 27.3854 34.739 28.3729C34.3306 29.6275 33.2069 30.5008 31.9065 30.5741L26.3362 30.888V39.1118L31.9065 39.4259L32.0278 39.4351C33.2764 39.5541 34.3434 40.4117 34.739 41.6271C35.0605 42.6145 35.452 43.5695 35.9079 44.4868C36.4945 45.6672 36.3087 47.0917 35.4399 48.0768L31.7189 52.2956L37.4515 58.1113L41.6102 54.3365L41.7024 54.2558C42.6687 53.4439 44.0219 53.2853 45.1491 53.862C45.996 54.2952 46.8766 54.6712 47.786 54.9856L47.9684 55.0475L48.083 55.0885C49.2577 55.5335 50.0676 56.6432 50.1375 57.9211L50.4469 63.5721H58.5535L58.8629 57.9211L58.872 57.7978C58.9893 56.5314 59.8343 55.4491 61.0321 55.0475C62.0059 54.7211 62.9477 54.3238 63.8518 53.8615C65.0153 53.2666 66.4193 53.4551 67.3903 54.3365L71.5488 58.111L77.2812 52.2956L73.5606 48.0768C72.6917 47.0917 72.506 45.6672 73.0926 44.4868C73.5484 43.5695 73.94 42.6145 74.2614 41.6271L74.3016 41.5106C74.7401 40.3186 75.8341 39.4969 77.0939 39.4259L82.664 39.1118V30.888L77.0937 30.5741C75.7933 30.5008 74.6697 29.6275 74.2612 28.3729C73.9397 27.3854 73.5483 26.4302 73.0926 25.5134C72.5058 24.3329 72.6915 22.9084 73.5604 21.9232L77.281 17.704L71.5488 11.8887L67.3903 15.6635C66.4191 16.545 65.0149 16.7333 63.8514 16.138C62.9476 15.6757 62.0061 15.2786 61.0327 14.9525C59.796 14.5381 58.9352 13.3982 58.8629 12.0789L58.5535 6.42793H50.4469L50.1375 12.0789Z" fill="#486EA1"/>
<path d="M62.4264 35C62.4264 30.7734 58.8777 27.347 54.5001 27.347C50.1226 27.347 46.5738 30.7734 46.5738 35C46.5738 39.2266 50.1225 42.653 54.5001 42.653C58.8777 42.653 62.4264 39.2266 62.4264 35ZM69.0001 35C69.0001 42.732 62.5083 49 54.5001 49C46.492 49 40.0001 42.732 40.0001 35C40.0001 27.268 46.492 21 54.5001 21C62.5083 21 69.0001 27.268 69.0001 35Z" fill="#486EA1"/>
</svg>
