<svg width="117" height="117" viewBox="0 0 117 117" fill="none" xmlns="http://www.w3.org/2000/svg">
<path d="M115.996 87.1535L85.0455 56.2029L111.98 29.2573C118.663 22.5751 118.663 11.7019 111.98 5.0197C105.298 -1.66272 94.4248 -1.66272 87.7433 5.01925L60.797 31.9546L29.8464 1.0038C28.508 -0.334601 26.3376 -0.334601 24.999 1.0038L1.00506 24.9978C-0.333576 26.3362 -0.333576 28.5066 1.00506 29.8452L31.9499 60.7899C2.26439 90.4638 3.94603 88.3994 3.69946 89.9551L0.0432429 113.035C-0.320779 115.333 1.66775 117.321 3.96522 116.957L27.0451 113.301C27.7601 113.187 28.421 112.85 28.9331 112.338L56.21 85.05L87.1547 115.995C88.4933 117.333 90.6635 117.333 92.0021 115.995L115.996 92.0007C117.335 90.6626 117.335 88.4921 115.996 87.1535ZM107.133 9.86694C111.142 13.8764 111.142 20.4003 107.132 24.4102L104.159 27.3841L89.6157 12.8404L92.5903 9.86717C96.5998 5.85767 103.123 5.85767 107.133 9.86694ZM84.7674 17.6869L99.3132 32.2327L80.198 51.3557L65.6444 36.8021L84.7674 17.6869ZM9.77061 95.4463L21.5539 107.229L7.55265 109.448L9.77061 95.4463ZM27.7969 103.778L13.2223 89.203L36.7974 65.6376L51.3626 80.2028L27.7969 103.778ZM89.5785 108.724L8.27636 27.4216L27.4228 8.27511L36.5652 17.4175L26.9918 26.9906C25.6532 28.329 25.6532 30.4995 26.9918 31.8381C28.33 33.1765 30.5004 33.1769 31.8393 31.8381L41.4126 22.265L51.1078 31.9601L44.7661 38.3016C43.4274 39.64 43.4274 41.8102 44.7661 43.1491C46.1043 44.4875 48.2749 44.4879 49.6135 43.1491L55.9552 36.8076L65.6504 46.5027L56.077 56.0759C54.7384 57.4143 54.7384 59.5847 56.077 60.9233C57.4152 62.2617 59.5856 62.2622 60.9245 60.9233L70.4978 51.3502L80.193 61.0451L73.851 67.3864C72.5124 68.7248 72.5124 70.8952 73.851 72.2338C75.1892 73.5722 77.3596 73.5727 78.6985 72.2338L85.04 65.8924L94.7351 75.5875L85.162 85.1606C83.8234 86.499 83.8234 88.6695 85.162 90.0081C86.5006 91.3467 88.6708 91.3467 90.0095 90.0081L99.5826 80.435L108.725 89.5773L89.5785 108.724Z" fill="#486EA1"/>
</svg>
