<svg width="135" height="135" viewBox="0 0 135 135" fill="none" xmlns="http://www.w3.org/2000/svg">
<mask id="mask0_8064_472" style="mask-type:luminance" maskUnits="userSpaceOnUse" x="0" y="0" width="135" height="135">
<path d="M0 0H135V135H0V0Z" fill="white"/>
</mask>
<g mask="url(#mask0_8064_472)">
<path d="M59.2774 135C60.7058 135 62.0233 134.23 62.724 132.985C63.4247 131.74 63.3997 130.214 62.6587 128.993L34.9969 83.4044C34.2799 82.2226 32.9979 81.501 31.6156 81.501C30.2333 81.501 28.9513 82.2228 28.2343 83.4046L20.266 96.538V96.5382L0.572499 128.993C-0.168477 130.214 -0.193437 131.74 0.507225 132.985C1.20791 134.23 2.52539 135 3.95382 135H59.2774ZM27.0288 100.641V100.641L31.6156 93.0808L52.2514 127.09H10.9801L27.0288 100.641Z" fill="#486EA1"/>
<path d="M75.7225 135C77.9068 135 79.6775 133.229 79.6775 131.045C79.6775 128.861 77.9068 127.09 75.7225 127.09H59.2772C57.0929 127.09 55.3221 128.861 55.3221 131.045C55.3221 133.229 57.0929 135 59.2772 135H75.7225Z" fill="#486EA1"/>
</g>
<path d="M67.4984 84.4385C68.7879 84.4385 69.9967 83.8098 70.737 82.7539L76.1331 75.0568L86.7396 79.7285C88.3081 80.4194 90.1431 80.0214 91.2845 78.7428C92.4258 77.4642 92.6137 75.596 91.7499 74.1157L70.9144 38.4118C70.2056 37.1971 68.9048 36.4501 67.4984 36.4501C66.0919 36.4502 64.7913 37.1973 64.0825 38.412L43.2471 74.1184C42.3832 75.5988 42.5713 77.4671 43.7129 78.7457C44.8544 80.0243 46.6896 80.4222 48.2581 79.731L58.8642 75.0573L64.26 82.7537L64.3306 82.8514C65.0758 83.8484 66.2491 84.4384 67.4984 84.4385ZM63.4782 67.8586C62.3951 66.3136 60.3713 65.7488 58.6446 66.5097L56.2223 67.5773L67.4984 48.2526L78.7756 67.5773L76.3519 66.5095C74.6254 65.749 72.6021 66.3139 71.5191 67.8586L67.4984 73.5937L63.4782 67.8586Z" fill="#486EA1"/>
<mask id="mask1_8064_472" style="mask-type:luminance" maskUnits="userSpaceOnUse" x="0" y="0" width="135" height="135">
<path d="M0 0H135V135H0V0Z" fill="white"/>
</mask>
<g mask="url(#mask1_8064_472)">
<path d="M131.046 135C132.474 135 133.792 134.23 134.493 132.985C135.193 131.74 135.168 130.214 134.427 128.993L114.734 96.5378L114.734 96.538L106.765 83.4046C106.048 82.2228 104.766 81.501 103.384 81.501C102.002 81.501 100.72 82.2226 100.003 83.4044L94.7427 92.0739L94.7425 92.0743L72.3411 128.993C71.6001 130.214 71.5751 131.74 72.2758 132.985C72.9765 134.23 74.2939 135 75.7224 135H131.046ZM98.7974 100.641L98.7976 100.641L103.384 93.0808L107.971 100.641L124.02 127.09H82.7486L98.7974 100.641Z" fill="#486EA1"/>
<path d="M63.5449 3.95521V40.4053C63.5449 42.5896 65.3156 44.3604 67.4999 44.3604C69.6843 44.3604 71.455 42.5896 71.455 40.4053V3.95521C71.455 1.77091 69.6842 0.0001297 67.4999 0.0001297C65.3156 0.0001297 63.5449 1.77091 63.5449 3.95521Z" fill="#486EA1"/>
<path d="M95.335 30.9502C96.8726 30.9502 98.271 30.0589 98.9202 28.665C99.5694 27.2711 99.3519 25.6273 98.3625 24.4502L92.5913 17.5844L98.3625 10.7185C99.3519 9.54138 99.5695 7.89752 98.9202 6.50364C98.271 5.10979 96.8726 4.21866 95.335 4.21866H67.4986C65.3143 4.21866 63.5435 5.9894 63.5435 8.17373V26.9951C63.5435 29.1794 65.3143 30.9502 67.4986 30.9502H95.335ZM71.4537 12.1288H86.8439L84.3973 15.0395C83.1607 16.5107 83.1607 18.6579 84.3973 20.1292L86.8439 23.04H71.4537V12.1288Z" fill="#486EA1"/>
</g>
<path d="M34.5118 96.9349C36.3984 98.0358 38.8204 97.3988 39.9213 95.5122L55.1035 69.4929C56.2043 67.6063 55.5672 65.1845 53.6806 64.0837C51.794 62.9829 49.3722 63.6198 48.2713 65.5064L33.0891 91.5255C31.9883 93.4121 32.6252 95.8341 34.5118 96.9349Z" fill="#486EA1"/>
<path d="M95.0759 95.5123C96.1767 97.3988 98.5985 98.0358 100.485 96.935C102.372 95.8341 103.009 93.4122 101.908 91.5255L86.7258 65.5064C85.6249 63.6198 83.203 62.9828 81.3163 64.0837C79.4298 65.1846 78.7928 67.6063 79.8936 69.493L95.0759 95.5123Z" fill="#486EA1"/>
</svg>
