<svg width="216" height="216" viewBox="0 0 216 216" fill="none" xmlns="http://www.w3.org/2000/svg">
<path d="M18.8428 213.688L5.30517 215.451C2.24452 215.849 -0.355958 213.234 0.0400077 210.156L1.78978 196.538C4.28341 173.584 20.0951 158.795 20.0951 158.795C30.1119 148.724 46.3569 148.726 56.3736 158.8C66.3902 168.874 66.3903 185.209 56.3735 195.281C56.3735 195.281 41.6694 211.184 18.8428 213.688Z" fill="#FDC72E"/>
<path d="M33.4933 192.262L25.2402 193.337C23.3743 193.58 21.7889 191.985 22.0303 190.109L23.097 181.807C24.6173 167.813 34.2568 158.797 34.2568 158.797C40.3634 152.657 50.267 152.658 56.3736 158.8C62.4802 164.941 62.4802 174.9 56.3736 181.04C56.3736 181.04 47.4093 190.735 33.4933 192.262Z" fill="#E9E9FF"/>
<path d="M195.271 20.1401L187.634 46.6269L159.743 143.345L146.657 188.709C143.426 199.941 129.397 203.56 121.189 195.306L102.483 176.497L39.7377 113.373L21.1001 94.6318C12.8905 86.376 16.4906 72.2696 27.6266 69.0221L72.5398 55.9299L168.928 27.8194L195.271 20.1401Z" fill="#ED524E"/>
<path d="M187.634 46.6268L159.743 143.345C141.071 161.68 120.583 174.738 102.483 176.497L39.7377 113.373C40.2091 108.568 41.4543 103.461 43.5061 98.1501C48.6873 84.5837 59.0496 69.9025 72.5398 55.9298L168.928 27.8193L187.634 46.6268Z" fill="#B72A2A"/>
<path d="M204.854 70.6578L145.053 10.5153C169.528 -0.361073 192.825 -3.94153 207.417 5.25599C208.498 5.93418 209.418 6.85976 210.092 7.94669C219.237 22.6211 215.673 46.0481 204.854 70.6578Z" fill="#ED524E"/>
<path d="M85.4125 169.355L72.5044 182.334C70.0053 184.846 65.9535 184.846 63.4545 182.332L33.9787 152.688C31.4796 150.175 31.4796 146.1 33.9787 143.588L46.8867 130.609L85.4125 169.355Z" fill="#ED524E"/>
<path d="M85.4125 169.355L46.8868 130.609C30.8504 94.4438 90.8494 34.5918 145.053 10.5154L204.848 70.6525C180.903 125.161 121.37 185.481 85.4125 169.355Z" fill="#FDC72E"/>
<path d="M157.045 108.237C144.617 120.733 124.46 120.73 112.032 108.231C99.5969 95.7249 99.597 75.4556 112.025 62.9597C124.46 50.457 144.617 50.4597 157.052 62.9658C169.48 75.465 169.48 95.7342 157.045 108.237Z" fill="#F9AC00"/>
<path d="M161.628 98.0147C160.382 100.111 158.835 102.073 157.052 103.867C156.715 104.206 156.345 104.543 156.009 104.847C154.226 106.505 152.275 107.926 150.256 109.075C141.879 113.846 131.853 114.488 123.039 111.072C119.035 109.516 115.267 107.08 112.038 103.832C101.372 93.1419 99.8584 76.7692 107.462 64.4219C108.706 62.3241 110.254 60.3617 112.038 58.5695C117.184 53.3928 123.644 50.3832 130.306 49.5028C132.661 49.1641 135.049 49.1311 137.438 49.3343C140.365 49.6052 143.258 50.2808 146.05 51.3643C150.054 52.9203 153.822 55.3221 157.052 58.5695C167.684 69.2931 169.197 85.6658 161.628 98.0147Z" fill="#70C1F9"/>
<path d="M151.502 98.275C142.135 107.694 126.942 107.692 117.574 98.2705C108.202 88.8442 108.202 73.5664 117.569 64.1478C126.942 54.724 142.135 54.7261 151.508 64.1524C160.875 73.5735 160.875 88.8512 151.502 98.275Z" fill="#E9E9FF"/>
<path d="M94.0869 128.104L63.0542 159.305C61.3478 161.021 58.5815 161.021 56.8752 159.304C55.1689 157.588 55.1688 154.807 56.8752 153.091L87.9079 121.889C89.6142 120.174 92.3806 120.174 94.0869 121.89C94.9376 122.746 95.3655 123.874 95.3701 124.997C95.3654 126.12 94.9377 127.248 94.0869 128.104Z" fill="#4F5D99"/>
<path d="M135.276 92.308C132.83 93.9783 130.314 93.6637 127.873 92.1699C127.676 92.0484 127.481 91.9187 127.275 91.7778C126.967 91.5679 126.553 91.6094 126.292 91.8716L124.677 93.4952C124.375 93.7988 123.881 93.7989 123.579 93.4952L122.321 92.2307C122.019 91.9269 122.019 91.4299 122.321 91.1263L124.114 89.3233C124.381 89.0555 124.416 88.6385 124.202 88.3238C123.958 87.9676 123.664 87.6004 123.48 87.2386C122.055 84.4197 122.558 81.1093 124.771 78.8065C125.067 78.4974 125.564 78.5001 125.869 78.8065L128.774 81.7277C129.038 81.9927 129.076 82.4179 128.862 82.7273C128.626 83.0641 128.4 83.3899 128.217 83.735C127.448 85.1652 127.884 86.8854 129.224 87.7523C129.982 88.2437 130.792 88.3846 131.605 87.8931C132.637 87.2636 133.403 86.3994 133.351 85.1266C133.318 84.3701 133.057 83.6108 132.819 82.8791C132.335 81.4047 131.69 79.9773 131.303 78.4781C130.468 75.3029 131.41 72.7213 133.963 70.8991C136.504 69.0906 139.079 69.3833 141.633 70.8799C141.635 70.8826 141.635 70.8826 141.641 70.8826C141.943 71.0592 142.327 71.0096 142.577 70.7583L144.4 68.9251C144.702 68.6213 145.197 68.6213 145.499 68.9251L146.756 70.1896C147.058 70.4933 147.058 70.9902 146.756 71.294L144.985 73.0749C144.733 73.3289 144.683 73.7209 144.87 74.0246C145.96 75.8276 146.704 77.9232 146.254 79.9663C145.977 81.2336 145.381 82.3131 144.538 83.3265C144.247 83.6743 143.717 83.6936 143.395 83.3705L140.452 80.4107C140.177 80.1346 140.15 79.6985 140.38 79.3892C140.485 79.2456 140.589 79.1021 140.688 78.953C141.498 77.7409 141.531 76.6807 140.803 75.7724C140.112 74.9053 139.128 74.6016 138.2 74.955C137.044 75.3996 136.097 76.6889 136.229 77.8596C136.32 78.6851 136.597 79.4996 136.833 80.3058C137.335 81.9817 138.016 83.6217 138.351 85.3337C138.931 88.3128 137.695 90.6596 135.276 92.308Z" fill="#70C1F9"/>
<g opacity="0.2">
<path d="M150.256 109.075C141.879 113.846 131.853 114.488 123.039 111.072L107.462 64.4218C108.706 62.324 110.254 60.3617 112.038 58.5695C117.184 53.3927 123.644 50.3831 130.306 49.5027L150.256 109.075Z" fill="white"/>
<path d="M161.628 98.0147C160.382 100.111 158.835 102.073 157.052 103.867C156.715 104.206 156.345 104.543 156.009 104.847L137.438 49.3342C140.365 49.6051 143.258 50.2807 146.05 51.3643L161.628 98.0147Z" fill="white"/>
</g>
</svg>
