<svg width="163" height="176" viewBox="0 0 163 176" fill="none" xmlns="http://www.w3.org/2000/svg">
<path d="M71.0616 66.4062H34.3587C31.5338 66.4062 29.2437 68.7154 29.2437 71.5637C29.2437 74.412 31.5338 76.7212 34.3587 76.7212H71.0616C73.8865 76.7212 76.1767 74.412 76.1767 71.5637C76.1767 68.7154 73.8865 66.4062 71.0616 66.4062Z" fill="#486EA1"/>
<path d="M92.1649 35.4622C92.1649 32.6139 89.8648 30.3047 87.0278 30.3047H34.3807C31.5437 30.3047 29.2437 32.6139 29.2437 35.4622C29.2437 38.3105 31.5437 40.6196 34.3807 40.6196H87.0278C89.8648 40.6196 92.1649 38.3105 92.1649 35.4622Z" fill="#486EA1"/>
<path d="M58.6314 103.025H34.4109C31.5572 103.025 29.2437 105.334 29.2437 108.182C29.2437 111.031 31.5572 113.34 34.4109 113.34H58.6314C61.4852 113.34 63.7987 111.031 63.7987 108.182C63.7987 105.334 61.4852 103.025 58.6314 103.025Z" fill="#486EA1"/>
<path d="M147.915 3.42687C140.372 6.22702 133.461 9.82281 127.23 14.1835C126.208 6.69485 119.769 0.906738 112 0.906738H15.7348C7.25916 0.906738 0.361816 7.80125 0.361816 16.2734V160.378C0.361816 168.851 7.25916 175.745 15.7348 175.745H79.9528C84.0591 175.745 87.9194 174.147 90.8232 171.244L122.871 139.21C125.774 136.307 127.373 132.449 127.373 128.344V79.6899C135.151 74.26 141.914 68.7065 146.767 64.8696C152.214 60.5823 151.725 52.1788 145.852 48.54L143.334 46.976L153.675 41.4508C156.237 40.0815 158.075 37.6706 158.71 34.8363C158.731 34.7544 158.748 34.6724 158.761 34.5905L162.068 15.6109C163.802 7.39078 155.761 0.508571 147.915 3.42687ZM90.2455 157.336V136.929H110.661L90.2455 157.336ZM117.125 126.685H89.5691C84.291 126.685 79.9969 130.977 79.9969 136.253V165.501H15.7348C12.9096 165.501 10.6105 163.203 10.6105 160.378V16.2734C10.6105 13.4493 12.9096 11.1512 15.7348 11.1512H112C114.826 11.1512 117.125 13.4493 117.125 16.2734V22.4884C98.1718 40.7105 88.835 68.7557 89.1834 90.088V90.1392C89.1834 90.1542 89.1841 90.1614 89.1848 90.1734V109.131C89.1848 111.96 91.4791 114.254 94.3091 114.254C97.1391 114.254 99.4334 111.96 99.4334 109.131V94.2264C105.183 92.6692 111.246 89.7667 117.125 86.3112V126.685ZM152.038 13.5006C151.991 13.7273 152.243 12.2965 148.725 32.4801L138.11 38.1521C134.923 39.8561 132.949 43.0285 132.832 46.6379C132.716 50.2508 134.479 53.5427 137.55 55.4481L140.136 57.0497C131.806 63.6526 114.211 78.2184 99.7668 83.3984C102.723 52.2993 119.423 24.9463 151.485 13.0293C151.827 12.905 152.108 13.1994 152.038 13.5006Z" fill="#486EA1"/>
</svg>
