<svg width="139" height="139" viewBox="0 0 139 139" fill="none" xmlns="http://www.w3.org/2000/svg">
<mask id="mask0_8076_188" style="mask-type:luminance" maskUnits="userSpaceOnUse" x="0" y="0" width="139" height="139">
<path d="M0 0H138.297V138.297H0V0Z" fill="white"/>
</mask>
<g mask="url(#mask0_8076_188)">
<path d="M25.9309 72.9297C28.1685 72.9297 29.9826 71.1157 29.9826 68.878C29.9826 47.2471 47.5176 29.712 69.1486 29.712C90.7796 29.712 108.315 47.2471 108.315 68.878C108.315 71.1157 110.129 72.9297 112.366 72.9297H133.975C136.213 72.9297 138.027 71.1157 138.027 68.878C138.027 30.8377 107.189 -0.000312805 69.1486 -0.000312805C31.1082 -0.000312805 0.270264 30.8377 0.270264 68.878C0.270264 71.1157 2.08426 72.9297 4.32193 72.9297H25.9309ZM8.50674 64.8264C10.5917 33.1504 36.9451 8.10303 69.1486 8.10302C101.352 8.10302 127.706 33.1504 129.79 64.8264H116.247C114.192 40.6167 93.8901 21.6086 69.1486 21.6086C44.4071 21.6086 24.1059 40.6167 22.0507 64.8264H8.50674Z" fill="#486EA1"/>
<path d="M48.8901 63.4759V71.5792C48.8901 73.8169 50.7041 75.6309 52.9418 75.6309H79.9528C89.6494 75.6309 97.5101 67.7701 97.5101 58.0736C97.5101 52.8523 93.2775 48.6198 88.0562 48.6198H63.7462C55.5416 48.6198 48.8901 55.2708 48.8901 63.4759ZM56.9935 63.4759C56.9935 59.7463 60.0168 56.7232 63.7462 56.7231H88.0562C88.8021 56.7231 89.4068 57.3276 89.4068 58.0736C89.4068 63.2947 85.174 67.5275 79.9528 67.5275H56.9935V63.4759Z" fill="#486EA1"/>
<path d="M81.3035 70.4524V85.0849C81.3035 91.7979 75.8615 97.2399 69.1485 97.2399C62.4355 97.2399 56.9935 91.7979 56.9935 85.0849V71.5793C56.9934 69.3417 55.1795 67.5276 52.9418 67.5276C50.7042 67.5276 48.8902 69.3417 48.8901 71.5793V85.0849C48.8901 96.2733 57.9601 105.343 69.1485 105.343C80.3368 105.343 89.4068 96.2733 89.4068 85.0849V70.4524C89.4068 68.2148 87.5928 66.4008 85.3551 66.4008C83.1175 66.4008 81.3035 68.2148 81.3035 70.4524Z" fill="#486EA1"/>
<path d="M97.5103 130.194H40.7869V128.303C40.7869 115.623 51.066 105.343 63.7463 105.343H74.5509C87.2311 105.343 97.5103 115.623 97.5103 128.303V130.194ZM105.614 128.303C105.614 111.147 91.7065 97.24 74.5509 97.2399H63.7463C46.5907 97.24 32.6836 111.147 32.6836 128.303V134.245C32.6836 136.483 34.4976 138.297 36.7353 138.297H101.562C103.8 138.297 105.614 136.483 105.614 134.245V128.303Z" fill="#486EA1"/>
<path d="M103.068 49.2953C104.187 51.2332 106.664 51.8971 108.602 50.7783L127.316 39.9739C129.254 38.8551 129.918 36.3771 128.799 34.4393C127.68 32.5014 125.202 31.8375 123.264 32.9563L104.551 43.7607C102.613 44.8795 101.949 47.3574 103.068 49.2953Z" fill="#486EA1"/>
<path d="M88.7316 34.9589C90.6694 36.0778 93.1474 35.4138 94.2662 33.476L105.071 14.7623C106.189 12.8245 105.525 10.3465 103.588 9.22768C101.65 8.10891 99.1718 8.77282 98.053 10.7107L87.2486 29.4243C86.1297 31.3622 86.7937 33.8401 88.7316 34.9589Z" fill="#486EA1"/>
<path d="M65.0969 4.05276V25.6617C65.0969 27.8994 66.9109 29.7134 69.1486 29.7134C71.3863 29.7134 73.2003 27.8994 73.2003 25.6617V4.05276C73.2002 1.81511 71.3862 0.0010891 69.1486 0.0010891C66.9109 0.0010891 65.097 1.81511 65.0969 4.05276Z" fill="#486EA1"/>
<path d="M44.0305 33.4755C45.1493 35.4134 47.6273 36.0773 49.5651 34.9585C51.503 33.8396 52.1671 31.3617 51.0483 29.4238L40.2437 10.71C39.1249 8.77212 36.647 8.10818 34.7091 9.22701C32.7712 10.3459 32.1073 12.8238 33.2261 14.7617L44.0305 33.4755Z" fill="#486EA1"/>
<path d="M29.6949 50.7783C31.6328 51.8971 34.1107 51.2332 35.2295 49.2953C36.3484 47.3574 35.6844 44.8795 33.7466 43.7607L15.0327 32.9561C13.0948 31.8373 10.6169 32.5014 9.49808 34.4393C8.37927 36.3771 9.04319 38.8551 10.9811 39.9739L29.6949 50.7783Z" fill="#486EA1"/>
<path d="M69.1483 130.193C70.2682 130.193 71.3382 129.73 72.1042 128.913L80.2075 120.269C81.1491 119.265 81.5163 117.851 81.1824 116.515L77.1308 100.309C76.6798 98.5051 75.0591 97.2397 73.2 97.2397H65.0966C63.2375 97.2397 61.6168 98.5051 61.1659 100.309L57.1142 116.515C56.7803 117.851 57.1476 119.265 58.0891 120.269L66.1925 128.913C66.9584 129.73 68.0284 130.193 69.1483 130.193ZM65.5113 116.338L68.2602 105.343H70.0364L72.7851 116.338L69.1483 120.218L65.5113 116.338Z" fill="#486EA1"/>
</g>
</svg>
