<svg width="174" height="153" viewBox="0 0 174 153" fill="none" xmlns="http://www.w3.org/2000/svg">
<path d="M121.121 30.9532V15.9613C121.121 12.7837 118.5 10.1631 115.322 10.163H58.9088C55.7313 10.1631 53.1106 12.7838 53.1105 15.9613V30.9532C53.1105 33.7424 50.8494 36.0035 48.0603 36.0035C45.2711 36.0035 43.01 33.7424 43.01 30.9532V15.9613C43.0101 7.20546 50.153 0.0625587 58.9088 0.0625H115.322C124.079 0.0625559 131.221 7.20556 131.221 15.9613V30.9532C131.221 33.7424 128.96 36.0035 126.171 36.0035C123.382 36.0035 121.121 33.7424 121.121 30.9532Z" fill="#486EA1"/>
<path d="M7.6582 136.925V79.7727C7.6582 76.9835 9.91928 74.7224 12.7085 74.7224C15.4976 74.7224 17.7587 76.9835 17.7587 79.7727V136.925C17.7587 139.69 20.0435 141.975 22.809 141.975H151.422C154.187 141.975 156.472 139.69 156.472 136.925V79.436C156.472 76.6468 158.733 74.3857 161.523 74.3857C164.312 74.3857 166.573 76.6468 166.573 79.436V136.925C166.573 145.268 159.765 152.075 151.422 152.075H22.809C14.4658 152.075 7.6582 145.269 7.6582 136.925Z" fill="#486EA1"/>
<path d="M163.206 65.8824V41.9789C163.206 39.2053 160.929 36.9286 158.156 36.9286H16.0753C13.3012 36.9286 11.0251 39.2049 11.0251 41.9789V65.8824C11.0251 71.6631 16.1455 77.6042 28.3649 82.5959C40.1211 87.3984 56.4288 90.3943 73.9365 91.3954C76.7211 91.5546 78.8494 93.9412 78.6902 96.7258C78.531 99.5104 76.1444 101.639 73.3598 101.479C55.2502 100.444 37.7211 97.329 24.545 91.9464C11.8321 86.7531 0.924575 78.4351 0.924561 65.8824V41.9789C0.924561 33.6268 7.72267 26.8281 16.0753 26.8281H158.156C166.508 26.8281 173.306 33.6271 173.306 41.9789V65.8824C173.306 78.5122 162.268 86.8552 149.434 92.048C136.124 97.4337 118.428 100.528 100.183 101.518C97.398 101.669 95.0179 99.5335 94.8668 96.7485C94.7157 93.9634 96.8509 91.583 99.6359 91.4319C117.276 90.4749 133.754 87.4969 145.646 82.685C158.014 77.6804 163.206 71.7008 163.206 65.8824Z" fill="#486EA1"/>
<path d="M94.5227 91.4716H79.7087V98.0369C79.7087 101.636 82.6746 104.602 86.274 104.602H87.9574C91.5568 104.602 94.5227 101.636 94.5227 98.0369V91.4716ZM104.623 98.0369C104.623 107.215 97.1351 114.703 87.9574 114.703H86.274C77.0962 114.703 69.6082 107.215 69.6082 98.0369V86.4213C69.6082 83.6322 71.8692 81.3711 74.6584 81.3711H99.573C102.362 81.3711 104.623 83.6322 104.623 86.4213V98.0369Z" fill="#486EA1"/>
</svg>
