<svg width="132" height="132" viewBox="0 0 132 132" fill="none" xmlns="http://www.w3.org/2000/svg">
<path d="M124.266 66C124.266 63.034 124.044 60.1217 123.617 57.2779H117.136C115.355 57.2779 113.805 56.0617 113.38 54.3322C112.19 49.4785 110.275 44.9097 107.753 40.749C106.83 39.2259 107.066 37.2693 108.326 36.0099L112.903 31.4325C109.431 26.7305 105.27 22.5689 100.568 19.0973L95.9901 23.6749C94.7307 24.9343 92.7741 25.1705 91.251 24.2472C87.0903 21.725 82.5215 19.8107 77.6678 18.6199C75.9382 18.1956 74.7221 16.6451 74.7221 14.8643V8.38319C71.8783 7.95633 68.966 7.73438 66 7.73438C63.034 7.73438 60.1217 7.95633 57.2779 8.38319V14.864C57.2779 16.6447 56.0619 18.1952 54.3325 18.6197C49.4786 19.8107 44.9097 21.7252 40.749 24.2472C39.226 25.1704 37.2693 24.934 36.0099 23.6747L31.4322 19.097C26.7303 22.5685 22.5687 26.7299 19.097 31.432L23.6744 36.0097C24.9339 37.2691 25.1703 39.2256 24.247 40.7487C21.7248 44.9094 19.8105 49.4783 18.6197 54.332C18.1953 56.0615 16.6448 57.2776 14.864 57.2777H8.38319C7.95631 60.1216 7.73438 63.0339 7.73438 66C7.73438 68.966 7.95633 71.8783 8.38319 74.7221H14.864L15.0302 74.7256C16.7406 74.7986 18.2086 75.9923 18.6197 77.6678C19.8105 82.5215 21.7248 87.0903 24.247 91.251C25.1702 92.7741 24.934 94.7307 23.6747 95.9901L19.097 100.568C22.5685 105.269 26.7299 109.431 31.432 112.903L36.0099 108.325L36.13 108.21C37.3912 107.052 39.2735 106.858 40.749 107.753C44.9097 110.275 49.4785 112.189 54.3322 113.38C56.0617 113.804 57.2779 115.355 57.2779 117.136V123.617C60.1216 124.044 63.0339 124.266 66 124.266C68.966 124.266 71.8783 124.043 74.7221 123.617V117.136C74.7221 115.355 75.9383 113.805 77.6678 113.38C82.5215 112.19 87.0903 110.275 91.251 107.753L91.395 107.67C92.8957 106.845 94.7701 107.106 95.9901 108.326L100.568 112.903C105.27 109.431 109.431 105.27 112.902 100.568L108.325 95.9901C107.066 94.7307 106.83 92.7741 107.753 91.251C110.275 87.0903 112.189 82.5214 113.38 77.6675L113.423 77.5069C113.902 75.8633 115.411 74.7221 117.136 74.7221H123.617C124.044 71.8783 124.266 68.966 124.266 66ZM132 66C132 70.5771 131.533 75.0486 130.644 79.3687C130.274 81.1664 128.691 82.4564 126.856 82.4564H120.083C119.007 85.9992 117.594 89.395 115.878 92.6055L120.661 97.3887C121.959 98.6863 122.166 100.717 121.157 102.25C116.207 109.766 109.766 116.208 102.25 121.157C100.717 122.166 98.6858 121.959 97.3882 120.662L92.6053 115.879C89.3949 117.594 85.9991 119.007 82.4564 120.083V126.856C82.4564 128.691 81.1664 130.274 79.3687 130.644C75.0486 131.533 70.5771 132 66 132C61.4229 132 56.9513 131.533 52.631 130.643C50.8335 130.273 49.5436 128.691 49.5436 126.856V120.083C46.0008 119.007 42.6049 117.594 39.3945 115.878L34.6116 120.662C33.3139 121.959 31.2829 122.166 29.7502 121.157C22.2342 116.208 15.7919 109.766 10.843 102.25C9.83377 100.717 10.0409 98.6863 11.3385 97.3887L16.1211 92.6055C14.406 89.3951 12.9928 85.9992 11.9168 82.4564H5.14417C3.30883 82.4564 1.72622 81.1664 1.35629 79.3687C0.467331 75.0486 0 70.5771 0 66C0 61.4229 0.467343 56.9514 1.35629 52.631L1.39455 52.4641C1.82541 50.754 3.36615 49.5433 5.14417 49.5433H11.9168C12.9927 46.0006 14.406 42.6047 16.1211 39.3942L11.3385 34.6116C10.0408 33.3139 9.83397 31.2829 10.8432 29.7502C15.7924 22.2342 22.2344 15.7919 29.7502 10.843C31.2828 9.83377 33.3137 10.0409 34.6113 11.3385L39.3945 16.1211C42.6049 14.4061 46.0009 12.9929 49.5436 11.9168V5.14417C49.5436 3.30883 50.8336 1.72622 52.6313 1.35629C56.9514 0.467331 61.4229 0 66 0C70.5771 0 75.0486 0.467331 79.3687 1.35629C81.1664 1.72622 82.4564 3.30883 82.4564 5.14417V11.917C85.9992 12.993 89.3951 14.4062 92.6055 16.1213L97.3887 11.3387L97.5123 11.2201C98.8126 10.0292 100.765 9.86578 102.25 10.8435C109.766 15.7926 116.208 22.2346 121.157 29.7504C122.166 31.2831 121.959 33.3142 120.662 34.6118L115.879 39.3945C117.594 42.605 119.007 46.0008 120.083 49.5436H126.856C128.691 49.5436 130.274 50.8336 130.644 52.6313C131.533 56.9514 132 61.4229 132 66Z" fill="#486EA1"/>
<path d="M97.2 66C97.2 48.7687 83.2313 34.8 66 34.8C48.7687 34.8 34.8 48.7687 34.8 66C34.8 83.2313 48.7687 97.2 66 97.2C83.2313 97.2 97.2 83.2313 97.2 66ZM105 66C105 87.5391 87.5391 105 66 105C44.4609 105 27 87.5391 27 66C27 44.4609 44.4609 27 66 27C87.5391 27 105 44.4609 105 66Z" fill="#486EA1"/>
<path d="M63.5902 48.0177C64.572 46.1265 66.8037 45.4433 68.5748 46.4916C70.3459 47.54 70.9858 49.9229 70.004 51.8141L64.8916 61.6615H73.3333C74.6432 61.6615 75.8537 62.4076 76.5087 63.6188C77.1637 64.8301 77.1638 66.3226 76.5089 67.534L67.5855 84.0413C66.5732 85.914 64.3307 86.556 62.5768 85.4751C60.823 84.3941 60.222 81.9996 61.2343 80.1268L66.9833 69.4918H58.6667C57.3681 69.4918 56.1664 68.7585 55.5073 67.5638C54.8483 66.3691 54.8302 64.8912 55.4598 63.6784L63.5902 48.0177Z" fill="#486EA1"/>
</svg>
