<svg width="119" height="119" viewBox="0 0 119 119" fill="none" xmlns="http://www.w3.org/2000/svg">
<path d="M62.5385 0C64.4502 0 66 1.567 66 3.5V17.5C66 19.433 64.4502 21 62.5385 21H27.4615C25.5498 21 24 19.433 24 17.5V3.5C24 1.567 25.5498 0 27.4615 0H62.5385ZM30.9231 14H59.0769V7H30.9231V14Z" fill="#486EA1"/>
<path d="M26.6187 7C28.5362 7 30.0907 8.55958 30.0907 10.4834C30.0907 12.4072 28.5362 13.9668 26.6187 13.9668H6.94401V98.0332H69.528C71.4455 98.0332 73 99.5928 73 101.517C73 103.44 71.4455 105 69.528 105H3.472C1.55447 105 0 103.44 0 101.517V10.4834C0 8.55958 1.55447 7 3.472 7H26.6187Z" fill="#486EA1"/>
<path d="M83.0769 67.554V13.8921H63.4615C61.5498 13.8921 60 12.3492 60 10.446C60 8.54285 61.5498 7 63.4615 7H86.5385C88.4502 7 90 8.54285 90 10.446V67.554C90 69.4571 88.4502 71 86.5385 71C84.6267 71 83.0769 69.4571 83.0769 67.554Z" fill="#486EA1"/>
<path d="M30.6667 27C32.5076 27 34 28.567 34 30.5V44.5C34 46.433 32.5076 48 30.6667 48H17.3333C15.4924 48 14 46.433 14 44.5V30.5C14 28.567 15.4924 27 17.3333 27H30.6667ZM20.6667 41H27.3333V34H20.6667V41Z" fill="#486EA1"/>
<path d="M30.6667 56C32.5076 56 34 57.567 34 59.5V73.5C34 75.433 32.5076 77 30.6667 77H17.3333C15.4924 77 14 75.433 14 73.5V59.5C14 57.567 15.4924 56 17.3333 56H30.6667ZM20.6667 70H27.3333V63H20.6667V70Z" fill="#486EA1"/>
<path d="M72.3793 27C74.379 27 76 28.567 76 30.5C76 32.433 74.379 34 72.3793 34H51.6207C49.621 34 48 32.433 48 30.5C48 28.567 49.621 27 51.6207 27H72.3793Z" fill="#486EA1"/>
<path d="M72.3793 41C74.379 41 76 42.567 76 44.5C76 46.433 74.379 48 72.3793 48H51.6207C49.621 48 48 46.433 48 44.5C48 42.567 49.621 41 51.6207 41H72.3793Z" fill="#486EA1"/>
<path d="M72.3793 56C74.379 56 76 57.567 76 59.5C76 61.433 74.379 63 72.3793 63H51.6207C49.621 63 48 61.433 48 59.5C48 57.567 49.621 56 51.6207 56H72.3793Z" fill="#486EA1"/>
<path d="M112.008 91.5C112.008 80.1735 102.827 70.9915 91.5 70.9915C80.1735 70.9915 70.9915 80.1735 70.9915 91.5C70.9915 102.827 80.1735 112.008 91.5 112.008C102.827 112.008 112.008 102.827 112.008 91.5ZM119 91.5C119 106.688 106.688 119 91.5 119C76.3122 119 64 106.688 64 91.5C64 76.3122 76.3122 64 91.5 64C106.688 64 119 76.3122 119 91.5Z" fill="#486EA1"/>
<path d="M97.1702 83.037C98.5038 81.6543 100.666 81.6543 102 83.037C103.333 84.4195 103.333 86.6612 102 88.0437L90.5028 99.963C89.1692 101.346 87.0068 101.346 85.6732 99.963L79.0002 93.045C77.6666 91.6624 77.6666 89.4206 79.0002 88.038C80.3338 86.6555 82.496 86.6555 83.8296 88.038L88.0879 92.4526L97.1702 83.037Z" fill="#486EA1"/>
</svg>
