<svg width="173" height="174" viewBox="0 0 173 174" fill="none" xmlns="http://www.w3.org/2000/svg">
<path d="M136.693 92.2531C131.086 92.2531 125.609 92.7477 120.755 93.6689C117.53 86.6133 104.86 82.9916 91.2412 82.2833V61.2783H106.392C131.454 61.2783 151.844 40.8884 151.844 15.826V5.72548C151.844 3.68283 150.614 1.84117 148.727 1.05973C146.839 0.277947 144.667 0.709912 143.223 2.15428L139.039 6.33825C136.177 9.20006 132.372 10.7757 128.326 10.7757H126.593C109.024 10.7757 93.7535 20.7958 86.191 35.4203C78.6284 20.7958 63.3574 10.7757 45.7889 10.7757H44.056C40.0091 10.7757 36.2042 9.19972 33.3428 6.33825L29.1591 2.15428C27.7148 0.709912 25.5425 0.277611 23.6554 1.05939C21.7683 1.84117 20.5377 3.68283 20.5377 5.72548V15.826C20.5377 40.8884 40.9276 61.2783 65.99 61.2783H81.1407V82.2833C67.5219 82.9916 54.8518 86.6137 51.6274 93.6689C46.7731 92.7477 41.2962 92.2531 35.6884 92.2531C17.9244 92.2531 0 96.9381 0 107.404V127.605V147.806C0 158.272 17.9244 162.957 35.6884 162.957C41.2962 162.957 46.7731 162.462 51.6274 161.541C55.2484 169.464 70.7803 173.057 86.191 173.057C101.602 173.057 117.134 169.464 120.755 161.541C125.609 162.462 131.086 162.957 136.693 162.957C154.458 162.957 172.382 158.272 172.382 147.806V127.605V107.404C172.382 96.9377 154.458 92.2531 136.693 92.2531ZM126.593 20.8762C129.255 20.8762 135.197 21.1409 141.723 17.0401C141.08 35.9725 125.478 51.1777 106.392 51.1777H91.6008C94.0592 34.0685 108.815 20.8762 126.593 20.8762ZM65.99 51.1777C46.904 51.1777 31.3018 35.9725 30.6587 17.0401C35.8171 20.281 40.3599 20.8762 45.7889 20.8762C63.5675 20.8762 78.323 34.0685 80.7811 51.1777H65.99ZM50.8392 151.401C46.3748 152.345 41.1336 152.856 35.6884 152.856C20.4589 152.856 11.6506 149.118 10.1005 147.346V138.684C16.9055 141.451 26.3189 142.755 35.6884 142.755C40.9946 142.755 46.1835 142.312 50.8392 141.484V151.401ZM50.8392 131.2C46.3748 132.144 41.1336 132.655 35.6884 132.655C20.4589 132.655 11.6506 128.917 10.1005 127.145V118.483C16.9055 121.251 26.3189 122.555 35.6884 122.555C40.9946 122.555 46.1835 122.112 50.8392 121.284V131.2ZM50.8392 110.999C46.3748 111.943 41.1336 112.454 35.6884 112.454C21.6777 112.454 13.1014 109.29 10.6116 107.404C13.1014 105.518 21.6777 102.354 35.6884 102.354C41.1336 102.354 46.3748 102.864 50.8392 103.808V110.999ZM86.191 92.2531C100.15 92.2531 108.613 95.4368 110.984 97.3034C108.613 99.17 100.15 102.354 86.191 102.354C72.2324 102.354 63.7695 99.17 61.3979 97.3034C63.7695 95.4365 72.2324 92.2531 86.191 92.2531ZM111.442 155.369C111.442 155.383 111.442 155.397 111.442 155.411V157.476C109.964 159.229 101.296 162.957 86.191 162.957C71.0863 162.957 62.4188 159.229 60.9397 157.476V155.411C60.94 155.397 60.9397 155.383 60.9397 155.369V148.823C67.673 151.564 76.953 152.856 86.191 152.856C95.4289 152.856 104.709 151.564 111.442 148.823V155.369ZM111.442 135.167C111.442 135.182 111.442 135.195 111.442 135.21V137.275C109.963 139.028 101.296 142.756 86.191 142.756C71.0863 142.756 62.4188 139.028 60.9397 137.275V135.21C60.94 135.195 60.9397 135.182 60.9397 135.167V128.622C67.673 131.363 76.953 132.655 86.191 132.655C95.4289 132.655 104.709 131.363 111.442 128.622V135.167ZM111.442 114.967C111.442 114.981 111.442 114.995 111.442 115.009V117.074C109.963 118.828 101.296 122.555 86.191 122.555C71.0863 122.555 62.4188 118.828 60.9397 117.074V115.009C60.94 114.995 60.9397 114.981 60.9397 114.967V108.421C67.673 111.162 76.953 112.454 86.191 112.454C95.4289 112.454 104.709 111.162 111.442 108.421V114.967ZM121.543 103.809C126.008 102.865 131.249 102.354 136.694 102.354C150.705 102.354 159.281 105.518 161.77 107.404C159.281 109.29 150.705 112.454 136.694 112.454C131.249 112.454 126.008 111.943 121.543 110.999V103.809ZM162.281 147.346C160.732 149.118 151.923 152.856 136.693 152.856C131.248 152.856 126.007 152.345 121.543 151.401V141.485C126.198 142.313 131.387 142.756 136.693 142.756C146.063 142.756 155.476 141.452 162.281 138.684V147.346ZM162.281 127.145C160.731 128.917 151.923 132.655 136.693 132.655C131.248 132.655 126.007 132.144 121.543 131.2V121.284C126.198 122.112 131.387 122.555 136.693 122.555C146.063 122.555 155.476 121.251 162.281 118.483V127.145Z" fill="#486EA1"/>
</svg>
