<svg width="128" height="128" viewBox="0 0 128 128" fill="none" xmlns="http://www.w3.org/2000/svg">
<path d="M84.2105 46C86.3034 46 88 47.6118 88 49.6V78.4C88 80.3882 86.3034 82 84.2105 82H43.7895C41.6966 82 40 80.3882 40 78.4V49.6C40 47.6118 41.6966 46 43.7895 46H84.2105ZM47.5789 74.8H80.4211V53.2H47.5789V74.8Z" fill="#486EA1"/>
<path d="M84.2105 0C86.3034 0 88 1.70132 88 3.8V34.2C88 36.2987 86.3034 38 84.2105 38H43.7895C41.6966 38 40 36.2987 40 34.2V3.8C40 1.70132 41.6966 0 43.7895 0H84.2105ZM47.5789 30.4H80.4211V7.6H47.5789V30.4Z" fill="#486EA1"/>
<path d="M43.3089 15C45.3474 15 47 16.7909 47 19C47 21.2091 45.3474 23 43.3089 23H3.6911C1.65256 23 0 21.2091 0 19C0 16.7909 1.65256 15 3.6911 15H43.3089Z" fill="#486EA1"/>
<path d="M120.618 54.1848V28.8152C120.618 25.3471 117.863 22.5355 114.466 22.5355H84.6911C82.6526 22.5355 81 20.8487 81 18.7678C81 16.6869 82.6526 15 84.6911 15H114.466C121.941 15 128 21.1854 128 28.8152V54.1848C128 61.8146 121.941 68 114.466 68H84.6911C82.6526 68 81 66.3131 81 64.2322C81 62.1513 82.6526 60.4645 84.6911 60.4645H114.466C117.863 60.4645 120.618 57.6529 120.618 54.1848Z" fill="#486EA1"/>
<path d="M0 99.1848V73.8152C0 66.1854 6.05949 60 13.534 60H43.3089C45.3474 60 47 61.6869 47 63.7678C47 65.8487 45.3474 67.5355 43.3089 67.5355H13.534C10.1366 67.5355 7.3822 70.3471 7.3822 73.8152V99.1848C7.3822 102.653 10.1366 105.464 13.534 105.464H43.3089C45.3474 105.464 47 107.151 47 109.232C47 111.313 45.3474 113 43.3089 113H13.534C6.05949 113 0 106.815 0 99.1848Z" fill="#486EA1"/>
<path d="M11.4155 6.07838C12.9218 4.64054 15.3639 4.64054 16.8703 6.07838C18.3766 7.51623 18.3766 9.84735 16.8703 11.2852L9.31189 18.5L16.8703 25.7148C18.3766 27.1526 18.3766 29.4838 16.8703 30.9216C15.3639 32.3595 12.9218 32.3595 11.4155 30.9216L1.12974 21.1034C-0.376579 19.6656 -0.376579 17.3344 1.12974 15.8966L11.4155 6.07838Z" fill="#486EA1"/>
<path d="M124.309 105C126.347 105 128 106.791 128 109C128 111.209 126.347 113 124.309 113H84.6911C82.6526 113 81 111.209 81 109C81 106.791 82.6526 105 84.6911 105H124.309Z" fill="#486EA1"/>
<path d="M111.13 97.0784C112.636 95.6405 115.078 95.6405 116.585 97.0784L126.87 106.897C128.377 108.334 128.377 110.666 126.87 112.103L116.585 121.922C115.078 123.359 112.636 123.359 111.13 121.922C109.623 120.484 109.623 118.153 111.13 116.715L118.688 109.5L111.13 102.285C109.623 100.847 109.623 98.5162 111.13 97.0784Z" fill="#486EA1"/>
<path d="M84.2105 90C86.3034 90 88 91.7013 88 93.8V124.2C88 126.299 86.3034 128 84.2105 128H43.7895C41.6966 128 40 126.299 40 124.2V93.8C40 91.7013 41.6966 90 43.7895 90H84.2105ZM47.5789 120.4H80.4211V97.6H47.5789V120.4Z" fill="#486EA1"/>
</svg>
