<svg width="147" height="112" viewBox="0 0 147 112" fill="none" xmlns="http://www.w3.org/2000/svg">
<path d="M102 41.1768C118.025 41.1768 131.175 53.3691 132.506 68.8974C140.763 72.2257 146.588 80.2475 146.588 89.6261L146.586 89.9154C146.43 102.139 136.375 112 123.994 112H55.5351C43.0568 112 32.9412 101.983 32.9412 89.6261C32.9412 79.6827 39.4881 71.2623 48.545 68.3465C50.2619 59.0987 58.4401 52.0899 68.2775 52.0899C71.3868 52.0899 74.3338 52.7931 76.9623 54.045C82.5 46.2671 91.6459 41.1768 102 41.1768ZM41.5114 89.6261C41.5114 97.2958 47.79 103.514 55.5351 103.514H123.994C131.739 103.513 138.018 97.296 138.018 89.6264L138.015 89.3209C137.875 82.9244 133.364 77.5847 127.315 76.1316C125.363 75.6624 124.001 73.9126 124.041 71.9233C124.045 71.7529 124.047 71.6203 124.047 71.4959C124.047 59.4383 114.176 49.6636 102 49.6635C93.3334 49.6635 85.8277 54.6155 82.2228 61.8378C81.641 63.0034 80.5517 63.8408 79.267 64.1095C77.9824 64.3782 76.6442 64.0488 75.6361 63.2158C73.6391 61.5658 71.0803 60.5767 68.2775 60.5767C61.9831 60.5767 56.8706 65.5879 56.7846 71.8034C56.7562 73.8552 55.249 75.593 53.2051 75.9307C46.5692 77.0274 41.5114 82.7457 41.5114 89.6261Z" fill="#486EA1"/>
<path d="M80.2536 18.9412C80.2536 18.6347 80.0975 17.7981 78.5967 16.5046C77.107 15.2207 74.699 13.8685 71.3474 12.6466C64.6787 10.2156 55.1772 8.62636 44.4707 8.62635C33.7642 8.62635 24.2625 10.2156 17.5938 12.6466C14.2421 13.8685 11.8342 15.2207 10.3445 16.5046C8.84374 17.7981 8.68759 18.6347 8.68759 18.9412C8.6876 19.2477 8.84375 20.0843 10.3445 21.3777C11.8342 22.6617 14.2421 24.0139 17.5938 25.2357C24.2625 27.6667 33.7642 29.256 44.4707 29.256C55.1772 29.256 64.6787 27.6667 71.3474 25.2357C74.699 24.0139 77.107 22.6617 78.5967 21.3777C80.0974 20.0842 80.2536 19.2477 80.2536 18.9412ZM88.9412 18.9412C88.9412 22.6741 86.8516 25.6858 84.2914 27.8924C81.7201 30.1086 78.2515 31.9083 74.3417 33.3336C66.4873 36.1968 55.9256 37.8823 44.4707 37.8824C33.0158 37.8824 22.4539 36.1968 14.5995 33.3336C10.6897 31.9083 7.22111 30.1086 4.64978 27.8924C2.08955 25.6858 7.36797e-06 22.6741 0 18.9412C0 15.2082 2.08954 12.1966 4.64978 9.98994C7.22111 7.77378 10.6897 5.97408 14.5995 4.54877C22.4539 1.68551 33.0158 0 44.4707 0C55.9256 1.1704e-05 66.4873 1.68552 74.3417 4.54877C78.2515 5.97408 81.7201 7.77378 84.2914 9.98994C86.8516 12.1966 88.9412 15.2082 88.9412 18.9412Z" fill="#486EA1"/>
<path d="M0 47.1001C0 44.7381 1.95557 42.8232 4.36788 42.8232C6.78019 42.8232 8.73575 44.7381 8.73575 47.1001C8.73575 47.4039 8.8927 48.2336 10.4019 49.5162C11.8998 50.7893 14.3211 52.1302 17.6913 53.3418C24.397 55.7524 33.9514 57.3282 44.7173 57.3282C48.6343 57.3282 52.538 57.1059 56.0897 56.7187C58.4872 56.4574 60.6471 58.1485 60.914 60.4961C61.1809 62.8437 59.4537 64.9586 57.0562 65.2199C53.185 65.6419 48.9587 65.8821 44.7173 65.8821C33.1988 65.8821 22.5783 64.2108 14.6804 61.3715C10.7489 59.9582 7.26115 58.1734 4.67556 55.9758C2.10118 53.7878 0 50.8017 0 47.1001Z" fill="#486EA1"/>
<path d="M79.2803 47.5853C79.2803 44.9553 81.443 42.8232 84.1107 42.8232C86.7785 42.8233 88.9412 44.9553 88.9412 47.5853C88.9412 51.1552 87.2058 54.1542 84.8793 56.4713C82.5799 58.7616 79.4725 60.6401 75.9719 62.1756C73.5345 63.2447 70.6793 62.1633 69.5948 59.7604C68.5104 57.3575 69.6072 54.5428 72.0446 53.4737C74.9083 52.2176 76.8523 50.9273 78.0129 49.7713C79.1465 48.6422 79.2803 47.9174 79.2803 47.5853Z" fill="#486EA1"/>
<path d="M0 79.9788V19.1652C0 16.7672 1.90204 14.8232 4.24832 14.8232C6.59461 14.8232 8.49664 16.7672 8.49664 19.1652V79.9788C8.49664 80.2199 8.59895 80.899 9.71859 82.0011C10.8459 83.1106 12.7053 84.3291 15.3706 85.4935C20.6777 87.8122 28.3444 89.5555 37.2057 90.1484C39.547 90.305 41.3205 92.3719 41.1672 94.7647C41.014 97.1576 38.9919 98.9704 36.6506 98.8138C27.1452 98.1779 18.4718 96.2926 12.0308 93.4786C8.82202 92.0767 5.9549 90.3526 3.8246 88.2558C1.68669 86.1515 0 83.3601 0 79.9788Z" fill="#486EA1"/>
<path d="M79.0588 51.7995V19.0234C79.0588 16.7037 81.2711 14.8232 84 14.8232C86.729 14.8232 88.9412 16.7037 88.9412 19.0234V51.7995C88.9412 54.1192 86.729 55.9997 84 55.9997C81.2711 55.9997 79.0588 54.1192 79.0588 51.7995Z" fill="#486EA1"/>
</svg>
