<svg width="196" height="196" viewBox="0 0 196 196" fill="none" xmlns="http://www.w3.org/2000/svg">
<path d="M178.925 35.2191C178.895 35.2187 178.866 35.2188 178.837 35.2188H17.2266C7.72784 35.2188 0 42.9466 0 52.4453V155.805C0 165.303 7.72784 173.031 17.2266 173.031H75.0312V184.516H63.5469C60.3757 184.516 57.8047 187.087 57.8047 190.258C57.8047 193.429 60.3757 196 63.5469 196H132.453C135.624 196 138.195 193.429 138.195 190.258C138.195 187.087 135.624 184.516 132.453 184.516H120.969V173.031H178.773C188.272 173.031 196 165.303 196 155.805V52.4453C196 42.9971 188.354 35.3007 178.925 35.2191Z" fill="#2E64A8"/>
<path d="M196 52.4453V155.805C196 165.302 188.271 173.031 178.773 173.031H120.969V184.516H132.453C135.623 184.516 138.195 187.088 138.195 190.258C138.195 193.428 135.623 196 132.453 196H98V35.2188H178.923C188.355 35.2991 196 42.9975 196 52.4453Z" fill="#2F537C"/>
<path d="M17.2266 161.547C14.0603 161.547 11.4844 158.971 11.4844 155.805V52.4453C11.4844 49.2791 14.0603 46.7031 17.2266 46.7031H178.826C181.963 46.7303 184.516 49.3063 184.516 52.4453V155.805C184.516 158.971 181.94 161.547 178.773 161.547H17.2266Z" fill="#30D9F6"/>
<path d="M184.516 52.4453V155.805C184.516 158.971 181.939 161.547 178.773 161.547H98V46.7031H172.648H178.827C181.962 46.7299 184.516 49.3063 184.516 52.4453Z" fill="#19C0EF"/>
<path d="M23.3516 51.6797V132.07C23.3516 141.584 31.0641 149.297 40.5781 149.297H155.422C164.936 149.297 172.648 141.584 172.648 132.07V51.6797C172.648 49.5654 170.935 47.8516 168.82 47.8516H27.1797C25.0654 47.8516 23.3516 49.5654 23.3516 51.6797Z" fill="#EDF5FF"/>
<path d="M172.648 51.6797V132.07C172.648 141.583 164.935 149.297 155.422 149.297H98V47.8516H168.82C170.933 47.8516 172.648 49.5666 172.648 51.6797Z" fill="#D5E8FD"/>
<path d="M172.648 17.2266C172.648 7.72784 164.921 0 155.422 0H40.5781C31.0794 0 23.3516 7.72784 23.3516 17.2266V51.6797H172.648V17.2266Z" fill="#FC585A"/>
<path d="M172.648 17.2266V51.6797H98V0H155.422C164.919 0 172.648 7.72898 172.648 17.2266Z" fill="#FA195E"/>
<path d="M75.0312 22.9688H52.0625C48.8913 22.9688 46.3203 25.5397 46.3203 28.7109C46.3203 31.8822 48.8913 34.4531 52.0625 34.4531H75.0312C78.2025 34.4531 80.7734 31.8822 80.7734 28.7109C80.7734 25.5397 78.2025 22.9688 75.0312 22.9688Z" fill="#FA195E"/>
<path d="M98 68.9062H52.0625C48.8913 68.9062 46.3203 71.4772 46.3203 74.6484V120.586C46.3203 123.757 48.8913 126.328 52.0625 126.328H98C101.171 126.328 103.742 123.757 103.742 120.586V74.6484C103.742 71.4772 101.171 68.9062 98 68.9062Z" fill="#FCBE29"/>
<path d="M103.742 74.6484V120.586C103.742 123.756 101.17 126.328 98 126.328H75.0312V68.9062H98C101.17 68.9062 103.742 71.4787 103.742 74.6484Z" fill="#FE9022"/>
<path d="M143.938 91.875H120.969C117.798 91.875 115.227 94.446 115.227 97.6172C115.227 100.788 117.798 103.359 120.969 103.359H143.938C147.109 103.359 149.68 100.788 149.68 97.6172C149.68 94.446 147.109 91.875 143.938 91.875Z" fill="#FE9022"/>
<path d="M143.938 68.9062H120.969C117.798 68.9062 115.227 71.4772 115.227 74.6484C115.227 77.8197 117.798 80.3906 120.969 80.3906H143.938C147.109 80.3906 149.68 77.8197 149.68 74.6484C149.68 71.4772 147.109 68.9062 143.938 68.9062Z" fill="#FE9022"/>
<path d="M143.938 114.844H120.969C117.798 114.844 115.227 117.415 115.227 120.586C115.227 123.757 117.798 126.328 120.969 126.328H143.938C147.109 126.328 149.68 123.757 149.68 120.586C149.68 117.415 147.109 114.844 143.938 114.844Z" fill="#FE9022"/>
</svg>
