<svg clip-rule="evenodd" fill-rule="evenodd" height="173.397mm" image-rendering="optimizeQuality" shape-rendering="geometricPrecision" text-rendering="geometricPrecision" viewBox="0 0 173.397 173.397" width="173.397mm" xmlns="http://www.w3.org/2000/svg"><g id="Layer_x0020_1"><g id="_294419552"><path id="_294419960" d="m118.831 30.5751h5.283c9.0345 0 16.4263 7.3918 16.4263 16.4264v99.4709c0 9.0345-7.3918 16.4262-16.4263 16.4262h-74.8314c-9.0345 0-16.4263-7.3917-16.4263-16.4262v-99.4709c0-9.0346 7.3918-16.4264 16.4263-16.4264h8.477v11.5998h61.0714zm-41.0557 38.2726h51.381v3.3868h-51.381zm0 30.3024h51.381v3.3868h-51.381zm0 30.3024h51.381v3.3868h-51.381zm-24.0935-7.7481c5.2143 0 9.4414 4.2271 9.4414 9.4415 0 5.2143-4.2271 9.4414-9.4414 9.4414-5.2144 0-9.4415-4.2271-9.4415-9.4414 0-5.2144 4.2271-9.4415 9.4415-9.4415zm0-30.3024c5.2143 0 9.4414 4.2271 9.4414 9.4415 0 5.2143-4.2271 9.4414-9.4414 9.4414-5.2144 0-9.4415-4.2271-9.4415-9.4414 0-5.2144 4.2271-9.4415 9.4415-9.4415zm0-30.3024c5.2143 0 9.4414 4.2271 9.4414 9.4415s-4.2271 9.4414-9.4414 9.4414c-5.2144 0-9.4415-4.227-9.4415-9.4414s4.2271-9.4415 9.4415-9.4415z" fill="#db4437"/><g fill="#1865c1"><path id="_294419432" d="m61.1466 22.8183h14.8293c0-6.804 5.5158-12.3197 12.3198-12.3197s12.3198 5.5157 12.3198 12.3197h14.8292v15.9701h-54.2981z"/><path id="_294419288" d="m50.246 69.6023 1.7193 1.7192 5.1528-5.1528 2.3946 2.3946-6.3501 6.3501-1.1972 1.1973-1.1974-1.1973-2.9166-2.9165z" fill-rule="nonzero"/><path id="_294419216" d="m50.246 99.306 1.7193 1.719 5.1528-5.1526 2.3946 2.3946-6.3501 6.35-1.1972 1.197-1.1974-1.197-2.9166-2.916z" fill-rule="nonzero"/><path id="_294419360" d="m50.246 129.608 1.7193 1.72 5.1528-5.153 2.3946 2.394-6.3501 6.351-1.1972 1.197-1.1974-1.197-2.9166-2.917z" fill-rule="nonzero"/></g></g></g></svg>