<svg id="Layer_1" enable-background="new 0 0 68 68" viewBox="0 0 68 68" xmlns="http://www.w3.org/2000/svg"><g><path d="m57.0599365 7.25v53.3300781c0 2.949707-2.3898926 5.3398438-5.329834 5.3398438h-40.2800293c-2.9499512 0-5.3400879-2.3901367-5.3400879-5.3398438v-53.3300781c0-2.9399414 2.3901367-5.3300781 5.3400879-5.3300781h40.2800293c2.9399414 0 5.329834 2.3901367 5.329834 5.3300781z" fill="#3a3a3a"/><path d="m53.0599365 7.25v53.3300781c0 2.949707-2.3898926 5.3398438-5.329834 5.3398438h-40.2800293c-2.9499512 0-5.3400879-2.3901367-5.3400879-5.3398438v-53.3300781c0-2.9399414 2.3901367-5.3300781 5.3400879-5.3300781h40.2800293c2.9399414 0 5.329834 2.3901367 5.329834 5.3300781z" fill="#51504f"/><path d="m7.4527392 59.9157372c-1.2900391 0-2.3398438-1.0495605-2.3398438-2.3398438v-50.3300796c0-1.2849121 1.0498047-2.3300781 2.3398438-2.3300781h40.2802734c1.284668 0 2.3300781 1.045166 2.3300781 2.3300781v50.3300781c0 1.2902832-1.0454102 2.3398438-2.3300781 2.3398438h-40.2802734z" fill="#fff"/><path d="m21.5047417 63.273159c1.013916-.4165039 2.027832-.6240234 3.0415039-.7836914 1.013916-.1464844 2.027832-.2148438 3.041748-.2158203 1.013916-.0019531 2.027832.0668945 3.041748.2133789 1.013916.1582031 2.027832.3671875 3.0415039.7861328-1.0136719.4189453-2.0275879.6279297-3.0415039.786129-1.013916.1464844-2.027832.215332-3.041748.2133789-1.013916-.0009766-2.027832-.0693359-3.041748-.2158203-1.0136719-.1596641-2.0275879-.3671837-3.0415039-.7836876z" fill="#3a3a3a"/><g><g><g><g><g><path d="m21.0299072 10.6499023v8.7602539c0 .949707-.7700195 1.7197266-1.7199707 1.7197266h-9.7897949c-.9501953 0-1.7299805-.7700195-1.7299805-1.7197266v-8.7602539c0-.949707.7797852-1.7299805 1.7299805-1.7299805h9.7897949c.9499512.0000001 1.7199707.7802735 1.7199707 1.7299805z" fill="#fbad3e"/><g fill="#fa990e"><path d="m16.2671642 8.9283943v2.9785223c0 .3435555-.3756561.5421934-.6601171.3542995l-.9875555-.6656208c-.1447859-.0964365-.3326797-.0964365-.4775963.0055027l-.928463.6438704c-.279089.1933975-.6654892-.0052414-.6654892-.3487959v-2.9677782z"/><path d="m14.0255651 17.7250004c-.3917723.1664066-.7835455.2576008-1.1753187.3165646-.3917732.0644646-.7835455.0859528-1.1700773.0859528-.3917732 0-.7835464-.0269909-1.1753187-.0859528-.3917732-.0589638-.7835464-.1501579-1.1753187-.3165646.3917723-.1664047.7835455-.2523594 1.1753187-.3113213.3917723-.0644646.7835455-.0859547 1.1753187-.0911961.3865318 0 .7783041.0267315 1.1700773.0911961.3917733.0589619.7835465.1449166 1.1753187.3113213z"/><path d="m11.4010801 18.9540405c.2308702.0589638.4616108.1501579.6923504.3165646-.2307396.1664047-.4614801.2523594-.6923504.3113213-.2307405.0644646-.4614801.0911961-.6922197.0911961-.2307396-.0052414-.4562387-.0267315-.6869783-.0911961-.2308712-.0589619-.4616108-.1449165-.6923504-.3113213.2307396-.1664066.4614792-.2576008.6923504-.3165646.2307396-.0589619.4562387-.0859528.6869783-.0859528s.4614792.0214883.6922197.0859528z"/></g></g></g></g></g><g><g><g><g fill="#d1dafe"><path d="m23.9906998 13.6317711c3.8515949-.491394 7.7029552-.601841 11.5545502-.622901 1.9255638.0107641 3.8513641.0374393 5.7771606.1366549 1.9255638.091259 3.8513603.2265091 5.7771606.4862461-1.9258003.2592688-3.8515968.3945198-5.7771606.4857779-1.9257965.0992155-3.8515968.1258907-5.7771606.1366549-3.851595-.0210601-7.7029553-.131507-11.5545502-.6224328z"/><path d="m23.9906998 17.0958672c3.8515949-.491394 7.7029552-.6013737 11.5545502-.6224327 1.9255638.0107632 3.8513641.0374393 5.7771606.1361866 1.9255638.091259 3.8513603.2269764 5.7771606.4862461-1.9258003.2592697-3.8515968.3949871-5.7771606.4862461-1.9257965.0992146-3.8515968.1254234-5.7771606.1366539-3.851595-.0210591-7.7029553-.131506-11.5545502-.6229z"/><path d="m23.9906998 20.5604305c2.6343403-.491394 5.2684479-.601841 7.9025555-.6224327 1.3169384.0107651 2.6341076.036972 3.9510441.1361866 1.317173.091259 2.6341095.2269783 3.9512787.4862461-1.3171692.2592697-2.6341057.3949871-3.9512787.4862461-1.3169365.0987473-2.6341057.1254234-3.9510441.1361866-2.6341077-.0205917-5.2682152-.1310386-7.9025555-.6224327z"/></g></g></g><path d="m39.557579 9.925087c0 .5898438-.4699707 1.0600586-1.0600586 1.0600586h-13.25c-.5800781 0-1.0600586-.4702148-1.0600586-1.0600586 0-.5800781.4799805-1.050293 1.0600586-1.050293h13.25c.5900879 0 1.0600586.4702149 1.0600586 1.050293z" fill="#8a9bea"/></g></g><g><g><g><g><g><path d="m21.0299072 28.1601563v8.7597656c0 .9501953-.7700195 1.7197266-1.7199707 1.7197266h-9.7897949c-.9501953 0-1.7299805-.7695313-1.7299805-1.7197266v-8.7597656c0-.9501953.7797852-1.7304688 1.7299805-1.7304688h9.7897949c.9499512 0 1.7199707.7802734 1.7199707 1.7304688z" fill="#fbad3e"/><g fill="#fa990e"><path d="m16.2671642 26.431591v2.9785213c0 .3435555-.3756561.5421925-.6601171.3542995l-.9875555-.6656208c-.1447859-.0964375-.3326797-.0964375-.4775963.0055027l-.928463.6438713c-.279089.1933956-.6654892-.0052414-.6654892-.3487968v-2.9677772z"/><path d="m14.0255651 35.2281952c-.3917723.1664085-.7835455.2576027-1.1753187.3165665-.3917732.0644646-.7835455.0859528-1.1700773.0859528-.3917732 0-.7835464-.0269928-1.1753187-.0859528-.3917732-.0589638-.7835464-.1501579-1.1753187-.3165665.3917723-.1664047.7835455-.2523575 1.1753187-.3113213.3917723-.0644646.7835455-.0859528 1.1753187-.0911942.3865318 0 .7783041.0267296 1.1700773.0911942.3917733.0589638.7835465.1449166 1.1753187.3113213z"/><path d="m11.4010801 36.4572372c.2308702.0589638.4616108.1501579.6923504.3165627-.2307396.1664047-.4614801.2523613-.6923504.3113213-.2307405.0644646-.4614801.091198-.6922197.091198-.2307396-.0052414-.4562387-.0267334-.6869783-.091198-.2308712-.05896-.4616108-.1449165-.6923504-.3113213.2307396-.1664047.4614792-.2575989.6923504-.3165627.2307396-.0589638.4562387-.0859528.6869783-.0859528s.4614792.0214883.6922197.0859528z"/></g></g></g></g></g><g><g><g><g fill="#d1dafe"><path d="m23.9906998 31.1349659c3.8515949-.491394 7.7029552-.601841 11.5545502-.6229 1.9255638.0107632 3.8513641.0374393 5.7771606.1366539 1.9255638.091259 3.8513603.2265091 5.7771606.4862461-1.9258003.2592697-3.8515968.3945198-5.7771606.4857788-1.9257965.0992146-3.8515968.1258907-5.7771606.1366558-3.851595-.0210609-7.7029553-.1315079-11.5545502-.6224346z"/><path d="m23.9906998 34.5990639c3.8515949-.491394 7.7029552-.6013756 11.5545502-.6224327 1.9255638.0107613 3.8513641.0374374 5.7771606.1361847 1.9255638.091259 3.8513603.2269783 5.7771606.486248-1.9258003.2592697-3.8515968.3949852-5.7771606.4862442-1.9257965.0992165-3.8515968.1254234-5.7771606.1366539-3.851595-.0210572-7.7029553-.1315041-11.5545502-.6228981z"/><path d="m23.9906998 38.0636253c2.6343403-.491394 5.2684479-.601841 7.9025555-.6224327 1.3169384.0107651 2.6341076.036972 3.9510441.1361885 1.317173.091259 2.6341095.2269783 3.9512787.4862442-1.3171692.2592697-2.6341057.394989-3.9512787.486248-1.3169365.0987473-2.6341057.1254234-3.9510441.1361847-2.6341077-.0205917-5.2682152-.1310386-7.9025555-.6224327z"/></g></g></g><path d="m39.557579 27.4282837c0 .5898438-.4699707 1.0600586-1.0600586 1.0600586h-13.25c-.5800781 0-1.0600586-.4702148-1.0600586-1.0600586 0-.5800781.4799805-1.050293 1.0600586-1.050293h13.25c.5900879 0 1.0600586.4702149 1.0600586 1.050293z" fill="#8a9bea"/></g></g><g><g><g><g><g><path d="m21.0299072 45.6000977v8.7597656c0 .9501953-.7700195 1.7202148-1.7199707 1.7202148h-9.7897949c-.9501953 0-1.7299805-.7700195-1.7299805-1.7202148v-8.7597656c0-.9501953.7797852-1.7299805 1.7299805-1.7299805h9.7897949c.9499512 0 1.7199707.7797851 1.7199707 1.7299805z" fill="#fbad3e"/><g fill="#fa990e"><path d="m16.2671642 43.8714104v2.9785194c0 .3435555-.3756561.5421944-.6601171.3543015l-.9875555-.6656227c-.1447859-.0964355-.3326797-.0964355-.4775963.0055046l-.928463.6438713c-.279089.1933975-.6654892-.0052414-.6654892-.3487968v-2.9677773z"/><path d="m14.0255651 52.6680145c-.3917723.1664047-.7835455.2576027-1.1753187.3165627-.3917732.0644684-.7835455.0859566-1.1700773.0859566-.3917732 0-.7835464-.0269928-1.1753187-.0859566-.3917732-.05896-.7835464-.1501579-1.1753187-.3165627.3917723-.1664047.7835455-.2523575 1.1753187-.3113213.3917723-.0644646.7835455-.0859528 1.1753187-.0911942.3865318 0 .7783041.0267296 1.1700773.0911942.3917733.0589638.7835465.1449166 1.1753187.3113213z"/><path d="m11.4010801 53.8970566c.2308702.05896.4616108.1501579.6923504.3165627-.2307396.1664047-.4614801.2523575-.6923504.3113213-.2307405.0644646-.4614801.0911942-.6922197.0911942-.2307396-.0052414-.4562387-.0267296-.6869783-.0911942-.2308712-.0589638-.4616108-.1449165-.6923504-.3113213.2307396-.1664047.4614792-.2576027.6923504-.3165627.2307396-.0589638.4562387-.0859566.6869783-.0859566s.4614792.021492.6922197.0859566z"/></g></g></g></g></g><g><g><g><g fill="#d1dafe"><path d="m23.9906998 48.5747871c3.8515949-.491394 7.7029552-.601841 11.5545502-.6229019 1.9255638.0107651 3.8513641.0374374 5.7771606.1366539 1.9255638.091259 3.8513603.2265091 5.7771606.486248-1.9258003.2592659-3.8515968.3945198-5.7771606.485775-1.9257965.0992165-3.8515968.1258926-5.7771606.1366577-3.851595-.0210609-7.7029553-.1315078-11.5545502-.6224327z"/><path d="m23.9906998 52.0388832c3.8515949-.491394 7.7029552-.6013756 11.5545502-.6224327 1.9255638.0107613 3.8513641.0374374 5.7771606.1361847 1.9255638.091259 3.8513603.2269783 5.7771606.486248-1.9258003.2592659-3.8515968.3949852-5.7771606.4862442-1.9257965.0992165-3.8515968.1254234-5.7771606.1366539-3.851595-.0210571-7.7029553-.131504-11.5545502-.6228981z"/><path d="m23.9906998 55.5034447c2.6343403-.491394 5.2684479-.601841 7.9025555-.6224327 1.3169384.0107651 2.6341076.036972 3.9510441.1361885 1.317173.091259 2.6341095.2269745 3.9512787.4862442-1.3171692.2592697-2.6341057.394989-3.9512787.486248-1.3169365.0987473-2.6341057.1254234-3.9510441.1361847-2.6341077-.0205918-5.2682152-.1310387-7.9025555-.6224327z"/></g></g></g><path d="m39.557579 44.868103c0 .5898438-.4699707 1.0600586-1.0600586 1.0600586h-13.25c-.5800781 0-1.0600586-.4702148-1.0600586-1.0600586 0-.5800781.4799805-1.050293 1.0600586-1.050293h13.25c.5900879.0000001 1.0600586.4702149 1.0600586 1.050293z" fill="#8a9bea"/></g></g><path d="m46.516819 18.6916466-.3846054 1.3348198c-.2396774.8318272.5912628 1.5704346 1.3892479 1.2348804l1.3769188-.5789928c.2795105-.1175327.5920753-.098402.8647118.0342903 1.3254929.6451092 2.861866 1.0155525 4.5040283 1.0155525 4.999424 0 9.0496902-3.4195042 9.0496902-7.6389694s-4.0502663-7.6389699-9.0496902-7.6389699c-4.9930763 0-9.0433426 3.4195056-9.0433426 7.6389699 0 1.35217.416111 2.617054 1.143322 3.7170677.1728973.2615318.2365226.5800896.1497192.8813515z" fill="#255299"/><path d="m45.2568169 18.6916466-.3846054 1.3348198c-.2396774.8318272.591259 1.5704346 1.3892479 1.2348804l1.376915-.5789928c.2795105-.1175327.5920753-.098402.8647156.0342903 1.325489.6451092 2.861866 1.0155525 4.5040245 1.0155525 4.999424 0 9.0496941-3.4195042 9.0496941-7.6389694s-4.0502701-7.6389699-9.0496941-7.6389699c-4.9930725 0-9.0433388 3.4195056-9.0433388 7.6389699 0 1.35217.4161072 2.617054 1.1433182 3.7170677.1728972.2615318.2365264.5800896.149723.8813515z" fill="#8a9bea"/><path d="m44.8740425 20.0287933c-.2406197.8323383.5915604 1.5669041 1.3846931 1.2354927l1.3783417-.578701c.2795067-.1234856.5915565-.1041222.8645554.0323792 1.3262825.6437759 2.8606491 1.0142326 4.5054817 1.0142326 3.2050743 0 6.0200081-1.4043713 7.6259575-3.5302925-1.6383286.6437759-3.5496597 1.007885-5.5911407 1.007885-5.578125 0-10.2004242-2.7566833-10.9610214-6.3387213-.0780907.3964882-.1171341.8059902-.1171341 1.2221594 0 1.3523111.4161682 2.620182 1.1442261 3.7185383.1690369.2603035.2341118.5786991.1495132.8777313z" fill="#4269c4"/><path d="m56.9874687 11.0062408c-.2669106.6372223-.6027565 1.2050905-.9728584 1.7477388-.3614845.5506353-.7574348 1.058816-1.1792412 1.5493431-.843605.9726477-1.7733765 1.8595476-2.7977257 2.6514521l-.1292534.0945759c-.2667007.2068024-.6542473.1635094-.8694572-.0945759-.3787155-.45648-.7229691-.9470062-1.0674324-1.4375343-.3356323-.5081806-.6714783-1.0071144-.9383888-1.5669966.5596695.2669106 1.0590248.6027555 1.5667877.9386015.2755241.1979761.5510521.387125.82658.5939283.6798859-.843606 1.4461517-1.6098709 2.2639084-2.3244343.4907379-.4215927.998497-.8179665 1.5495529-1.1878576.5422287-.3614854 1.1103058-.6973304 1.7475281-.964241z" fill="#fff"/><g><g><g><g><g><g><g><path d="m60.2701416 46.3300781v19.75h-17.1801758c-1.1699219 0-2.119873-.9501953-2.119873-2.1201172v-15.5200195c0-1.1601563.9499512-2.1098633 2.119873-2.1098633z" fill="#aec46e"/><g fill="#617f4d"><path d="m65.8900146 48.4501953v15.5097656c0 1.1699219-.9499512 2.1201172-2.119873 2.1201172h-3.5v-19.7402343h3.5c1.1699219 0 2.119873.9399414 2.119873 2.1103515z"/><path d="m54.2868652 46.3319778v4.8169136c0 .555603-.6075211.8768425-1.0675545.572979l-1.5970917-1.0764542c-.2341499-.1559563-.5380135-.1559563-.772377.0088997l-1.501522 1.0412789c-.4513474.3127632-1.0762405-.0084763-1.0762405-.5640793v-4.7995377z"/><path d="m52.1170082 61.0696335c-.6335831.2691116-1.2671661.4165955-1.9007454.5119476-.6335831.1042557-1.2671623.1390076-1.8922691.1390076-.6335793 0-1.2671623-.0436516-1.9007416-.1390076-.6335831-.0953522-1.2671623-.242836-1.9007454-.5119476.6335831-.2691154 1.2671623-.408123 1.9007454-.5034752.6335793-.1042557 1.2671623-.1390076 1.9007416-.1474838.6251068 0 1.2586861.0432281 1.8922691.1474838.6335793.0953522 1.2671623.2343597 1.9007454.5034752z"/><path d="m47.8726463 63.0572548c.3733673.095356.7465248.242836 1.1196823.5119514-.3731575.2691116-.746315.4081192-1.1196823.5034714-.3731537.1042557-.7463112.1474838-1.1194687.1474838-.3731537-.0084763-.7378349-.0432281-1.1109924-.1474838-.3733673-.0953522-.746521-.2343597-1.1196785-.5034714.3731575-.2691154.7463112-.4165955 1.1196785-.5119514.3731575-.095356.7378387-.1390076 1.1109924-.1390076.3731575 0 .746315.0347519 1.1194687.1390076z"/></g></g></g></g></g></g></g></g><g><g><g><g><g><g><g><path d="m61.5699463 31.1298828v15.2099609h-13.2299805c-.8999023 0-1.6298828-.7299805-1.6298828-1.6298828v-11.9501953c0-.8999023.7299805-1.6298828 1.6298828-1.6298828z" fill="#aec46e"/><g fill="#617f4d"><path d="m65.8900146 32.7597656v11.9501953c0 .8999023-.7299805 1.6298828-1.630127 1.6298828h-2.6999512v-15.2001953h2.6999512c.9001466 0 1.630127.7304688 1.630127 1.6201172z"/><path d="m56.957119 31.1352291v3.7081394c0 .4277115-.4676743.6750069-.8218193.4410858l-1.2294655-.8286705c-.1802521-.12006-.4141731-.12006-.5945854.0068512l-1.155899.80159c-.3474541.2407722-.8285065-.0065231-.8285065-.4342346v-3.6947613z"/><path d="m55.2867317 42.4805107c-.4877434.2071686-.9754829.3207016-1.4632263.3941078-.4877396.0802574-.9754791.1070099-1.4566956.1070099-.4877434 0-.9754829-.0336037-1.4632263-.1070099-.4877396-.0734062-.9754791-.1869392-1.4632225-.3941078.4877434-.2071686.9754829-.3141747 1.4632225-.3875809.4877434-.0802574.9754829-.1070099 1.4632263-.1135368.4812164 0 .968956.0332794 1.4566956.1135368.4877434.0734063.9754829.1804123 1.4632263.3875809z"/><path d="m52.0193558 44.0106163c.2874222.0734062.5746841.1869392.8619461.3941078-.287262.2071686-.5745239.3141747-.8619461.3875809-.287262.0802574-.5745239.1135368-.8617859.1135368-.287262-.0065269-.567997-.0332794-.8552589-.1135368-.287426-.0734062-.574688-.1804123-.8619499-.3875809.287262-.2071686.5745239-.3207016.8619499-.3941078.287262-.0734062.567997-.1070099.8552589-.1070099s.5745239.0267525.8617859.1070099z"/></g></g></g></g></g></g></g></g></g></svg>