<svg id="Layer_1" enable-background="new 0 0 68 68" height="512" viewBox="0 0 68 68" width="512" xmlns="http://www.w3.org/2000/svg"><g><g><circle cx="34" cy="34" fill="#474f6f" r="32"/></g><g><path d="m61.1400146 17.039978c-5.6600341 9.0300293-15.7000122 15.0300293-27.1400146 15.0300293s-21.4799805-6-27.1400146-15.0300293c5.6500244-9.0299682 15.7000122-15.039978 27.1400146-15.039978s21.4899902 6.0100098 27.1400146 15.039978z" fill="#545d7a"/></g><g opacity=".2"><path d="m50.2773056 58.8815765c0 .5802612-7.2942429 1.0509682-16.2892113 1.0509682s-16.2892113-.4707069-16.2892113-1.0509682c0-.5803032 7.2942448-1.0445137 16.2892113-1.0445137s16.2892113.4642105 16.2892113 1.0445137z"/></g><g><g><g><path d="m50.2107239 30.8228703 3.0104179.6868896-.9352989 4.1064472-3.0104179-.6868896c-.3799706 1.0229759-.8476219 1.987442-1.4029503 2.9081116l2.4112968 1.9143906-2.615818 3.2880821-2.4112968-1.9143906c-.7744827.7453156-1.6221008 1.4175758-2.5281448 2.0020714l1.3444366 2.776638-3.7995262 1.8267136-1.329895-2.776638c-1.0083504.336174-2.0604935.5845833-3.1418953.7161446v2.3235283h-4.2087517v-2.3235283c-1.0813999-.1315613-2.1336327-.3799706-3.1419811-.7161446l-1.3444366 2.776638-3.7849884-1.8267136 1.3298969-2.776638c-.9060421-.5844955-1.7536621-1.2567558-2.5282307-2.0020714l-2.3965797 1.9143906-2.630537-3.2880821 2.4112968-1.9143906c-.5553284-.9206696-1.0229778-1.8851357-1.4029484-2.9081116l-2.9957905.6868896-.9352989-4.1064472 2.9958801-.6868896c-.0438843-.5260715-.0731392-1.0667725-.0731392-1.6074715 0-.5553284.0292549-1.0960274.0876789-1.6221886l-3.0104198-.6868019.9352989-4.1064472 2.9957905.6868019c.3799706-1.0228882.84762-2.0020695 1.4029484-2.9081135l-2.4112968-1.9143906 2.630537-3.2880831 2.3965797 1.9143915c.7745686-.7453136 1.6221886-1.4174862 2.5282307-2.0020704l-1.3298969-2.7765493 3.7849884-1.8267126 1.3444366 2.7765493c1.0083485-.3360863 2.0605812-.5844946 3.1419811-.7160568v-2.9123945h4.2087517v2.9123945c1.0814018.1315622 2.1335449.3799706 3.1418953.7160568l1.329895-2.7765493 3.7995262 1.8267126-1.3444366 2.7765493c.906044.5845842 1.7536621 1.2567568 2.5281448 2.0020704l2.4112968-1.9143915 2.615818 3.2880831-2.4112968 1.9290199c.5553284.9060421 1.0229797 1.8705959 1.4029503 2.8934841l3.0104179-.6868019.9352989 4.1064472-3.0250473.6868019c.0584221.5261612.087677 1.0668602.087677 1.6221886 0 .5406991-.0292549 1.0814-.0730476 1.6074716z" fill="#8fc8f5"/></g></g><g><path d="m44.7299042 29.201931c0 6.1016769-4.9492645 11.0388031-11.0387268 11.0388031-6.0895348 0-11.026659-4.9371262-11.026659-11.0388031 0-6.0894604 4.9371243-11.0265846 11.026659-11.0265846 6.0894622 0 11.0387268 4.9371242 11.0387268 11.0265846z" fill="#545d7a"/></g><g><g><path d="m42.0906487 48.8533669v3.2919312c0 .2727852-.2211342.4939232-.4939232.4939232h-15.7990284c-.2727852 0-.4939232-.221138-.4939232-.4939232v-3.2919312c0-.272789.221138-.4939232.4939232-.4939232h15.7990284c.272789 0 .4939232.2211342.4939232.4939232z" fill="#ff9f00"/></g><g><path d="m41.2398643 32.7323685v2.7344971c0 .1505966-.1220856.2726822-.272686.2726822h-14.5399341c-.1505985 0-.2726822-.1220856-.2726822-.2726822v-2.7344971c0-.1506004.1220837-.2726822.2726822-.2726822h14.5399342c.1506004 0 .2726859.1220817.2726859.2726822z" fill="#ff9f00"/></g><g><path d="m43.3820763 51.6131248v3.2919312c0 .2727852-.221138.4939232-.493927.4939232h-18.381876c-.2727871 0-.4939251-.221138-.4939251-.4939232v-3.2919312c0-.272789.221138-.493927.4939251-.493927h18.381876c.272789 0 .493927.221138.493927.493927z" fill="#fed110"/></g><g><path d="m39.9089165 35.7395477.813919 12.6170616h-14.0512466l.813921-12.6170616z" fill="#fed110"/></g><g><path d="m41.2099609 25.162878-1.0070496 7.3008175h-13.0090598l-1.0069847-7.3008194c-.0183067-.1327305.0848217-.2510586.2188072-.2510586h2.5809021c.1135101 0 .2085419.0860348.2197914.1989861l.2327557 2.3368683c.0172997.1736946.163435.3059978.3379898.3059978h2.1369534c.1923599 0 .3463364-.1595917.3394432-.3518276l-.0810471-2.2612343c-.0044823-.1250095.0956459-.2287903.2207375-.2287903h2.5660057c.1247444 0 .2247391.1032333.2207642.2279167l-.072155 2.2634506c-.0061111.1917343.1476593.3504848.339489.3504848h2.1836777c.1745529 0 .3206902-.1323032.3379898-.3059978l.2327576-2.3368683c.0112495-.1129513.1062813-.1989861.2197914-.1989861h2.5696335c.1339872.0000002.2371176.1183302.218807.2510606z" fill="#fed110"/></g></g></g></g></svg>