<svg id="Layer_1" enable-background="new 0 0 68 68" height="512" viewBox="0 0 68 68" width="512" xmlns="http://www.w3.org/2000/svg"><g><g><g><g><g><g><path d="m53.4313469 61.9592133c1.4476128 0 2.6211319-1.1735191 2.6211319-2.6211319v-4.5181046c0-5.5129204-3.2134171-10.5134735-8.2340736-12.8026772l-5.8740234-2.6711464c-2.0283661-.9237251-4.1270866-1.6165161-6.2758217-2.0783768-4.3781223-.9639282-8.9065189-.9639282-13.2846413 0-2.1389275.4618607-4.2474556 1.1546516-6.2758217 2.0783768l-5.8742676 2.6711464c-5.0106063 2.2892037-8.2338295 7.2897568-8.2338295 12.8026772v4.5181046c0 1.4476128 1.1735208 2.6211319 2.6211324 2.6211319z" fill="#4f5d99"/><path d="m34.30896 61.9592133 1.3998032-24.6713333-.0402032-.0201035c-4.3781223-.9639282-8.9065189-.9639282-13.2846413 0l-.040205.0201035 1.4088745 24.6713333z" fill="#e9e9ff"/><path d="m35.7087631 37.2764473-6.6825237 3.9097938 2.4096107 3.5657387 3.9695759-2.1177139z" fill="#cfcfff"/><path d="m22.3437138 37.2764473 6.6825256 3.9097938-2.4096108 3.5657387-3.9695758-2.1177139z" fill="#cfcfff"/><path d="m27.0662708 61.9592133h3.9199371l-1.0659084-14.9967613c-.0745258-1.0477715.3522797-2.068573 1.1499939-2.7515564l-2.044054-3.0246544-2.044054 3.0246544c.7977142.6829834 1.2245197 1.7037849 1.1499939 2.7515564z" fill="#ed524e"/><path d="m36.7128944 32.0058899-.7832527 4.0871315-.2208786 1.1845589-6.6776199 3.9062118-6.6874294-3.9062118-.2610836-1.385582-.7430478-3.8861084z" fill="#ffcbba"/><path d="m36.7128944 32.0058899-.7832527 4.0871315c-1.8778419 1.465992-4.2273521 2.3392143-6.7879372 2.3392143h-.0201015c-2.6709023 0-5.120924-.9536324-7.0389729-2.5402374l-.7430477-3.8861084z" fill="#efb7a8"/><g><path d="m41.0886955 14.6359406v5.5391884l-1.5202484 3.0929718-2.1842766 1.2145767-3.6695404.3319073-5.4869289-1.4850521-5.3732357.5418034-4.6044731-.760231-1.0746479-2.935976s-.288393-2.0968189-.9261837-6.2469454c-.0349827-.235919-.052475-.471838-.052475-.707757 0-3.870266 4.6569462-7.1816635 4.6569462-7.1816635 1.6512203.8562198 3.4948444 1.2580924 5.3470001 1.1706362l6.753767-.3233757c4.4297714-.2184278 8.1342964 3.3203571 8.1342964 7.7499169z" fill="#7f6218"/><path d="m39.19944 26.948679v.4174824c0 5.5609055-4.5032234 10.063652-10.0544147 10.063652h-.0194283c-5.5511913 0-10.0544128-4.5027466-10.0544128-10.063652v-.4174824s-2.1058941-2.8920517-1.8924141-6.7740231l2.1544666 2.1158447.0971432-.42696c.2037659-.8155365.7667274-1.4851189 1.5334549-1.8343639v-1.7372208c0-.5335827.223196-1.0188293.5724392-1.3685474.3494835-.3591957.8347282-.5724392 1.3685474-.5724392.8636341 0 1.7080784.2037659 2.48452.5918674.9316349.475769 2.3679447 1.0581608 3.7459698.9804459 1.3780251.0777149 2.8143349-.5046768 3.7459717-.9804459.7766762-.3881016 1.6208839-.5918674 2.48452-.5918674.5338173 0 1.019062.2132435 1.3685455.5724392.3492432.3497181.5724373.8349648.5724373 1.3685474v1.7372208c.7667274.3492451 1.329689 1.0188274 1.5334549 1.8343639l.0971451.42696 2.1544685-2.1158447c.213478 3.8819714-1.8924142 6.7740231-1.8924142 6.7740231z" fill="#ffcbba"/></g></g><g><g fill="#3d4a75"><circle cx="24.483" cy="24.711" r=".924"/><circle cx="33.341" cy="24.711" r=".924"/></g><path d="m31.7504864 31.0821705c0 .7755852-.3103771 1.4836941-.8241177 1.9976749-.513979.5042725-1.2121468.8241158-1.9976749.8241158h-.6110439c-1.5611115 0-2.8217907-1.2606773-2.8217907-2.8217907z" fill="#efb7a8"/><path d="m29.1186466 26.8692074v2.0459709c0 .2165833-.1732235.3984795-.3984776.3984795-.2165833 0-.3900185-.1818962-.3900185-.3984795v-2.0459709c0-.2165833.1734352-.3984795.3900185-.3984795.2252541 0 .3984776.1818962.3984776.3984795z" fill="#efb7a8"/><g fill="#3d4a75"><path d="m35.2790375 22.6758442-3.4180775-.0003738c-.216629-.0000381-.3985958-.1734486-.3986397-.398901-.000042-.2167721.1818581-.3903275.3984852-.3902874l3.4180756.0003738c.216629.0000401.3985977.1736603.3986397.3904343.0000419.2254524-.1818581.3987941-.3984833.3987541z"/><path d="m26.1916752 22.6758442-3.4180775-.0003738c-.2166271-.0000381-.3985939-.1734486-.3986378-.398901-.0000439-.2167721.1818562-.3903275.3984852-.3902874l3.4180756.0003738c.2166271.0000401.3985958.1736603.3986378.3904343.0000438.2254524-.1818562.3987941-.3984833.3987541z"/></g></g></g></g><g fill="#3d4a75"><path d="m35.7087631 37.2775803 5.9889603 4.6185684c.2547493.1964569.3356819.545269.19347.8338318l-2.9714394 6.0293198c-.1414642.2870445-.0621872.6339569.1899147.8310661l2.0283546 1.5859032c.2839432.2220078.3436699.6277962.1357269.9221992l-6.9647902 9.8607445z"/><path d="m22.3410854 37.2775803-5.9889584 4.6185684c-.2547493.1964569-.3356819.545269-.1934681.8338318l2.9714355 6.0293198c.1414642.2870445.0621891.6339569-.1899128.8310661l-2.0283527 1.5859032c-.283947.2220078-.3436699.6277962-.1357288.9221992l6.9647884 9.8607445z"/></g></g><g><g><g><g><path d="m66 46.6711655v9.2765312c0 .6022301-.4883118 1.0905075-1.0905075 1.0905075h-18.8379822c-.6021996 0-1.0905075-.4882774-1.0905075-1.0905075v-11.7483406c0-.6022301.488308-1.0905113 1.0905075-1.0905113h5.5318642c.3283615 0 .6385574.1478539.8457489.402256l1.3546448 1.6660576c.2071953.2544632.5173912.4023132.8457489.4023132l10.2599754.0011826c.6021957-.0000001 1.0905075.4870986 1.0905075 1.0905113z" fill="#f9ac00"/><path d="m64.7356033 47.4034843v9.6095924h-18.4100074v-9.6095924c0-.3908119.3168182-.7076263.7076302-.7076263h16.994751c.390808 0 .7076262.3168144.7076262.7076263z" fill="#e9e9ff"/><path d="m58.7321548 47.865757c-.3901558 0-.7689171.1315308-1.0750961.3733482l-.1729698.1366081-.8133545.6420898c-.1378212.1047325-.2948036.1855469-.4613037.2187538-.0950966.0285606-.1901894.0429611-.2900467.0429611h-9.7281761c-.6658936 0-1.2080116.5420036-1.2080116 1.2126579v10.2527924c0 .6669617.5456963 1.2126579 1.2126579 1.2126579h18.5894089c.6669617 0 1.2126617-.5456963 1.2126617-1.2126579v-12.4547118c0-.1500168-.0303116-.2921333-.0803528-.4244995z" fill="#fdc72e"/></g></g><path d="m58.7326317 47.8633728h6.4181938c.4689789 0 .8491592.3801804.8491592.8491554v12.0297585c0 .6693115-.5476227 1.2169266-1.2169266 1.2169266h-18.5828285c-.6693077 0-1.2169266-.5476151-1.2169266-1.2169266v-10.253643c0-.6655083.5445099-1.2100143 1.2100182-1.2100143h9.7229691c.1060715 0 .1979828-.0141678.290062-.0424995.1698265-.035244.3254814-.1129875.4669724-.219059l.8138771-.6440544.1698227-.134407c.1627426-.134407.3538132-.2266617.551796-.2902374.169998-.0494082.3469046-.0849993.5238112-.0849993z" fill="#fdc72e"/></g><g fill="#f9ac00"><path d="m49.7808151 59.708065v.5603676c0 .0740318-.0613327.1353645-.1353683.1353645h-2.7849884c-.0740356 0-.1353683-.0613327-.1353683-.1353645v-.5603676c0-.0761986.0613327-.1353645.1353683-.1353645h2.7849884c.0740356 0 .1353683.059166.1353683.1353645z"/><path d="m54.7376175 57.7413712v.5603638c0 .0762024-.0613327.1353683-.1353683.1353683h-7.7417908c-.0740356 0-.1353683-.059166-.1353683-.1353683v-.5603638c0-.0740356.0613327-.1353683.1353683-.1353683h7.7417908c.0740356-.0000001.1353683.0613326.1353683.1353683z"/><path d="m54.7376175 59.708065v.5603676c0 .0740318-.0613327.1353645-.1353683.1353645h-3.5801544c-.076149 0-.1353149-.0613327-.1353149-.1353645v-.5603676c0-.0761986.059166-.1353645.1353149-.1353645h3.5801544c.0740356 0 .1353683.059166.1353683.1353645z"/></g></g></g><g fill="#fff" opacity=".2"><path d="m61.4752808 61.961235h-12.2597657l-4.2299805-12.5800781v-5.1801758c0-.6000977.4799805-1.0898438 1.0898438-1.0898438h5.5300293c.3300781 0 .6398926.1499023.8400879.3999023l1.3598633 1.6699219c.2099609.25.5200195.4003906.8400879.4003906h1.3200684z"/><path d="m65.9953003 55.6912155v5.0498047c0 .6704102-.5397949 1.2202148-1.2099609 1.2202148h-.1599121l-5.5100098-16.3798828h3.4799805z"/></g></g></svg>