<svg id="Layer_1" enable-background="new 0 0 68 68" height="512" viewBox="0 0 68 68" width="512" xmlns="http://www.w3.org/2000/svg"><g><g><g><g><g><g><path d="m60.5186844 54.5482292h-53.0373669c-1.9226785 0-3.4813175-1.5586357-3.4813175-3.4813156v-38.870697c0-1.922678 1.558639-3.4813175 3.4813175-3.4813175h53.0373688c1.9226742-.0000019 3.4813137 1.5586376 3.4813137 3.4813156v38.870697c0 1.9226818-1.5586395 3.4813175-3.4813156 3.4813175z" fill="#488ff7"/></g></g><g><g><g><path d="m7.9999065 49.3213005v-35.3793926c0-.6776142.5493145-1.2269287 1.2269287-1.2269287h49.5461426c.6776123 0 1.2269287.5493145 1.2269287 1.2269287v35.3793945c0 .6776161-.5493164 1.2269287-1.2269287 1.2269287h-49.5461425c-.6776143-.0000019-1.2269288-.5493145-1.2269288-1.2269306z" fill="#fff"/></g></g></g><g><g><path d="m29.02 54.548h11.485v7.417h-11.485z" fill="#3275c6"/></g></g><g><g><path d="m54.4586601 63.9799805c0 .5600586-.2299805 1.0700684-.5899658 1.4301758-.3601074.3598632-.8601074.5898437-1.4200439.5898437h-35.1500264c-1.1199951 0-2.0200186-.8999023-2.0200186-2.0200195 0-.5498047.2299805-1.0598145.5900879-1.4299316.3599844-.3601074.8698721-.5900879 1.4299307-.5900879h35.1500244c1.1099873-.0000001 2.0100117.9101562 2.0100117 2.0200195z" fill="#304056"/></g></g></g></g></g><g><g><g><path d="m52.5398865 5.7099609v36.1601563c0 2.0500488-1.6599121 3.7099609-3.7199707 3.7099609h-29.6400166c-2.0499268 0-3.7199707-1.6599121-3.7199707-3.7099609v-36.1601563c0-2.0498046 1.670044-3.7099609 3.7199707-3.7099609h29.6400166c2.0600586 0 3.7199707 1.6601563 3.7199707 3.7099609z" fill="#dbdbdb"/></g></g><g><g><g><g><path d="m34.4597778 42.0800781h-15.0000019c-.2763672 0-.5-.223877-.5-.5s.2236328-.5.5-.5h15.0000019c.2763672 0 .5.223877.5.5s-.2236328.5-.5.5z" fill="#304056"/></g></g></g><g><g><g><path d="m48.539856 6.5h-14.0800782c-.2763672 0-.5-.223877-.5-.5s.2236328-.5.5-.5h14.0800782c.2763672 0 .5.223877.5.5s-.2236329.5-.5.5z" fill="#304056"/></g></g></g><g><g><g><path d="m48.539856 12.4299316h-14.0800782c-.2763672 0-.5-.223877-.5-.5s.2236328-.5.5-.5h14.0800782c.2763672 0 .5.223877.5.5s-.2236329.5-.5.5z" fill="#304056"/></g></g></g><g><g><g><path d="m48.539856 18.3601074h-14.0800782c-.2763672 0-.5-.223877-.5-.5s.2236328-.5.5-.5h14.0800782c.2763672 0 .5.223877.5.5s-.2236329.5-.5.5z" fill="#304056"/></g></g></g><g><g><g><path d="m48.539856 24.2900391h-29.08008c-.2763672 0-.5-.223877-.5-.5s.2236328-.5.5-.5h29.08008c.2763672 0 .5.223877.5.5s-.2236329.5-.5.5z" fill="#304056"/></g></g></g><g><g><g><path d="m48.539856 30.2199707h-29.08008c-.2763672 0-.5-.223877-.5-.5s.2236328-.5.5-.5h29.08008c.2763672 0 .5.223877.5.5s-.2236329.5-.5.5z" fill="#304056"/></g></g></g><g><g><g><path d="m48.539856 36.1501465h-29.08008c-.2763672 0-.5-.223877-.5-.5s.2236328-.5.5-.5h29.08008c.2763672 0 .5.223877.5.5s-.2236329.5-.5.5z" fill="#304056"/></g></g></g></g><g><g><g><circle cx="25.497" cy="12.455" fill="#488ff7" r="6.811"/></g></g></g><g><g><g><g><path d="m28.9573345 14.4501953c-.0899658.1601563-.2600098.25-.4299316.25-.0800781 0-.1700439-.0200195-.25-.0600586l-2.2800293-1.3198242v2.6298828c0 .2797852-.2199707.5-.5.5s-.5-.2202148-.5-.5v-2.6298828l-2.2800293 1.3198242c-.0800781.0400391-.1699219.0600586-.25.0600586-.1699219 0-.3399658-.0898438-.4299316-.25-.1401367-.2299805-.0600586-.5400391.1799316-.6801758l2.2800293-1.3100586-2.2800293-1.3198242c-.2399903-.1401367-.3200684-.4501953-.1799317-.6899414.1298828-.2299805.4399414-.3203125.6799316-.1801758l2.2800293 1.3198242v-2.6396484c0-.2700195.2199707-.5.5-.5s.5.2299805.5.5v2.6396484l2.2800293-1.3198242c.2399902-.1401367.5499268-.0498047.6799316.1801758.1400148.2397461.0600587.5498047-.1799315.6899414l-2.2800293 1.3198242 2.2800293 1.3100586c.2399902.1401368.3199463.4501953.1799316.6801758z" fill="#fff"/></g></g></g></g></g></g></svg>