<svg id="Layer_1" enable-background="new 0 0 68 68" height="512" viewBox="0 0 68 68" width="512" xmlns="http://www.w3.org/2000/svg"><g><g><g><path d="m56.8984756 22.6736526v22.6564255c0 1.6568527-1.3431473 3-3 3h-39.7935724c-1.6568546 0-3-1.3431473-3-3v-22.6564255c0-1.6568527 1.3431454-3 3-3h39.7935715c1.6568537 0 3.0000009 1.3431473 3.0000009 3z" fill="#4cc66e"/></g><g><path d="m56.9000244 22.6699219v22.6601563c0 1.6601563-1.3400879 3-3 3h-39.8000488c-1.6499023 0-3-1.3398438-3-3l42.8000488-25.6601563c1.6599121 0 3 1.3500976 3 3z" fill="#14a142"/></g><g><path d="m15.1047163 40.8300781v-13.6564941c1.9329958 0 3.499999-1.5670033 3.499999-3.5h30.7939472c0 1.9329967 1.5670013 3.5 3.5 3.5v13.6564941c-1.9329987 0-3.5 1.5670052-3.5 3.5h-30.7939472c0-1.9329948-1.5670032-3.5-3.499999-3.5z" fill="#e5e8ef"/></g><g><path d="m40.8699951 34c0 3.9301758-3.1899414 7.1201172-7.1201172 7.1201172-3.9299316 0-7.119873-3.1899414-7.119873-7.1201172s3.1899414-7.1201172 7.119873-7.1201172c3.9301758 0 7.1201172 3.1899414 7.1201172 7.1201172z" fill="#4cc66e"/></g><g><g><path d="m49.3827362 34c0 1.4603081-1.1852646 2.6455727-2.6455727 2.6455727-1.4602165 0-2.6454811-1.1852646-2.6454811-2.6455727s1.1852646-2.6455727 2.6454811-2.6455727c1.4603081 0 2.6455727 1.1852646 2.6455727 2.6455727z" fill="#4cc66e"/></g><g><path d="m23.9083176 34c0 1.4603081-1.1852646 2.6455727-2.6455727 2.6455727-1.4602165 0-2.6454811-1.1852646-2.6454811-2.6455727s1.1852646-2.6455727 2.6454811-2.6455727c1.4603081 0 2.6455727 1.1852646 2.6455727 2.6455727z" fill="#4cc66e"/></g></g><g><g><g><path d="m36.3599854 35.5698242c0 1.0302734-.7299805 1.9101563-1.7299805 2.2104492v.3999023c0 .409668-.3400879.75-.75.75-.4199219 0-.75-.340332-.75-.75v-.3999023c-1.0100098-.300293-1.7399902-1.1801758-1.7399902-2.2104492 0-.4199219.3398438-.75.75-.75.4199219 0 .75.3300781.75.75 0 .4501953.4499512.8100586.9899902.8100586s.9799805-.3598633.9799805-.8100586c0-.449707-.4399414-.8198242-.9799805-.8198242-1.369873 0-2.4899902-1.0400391-2.4899902-2.3198242 0-1.0302734.7299805-1.9101563 1.7399902-2.2104492v-.3999023c0-.409668.3300781-.75.75-.75.4099121 0 .75.340332.75.75v.3999023c1 .300293 1.7299805 1.1801758 1.7299805 2.2104492 0 .4199219-.329834.75-.75.75-.4099121 0-.75-.3300781-.75-.75 0-.4501953-.4399414-.8100586-.9799805-.8100586s-.9899902.3598633-.9899902.8100586c0 .449707.4499512.8198242.9899902.8198242 1.369873 0 2.4799805 1.0400391 2.4799805 2.3198242z" fill="#e5e8ef"/></g></g></g></g><g><g><g><g><path d="m34.0649872 66c-8.7531204 0-17.2138062-3.6583214-23.2127571-10.0368156-.636054-.6763268-.6034107-1.7403107.0730114-2.376461.6762295-.6363449 1.740696-.6034088 2.3763638.0729141 5.4449863 5.7894783 12.8188019 8.977951 20.763382 8.977951 15.7145538 0 28.4993629-12.7839355 28.4993629-28.4974289 0-3.8227901-.7438316-7.5323925-2.2108307-11.0257607-.3594589-.8560543.0430717-1.8415222.899128-2.2009792.8562469-.3598442 1.8413277.0430737 2.2009773.899128 1.6410332 3.9077778 2.4731331 8.0553551 2.4731331 12.3276119-.0000001 17.5675697-14.2931367 31.8598404-31.8617707 31.8598404z" fill="#435e88"/></g></g><g><g><path d="m10.4298038 60.2146759c-.9284868 0-1.6812048-.7527161-1.6812048-1.6812057v-5.3073654c0-.9284859.752718-1.6812019 1.6812048-1.6812019h5.3074617c.9284868 0 1.6812048.7527161 1.6812048 1.6812019 0 .9284897-.752718 1.6812057-1.6812048 1.6812057h-3.6262569v3.6261597c0 .9284896-.7527179 1.6812057-1.6812048 1.6812057z" fill="#435e88"/></g></g></g><g><g><g><path d="m33.9349899 2c8.7531166-.0000027 17.2138023 3.6583138 23.2127495 10.0368052.636055.6763248.6034126 1.7403088-.0730095 2.3764591-.6762276.636343-1.740696.6034107-2.3763618-.0729151-5.4449883-5.7894716-12.8187981-8.9779434-20.7633782-8.9779406-15.7145462.0000048-28.4993448 12.7839404-28.499341 28.4974242.000001 3.8227882.7438345 7.5323906 2.2108331 11.0257568.3594584.8560524-.0430727 1.8415222-.899127 2.2009811-.8562474.3598442-1.8413281-.0430756-2.2009792-.899128-1.6410296-3.9077759-2.473134-8.0553513-2.4731352-12.3276062-.0000048-17.567562 14.2931248-31.859831 31.8617493-31.8598365z" fill="#435e88"/></g></g><g><g><path d="m57.5701675 7.7853131c.9284859-.0000005 1.6812019.7527165 1.6812019 1.6812034l.0000038 5.3073635c0 .9284868-.7527199 1.6812038-1.6812057 1.6812038l-5.3074608.0000019c-.9284859.0000019-1.6812019-.7527161-1.6812019-1.6812029s.7527161-1.6812048 1.6812019-1.6812048l3.626255-.000001v-3.6261596c.0000001-.9284868.7527162-1.6812043 1.6812058-1.6812043z" fill="#435e88"/></g></g></g></g></g></svg>