<svg id="Layer_1" enable-background="new 0 0 68 68" height="512" viewBox="0 0 68 68" width="512" xmlns="http://www.w3.org/2000/svg"><g><g><g><g><g><g><g><path d="m56.2013626 50.8429222h-50.7120027c-1.9226785 0-3.4813173-1.5586395-3.4813173-3.4813194v-37.0443125c0-1.9226789 1.5586388-3.4813175 3.4813173-3.4813175h50.7120018c1.9226761 0 3.4813156 1.5586386 3.4813156 3.4813175v37.0443115c.0000009 1.9226809-1.5586386 3.4813204-3.4813147 3.4813204z" fill="#dbdbdb"/></g></g></g></g><g><g><g><g><g><path d="m5.6126232 46.1325912v-34.586214c0-.6106424.4950237-1.1056662 1.1056666-1.1056662h48.2539749c.6106415 0 1.1056671.4950237 1.1056671 1.1056662v34.5862122c0 .6106415-.4950256 1.1056671-1.1056671 1.1056671h-48.2539748c-.610643.0000019-1.1056667-.4950238-1.1056667-1.1056653z" fill="#fff"/></g></g></g></g></g><g><g><g><g><path d="m17.8572426 14.5454454h-8.6401367c-.2763672 0-.5-.223877-.5-.5s.2236328-.5.5-.5h8.6401367c.2763672 0 .5.223877.5.5s-.2236328.5-.5.5z"/></g></g></g></g><g><g><g><g><path d="m13.1262856 17.9621925h-3.9091797c-.2763672 0-.5-.223877-.5-.5s.2236328-.5.5-.5h3.9091797c.2763672 0 .5.223877.5.5s-.2236329.5-.5.5z"/></g></g></g></g><g><g><g><g><g><path d="m33.3240395 27.5659523v15.1499023c0 .5102539-.4099121.9199219-.9199219.9199219h-3.1199951c-.5 0-.9200439-.409668-.9200439-.9199219v-15.1499023c0-.5102539.4200439-.9199219.9200439-.9199219h3.1199951c.5100097 0 .9199219.409668.9199219.9199219z" fill="#488ff7"/></g></g></g></g><g><g><g><g><path d="m50.1441078 23.2558937v19.4599609c0 .5102539-.4100342.9199219-.9200439.9199219h-3.1099854c-.5100098 0-.9299316-.409668-.9299316-.9199219v-19.4599609c0-.5097656.4199219-.9199219.9299316-.9199219h3.1099854c.5100097 0 .9200439.4101563.9200439.9199219z" fill="#488ff7"/></g></g></g></g><g><g><g><g><path d="m41.7340736 31.9761086v10.7397461c0 .5102539-.4100342.9199219-.9200439.9199219h-3.119873c-.5 0-.9200439-.409668-.9200439-.9199219v-10.7397461c0-.5102539.4200439-.9204102.9200439-.9204102h3.119873c.5100098 0 .9200439.4101562.9200439.9204102z" fill="#488ff7"/></g></g></g></g><g><g><g><g><path d="m16.5040932 30.8159523v11.8999023c0 .5102539-.4100342.9199219-.9200439.9199219h-3.119873c-.5100098 0-.920166-.409668-.920166-.9199219v-11.8999023c0-.5.4101563-.9199219.920166-.9199219h3.119873c.5100097 0 .9200439.4199219.9200439.9199219z" fill="#488ff7"/></g></g></g></g><g><g><g><g><path d="m24.9141273 35.3056984v7.4101563c0 .5102539-.4100342.9199219-.9200439.9199219h-3.1199951c-.5100098 0-.9199219-.409668-.9199219-.9199219v-7.4101563c0-.5097656.4099121-.9199219.9199219-.9199219h3.1199951c.5100098 0 .9200439.4101563.9200439.9199219z" fill="#488ff7"/></g></g></g></g></g><g><g><g><g><path d="m26.357 50.843h10.35v6.684h-10.35z" fill="#b9b9b9"/></g></g></g></g><g><g><g><g><path d="m49.2855492 61.1640282h-35.3110009v-.8978996c0-1.5130157 1.2265425-2.7395592 2.7395592-2.7395592h29.8318863c1.5130157 0 2.7395554 1.2265434 2.7395554 2.7395592z" fill="#304056"/></g></g></g></g></g><g><g><g><g><path d="m14.0242348 26.2527199c-.1870117 0-.3662109-.1052246-.4521484-.2851563-.1186523-.2495117-.0126953-.5478516.2368164-.6662598l16.8212891-8c.1606445-.0756836.3476563-.0617676.4941406.0368652l8.0878906 5.4487305 8.1206055-7.2805166c.2060547-.1838379.5219727-.1672363.7060547.0385742.1845703.2055664.1674805.5217276-.0380859.7060537l-8.4106445 7.5405273c-.1713867.1525879-.4233398.1704102-.6132813.0424805l-8.1748047-5.5073242-16.5634767 7.8776856c-.0693359.032959-.1425781.0483399-.2143554.0483399z"/></g></g></g></g><g><g><g><g><path d="m48.3416176 17.9621925c-.2763672 0-.5-.223877-.5-.5v-1.8762197h-1.8764648c-.2763672 0-.5-.223877-.5-.5s.2236328-.5.5-.5h2.3764648c.2763672 0 .5.223877.5.5v2.3762197c0 .2761231-.2236328.5-.5.5z"/></g></g></g></g></g><g><g><g><g><g><g><circle cx="56.078" cy="48.155" fill="#3275c6" r="9.914"/></g></g></g></g><g><g><g><g><circle cx="56.078" cy="48.155" fill="#fefefe" r="6.97"/></g></g></g></g><g><g><g><g><path d="m56.0779457 52.6567726c-1.3061523 0-2.3691406-1.0629883-2.3691406-2.3693848 0-.276123.2236328-.5.5-.5s.5.223877.5.5c0 .755127.6142578 1.3693848 1.3691406 1.3693848s1.3691406-.6142578 1.3691406-1.3693848c0-.7548828-.6142578-1.3691406-1.3691406-1.3691406-1.3061523 0-2.3691406-1.0629883-2.3691406-2.3693848s1.0629883-2.3691406 2.3691406-2.3691406 2.3691406 1.0627441 2.3691406 2.3691406c0 .276123-.2236328.5-.5.5s-.5-.223877-.5-.5c0-.7548828-.6142578-1.3691406-1.3691406-1.3691406s-1.3691406.6142578-1.3691406 1.3691406c0 .755127.6142578 1.3693848 1.3691406 1.3693848 1.3061523 0 2.3691406 1.0627441 2.3691406 2.3691406s-1.0629882 2.3693848-2.3691406 2.3693848z"/></g></g></g></g><g><g><g><g><path d="m56.0779457 45.1797218c-.2763672 0-.5-.223877-.5-.5v-.5297852c0-.276123.2236328-.5.5-.5s.5.223877.5.5v.5297852c0 .2761231-.2236328.5-.5.5z"/></g></g></g></g><g><g><g><g><path d="m56.0779457 53.1863136c-.2763672 0-.5-.223877-.5-.5v-.529541c0-.276123.2236328-.5.5-.5s.5.223877.5.5v.529541c0 .2761231-.2236328.5-.5.5z"/></g></g></g></g></g></g></g></svg>