<svg id="Layer_1" enable-background="new 0 0 68 68" height="512" viewBox="0 0 68 68" width="512" xmlns="http://www.w3.org/2000/svg"><g><g><g><g><path d="m65.9299927 59.1499023c0 1.4899902-.5999756 2.8300781-1.5799561 3.8000488-.9700928.9799805-2.3100586 1.5800781-3.7900391 1.5800781h-53.1201171c-2.9699707 0-5.369873-2.4101563-5.369873-5.380127 0-.8898926.7299805-1.619873 1.6298828-1.619873h60.6000977c.8999022.0000001 1.6300048.7299806 1.6300048 1.6198731z" fill="#304056"/></g></g><g><g><path d="m61.6499634 21.4299316v36.1000977h-56.039917v-36.1000977c0-1.9301758 1.5599365-3.4899902 3.4799805-3.4899902h49.0799561c1.9200439 0 3.4799804 1.5598145 3.4799804 3.4899902z" fill="#488ff7"/></g></g><g><g><path d="m9.6099672 53.6468163v-30.8232613c0-.4860764.394042-.8801174.8801184-.8801174h46.2812691c.4860725 0 .8801155.3940411.8801155.8801174v30.8232613c0 .4860764-.394043.8801155-.8801155.8801155h-46.2812691c-.4860764 0-.8801184-.3940392-.8801184-.8801155z" fill="#fefefe"/></g></g><g><g><path d="m40.4799194 57.5300293v1.7099609c0 .6999512-.5699463 1.2700195-1.2800293 1.2700195h-11.1398925c-.6999512 0-1.2700195-.5700684-1.2700195-1.2700195v-1.7099609z" fill="#fff"/></g></g></g><g><g><g><path d="m51.8300171 13.8898926v34.0200195c0 1.4099121-1.1401367 2.5600586-2.5600586 2.5600586h-31.2800293c-1.4099121 0-2.5599365-1.1501465-2.5599365-2.5600586v-41.8798828c0-1.4101563 1.1500244-2.5600586 2.5599365-2.5600586h23.4200439z" fill="#dbdbdb"/></g></g><g><g><path d="m37.5861206 7.9699707h-18.1547852c-.2763672 0-.5-.2236328-.5-.5s.2236328-.5.5-.5h18.1547852c.2763672 0 .5.2236328.5.5s-.2236328.5-.5.5z"/></g></g><g><g><path d="m51.8300171 13.8898926h-7.8601074c-1.4099121 0-2.5599365-1.1499023-2.5599365-2.5600586v-7.8598633z" fill="#304056"/></g></g><g><g><path d="m37.5861206 13.4699707h-3.9555664c-.2763672 0-.5-.2236328-.5-.5s.2236328-.5.5-.5h3.9555664c.2763672 0 .5.2236328.5.5s-.2236328.5-.5.5z"/></g></g><g><g><path d="m29.7560425 13.4699707h-10.324707c-.2763672 0-.5-.2236328-.5-.5s.2236328-.5.5-.5h10.324707c.2763672 0 .5.2236328.5.5s-.2236328.5-.5.5z"/></g></g><g><g><path d="m47.8009644 18.9699707h-5.6064454c-.2763672 0-.5-.2236328-.5-.5s.2236328-.5.5-.5h5.6064453c.2763672 0 .5.2236328.5.5s-.2236328.5-.4999999.5z"/></g></g><g><g><path d="m38.7780151 18.9699707h-12.4169922c-.2763672 0-.5-.2236328-.5-.5s.2236328-.5.5-.5h12.4169922c.2763672 0 .5.2236328.5.5s-.2236328.5-.5.5z"/></g></g><g><g><path d="m22.8610229 18.9699707h-3.4296875c-.2763672 0-.5-.2236328-.5-.5s.2236328-.5.5-.5h3.4296875c.2763672 0 .5.2236328.5.5s-.2236328.5-.5.5z"/></g></g><g><g><path d="m47.8009644 24.4699707h-12.2524415c-.2763672 0-.5-.2236328-.5-.5s.2236328-.5.5-.5h12.2524414c.2763672 0 .5.2236328.5.5s-.2236328.5-.4999999.5z"/></g></g><g><g><path d="m29.7560425 24.4699707h-10.324707c-.2763672 0-.5-.2236328-.5-.5s.2236328-.5.5-.5h10.324707c.2763672 0 .5.2236328.5.5s-.2236328.5-.5.5z"/></g></g><g><g><g><path d="m24.3011894 38.5900879v7.1999512c0 .3398438-.2797852.6098633-.619873.6098633h-3.5200195c-.3400879 0-.6101074-.2700195-.6101074-.6098633v-7.1999512c0-.3400879.2700195-.6101074.6101074-.6101074h3.5200195c.3400879 0 .619873.2700195.619873.6101074z" fill="#488ff7"/></g></g><g><g><path d="m32.1312675 32.25v13.6101074c0 .329834-.2700195.6098633-.6098633.6098633h-3.5200195c-.3400879 0-.6201172-.2800293-.6201172-.6098633v-13.6101074c0-.3400879.2800293-.6101074.6201172-.6101074h3.5200195c.3398438 0 .6098633.2700195.6098633.6101074z" fill="#488ff7"/></g></g><g><g><path d="m39.9613457 36.1398926v9.7202148c0 .329834-.2700195.6098633-.6101074.6098633h-3.5200195c-.3400879 0-.619873-.2800293-.619873-.6098633v-9.7202148c0-.3398438.2797852-.6098633.619873-.6098633h3.5200195c.3400878 0 .6101074.2700195.6101074.6098633z" fill="#488ff7"/></g></g><g><g><path d="m47.8011894 29.9099121v15.9501953c0 .329834-.2797852.6098633-.619873.6098633h-3.5200195c-.3400879 0-.6101074-.2800293-.6101074-.6098633v-15.9501953c0-.3398438.2700195-.6098633.6101074-.6098633h3.5200195c.3400879 0 .619873.2700196.619873.6098633z" fill="#488ff7"/></g></g></g></g></g></svg>