<svg id="Layer_1" enable-background="new 0 0 68 68" height="512" viewBox="0 0 68 68" width="512" xmlns="http://www.w3.org/2000/svg"><g><g><g><path d="m27.5189152 29.6044426v36.3907509h-18.5780583c-.5267372 0-.953743-.427002-.953743-.953743v-35.4370079z" fill="#f9ac00"/><path d="m27.5189152 29.6044426-4.1468392 8.8597374c-.1569157.3352547-.4936447.5494347-.8638058.5494347h-17.9922709c-.4344187 0-.7215791-.4514656-.5374215-.8449173l4.0085363-8.5642548z" fill="#fdc72e"/><path d="m60.218647 29.6044426v35.4370079c0 .526741-.4270058.953743-.953743.953743h-31.7459888v-36.3907509z" fill="#fdc72e"/><path d="m60.218647 29.6044426 3.7683601 8.0511208c.2959976.6324043-.1655579 1.3580513-.8638039 1.3580513h-30.5936431c-.3701591 0-.7068882-.21418-.8638058-.5494347l-4.1468391-8.8597374z" fill="#f9ac00"/><g><path d="m57.9192734 58.6920815v4.4008293c0 .4843941-.3978958.8825912-.8825951.8825912h-11.6236496c-.4971428 0-.8825951-.3981972-.8825951-.8825912v-4.4008293c0-.4850044.3854523-.8704567.8825951-.8704567h11.6236496c.4846993 0 .8825951.3854522.8825951.8704567z" fill="#e9e9ff"/><g fill="#4f5d99"><path d="m45.887 58.803h.6v4.191h-.6z"/><path d="m49.245 58.803h.6v4.191h-.6z"/><path d="m52.604 58.803h.6v4.191h-.6z"/><path d="m55.962 58.803h.6v4.191h-.6z"/><path d="m47.54 59.921h.6v3.073h-.6z"/><path d="m50.899 59.921h.6v3.073h-.6z"/><path d="m54.257 59.921h.6v3.073h-.6z"/></g></g></g><g><g><path d="m44.5085487 15.9446859c-.3831978.3831949-.5320435.940383-.3922577 1.4633417l.3510284 1.3114967c.2172318.8086243-.2625084 1.6393967-1.0701256 1.8556213l-1.3125038.3520107c-.5229836.1398125-.931324.5481033-1.0711098 1.0711098l-.3520126 1.3114986c-.2162514.8086224-1.0469742 1.2873344-1.8555984 1.0711098l-1.3114967-.3520126c-.5230064-.1398125-1.0801697.0100689-1.4633636.3922329l-.9594879.960516c-.5913887.5913677-1.5508499.5913677-2.1422424 0l-.9604683-.960516c-.3831959-.3831463-.940382-.5320454-1.4633656-.3922329l-1.3114967.3520126c-.8086243.2162247-1.6393719-.2624874-1.8555965-1.0711098l-.3520126-1.312479c-.1398125-.5230083-.548151-.9313469-1.0711346-1.0711594l-1.3114719-.3509808c-.8086243-.2172565-1.2883663-1.0469971-1.0711346-1.8556213l.3510056-1.3114967c.1398125-.5229588-.009037-1.0801468-.3922329-1.4633417l-.9604912-.9605169c-.5913925-.5913668-.5913925-1.5508528 0-2.1422195l.9604912-.9604683c.3831959-.3831949.5320454-.940382.3922329-1.4633904l-.3520126-1.3114967c-.2162247-.8085747.2624874-1.6393466 1.0711098-1.8555722l1.3125038-.3520112c.5229836-.1398125.9313221-.5481515 1.0711346-1.0711589l.3510056-1.3114481c.2172318-.808624 1.0469723-1.2883668 1.8555965-1.07111l1.3114967.35098c.5229836.1398125 1.0801697-.0090361 1.4633408-.3922312l.9615002-.9605172c.5913925-.591367 1.5508537-.591367 2.1422424 0l.960495.9605172c.383194.3831952.9403801.5320437 1.4633636.3922312l1.3125038-.35098c.8075943-.2172568 1.63834.262486 1.8545914 1.0700786l.3520126 1.3124795c.1397858.5220251.5481262.930315 1.0701027 1.0701275l1.3135109.3530426c.8076172.2162256 1.2863503 1.0469975 1.0701027 1.8555722l-.3520126 1.3105145c-.1397858.5229588.0090599 1.0801468.3922577 1.4633417l.9604912.9614992c.5913658.5913668.5913658 1.5508528 0 2.1422195z" fill="#ed524e"/></g><path d="m41.3103638 13.8040419c0 4.0326834-3.2708511 7.3035326-7.3121948 7.3035326-4.0324707 0-7.3035336-3.2708492-7.3035336-7.3035326 0-4.0411339 3.2710629-7.3119841 7.3035336-7.3119841 4.0413436 0 7.3121948 3.2708502 7.3121948 7.3119841z" fill="#e9e9ff"/><g><path d="m30.2756691 13.0125113c-.3237934-.3894463-.4856911-.8850193-.4856911-1.4862499 0-.6014652.1618977-1.0968027.4856911-1.4864845.3237934-.3892117.7826576-.5840521 1.3765926-.5840521.5934658 0 1.0523281.1948404 1.3761234.5840521.3237915.3896818.4856911.8850193.4856911 1.4864845 0 .6012306-.1618996 1.0968037-.4856911 1.4862499-.3237953.3894472-.7826576.5840521-1.3761234.5840521-.593935-.0000001-1.0527992-.1946049-1.3765926-.5840521zm2.1512489-.5379296c.1849594-.2466106.2776718-.5628738.2776718-.9483204 0-.3856812-.0927124-.7017088-.2776718-.948555-.1849556-.2466097-.4433327-.3701506-.7746563-.3701506-.3317947 0-.5901699.1235409-.7751274.3701506-.1849575.2468462-.2776718.5628738-.2776718.948555 0 .3854465.0927143.7017097.2776718.9483204.1849575.2468452.4433327.3701506.7751274.3701506.3313237 0 .5897007-.1233053.7746563-.3701506zm-1.0410328 5.256938c-.0771828-.0731831-.1157761-.1637783-.1157761-.2717896 0-.069418.0192966-.1348343.057888-.196722l4.7077122-7.5296116c.0767136-.1233053.1849594-.1849575.3237953-.1849575.1157761 0 .2098999.0308256.2833176.0924788.0734177.0616522.1101303.1466007.1101303.2543755 0 .0849485-.027298.1696625-.0814209.2543755l-4.6724148 7.483489c-.0385933.0616531-.0889492.1115398-.1506023.1503658-.0616531.0383568-.1270695.057888-.1962528.057888-.1007156 0-.1891937-.0367088-.2663765-.1098919zm3.5857296-.3816814c-.3237915-.3894463-.4856911-.8850193-.4856911-1.486249 0-.6014652.1618996-1.0968037.4856911-1.4864855.3237953-.3892117.7826576-.5840521 1.3761253-.5840521.5939331 0 1.0527992.1948404 1.3765907.5840521.3237953.3896818.4856911.8850203.4856911 1.4864855 0 .6012297-.1618958 1.0968027-.4856911 1.486249-.3237915.3892117-.7826576.584053-1.3765907.584053-.5934676 0-1.0523299-.1948414-1.3761253-.584053zm2.1512528-.5379296c.1849556-.2466106.2776718-.5628738.2776718-.9483194 0-.3856821-.0927162-.7017097-.2776718-.948555-.1849594-.2466106-.4433365-.3701506-.7751274-.3701506-.3313255 0-.5897026.1235399-.7746582.3701506-.1849594.2468452-.2776718.5628729-.2776718.948555 0 .3854456.0927124.7017088.2776718.9483194.1849556.2468452.4433327.3701496.7746582.3701496.3317909 0 .590168-.1233043.7751274-.3701496z" fill="#ed524e"/></g></g><g fill="#fff" opacity=".3"><path d="m39.4724579 24.4074059c-.2193451.0377216-.4386864.0284081-.6675758-.0288715l-1.3065071-.3525314c-.5248375-.1336555-1.0873947.0093136-1.4687996.3907166l-.953743.9635239c-.5914307.5909653-1.5547218.5909653-2.1459198 0l-.9635239-.9635239c-.2954826-.2957153-.6864338-.4484634-1.0871639-.4386826l-5.6842709-16.890749.7248554-.1909347c.5150585-.1331887.9251022-.5434656 1.0683022-1.0678382l.3527641-1.3165188c.209795-.8009951 1.0396633-1.2876461 1.8502064-1.0678382l1.3162861.352531c.5243721.1429684 1.0776176-.0093138 1.4590206-.3907177l.3243561-.3245893z"/><path d="m42.8105583 20.7354031-.7248573.1909351c-.5246048.1429691-.9346466.5527802-1.0680695 1.0678387l-.0859222.3050289-6.8287125-20.2954414 1.3542404.8298681.0095444.0093138 1.6595039 1.0110233z"/></g></g><path d="m60.216362 29.6050262v35.4412308c0 .5243759-.4291382.953743-.953743.953743h-31.7405872v-36.3949738z" fill="#fdc72e"/><g fill="#fff" opacity=".2"><path d="m54.74189 66h-14.0008812l-12.2461415-36.3949738h13.9915638z"/><path d="m60.216362 59.7717972v5.2744598c0 .5243759-.4291382.953743-.953743.953743h-.915554l-12.2556877-36.3949738h3.9772644z"/></g><path d="m60.218647 29.6044426 3.7683601 8.0511208c.2959976.6324043-.1655579 1.3580513-.8638039 1.3580513h-30.5936431c-.3701591 0-.7068882-.21418-.8638058-.5494347l-4.1468391-8.8597374z" fill="#f9ac00"/></g></svg>