<svg id="Layer_1" enable-background="new 0 0 68 68" height="512" viewBox="0 0 68 68" width="512" xmlns="http://www.w3.org/2000/svg"><g><g><g><g><path d="m37.0613518 35.8318214c-.0000305 2.7041054-1.4484329 5.0559158-2.3527184 6.2607231-.3553543.4734497-1.0621109.473423-1.4174576-.0000496-.9042625-1.2048721-2.3526154-3.5567856-2.3525867-6.2608948.0000286-2.7041054 1.448431-5.0559139 2.3527164-6.2607212.3553543-.4734478 1.0621109-.473423 1.4174576.0000515.9042626 1.2048722 2.3526154 3.5567857 2.3525887 6.260891z" fill="#ed524e"/></g><g><path d="m36.1751175 33.916523c-.0000191 1.9212837-1.0291176 3.5922585-1.6716194 4.4482803-.2524796.3363876-.7546349.3363686-1.0071106-.0000381-.6424828-.8560677-1.6715469-2.5271149-1.671526-4.4483986.0000191-1.9212818 1.0291195-3.5922565 1.6716175-4.4482784.2524834-.3363876.7546387-.3363686 1.0071106.0000362.6424828.8560696 1.671547 2.5271168 1.6715279 4.4483986z" fill="#e9e9ff"/></g></g><g><g><path d="m43.2338333 17.2578087c3.9535599 4.1010208 6.275898 10.2017117 1.0612297 16.9440956-.2919884.3775291-.8934364.1624146-.8786011-.3146248.0806313-2.5924263-.7090683-4.6473083-2.3548927-6.1734562z" fill="#ed524e"/></g><g><path d="m24.7662277 17.2578545c-3.9535904 4.101038-6.2759666 10.2017403-1.0613422 16.9440994.2919865.3775291.8934364.1624107.878603-.3146286-.0806122-2.5924263.7091007-4.6473122 2.3549328-6.1734676z" fill="#ed524e"/></g></g><g><path d="m40.2232628 8.5669889c.0680161.1123657.1349602.2249699.2008247.3380537-.0653877-.1133222-.1331672-.2256879-.2008247-.3380537z" fill="#e9e9ff"/></g><g><path d="m39.5666504 7.5327454c.2297478.3397269.4464684.6856699.6566124 1.0342436-.2106209-.3476172-.4262657-.6935602-.6566124-1.0342436z" fill="#e9e9ff"/></g><g><path d="m40.5166054 9.060442h-.0060959c-.0295258-.0516405-.0563011-.1039982-.086422-.1553993.0301209.0521182.0628739.1030416.0925179.1553993z" fill="#e9e9ff"/></g><g><path d="m41.6915932 28.1559544-15.3791656.0000362c-2.8004951-6.164341-2.2668591-13.097559 1.17033-19.0955162l13.0277519-.0000324c3.4391823 5.9955511 3.9807854 12.9323539 1.1810837 19.0955124z" fill="#e9e9ff"/></g><g><path d="m39.3341255 17.1286068c-.0000076 2.7234097-2.2104874 4.934021-4.9385376 4.9340267-2.7234955.0000057-4.93396-2.2105942-4.9339523-4.9340019.0000095-2.7281914 2.2104893-4.9385748 4.9339867-4.9385815 2.7280502-.0000067 4.9385147 2.2103672 4.9385032 4.9385567z" fill="#cfcfff"/></g><g><path d="m40.5180397 9.060442c-1.3879089-2.4237213-3.2443581-4.6956706-5.5492401-6.7002239-.5543137-.4820869-1.3837852-.4819981-1.9379883.0002244-2.3037186 2.0045104-4.1593761 4.276391-5.5466194 6.7000308z" fill="#ed524e"/></g><g><path d="m26.3115921 28.1559906c.6546936 1.4414825 1.4905491 2.840868 2.5153027 4.1760712.27384.3568039.7053146.5585938 1.1550846.5585899l8.0400314-.0000191c.4497719 0 .8812485-.2017899 1.1550903-.5585938 1.0247612-1.3352108 1.8606262-2.7345982 2.5153313-4.1760845z" fill="#ed524e"/></g><g><path d="m38.9382935 16.7327747c-.0000076 2.7234077-2.2104874 4.9340191-4.9385376 4.9340248-2.7234974.0000076-4.9339619-2.2105942-4.9339523-4.9340019.0000076-2.7281904 2.2104874-4.9385738 4.9339828-4.9385805 2.7280502-.0000067 4.9385147 2.2103663 4.9385071 4.9385576z" fill="#4f5d99"/></g><g><path d="m37.6632309 16.7329369c-.0000076 2.0214443-1.6422081 3.6587849-3.6636314 3.6587887-2.0165501.0000057-3.658741-1.6373272-3.6587334-3.6587715.0000057-2.0214434 1.6422062-3.6636572 3.6587563-3.6636629 2.0214271-.0000049 3.6636161 1.6422013 3.6636085 3.6636457z" fill="#70c1f9"/></g></g><g><g><g><path d="m30.5419617 38.3648033v27.6328316h-17.033577c-.399971 0-.7242117-.3242416-.7242117-.7242126v-26.908619z" fill="#f9ac00"/></g><g><path d="m30.5419617 38.3648033-3.1488476 6.7275238c-.1191521.25457-.3748436.4172058-.6559181.4172058h-16.588768c-.3298702 0-.5479212-.3428154-.4080839-.6415787l3.043829-6.5031509z" fill="#fdc72e"/></g><g><path d="m55.3720665 38.3648033v26.9086189c0 .399971-.3242416.7242126-.7242126.7242126h-24.1058922v-27.6328315z" fill="#fdc72e"/></g><g><path d="m55.3720665 38.3648033 2.8614578 6.1135101c.224762.4802094-.1257172 1.0312195-.6559219 1.0312195h-23.2308731c-.2810783 0-.5367699-.1626358-.6559219-.4172058l-3.1488457-6.7275238z" fill="#f9ac00"/></g></g><g><path d="m55.3703346 38.3652458v26.9118309c0 .3981705-.3258629.7242126-.7242126.7242126h-24.1017952v-27.6360435z" fill="#fdc72e"/></g><g><g><path d="m53.6260681 60.4521141v3.3417091c0 .3678207-.3021355.6701889-.6701851.6701889h-8.8262672c-.3774948 0-.6701851-.3023682-.6701851-.6701889v-3.3417091c0-.3682785.2926903-.6609688.6701851-.6609688h8.8262672c.3680496 0 .6701851.2926903.6701851.6609688z" fill="#e9e9ff"/></g><g><g><path d="m44.489 60.536h.456v3.182h-.456z" fill="#4f5d99"/></g><g><path d="m47.04 60.536h.456v3.182h-.456z" fill="#4f5d99"/></g><g><path d="m49.59 60.536h.456v3.182h-.456z" fill="#4f5d99"/></g><g><path d="m52.14 60.536h.456v3.182h-.456z" fill="#4f5d99"/></g><g><path d="m45.745 61.386h.456v2.333h-.456z" fill="#4f5d99"/></g><g><path d="m48.295 61.386h.456v2.333h-.456z" fill="#4f5d99"/></g><g><path d="m50.846 61.386h.456v2.333h-.456z" fill="#4f5d99"/></g></g></g><g opacity=".2"><g><path d="m51.2133636 66.0012894h-10.6313819l-9.2989445-27.6360436h10.6243114z" fill="#fff"/></g><g><path d="m55.3703346 61.2719841v4.0050926c0 .3981705-.3258629.7242126-.7242126.7242126h-.6952171l-9.3061943-27.6360435h3.0200844z" fill="#fff"/></g></g><g><path d="m55.3720665 38.3648033 2.8614578 6.1135101c.224762.4802094-.1257172 1.0312195-.6559219 1.0312195h-23.2308731c-.2810783 0-.5367699-.1626358-.6559219-.4172058l-3.1488457-6.7275238z" fill="#f9ac00"/></g></g><g opacity=".2"><g><path d="m35.9986877 19.8031139c-.5698242.3701172-1.2597656.5898438-2 .5898438-.869873 0-1.6699219-.2998047-2.2897949-.7998047l-1.2600098-3.75c.3798828-1.5097656 1.6899414-2.6499023 3.2900391-2.7597656z" fill="#fff"/></g><g><path d="m37.5489807 17.6131725c-.130127.5297852-.380127 1.0200195-.7102051 1.4399414l-1.9799805-5.8798828c.5400391.1298828 1.0300293.3798828 1.4401855.7099609z" fill="#fff"/></g></g></g></svg>