<svg id="Layer_1" enable-background="new 0 0 68 68" viewBox="0 0 68 68" xmlns="http://www.w3.org/2000/svg"><g><path d="m45.1884651 8.1801758v51.6298828c0 3.3198242-2.7001953 6.0200195-6.0200195 6.0200195h-31.1201162c-3.3200679 0-6.0200191-2.7001953-6.0200191-6.0200195v-51.6298828c0-3.3203125 2.6899414-6.0102539 6.0100093-6.0102539h31.1398926c3.3200674 0 6.0102529 2.6899414 6.0102529 6.0102539z" fill="#2d2d2d"/><path d="m49.0082893 8.1801758v51.6298828c0 3.3198242-2.6899414 6.0200195-6.0100098 6.0200195h-31.119873c-3.3300781 0-6.0200191-2.7001953-6.0200191-6.0200195v-51.6298828c0-3.3203125 2.6899409-6.0102539 6.0100093-6.0102539h31.1398926c3.3100586 0 6 2.6899414 6 6.0102539z" fill="#3a3a3a"/><path d="m9.6799355 9.1281643v46.8709717c0 1.7309189 1.4056997 3.1368523 3.1270466 3.1368523h29.2430439c1.7306862 0 3.1363869-1.4059334 3.1363869-3.1368523v-46.8709717c0-1.7309189-1.4057007-3.1270466-3.1363869-3.1270466h-29.243044c-1.7213468 0-3.1270465 1.3961277-3.1270465 3.1270466z" fill="#fff"/><path d="m32.9595909 62.6454544c-1.8415794-.4956665-3.683157-.6067009-5.5249844-.6275558-1.8415794.0177879-3.6831589.1294365-5.5247383.6275558 1.8415794.4981194 3.6831589.6097679 5.5247383.6275558 1.8418274-.0208549 3.683405-.1318893 5.5249844-.6275558z" fill="#2d2d2d"/><g><g fill="#d1dafe"><path d="m34.8382034 49.4389648c2.4499512.1103516 4.8999023.2700195 7.3500977.5800781-2.4501953.3100586-4.9001465.4697266-7.3500977.5800781-2.4499512.1201172-4.8901367.1499023-7.3400879.1699219-2.4499512-.0097656-4.8999023-.0498047-7.3498535-.1601563-2.4399414-.1098633-4.8901377-.2797852-7.3400888-.5898438 2.4499512-.3100586 4.9001474-.4799805 7.3400888-.5898438 2.4499512-.1103516 4.8999023-.1503906 7.3498535-.1601563 2.4499512.0200198 4.8901368.049805 7.3400879.1699221z"/><path d="m34.8382034 44.059082c2.4499512.1098633 4.8999023.2700195 7.3500977.5898438-2.4501953.3100586-4.9001465.4702148-7.3500977.5800781-2.4499512.1201172-4.8901367.1499023-7.3400879.1601563-2.4499512-.0102539-4.8999023-.0400391-7.3498535-.1601563-2.4399414-.1098633-4.8901377-.2700195-7.3400888-.5800781 2.4499512-.3198242 4.9001474-.4799805 7.3400888-.5898438 2.4499512-.1201172 4.8999023-.1499023 7.3498535-.1601563 2.4499512.010254 4.8901368.0400391 7.3400879.1601563z"/><path d="m24.898262 54.809082c1.3398438.1098633 2.6799316.2700195 4.0200195.5800781-1.3400879.3198242-2.6801758.4799805-4.0200195.5898438-1.3500977.1201172-2.6899414.1499023-4.0300293.1601563-1.3500977-.0102539-2.6901855-.0400391-4.0300293-.1601563-1.3500986-.1098633-2.6899424-.2700195-4.0300303-.5898438 1.3400879-.3100586 2.6799316-.4702148 4.0300303-.5800781 1.3398438-.1201172 2.6799316-.1499023 4.0300293-.1601563 1.3400879.010254 2.6799317.0400391 4.0300293.1601563z"/><path d="m20.148262 39.8588867c-2.4399414-.1098633-4.8901377-.2797852-7.3400888-.5898438 2.4499512-.3100586 4.9001474-.4799805 7.3400888-.5898438 2.4499512-.1103516 4.8999023-.1503906 7.3498535-.1601563 2.4499512.0200195 4.8901367.0498047 7.3400879.1699219 2.4499512.1103516 4.8999023.2700195 7.3500977.5800781-2.4501953.3100586-4.9001465.4697266-7.3500977.5800781-2.4499512.1201172-4.8901367.1499023-7.3400879.1699219-2.4499511-.0097655-4.8999023-.0498045-7.3498535-.1601561z"/></g><g><g><g><g><g><g><path d="m13.5528936 19.5316162c.0780945.2226505.1678686.4399147.2683163.6502514.1187105.2485809.1016293.5405235-.0315733.7816486l-.3096352.5605125c-.1885328.3412876-.1288137.7660999.1465073 1.042181l1.0303688 1.0332088c.2756281.2763882.7008677.3370724 1.0428028.1488113l.565979-.3116131c.2410488-.1327152.5326862-.1493969.7810154-.0308628.2113628.1008892.4283714.1910515.6509991.2694569.259388.0913525.4535351.3099232.5301037.5740509l.178545.6159058c.1085529.3744583.4515076.6321125.8413811.6321125h1.4542732c.3898735 0 .7328281-.2576542.8413811-.6321125l.1785469-.6159134c.0765667-.264122.2707043-.482687.5300808-.5740433.2226181-.0784073.4396095-.1685734.6509876-.2694683.2483311-.1185322.5399742-.1018562.781023.0308609l.5660038.3116266c.3419361.188261.7671757.1275768 1.0428028-.1488113l1.0303383-1.0331783c.2753353-.2760944.3350449-.7009354.1464787-1.0422287l-.3096199-.5604c-.1332417-.2411594-.1503277-.5331612-.0315666-.7817707.1004791-.2103386.1902637-.4276028.2683601-.6502533.0912666-.2601948.3104019-.4549751.5753136-.5314789l.6194344-.1788883c.3748837-.108263.6329651-.4514236.6329651-.8416271v-1.4585171c0-.3901577-.2580223-.7332897-.6328449-.8415937l-.6197128-.1790648c-.2648373-.0765238-.4839001-.2712603-.5751705-.5313835-.0781879-.2228422-.1680908-.4403248-.2687092-.6508789-.1186008-.2481804-.1017246-.5396862.0309315-.7806482l.3115253-.5658703c.1880322-.3415489.1277084-.7662601-.1479931-1.0419426l-1.0298195-1.0297508c-.2756634-.2756453-.7003078-.3359661-1.0418282-.1479912l-.5669689.3120623c-.2409744.1326323-.5324993.149333-.7807541.0308847-.2112331-.1007853-.4280739-.1908321-.6505299-.2691641-.2597008-.0914459-.4540501-.310318-.5304794-.5748281l-.1791801-.6201143c-.108305-.3748226-.451437-.6328449-.8415928-.6328449h-1.4530792c-.3901558 0-.7332878.2580223-.8415928.6328449l-.1791782.6201048c-.0764313.2645187-.2707901.4833956-.5305023.5748377-.2224674.0783291-.4393234.1683712-.6505413.2691517-.248251.1184502-.5397739.1017456-.7807465-.0308867l-.5669432-.312048c-.3415213-.1879749-.7661657-.1276541-1.0418291.1479912l-1.0298519 1.0297823c-.2756863.2756672-.3360205.7003498-.1480207 1.041893l.3115416.5659838c.132617.2409277.1494904.5323734.0309391.7805252-.1005888.2105532-.1904812.4280357-.2686663.6508789-.0912704.2601347-.3103333.4548855-.575181.5314121l-.619709.1790638c-.3748236.108304-.6328449.451436-.6328449.8415937v1.4585171c0 .3902035.2580824.7333641.6329651.8416271l.6194305.1788883c.2649219.0765056.4840572.2713012.5753238.5315074z" fill="#4269c4"/><circle cx="19.975" cy="17.248" fill="#255299" r="4.871"/><circle cx="19.975" cy="17.248" fill="#fff" r="3.299"/></g></g></g></g></g></g></g><g><path d="m63.9081917 37.9501953-4.8398438 2.0498047-.5900879-1.3901367-1.119873-2.6699219-4.0600586-9.6098633-1.5300293-3.6103515 4.8400879-2.0395508 1.5200195 3.6098633 4.2700196 10.0898437 1.3100585 3.1000977v.0102539z" fill="#8a9bea"/><g><g><g><g><path d="m64.1884689 42.8798828-2.7500038 2.8203125-3.4001465 3.4799805-4.6101074 4.7299805c-.6899414.6899414-1.5898438 1.0400391-2.5 1.0400391-.9099121 0-1.8098145-.3500977-2.5-1.0400391-1.3798828-1.3901367-1.3798828-3.6201172 0-5.0102539l4.5302734-4.6401367 2.9399415-3.0097657 2.579834-2.6401367.7102051-.7299805c.6899414-.6899414 1.5898438-1.0297852 2.5-1.0297852.7099609 0 1.4199219.2099609 2.0200195.6298828v.0102539c.1699219.0996094.3298378.2397461.4799843.3896484 1.3798827 1.3798829 1.3798827 3.6201173-.0000001 5.0000001z" fill="#8a9bea"/></g><path d="m44.4499855 51.4302101v6.5225563h12.9372406v-6.5225563c0-3.5729904-2.9017754-6.4626198-6.4627686-6.4626198-1.7864952 0-3.4049683.7194443-4.5802536 1.8944397-1.1629943 1.1629944-1.8942184 2.7816849-1.8942184 4.5681801z" fill="#b53016"/><path d="m48.7625465 52.5581512v.0103493c1.1683769 1.168251 3.0704956 1.1889496 4.2595711.0413322 1.1060333-1.199234 1.033844-3.1428719-.1552315-4.3318214-.5997086-.5892982-1.3543968-.8890915-2.0987358-.8890915-.7339935 0-1.457634.2791595-2.0056038.8581085l-.0517426.0516815c-1.1370772 1.1992341-1.1163825 3.0911904.0517426 4.2594414z" fill="#912010"/></g><g><path d="m58.1214828 43.2957497v.0161018c1.8181381 1.8179398 4.7780571 1.8501472 6.6284027.0643158 1.7211151-1.8661499 1.6087875-4.8906822-.2415543-6.7408257-.9332275-.9170227-2.1076126-1.3835373-3.265892-1.3835373-1.1421776 0-2.2682495.4344063-3.1209564 1.3353233l-.0805168.0804176c-1.769432 1.8661538-1.7372245 4.8102647.0805168 6.6282045z" fill="#b53016"/></g><g><path d="m59.488884 41.890358v.0092888c1.0489655 1.048851 2.7566795 1.0674362 3.8242264.0371094.9929962-1.0766716.9281845-2.8216591-.1393623-3.8890915-.5384216-.5290718-1.2159767-.7982254-1.8842392-.7982254-.6589775 0-1.3086586.2506256-1.8006248.7704086l-.0464516.0463982c-1.0208665 1.0766677-1.0022851 2.775257.0464515 3.8241119z" fill="#912010"/></g></g></g><path d="m60.1309319 64.0108337c-.0598145.7802734-.6599121 1.4204102-1.4399414 1.4902344-5.0898438.4501953-10.2600098.4301758-15.5-.0097656-.7797852-.0600586-1.3798828-.6904297-1.4499512-1.4702148-.1398926-1.6098633-.1599121-3.1899414-.0200195-4.7202148.0700684-.7695313.6799316-1.3999023 1.4499512-1.4697266 5.2299805-.4399414 10.4001465-.4399414 15.5 0 .7800293.0698242 1.380127.7099609 1.4399414 1.4902344.1201171 1.5795898.1401366 3.1396484.0200195 4.689453z" fill="#8a9bea"/><path d="m60.1284065 64.0097656c-.0600586.7802735-.6601562 1.4204102-1.4399414 1.4902344-5.0900879.4501953-10.2602539.4301758-15.5-.0097656-.7802734-.0600586-1.380127-.6904297-1.4501953-1.4702148-.0400391-.4702148-.0698242-.9301758-.0898438-1.3999023 1.9599609.6499023 4.2199707 1.0097656 6.619873 1.0097656 5.0300293 0 9.4299316-1.5996094 11.8601074-4 .0998536 1.4702148.1098634 2.9301757.0000001 4.3798827z" fill="#4269c4"/></g><g><path d="m46.9204826 23.5169106c-.3963203.4190426-.6103973.9499073-.5704956 1.4714355l.3747368 2.2784557c.107357.8377094.2152481 1.5875854.2920647 2.4871254.0586472 1.1168633-.35783 2.2573452-1.1657372 2.9615231-.3986206.352272-.8639145.6301994-1.3552628.7727776-.4802971.144062-1.063427.1537209-1.4517403.1016197-.8318138-.1003571-1.6632919-.2012062-2.4928322-.4004173.8068428-.2867737 1.6222725-.4737701 2.437706-.6607666.7746201-.126545 1.2637062-.4999084 1.6135292-.9798622.3282356-.482851.4802551-1.0445557.3649864-1.5756588-.1431656-.7326317-.2905388-1.5976868-.4019432-2.403244l-.1550674-1.2171707c-.0311241-.4211864-.1279945-.7638283-.1088257-1.3980312.0370674-.5219193.1820717-1.029356.4195747-1.491148-.5059891-.155798-.9960785-.4300652-1.3990288-.7805424-.4575386-.434988-.6358299-.7440662-.8998718-1.0651855l-.757782-.9796562c-.4840279-.647047-.9918137-1.3626766-1.4154587-1.9683895-.2887573-.4664783-.7881622-.7532501-1.3644409-.874527-.5933952-.0796223-1.1971588.0039196-1.8288383.4573097-.7179604.4412785-1.4252014.884531-2.1989708 1.2523918.449276-.7297897.9654846-1.3852024 1.4814339-2.0406532.2402992-.31884.6569901-.7238941 1.0934868-.9510155.4518661-.2577553.9738541-.3849659 1.5044289-.4123993 1.0749092-.075531 2.1810303.4352283 2.9144287 1.2690334.5888748.6825581 1.0434151 1.3036728 1.5584106 1.9655952l1.3514824 1.8719025c.3312454.3955288.8595123.6309662 1.4397469.6428928.129261.0173435.2645798-.0084515.4104271-.0328331.104351-.0406723.1962318-.0722961.2746849-.083746.0676575-.0128975.1245232-.0272427.2055397-.0597897.0461426-.0163193.0907326-.0210571.1475945-.0354042l.0798683-.0219784 1.0822868-.2943039c.8045654-.1879196 1.6214828-.385973 2.469986-.4918842-.05019.0484753-.1116295.0949039-.1603317.1323204.0798645-.0219803.1566391-.022934.2350922-.0343838-.6741638.5243397-1.3921967.9661446-2.0990982 1.408905l-1.082756.6233482c-.0947762.0532112-.1898155.1063881-.2725792.1499557-.0474854.0263252-.0947762.0532112-.1422615.0795364-.1778718.0972693-.3230287.198395-.4281732.3268626z" fill="#4269c4"/></g><circle cx="49.715" cy="21.333" fill="#8a9bea" r="2.833"/><g><path d="m57.5469704 23.4669037-4.4369888 1.8671017c-.9069023.3880424-1.9715347-.0382423-2.3546295-.9558792l-2.3856392-5.6253471c-.3825874-.9180393.0492172-1.9671116.9612122-2.3655033l4.4369888-1.8671017c.9229698-.3939657 1.9827728.0427895 2.3653603.9608288l2.3749084 5.6203995c.3828315.9175147-.0382424 1.9715365-.9612122 2.3655013z" fill="#b53016"/></g><g><g><g><g><g><path d="m28.4695606 29.7816162c.0780945.2226505.1678677.4399147.2683163.6502514.1187115.2485809.1016293.5405235-.0315723.7816486l-.3096371.5605125c-.1885319.3412895-.1288128.7661018.1465073 1.0421791l1.0303688 1.0332108c.275629.2763901.7008686.3370705 1.0428028.1488113l.565979-.311615c.2410488-.1327133.5326881-.149395.7810154-.0308609.2113647.1008911.4283714.1910515.651001.2694588.2593842.0913506.4535332.3099213.5301018.5740509l.1785469.6159058c.108551.3744545.4515076.6321106.8413811.6321106h1.4542732c.3898735 0 .7328262-.2576561.8413773-.6321106l.1785507-.6159172c.0765648-.2641182.2707024-.4826851.5300789-.5740395.2226181-.0784111.4396095-.1685753.6509895-.2694702.2483292-.1185303.5399704-.1018562.7810211.0308609l.5660057.3116264c.3419342.1882591.7671738.1275787 1.0428009-.1488113l1.0303383-1.0331764c.2753372-.2760963.3350449-.7009392.1464806-1.0422306l-.3096199-.5604c-.1332436-.2411594-.1503296-.5331612-.0315666-.7817707.1004791-.2103386.1902618-.4276028.2683601-.6502533.0912666-.2601948.3104019-.4549751.5753136-.5314789l.6194344-.1788883c.3748817-.108263.6329651-.4514236.6329651-.8416271v-1.4585171c0-.3901577-.2580223-.7332897-.6328468-.8415947l-.6197128-.1790638c-.2648354-.0765247-.4838982-.2712593-.5751686-.5313835-.0781898-.2228432-.1680908-.4403248-.2687111-.6508789-.1186028-.2481804-.1017227-.5396862.0309296-.7806473l.3115273-.5658703c.1880341-.3415508.1277084-.7662621-.1479912-1.0419445l-1.0298195-1.0297508c-.2756653-.2756443-.7003098-.3359642-1.0418282-.1479912l-.5669708.3120632c-.2409744.1326332-.5325012.149332-.7807541.0308838-.211235-.1007843-.4280739-.1908302-.650528-.2691631-.2597008-.0914459-.454052-.310318-.5304794-.5748291l-.1791801-.6201134c-.1083069-.3748226-.4514389-.6328449-.8415947-.6328449h-1.4530792c-.3901558 0-.7332878.2580223-.8415909.6328449l-.1791801.6201057c-.0764313.2645187-.2707901.4833946-.5305023.5748367-.2224655.0783291-.4393234.1683712-.6505413.2691517-.2482491.1184502-.539772.1017456-.7807446-.0308857l-.5669441-.3120499c-.3415222-.187973-.7661667-.1276531-1.0418301.1479912l-1.0298519 1.0297832c-.2756863.2756672-.3360195.7003498-.1480198 1.041893l.3115425.5659847c.132616.2409267.1494884.5323734.0309372.7805233-.1005878.2105541-.1904793.4280376-.2686653.6508789-.0912704.2601357-.3103333.4548855-.575182.531414l-.619709.1790619c-.3748226.108305-.6328449.451437-.6328449.8415947v1.4585171c0 .3902035.2580833.7333641.6329651.8416271l.6194305.1788883c.2649228.0765059.4840581.2713015.5753247.5315077z" fill="#fbad3e"/><circle cx="34.892" cy="27.498" fill="#fa990e" r="4.871"/><circle cx="34.892" cy="27.498" fill="#fff" r="3.299"/></g></g></g></g></g></g></svg>