<svg id="Layer_1" enable-background="new 0 0 68 68" viewBox="0 0 68 68" xmlns="http://www.w3.org/2000/svg"><g><g><g><path d="m58.8501816 59.1076775c-.7977715 2.8921928-3.4534645 5.0240517-6.6077271 5.0240517h-43.5980863c-3.1542621 0-5.7971697-2.1318588-6.6077266-5.0240517-.249285-.9228706.4739156-1.8329582 1.4339213-1.8329582h53.946003c.9600058-.0000001 1.6956854.9100875 1.4336157 1.8329582z" fill="#4269c4"/><path d="m56.0769196 27.3325214v29.943491h-51.2634478v-29.943491c0-2.9760494 2.4125643-5.3886147 5.3886137-5.3886147h40.4862213c2.9760494.0000001 5.3886128 2.4125653 5.3886128 5.3886147z" fill="#8a9bea"/><path d="m8.8429279 52.3513336v-25.482626c0-.494524.4008913-.8954144.8954163-.8954144h41.4138565c.4945259 0 .8954163.4008904.8954163.8954144v25.482626c0 .4945259-.4008904.8954163-.8954163.8954163h-41.4138565c-.494525 0-.8954163-.4008904-.8954163-.8954163z" fill="#fff"/><path d="m52.043087 37.1152039v15.2346916c0 .499176-.3990364.8979111-.885128.8979111h-41.4163113c-.4985695 0-.8976088-.398735-.8976088-.8979111v-5.3606949c4.475564 1.7453003 9.7495089 2.7552261 15.396924 2.7552261 12.9037705 0 23.8750497-5.2858162 27.8021241-12.6292228z" fill="#d1dafe"/><path d="m39.6594696 57.2760124c0 1.7867966-1.4457359 3.2324371-3.232502 3.2324371h-11.962841c-1.7867947 0-3.2325306-1.4456406-3.2325306-3.2324371z" fill="#255299"/></g><g fill="#b53016"><g><path d="m25.9920464 42.8807182-4.0987453-2.7698326c-.3655567-.2465477-.4617405-.7432899-.2148895-1.1085434.0584412-.086441.1330128-.1594925.2142811-.214283l4.0923519-2.7704391-2.7701359 4.0926552-.0006104-1.3228226z"/><path d="m34.8984299 42.8807182 2.7777481-4.0932655-.0006104 1.3228226-2.7701378-4.0926552 4.0923538 2.7704391c.3652496.2471542.4608269.7432899.2136726 1.1085434-.0584412.0864449-.1330147.158886-.214283.214283z"/></g><path d="m33.2480965 30.8419876c-.0992279 1.5541496-.3737755 3.0516853-.7104187 4.5285263-.3253784 1.4804916-.7399406 2.9323692-1.2035065 4.3678131-.468132 1.4348335-.9886169 2.8520164-1.5964584 4.2405853-.5974922 1.3922195-1.2579918 2.7637444-2.0953331 4.0780449.0970955-1.5553665.3707314-3.0529022.7076778-4.5297432.326292-1.4804916.7402439-2.9323692 1.2062454-4.3672028.4708729-1.4336166.9904442-2.8507996 1.5991993-4.2393684.5977974-1.3922195 1.2573815-2.7643547 2.0925942-4.0786552z"/></g><g><g fill="#8a9bea"><path d="m12.2570219 29.7565784c.9420471-.3865585 1.8840952-.5892735 2.8261423-.7268524.9420471-.1485367 1.8840961-.2039337 2.8261433-.2075863.9420471.0006084 1.8840961.0566139 2.8261433.2051506.9420471.1369705 1.8840942.3402939 2.8261433.7292881-.942049.3896027-1.8840961.5929279-2.8261433.7298965-.9420471.1479282-1.8840961.2039337-2.8261433.2051506-.9420471-.0036526-1.8840961-.0590496-2.8261433-.2081947-.9420471-.137577-1.8840952-.3396835-2.8261423-.7268524z"/><path d="m12.2570219 34.7532349c.7767706-.3871651 1.5535412-.5898819 2.3303118-.7268524.7767715-.1491432 1.5535412-.2045403 2.3303127-.2081947.7767715.0012169 1.5535412.0572243 2.3303127.2051506.7764664.1369705 1.553236.3402939 2.3300076.7298965-.7767715.3889961-1.5535412.5923195-2.3300076.72929-.7767715.1485367-1.5535412.2039299-2.3303127.2051506-.7767715-.0036545-1.5535412-.0590515-2.3303127-.2075882-.7767706-.1375771-1.5535412-.3402939-2.3303118-.7268524z"/><path d="m12.2570219 39.7492828c.5901871-.3871651 1.1803751-.5892715 1.7705622-.7268524.590188-.1491432 1.1803751-.2045403 1.7705631-.2081947.5904922.0012207 1.1806793.0572243 1.7708664.2051506.5901871.1369705 1.1803761.3409042 1.7705631.7298965-.5901871.3889961-1.1803761.5929298-1.7705631.7298965-.5901871.1479301-1.1803741.2039337-1.7708664.2045441-.590188-.0036545-1.1803751-.0590515-1.7705631-.2075844-.5901871-.1375808-1.1803751-.3396873-1.7705622-.7268562z"/><path d="m12.2570219 44.7453346c.7767706-.3865623 1.5535412-.5892754 2.3303118-.7268562.7767715-.1485329 1.5535412-.2039299 2.3303127-.2075844.7767715.0006104 1.5535412.0566139 2.3303127.2051506.7764664.1369705 1.553236.3402939 2.3300076.72929-.7767715.3896027-1.5535412.592926-2.3300076.7298965-.7767715.1479263-1.5535412.2039299-2.3303127.2051468-.7767715-.0036507-1.5535412-.0590477-2.3303127-.2081909-.7767706-.1375808-1.5535412-.3396873-2.3303118-.7268524z"/></g><g><path d="m48.6334534 29.7565784c-.9420471.3871689-1.8840942.5892754-2.8261414.7268524-.9420471.1491451-1.8840981.2045422-2.8261452.2081947-.9423523-.0012169-1.8843994-.0572224-2.8264465-.2051506-.9420471-.1369686-1.8840942-.3402939-2.8261414-.7298965.9420471-.3889942 1.8840942-.5923176 2.8261414-.7292881.9420471-.1485367 1.8840942-.2045422 2.8264465-.2051506.9420471.0036526 1.8840981.0590496 2.8261452.2075863.9420471.137579 1.8840943.3402939 2.8261414.7268524z" fill="#b2a3e1"/><g fill="#8a9bea"><path d="m48.6334534 34.7532349c-.7767715.3865585-1.5535431.5892754-2.3303108.7268524-.7767715.1485367-1.5535431.2039337-2.3303146.2075882-.7767715-.0012207-1.5535393-.0566139-2.3303108-.2051506-.7767715-.1369705-1.5535431-.3402939-2.3303146-.72929.7767715-.3896027 1.5535431-.592926 2.3303146-.7298965.7767715-.1479263 1.5535393-.2039337 2.3303108-.2051506.7767715.0036545 1.5535431.0590515 2.3303146.2081947.7767677.1369705 1.5535392.3396873 2.3303108.7268524z"/><path d="m48.6334534 39.7492828c-.5901871.3871689-1.1806793.5892754-1.7708664.7268562-.5901871.1485329-1.1803741.2039299-1.7705612.2075844-.5901909-.0006104-1.180378-.0566139-1.770565-.2045441-.5901871-.1369667-1.1803741-.3409004-1.7705612-.7298965.5901871-.3889923 1.1803741-.592926 1.7705612-.7298965.5901871-.1479263 1.1803741-.2039299 1.770565-.2051506.5901871.0036545 1.1803741.0590515 1.7705612.2081947.590187.1375809 1.1806793.3396874 1.7708664.7268524z"/><path d="m48.6334534 44.7453346c-.7767715.3871651-1.5535431.5892715-2.3303108.7268524-.7767715.1491432-1.5535431.2045403-2.3303146.2081909-.7767715-.0012169-1.5535393-.0572205-2.3303108-.2051468-.7767715-.1369705-1.5535431-.3402939-2.3303146-.7298965.7767715-.3889961 1.5535431-.5923195 2.3303146-.72929.7767715-.1485367 1.5535393-.2045403 2.3303108-.2051506.7767715.0036545 1.5535431.0590515 2.3303146.2075844.7767677.1375809 1.5535392.3402939 2.3303108.7268562z"/><path d="m48.6334534 49.7419891c-3.0315971.3865585-6.0628891.5892754-9.0941849.7268524-3.031292.149147-6.0625839.1887169-9.094183.2075882-3.0312939-.0164375-6.0625858-.0560074-9.0938797-.2051506-3.0312939-.1369705-6.062891-.3402939-9.0941839-.72929 3.0312929-.3896027 6.0628901-.592926 9.0941839-.7298965 3.0312939-.1485367 6.0625858-.1881027 9.0938797-.2045403 3.031599.018261 6.062891.0584412 9.094183.2075844 3.0312958.1375809 6.0625877.3396874 9.0941849.7268524z"/></g></g></g></g><g><g><g><path d="m39.7715721 10.7840414s24.8151054.6174936 26.0074196 2.8130255-2.4221878 17.4647503-5.1979027 18.1319961c-2.7757187.6672459-23.1196289-1.1166229-23.1196289-1.1166229z" fill="#fa990e"/><path d="m57.1091194 26.3724728h-16.3247719c-1.2221489 0-2.2128983-.9907475-2.2128983-2.2128983v-18.0784054c0-1.2221503.9907494-2.212899 2.2128983-2.212899h16.3247719c1.2221527 0 2.2129021.9907486 2.2129021 2.212899v18.0784054c0 1.2221508-.9907494 2.2128983-2.2129021 2.2128983z" fill="#d1dafe"/></g></g><g fill="#8a9bea"><ellipse cx="48.947" cy="6.997" rx="7.866" ry=".375"/><ellipse cx="48.947" cy="9.917" rx="7.866" ry=".375"/><ellipse cx="48.947" cy="12.838" rx="7.866" ry=".375"/><ellipse cx="48.947" cy="15.496" rx="7.866" ry=".375"/></g><path d="m35.3520126 13.254015h5.4497108c.5700264 0 1.101593.2875395 1.4135475.7646294l1.8346901 2.8058949c.2920876.4467087.7781448.729063 1.3108864.7615051l17.2914238 1.0530033c.9492569.0578079 1.663311.8788071 1.5810356 1.8262558-.225502 2.5965939-.8121605 7.5153885-2.1687508 10.3952866-.2693329.5717659-.8617554.924427-1.4937096.9338436-8.5231285.1270046-16.6101761.0395908-23.9629021-.4093437-.7891922-.0481853-1.4402809-.6394138-1.5666237-1.4199142-.7960548-4.9177074-1.2487183-9.9123669-1.3869781-14.9769239-.0259169-.9493439.7479707-1.7342369 1.6976701-1.7342369z" fill="#fbad3e"/><g fill="#fa990e"><ellipse cx="55.526" cy="26.913" rx="4.543" ry=".533"/><ellipse cx="53.865" cy="29.184" rx="2.882" ry=".533"/></g></g></g></svg>