<svg id="Layer_1" enable-background="new 0 0 68 68" viewBox="0 0 68 68" xmlns="http://www.w3.org/2000/svg"><g><g><g><g><path d="m56.7877235 14.5964813-4.598217 46.5494766c-.2667274 2.6886559-2.5393982 4.7479935-5.2387314 4.7479935h-36.7338905c-3.1155763 0-5.5479183-2.688652-5.2384706-5.782608l4.5982156-46.5494804c.2667294-2.6891737 2.5287189-4.7479906 5.2384701-4.7479906h36.7341537c3.1046353-.0000001 5.5372372 2.688652 5.2384701 5.7826089z" fill="#fa990e"/></g><g><path d="m53.9533157 14.5964813-4.598217 46.5494766c-.2667274 2.6886559-2.5393982 4.7479935-5.2387276 4.7479935h-36.7338929c-3.1155758 0-5.5479183-2.688652-5.2384706-5.782608l4.5982161-46.5494804c.2667294-2.6891737 2.5287189-4.7479906 5.2384701-4.7479906h36.7341537c3.1046334-.0000001 5.5372353 2.688652 5.2384682 5.7826089z" fill="#fbad3e"/></g><g><path d="m7.3827386 61.6262817c-.3667526 0-.6053505-.1784286-.740799-.3282013-.1344066-.148735-.2875676-.4019203-.2516217-.761898l4.5984764-46.5546875c.051054-.5123606.4771957-.899951.9918995-.899951h36.7341537c.3589363 0 .5954514.177906.7308998.3268995.1380539.1518583.2948608.4099922.2594337.7775259l-4.5969124 46.5403633c-.0500107.5040245-.4860497.8999519-.9918976.8999519h-36.7336324z" fill="#fff"/></g><g><path d="m45.5015221 56.7846107-.3898926 3.9404297c-.0500488.5097656-.4902344.8999023-1 .8999023h-36.72998c-.3701172 0-.6000977-.1801758-.7402344-.3300781-.1298828-.1499023-.2900391-.3999023-.25-.7602539l4.6000981-46.5498047c.0500488-.5200195.4699707-.8999023.9899902-.8999023h10.9499502c-6.619873 4.4301758-10.9799795 12.0600586-10.9799795 20.7202148 0 13.699707 10.9101553 24.7998047 24.380127 24.7998047 3.2399893 0 6.3398428-.6499023 9.169921-1.8203125z" fill="#edebeb"/></g><g><g><path d="m39.0128784 8.3646889h-16.2700176l1.7299805-4.6298828c.420166-1.1098633 1.4699707-1.8500978 2.6599121-1.8500978h7.4999981c1.1801758 0 2.2402344.7402345 2.6501465 1.8500978z" fill="#51504f"/></g></g><g><g><path d="m39.0122147 8.363677h-16.2700196l.8000488-2.1396484c1.2998047.2197266 2.75.3398438 4.2800293.3398438 4.3098145 0 8.0197754-.9697266 9.6398926-2.3598633z" fill="#3a3a3a"/></g></g><g><path d="m43.5622635 8.823638v2.6904297c0 3.0498047-2.4702148 5.5097647-5.5 5.5097647h-14.3601074c-3.0300293 0-5.5-2.45996-5.5-5.5097647v-2.6904297c0-1.0498047.8400879-1.8896484 1.8701172-1.8896484h21.5998535c1.0500488-.0000001 1.8901367.8398437 1.8901367 1.8896484z" fill="#51504f"/></g><g><g><path d="m40.6721268 13.7640676c0 .4296875-4.3798828.7900391-9.7900391.7900391-5.4099121 0-9.7900391-.3603516-9.7900391-.7900391 0-.4404297 4.380127-.800293 9.7900391-.800293 5.4101563.0000001 9.7900391.3598634 9.7900391.800293z" fill="#3a3a3a"/></g><g><ellipse cx="30.882" cy="10.204" fill="#3a3a3a" rx="9.79" ry=".79"/></g></g></g><g><g><g><path d="m31.4560051 23.2257652c-1.7432556-.118309-3.4940834-.2734089-5.237339-.5392437 1.7506485-.1918907 3.508873-.2806225 5.2595215-.3249893 1.7506485-.0515785 3.5014763-.0443649 5.2523079-.0147877 1.7506485.0443649 3.501297.0959454 5.2447319.2218285 1.7506485.1179485 3.5014801.2730503 5.244915.5388832-1.7582245.1922531-3.508873.2809849-5.2597046.3253498-1.7506485.0515804-3.5014763.0440063-5.2523079.0147896-1.7506485-.0443668-3.501297-.1035214-5.2521248-.2218304z" fill="#8a9bea"/></g><g><path d="m35.2087097 29.3201237c1.01194.0959454 2.0240593.236618 3.0359955.4876633-1.0193329.2142563-2.0388451.3102016-3.0507851.3765697-1.0195122.0667286-2.0314522.0667286-3.0435715.0591545-1.0119381-.0295773-2.0240574-.0735817-3.0359974-.1846771-1.0121193-.1031609-2.0240574-.2438316-3.0361767-.4876652 1.0195141-.2138939 2.038847-.3101997 3.0509663-.3765678 1.0119381-.0663681 2.0314522-.0663681 3.0433903-.0591545 1.0121193.0295772 2.0240593.0739421 3.0361786.1846771z" fill="#8a9bea"/></g><g><path d="m41.90868 26.0107174c1.7508278.118309 3.4940834.2734089 5.2449112.5320301-1.7580414.1994648-3.508873.2878361-5.2597008.3322029-1.7506485.0519409-3.501297.0371513-5.2521286.0147877-1.7508278-.0440044-3.5014763-.103159-5.2521248-.2286816-1.7508297-.1110954-3.4942646-.2661953-5.2375202-.5320301 1.7506504-.1922531 3.5014782-.2806244 5.2595215-.3249893 1.7508297-.0591545 3.5014782-.0443668 5.252306-.0223637 1.7506523.0443669 3.4940872.1035214 5.2447357.229044z" fill="#8a9bea"/></g><g><path d="m29.636219 51.8328362c-1.7432556-.118309-3.4940834-.273407-5.237339-.5392418 1.7506485-.1918945 3.508873-.2806244 5.2595215-.3249893 1.7506485-.0515823 3.5014801-.0443687 5.2523079-.0147896 1.7506485.0443649 3.501297.0959473 5.2447319.2218285 1.7506485.1179504 3.5014801.2730484 5.244915.5388832-1.7582245.1922531-3.508873.280983-5.2597046.3253517-1.7506485.0515785-3.5014763.0440025-5.2523041.0147858-1.7506523-.044365-3.5012989-.1035195-5.2521286-.2218285z" fill="#8a9bea"/></g><g><path d="m33.3889236 57.9271927c1.01194.0959473 2.0240593.236618 3.0359955.4876671-1.0193329.2142525-2.0388451.3101997-3.0507851.3765678-1.0195122.0667305-2.0314522.0667305-3.0435715.0591545-1.0119381-.0295792-2.0240574-.0735817-3.0359974-.1846771-1.0121193-.1031609-2.0240574-.2438316-3.0361767-.4876633 1.0195141-.2138939 2.038847-.3102036 3.0509663-.3765717 1.0119381-.0663681 2.0314522-.0663681 3.0433903-.0591545 1.0121193.0295792 2.0240594.0739442 3.0361786.1846772z" fill="#8a9bea"/></g><g><path d="m40.0888939 54.6177864c1.7508278.118309 3.4940834.2734108 5.2449112.532032-1.7580414.1994667-3.508873.287838-5.2597008.3322029-1.7506485.0519409-3.501297.0371513-5.2521286.0147896-1.7508278-.0440063-3.5014763-.1031609-5.2521248-.2286835-1.7508297-.1110954-3.4942646-.2661972-5.2375202-.532032 1.7506504-.1922493 3.5014782-.2806206 5.2595215-.3249893 1.7508297-.0591545 3.5014782-.0443649 5.2523098-.0223618 1.7506485.044365 3.4940834.1035195 5.2447319.2290421z" fill="#8a9bea"/></g><g><path d="m23.2318439 22.7350788-.7019176 6.2790356c-.0885525.8198662-.7830772 1.433054-1.6029434 1.433054h-6.9596901c-.9603596 0-1.7138577-.8346558-1.6029434-1.7876205l.6943445-6.2866096c.0885515-.8126526.7830753-1.433054 1.6029425-1.433054h6.9596901c.9677543-.0000001 1.7138576.8346556 1.6105174 1.7951945z" fill="#aec46e"/></g><g><path d="m22.9756279 25.0653267-.4432983 3.9518108c-.0885506.8202267-.7830753 1.4334145-1.6029415 1.4334145h-6.9585915c-.9603586 0-1.7138577-.8346558-1.6029425-1.7876205l.1403112-1.2487373c1.1818275.7610741 2.5706968 1.1967964 4.0555115 1.1967964 2.6666413-.0000001 5.015688-1.4034768 6.4119511-3.5456639z" fill="#617f4d"/></g><g><path d="m29.636219 37.9573631c-1.7432556-.118309-3.4940834-.273407-5.237339-.5392418 1.7506485-.1918907 3.508873-.2806244 5.2595215-.3249893 1.7506485-.0515785 3.5014801-.0443649 5.2523079-.0147896 1.7506485.0443687 3.501297.0959473 5.2447319.2218323 1.7506485.1179466 3.5014801.2730484 5.244915.5388794-1.7582245.1922531-3.508873.2809868-5.2597046.3253517-1.7506485.0515785-3.5014763.0440063-5.2523041.0147896-1.7506523-.0443687-3.5012989-.1035233-5.2521286-.2218323z" fill="#8a9bea"/></g><g><path d="m33.3889236 44.0517235c1.01194.0959435 2.0240593.236618 3.0359955.4876633-1.0193329.2142563-2.0388451.3101997-3.0507851.3765678-1.0195122.0667305-2.0314522.0667305-3.0435715.0591545-1.0119381-.0295753-2.0240574-.0735817-3.0359974-.1846771-1.0121193-.1031609-2.0240574-.2438316-3.0361767-.4876633 1.0195141-.2138939 2.038847-.3101997 3.0509663-.3765678 1.0119381-.0663681 2.0314522-.0663681 3.0433903-.0591545 1.0121193.0295753 2.0240594.0739402 3.0361786.1846771z" fill="#8a9bea"/></g><g><path d="m40.0888939 40.7423172c1.7508278.118309 3.4940834.273407 5.2449112.5320282-1.7580414.1994667-3.508873.287838-5.2597008.3322029-1.7506485.0519409-3.501297.0371513-5.2521286.0147896-1.7508278-.0440063-3.5014763-.1031609-5.2521248-.2286835-1.7508297-.1110954-3.4942646-.2661934-5.2375202-.5320282 1.7506504-.1922531 3.5014782-.2806244 5.2595215-.3249893 1.7508297-.0591545 3.5014782-.0443649 5.2523098-.0223656 1.7506485.0443688 3.4940834.1035233 5.2447319.2290459z" fill="#8a9bea"/></g><g><path d="m21.4120579 37.4666786-.7019176 6.2790337c-.0885525.8198662-.7830772 1.4330559-1.6029434 1.4330559h-6.9596901c-.9603586 0-1.7138577-.8346558-1.6029425-1.7876205l.6943436-6.2866096c.0885515-.8126526.7830763-1.4330559 1.6029434-1.4330559h6.9596891c.9677543-.0000001 1.7138576.8346556 1.6105175 1.7951964z" fill="#aec46e"/></g><g><path d="m21.1558418 39.7969246-.4432983 3.9518127c-.0885506.8202248-.7830753 1.4334145-1.6029415 1.4334145h-6.9585915c-.9603586 0-1.7138577-.8346558-1.6029425-1.7876205l.1403112-1.2487373c1.1818285.7610741 2.5706968 1.1967964 4.0555105 1.1967964 2.6666423-.0000001 5.015689-1.4034768 6.4119521-3.5456658z" fill="#617f4d"/></g><g><path d="m19.7562351 51.9338684-.7019176 6.2790337c-.0885525.8198662-.7830772 1.4330521-1.6029434 1.4330521h-6.9596901c-.9603586 0-1.7138577-.8346558-1.6029434-1.7876205l.6943445-6.2866096c.0885515-.8126526.7830763-1.4330521 1.6029434-1.4330521h6.9596891c.9677544-.0000001 1.7138577.8346556 1.6105175 1.7951964z" fill="#aec46e"/></g><g><path d="m19.405014 55.0792313-.3471737 3.1323013c-.0885506.8198662-.7828941 1.4330559-1.6029415 1.4330559h-6.9659853c-.9603596 0-1.7138577-.8346558-1.6029434-1.7876205l.1918917-1.7580452c1.2189798.812294 2.8145285 1.2999573 4.5653582 1.2999573 2.3934125-.0000001 4.5060224-.9161721 5.761794-2.3196488z" fill="#617f4d"/></g></g></g><g><g><circle cx="51.561" cy="51.793" fill="#4269c4" r="14.322"/></g><g><circle cx="51.561" cy="51.793" fill="#d1dafe" r="10.871"/></g><g><circle cx="51.561" cy="51.793" fill="#4269c4" r="7.42"/></g><g><circle cx="51.561" cy="51.793" fill="#d1dafe" r="3.969"/></g><g><path d="m63.3328629 37.667244 1.1637726.4972992-2.0265503.8758621c-.0782013.1302338-.1698074.248333-.2483292.3792038-.9936447 1.5295677-2.0788994 2.9806137-3.1900063 4.4188919-1.1245117 1.4121056-2.2748795 2.8108063-3.5171738 4.1443901-1.2288895 1.3335838-2.5232162 2.640995-3.9484062 3.8047676.7976608-1.6738434 1.7389565-3.2295837 2.7456894-4.7457466.9936447-1.5167999 2.0788956-2.9684868 3.1772385-4.4195328 1.1372795-1.4114685 2.2879677-2.8108025 3.5296249-4.1443901.0657501-.0651131.130867-.1436348.1963005-.2087517 0-.0395775.0130882-.0657501.0261765-.1046944l.9805565-2.2624321.3530273.8241539c0-.0785217.0130844-.1704483.0523453-.248333l.9805603-2.2751999.5097504 1.2027168c.2745056-.248333.5624161-.4966621.8496857-.7315865-.1828995.3919678-.3788834.7711678-.5882721 1.1503677l1.5037155.6537018-2.2748795.9805603c-.0523491.0261726-.1177826.0389404-.1701317.0389404-.0392608.0657541-.065113.1181032-.1046943.1698115z" fill="#3a3a3a"/></g></g></g><g><path d="m20.4213181 23.3143959c-.2399902 1.0400391-.7302246 1.8300781-1.2700195 2.5703125-.5600586.7197266-1.2199707 1.3500977-1.9699707 1.8798828l-.25.1801758c-.3100586.2197266-.7299805.1499023-.9501944-.1601563l-.0097656-.0200195c-.4401855-.6699219-.8601074-1.3598633-1.0600586-2.2700195.5498047.1201172 1.0200195.3198242 1.4499502.5600586.4299316-.5400391.9299316-1.0297852 1.4899902-1.4697266.7399902-.540039 1.5300293-1.0302734 2.5700684-1.2705078z" fill="#fff"/></g><g><path d="m18.7326775 38.2021599c-.2399902 1.0400391-.7302246 1.8300781-1.2700195 2.5703125-.5600586.7197266-1.2199707 1.3500977-1.9699717 1.8798828l-.25.1801758c-.3100586.2197266-.7299805.1499023-.9501953-.1601563l-.0097656-.0200195c-.4401855-.6699219-.8601074-1.3598633-1.0600586-2.2700195.5498047.1201172 1.0200195.3198242 1.4499512.5600586.4299316-.5400391.9299316-1.0297852 1.4899912-1.4697266.7399901-.5400391 1.5300292-1.0302734 2.5700683-1.2705078z" fill="#fff"/></g><g><path d="m17.044035 53.0899239c-.2399902 1.0400391-.7302246 1.8300781-1.2700195 2.5703125-.5600586.7197266-1.2199707 1.3500977-1.9699707 1.8798828l-.25.1801758c-.3100586.2197266-.7299805.1499023-.9501953-.1601563l-.0097656-.0200195c-.4401855-.6699219-.8601074-1.3598633-1.0600586-2.2700195.5498047.1201172 1.0200195.3198242 1.4499512.5600586.4299316-.5400391.9299316-1.0297852 1.4899902-1.4697266.7399901-.5400391 1.5300292-1.0302735 2.5700683-1.2705078z" fill="#fff"/></g></g></svg>