<svg id="Layer_1" enable-background="new 0 0 68 68" height="512" viewBox="0 0 68 68" width="512" xmlns="http://www.w3.org/2000/svg"><g><g><g><path d="m66 34c0 17.6799927-14.3300171 32-32 32s-32-14.3200073-32-32c0-5.4800415 1.3699951-10.6199951 3.7999878-15.1199951.1099854-.2200317.2300415-.4299927.3500366-.6500244 5.5-9.6900025 15.9099732-16.2299805 27.8499756-16.2299805s22.3499756 6.539978 27.8499756 16.2299805c.1200562.2200317.2400513.4299927.3500366.6500244 2.4299927 4.5 3.7999878 9.6399536 3.7999878 15.1199951z" fill="#0fe1c2"/><path d="m62.2000122 18.8800049c-6.710022 8.0599975-16.8500366 13.1900024-28.2000122 13.1900024s-21.4899902-5.1300049-28.2000122-13.1900024c.1099854-.2200317.2300415-.4299927.3500366-.6500244 5.5-9.6900025 15.9099732-16.2299805 27.8499756-16.2299805s22.3499756 6.539978 27.8499756 16.2299805c.1200561.2200317.2400513.4299926.3500366.6500244z" fill="#66fade"/></g><g><g><path d="m34.187027 31.3806858-.1568489.4480496-.1679917-.4480496z" fill="#fed110"/><path d="m47.2377129 55.0734711h-4.3352776c-.2128448 0-.4033356-.1344223-.4816895-.3360558l-8.3905678-22.90868.1568489-.4480495h4.9626045l8.4801331 23.1438808c.0896378.2688447-.1007804.5489045-.3920516.5489045z" fill="#313b5a"/><path d="m33.8621864 31.3806858.1679916.4480495-8.4017105 22.90868c-.0672112.2016335-.2688427.3360558-.4816895.3360558h-4.3240643c-.2912693 0-.4929028-.2800598-.3920517-.5489044l8.480135-23.1438808h4.9513894z" fill="#313b5a"/><path d="m34.187027 31.3806858-.1568489.4480496-.1679917-.4480496z" fill="#fed110"/></g><g><path d="m48.7966728 36.5799561c-.2200317.3200073-.4400024.6300049-.6799927.9400024-.4700317.6200562-.9899902 1.2200317-1.5599976 1.7900391-6.8800049 6.8800049-18.119997 6.8300171-25.0000019-.0499878-6.9299917-6.9300537-6.9299917-18.1199951-.0499878-25 6.9299927-6.9300537 18.119997-6.9300537 25.0499897 0 6.0299683 6.039978 6.8099976 15.4299926 2.2399903 22.3199463z" fill="#ff3445"/><path d="m46.7375488 26.8544369c0 6.9797192-5.729641 12.6575375-12.7099953 12.6575375-7.0312252 0-12.7093601-5.6778183-12.7093601-12.6575375 0-7.032177 5.6781349-12.7096777 12.7093601-12.7096777 6.9803544 0 12.7099953 5.6775007 12.7099953 12.7096777z" fill="#fff"/><path d="m41.6768112 26.8440552c0 4.2005367-3.4482117 7.6175613-7.6491318 7.6175613-4.2315331 0-7.6487484-3.4170246-7.6487484-7.6175613 0-4.2321053 3.4172153-7.6489391 7.6487484-7.6489391 4.2009201-.0000001 7.6491318 3.4168338 7.6491318 7.6489391z" fill="#ff3445"/><path d="m36.3799095 26.8331909c0 1.2916603-1.0603218 2.342392-2.3520966 2.342392-1.3011932 0-2.3519821-1.0507317-2.3519821-2.342392 0-1.3013668 1.0507889-2.3520393 2.3519821-2.3520393 1.2917748 0 2.3520966 1.0506725 2.3520966 2.3520393z" fill="#fff"/></g></g><path d="m52.7394447 57.9128723c0 .6629143-8.3720322 1.2006607-18.6960831 1.2006607s-18.6960793-.5377464-18.6960793-1.2006607c0-.6629524 8.3720303-1.1932831 18.6960793-1.1932831s18.6960831.5303307 18.6960831 1.1932831z" opacity=".15"/></g><g opacity=".15"><path d="m48.7966728 36.5799561c-.2200317.3200073-.4400024.6300049-.6799927.9400024l-14.4000244-10.289978c-.1300049-.0899659-.2099609-.2299805-.2299804-.3800049-.0300293-.1400146.0100098-.2999878.0999756-.4299927.1799927-.2600098.5499878-.3200073.8099976-.1300049z" fill="#20273a"/></g><g><g><path d="m56.6027718 29.5317307-5.4366608.0000419-2.1616211-2.7760258 5.4366608-.0000419z" fill="#1076e5"/></g><g><path d="m56.6028023 23.9840889-5.436657.0000439-2.1616554 2.7760601 5.4366608-.0000439z" fill="#1076e5"/></g></g><g><path d="m33.646946 27.1691208c-.1045074-.1045055-.169075-.2489491-.169075-.4087029 0-.3195076.258934-.5784416.5784416-.5784416l21.5484352-.0003376c.3195076 0 .5777779.2582684.5777779.577774 0 .3195076-.258934.5784416-.5784416.5784416l-21.5484353.0003377c-.1597557 0-.3041992-.0645657-.4087028-.1690712z" fill="#20273a"/></g></g></svg>