<svg id="Layer_1" enable-background="new 0 0 68 68" viewBox="0 0 68 68" xmlns="http://www.w3.org/2000/svg"><g><path d="m61.7611084 21.3769379c0 1.8798828-.0800781 3.7695313-.130127 5.6499023-.1599121 3.7700195-.3601074 7.5395508-.8498535 11.3100586-.4799805-3.7705078-.6801758-7.5400391-.8400879-11.3100586-.0500488-1.8803711-.130127-3.7700195-.130127-5.6499023-.0200195-1.5703125-.0200195-3.1303711-.0097656-4.7001953-2.4602051-.0302734-4.9301758-.1298828-7.3901367-.25-2.7900391-.1601563-5.5800781-.3500977-8.3701172-.7099609 2.7900391-.3500977 5.5800781-.5400391 8.3701172-.7001953 2.7900391-.1396484 5.5800781-.2397461 8.3701172-.2700195.5297852 0 .9699707.4199219.9799805.9501953v.0200195c.0200195 1.8896484.0297852 3.7700194 0 5.6601562z" fill="#aec46e"/><g><g><g><path d="m48.4269218 53.8736763c-.0795021.578392-.3972282 1.1002769-.8850441 1.4293633l-15.2147293 10.4200134c-.4991894.3418808-1.1556549-.1046219-1.027792-.6959915.9905415-4.5813332 1.1189556-7.6835747-.3910389-10.5719337-9.099926-4.6670151-18.3092766-7.6702652-27.6656494-8.8612099-.682234-.0868378-.9275038-.9571342-.3723247-1.3630409 4.8440084-3.5415955 10.3233509-6.4679756 16.3966694-8.8372955.374239-.1479225.7828274-.1817169 1.179781-.1024933 10.4748878 2.1367111 19.6341534 4.7761803 27.1775188 8.0841255.425087.186409.7265701.5781746.7933273 1.0375099.4849442 3.3367729.4635742 5.8998832.0092819 9.4609527z" fill="#fa990e"/><path d="m48.4228172 53.8769264c-.071434.5710068-.3926506 1.0971565-.8830833 1.4273033l-15.208828 10.4188461c-.4995766.3388596-1.1596565-.1071472-1.0346527-.6960144.9900093-4.5850601 1.1237259-7.6800919-.3837223-10.5704155l17.4299259-10.3295555c.0357132.0892906.0535736.1877251.0714302.2857246.4904328 3.3358918.4638634 5.8960687.0089302 9.4641114z" fill="#e0860e"/><path d="m32.7839088 65.032547c-.1806679.6776581-.8675938 1.083992-1.5540791.9397278-9.9624825-2.1588058-19.3562546-5.0578156-27.9283619-9.0491486-.6635468-.30896-1.1218145-.9501572-1.1932542-1.6786118-.3703122-3.7759895-.2888206-7.1810951.2892246-10.1804886.1266203-.6864853.7500162-1.1744385 1.4457667-1.0932617 9.4726553 1.117363 18.8670883 4.1767311 28.0804234 8.8183708.3337612.168148.6133099.4425087.7601414.7861824 1.7018542 3.9833642.7229571 9.1822129.1001391 11.4572297z" fill="#fbad3e"/><g><g><g fill="#fff"><ellipse cx="29.482" cy="58.612" rx=".786" ry="3.742"/><ellipse cx="26.311" cy="57.686" rx=".786" ry="3.742"/><ellipse cx="23.141" cy="56.759" rx=".786" ry="3.742"/><ellipse cx="19.971" cy="55.833" rx=".786" ry="3.742"/></g></g><g><circle cx="8.013" cy="51.338" fill="#912010" r="2.985"/><circle cx="6.964" cy="51.338" fill="#b53016" r="3.067"/><circle cx="7.203" cy="51.433" fill="#912010" r="2.057"/><circle cx="6.964" cy="51.149" fill="#fff" r=".855"/></g><g><circle cx="14.484" cy="53.353" fill="#617f4d" r="1.921"/><circle cx="13.809" cy="53.353" fill="#aec46e" r="1.974"/><circle cx="13.963" cy="53.414" fill="#617f4d" r="1.324"/><circle cx="13.809" cy="53.231" fill="#fff" r=".55"/></g></g></g><g><path d="m48.4269218 37.2482872c-.0795021.5783958-.3972282 1.1002808-.8850441 1.4293671l-15.2147293 10.4200172c-.4991894.341877-1.1556549-.1046257-1.027792-.6959953.9905415-4.5813332 1.1189556-7.6835747-.3910389-10.5719337-9.099926-4.6670151-18.3092766-7.6702671-27.6656494-8.861208-.682234-.0868397-.9275038-.9571342-.3723247-1.3630428 4.8440084-3.5415936 10.3233509-6.4679775 16.3966694-8.8372955.374239-.1479225.7828274-.1817169 1.179781-.1024933 10.4748878 2.1367111 19.6341534 4.7761784 27.1775188 8.0841255.425087.1864109.7265701.5781746.7933273 1.0375118.4849442 3.336771.4635742 5.8998813.0092819 9.460947z" fill="#fa990e"/><path d="m48.4228172 37.2515411c-.071434.5710068-.3926506 1.0971565-.8830833 1.4273033l-15.208828 10.4188423c-.4995766.3388596-1.1596565-.1071472-1.0346527-.6960106.9900093-4.5850601 1.1237259-7.6800919-.3837223-10.5704155l17.4299259-10.3295536c.0357132.0892887.0535736.1877232.0714302.2857227.4904328 3.3358937.4638634 5.8960687.0089302 9.4641114z" fill="#e0860e"/><path d="m32.7839088 48.4071617c-.1806679.6776619-.8675938 1.0839958-1.5540791.9397278-9.9624825-2.1588058-19.3562546-5.0578156-27.9283619-9.0491486-.6635468-.30896-1.1218145-.9501572-1.1932542-1.6786118-.3703122-3.7759895-.2888206-7.1810951.2892246-10.1804886.1266203-.6864872.7500162-1.1744385 1.4457667-1.0932598 9.4726553 1.1173592 18.8670883 4.1767273 28.0804234 8.8183689.3337612.168148.6133099.4425087.7601414.7861824 1.7018542 3.9833642.7229571 9.1822129.1001391 11.4572297z" fill="#fbad3e"/><g><g><g fill="#fff"><ellipse cx="29.482" cy="41.987" rx=".786" ry="3.742"/><ellipse cx="26.311" cy="41.061" rx=".786" ry="3.742"/><ellipse cx="23.141" cy="40.134" rx=".786" ry="3.742"/><ellipse cx="19.971" cy="39.208" rx=".786" ry="3.742"/></g></g><g><circle cx="8.013" cy="34.712" fill="#912010" r="2.985"/><circle cx="6.964" cy="34.712" fill="#b53016" r="3.067"/><circle cx="7.203" cy="34.808" fill="#912010" r="2.057"/><circle cx="6.964" cy="34.523" fill="#fff" r=".855"/></g><g><circle cx="14.484" cy="36.728" fill="#617f4d" r="1.921"/><circle cx="13.809" cy="36.728" fill="#aec46e" r="1.974"/><circle cx="13.963" cy="36.789" fill="#617f4d" r="1.324"/><circle cx="13.809" cy="36.606" fill="#fff" r=".55"/></g></g></g><g><path d="m48.4269218 20.6229038c-.0795021.5783939-.3972282 1.1002789-.8850441 1.4293671l-15.2147293 10.4200153c-.4991894.341877-1.1556549-.1046257-1.027792-.6959972.9905415-4.5813332 1.1189556-7.6835728-.3910389-10.5719318-9.0999259-4.6670151-18.3092775-7.6702672-27.6656486-8.861209-.682234-.0868387-.9275038-.9571342-.3723247-1.3630419 4.8440084-3.541594 10.3233509-6.467977 16.3966694-8.8372955.374239-.1479228.7828274-.1817179 1.179781-.1024933 10.4748878 2.1367116 19.6341534 4.7761788 27.1775188 8.0841255.425087.18641.7265701.5781746.7933273 1.0375109.4849434 3.336772.4635734 5.8998804.0092811 9.4609499z" fill="#fa990e"/><path d="m48.4228172 20.6261559c-.071434.5710087-.3926506 1.0971546-.8830833 1.4273033l-15.208828 10.4188423c-.4995766.3388596-1.1596565-.1071472-1.0346527-.6960125.9900093-4.5850563 1.1237259-7.68009-.3837223-10.5704136l17.4299259-10.3295536c.0357132.0892878.0535736.1877222.0714302.2857218.4904328 3.3358936.4638634 5.8960695.0089302 9.4641123z" fill="#e0860e"/><path d="m32.7839088 31.7817764c-.1806679.6776619-.8675938 1.0839958-1.5540791.9397278-9.9624825-2.1588078-19.3562546-5.0578175-27.9283619-9.0491486-.6635468-.30896-1.1218145-.9501591-1.1932542-1.6786137-.3703122-3.7759876-.2888206-7.1810923.2892246-10.1804876.1266203-.6864853.7500162-1.1744375 1.4457667-1.0932589 9.4726553 1.1173592 18.8670883 4.1767273 28.0804234 8.818367.3337612.168148.6133099.4425087.7601414.7861824 1.7018542 3.9833642.7229571 9.1822148.1001391 11.4572316z" fill="#fbad3e"/><g><g><g fill="#fff"><ellipse cx="29.482" cy="25.362" rx=".786" ry="3.742"/><ellipse cx="26.311" cy="24.435" rx=".786" ry="3.742"/><ellipse cx="23.141" cy="23.509" rx=".786" ry="3.742"/><ellipse cx="19.971" cy="22.582" rx=".786" ry="3.742"/></g></g><g><circle cx="8.013" cy="18.087" fill="#912010" r="2.985"/><circle cx="6.964" cy="18.087" fill="#b53016" r="3.067"/><circle cx="7.203" cy="18.182" fill="#912010" r="2.057"/><circle cx="6.964" cy="17.898" fill="#fff" r=".855"/></g><g><circle cx="14.484" cy="20.102" fill="#617f4d" r="1.921"/><circle cx="13.809" cy="20.102" fill="#aec46e" r="1.974"/><circle cx="13.963" cy="20.164" fill="#617f4d" r="1.324"/><circle cx="13.809" cy="19.981" fill="#fff" r=".55"/></g></g></g></g></g><path d="m43.386 56.044h8.043v8.11h-8.043z" fill="#4269c4"/><path d="m51.4156647 59.4303856.0133209-3.3861427h-8.043148v5.4966774z" fill="#255299"/><path d="m66.1164322 35.7196655v19.6096458c0 1.9341011-1.567894 3.5019989-3.5019989 3.5019989h-30.1180878c-1.934103 0-3.5020027-1.5678978-3.5020027-3.5019989v-19.6096458c0-1.9341049 1.5678997-3.5020027 3.5020027-3.5020027h30.1180878c1.9341049 0 3.5019989 1.5678978 3.5019989 3.5020027z" fill="#4269c4"/><path d="m63.5781746 35.0732079v20.9025574c0 .1713448-.1395874.3172836-.3172836.3172836h-31.4110032c-.1776962 0-.3172817-.1459389-.3172817-.3172836v-20.9025574c0-.1778526.1395855-.3172836.3172817-.3172836h31.4110032c.1776962-.0000001.3172836.1394309.3172836.3172836z" fill="#fff"/><ellipse cx="47.528" cy="64.262" fill="#255299" rx="10.195" ry="1.668"/><circle cx="60.286" cy="16.034" fill="#617f4d" r="2.688"/><path d="m60.6049919 48.850071c0 2.6605301-2.1540794 4.8215332-4.8146133 4.8215332-1.7354965 0-14.9168205 0-16.4630547 0-2.6606979 0-4.821537-2.1610031-4.821537-4.8215332 0-2.6605339 2.1608391-4.821537 4.821537-4.821537.0268707 0 .0539093 0 .0809479.0069237.5334892-3.7611465 3.7748299-6.6580887 7.6846809-6.6580887 3.9434853 0 7.205101 2.9440918 7.6980362 6.7593155.3241196-.0741882.654995-.1081505.9993896-.1081505 2.660534-.0000001 4.8146134 2.161003 4.8146134 4.821537z" fill="#d1dafe"/><g><g fill="#51504f"><path d="m53.8977432 48.7368011-1.8200684 1.4199219c-.1000977.0800781-.2199707.1201172-.3398438.1201172-.1601563 0-.3200684-.0703125-.4401855-.2104492-.079834-.1196289-.0998535-.2197266-.1101074-.2895508l-.2197266-2.300293 1 1.2900391c.1999512-.7998047.2197266-1.6201172.0598145-2.3896484-.1899414-.9101563-.6499023-1.7802734-1.3098145-2.4404297-.670166-.6699219-1.5400391-1.1298828-2.4401855-1.3095703-.9599609-.2001953-1.9799805-.1201172-2.9499512.2294922l-.7199707.2705078.5700684-.5205078c.829834-.75 2.0400391-1.1396484 3.2399902-1.0498047 1.1398926.0498047 2.3098145.5898438 3.2099609 1.4702148.869873.8896484 1.4099121 2.0600586 1.4699707 3.2197266.0700684.9199219-.1499023 1.8598633-.6098633 2.6303711z"/><path d="m49.6777725 51.2568207.6799316-.1503906-.5600586.4101563c-.6899414.5-1.579834.7700195-2.5100098.7700195-.1799316 0-.3598633-.0097656-.5400391-.0297852-1.0600586-.1201172-2.0998535-.6201172-2.9199219-1.4199219-.7900391-.8100586-1.3000488-1.840332-1.4199219-2.9204102-.1000977-.8295898.0297852-1.659668.3498535-2.3696289l-1.5500488.1396484 1.8400879-1.409668c.1000977-.090332.2399902-.1303711.3898926-.1103516.1501465.0200195.2802734.090332.380127.2104492.0700684.0898438.1101074.1894531.1101074.2998047l.2199707 2.2797852-.8500977-1.0898438c-.119873 1.5498047.4001465 3.0200195 1.4499512 4.0600586 1.220215 1.2197267 3.0600587 1.7197267 4.9301759 1.3300783z"/></g></g></g></svg>